%TF.GenerationSoftware,KiCad,Pcbnew,8.0.8+1*%
%TF.CreationDate,2025-01-22T08:14:43-05:00*%
%TF.ProjectId,gnssBoard,676e7373-426f-4617-9264-2e6b69636164,rev?*%
%TF.SameCoordinates,Original*%
%TF.FileFunction,Soldermask,Bot*%
%TF.FilePolarity,Negative*%
%FSLAX46Y46*%
G04 Gerber Fmt 4.6, Leading zero omitted, Abs format (unit mm)*
G04 Created by KiCad (PCBNEW 8.0.8+1) date 2025-01-22 08:14:43*
%MOMM*%
%LPD*%
G01*
G04 APERTURE LIST*
G04 Aperture macros list*
%AMRoundRect*
0 Rectangle with rounded corners*
0 $1 Rounding radius*
0 $2 $3 $4 $5 $6 $7 $8 $9 X,Y pos of 4 corners*
0 Add a 4 corners polygon primitive as box body*
4,1,4,$2,$3,$4,$5,$6,$7,$8,$9,$2,$3,0*
0 Add four circle primitives for the rounded corners*
1,1,$1+$1,$2,$3*
1,1,$1+$1,$4,$5*
1,1,$1+$1,$6,$7*
1,1,$1+$1,$8,$9*
0 Add four rect primitives between the rounded corners*
20,1,$1+$1,$2,$3,$4,$5,0*
20,1,$1+$1,$4,$5,$6,$7,0*
20,1,$1+$1,$6,$7,$8,$9,0*
20,1,$1+$1,$8,$9,$2,$3,0*%
%AMFreePoly0*
4,1,207,0.335703,2.799821,0.344094,2.798802,0.670736,2.738943,0.678943,2.736920,0.995988,2.638125,1.003892,2.635128,1.306718,2.498837,1.314203,2.494909,1.598392,2.323111,1.605348,2.318309,1.866757,2.113508,1.873084,2.107902,2.107902,1.873084,2.113508,1.866757,2.318309,1.605348,2.323111,1.598392,2.494909,1.314203,2.498837,1.306718,2.635128,1.003892,2.638125,0.995988,
2.736920,0.678943,2.738943,0.670736,2.798802,0.344094,2.799821,0.335703,2.819872,0.004227,2.819992,-0.001057,2.817483,-0.167250,2.816981,-0.174631,2.802200,-0.296355,2.799821,-0.335702,2.798802,-0.344095,2.791695,-0.382867,2.776917,-0.504591,2.775393,-0.512907,2.746051,-0.631948,2.738944,-0.670735,2.736920,-0.678944,2.725190,-0.716583,2.695848,-0.835633,2.693333,-0.843704,
2.649859,-0.958333,2.638126,-0.995988,2.635128,-1.003893,2.618937,-1.039865,2.575467,-1.154489,2.571998,-1.162198,2.515021,-1.270754,2.498838,-1.306716,2.494908,-1.314204,2.474501,-1.347957,2.417531,-1.456509,2.413158,-1.463744,2.343505,-1.564652,2.323111,-1.598390,2.318308,-1.605350,2.293980,-1.636400,2.224342,-1.737291,2.219129,-1.743946,2.137820,-1.835724,2.113508,-1.866757,
2.107902,-1.873085,2.080017,-1.900968,1.998717,-1.992739,1.992739,-1.998717,1.900968,-2.080017,1.873085,-2.107902,1.866757,-2.113508,1.835724,-2.137820,1.743946,-2.219129,1.737291,-2.224342,1.636400,-2.293980,1.605350,-2.318308,1.598390,-2.323111,1.564652,-2.343505,1.463744,-2.413158,1.456509,-2.417531,1.347957,-2.474501,1.314204,-2.494908,1.306716,-2.498838,1.270754,-2.515021,
1.162198,-2.571998,1.154489,-2.575467,1.039865,-2.618937,1.003893,-2.635128,0.995988,-2.638126,0.958333,-2.649859,0.843704,-2.693333,0.835633,-2.695848,0.716583,-2.725190,0.678944,-2.736920,0.670735,-2.738944,0.631948,-2.746051,0.512907,-2.775393,0.504591,-2.776917,0.382867,-2.791695,0.344095,-2.798802,0.335702,-2.799821,0.296355,-2.802200,0.174631,-2.816981,0.166193,-2.817491,
0.043589,-2.817491,0.004227,-2.819872,-0.004227,-2.819872,-0.043589,-2.817491,-0.166193,-2.817491,-0.174631,-2.816981,-0.296355,-2.802200,-0.335702,-2.799821,-0.344095,-2.798802,-0.382867,-2.791695,-0.504591,-2.776917,-0.512907,-2.775393,-0.631948,-2.746051,-0.670735,-2.738944,-0.678944,-2.736920,-0.716583,-2.725190,-0.835633,-2.695848,-0.843704,-2.693333,-0.958333,-2.649859,-0.995988,-2.638126,
-1.003893,-2.635128,-1.039865,-2.618937,-1.154489,-2.575467,-1.162198,-2.571998,-1.270754,-2.515021,-1.306716,-2.498838,-1.314204,-2.494908,-1.347957,-2.474501,-1.456509,-2.417531,-1.463744,-2.413158,-1.564652,-2.343505,-1.598390,-2.323111,-1.605350,-2.318308,-1.636400,-2.293980,-1.737291,-2.224342,-1.743946,-2.219129,-1.835724,-2.137820,-1.866757,-2.113508,-1.873085,-2.107902,-1.900968,-2.080017,
-1.992739,-1.998717,-1.998717,-1.992739,-2.080017,-1.900968,-2.107902,-1.873085,-2.113508,-1.866757,-2.137820,-1.835724,-2.219129,-1.743946,-2.224342,-1.737291,-2.293980,-1.636400,-2.318308,-1.605350,-2.323111,-1.598390,-2.343505,-1.564652,-2.413158,-1.463744,-2.417531,-1.456509,-2.474501,-1.347957,-2.494908,-1.314204,-2.498838,-1.306716,-2.515021,-1.270754,-2.571998,-1.162198,-2.575467,-1.154489,
-2.618937,-1.039865,-2.635128,-1.003893,-2.638126,-0.995988,-2.649859,-0.958333,-2.693333,-0.843704,-2.695848,-0.835633,-2.725190,-0.716583,-2.736920,-0.678944,-2.738944,-0.670735,-2.746051,-0.631948,-2.775393,-0.512907,-2.776917,-0.504591,-2.791695,-0.382867,-2.798802,-0.344095,-2.799821,-0.335702,-2.802200,-0.296355,-2.816981,-0.174631,-2.817483,-0.167250,-2.819992,-0.001057,-2.819872,0.004227,
-2.799821,0.335703,-2.798802,0.344094,-2.738943,0.670736,-2.736920,0.678943,-2.638125,0.995988,-2.635128,1.003892,-2.498837,1.306718,-2.494909,1.314203,-2.323111,1.598392,-2.318309,1.605348,-2.113508,1.866757,-2.107902,1.873084,-1.873084,2.107902,-1.866757,2.113508,-1.605348,2.318309,-1.598392,2.323111,-1.314203,2.494909,-1.306718,2.498837,-1.003892,2.635128,-0.995988,2.638125,
-0.678943,2.736920,-0.670736,2.738943,-0.344094,2.798802,-0.335703,2.799821,-0.004227,2.819872,0.004227,2.819872,0.335703,2.799821,0.335703,2.799821,$1*%
%AMFreePoly1*
4,1,117,0.335703,2.799821,0.344094,2.798802,0.670736,2.738943,0.678943,2.736920,0.995988,2.638125,1.003892,2.635128,1.306718,2.498837,1.314203,2.494909,1.598392,2.323111,1.605348,2.318309,1.866757,2.113508,1.873084,2.107902,2.107902,1.873084,2.113508,1.866757,2.318309,1.605348,2.323111,1.598392,2.494909,1.314203,2.498837,1.306718,2.635128,1.003892,2.638125,0.995988,
2.736920,0.678943,2.738943,0.670736,2.798802,0.344094,2.799821,0.335703,2.815893,0.070000,3.000000,0.070000,3.049497,0.049497,3.070000,0.000000,3.070000,-1.000000,3.069993,-1.001018,3.067455,-1.175600,3.066989,-1.182708,3.026454,-1.529512,3.025040,-1.537529,2.944517,-1.877282,2.942182,-1.885081,2.822760,-2.213188,2.819536,-2.220662,2.662832,-2.532687,2.658762,-2.539737,
2.466893,-2.831460,2.462032,-2.837989,2.237593,-3.105464,2.232007,-3.111385,1.978034,-3.350997,1.971798,-3.356230,1.691725,-3.564736,1.684924,-3.569209,1.382538,-3.743792,1.375264,-3.747445,1.054656,-3.885742,1.047006,-3.888526,0.712510,-3.988667,0.704589,-3.990545,0.360729,-4.051177,0.352644,-4.052122,0.004070,-4.072424,-0.004070,-4.072424,-0.352644,-4.052122,-0.360729,-4.051177,
-0.704589,-3.990545,-0.712510,-3.988667,-1.047006,-3.888526,-1.054656,-3.885742,-1.375264,-3.747445,-1.382538,-3.743792,-1.684924,-3.569209,-1.691725,-3.564736,-1.971798,-3.356230,-1.978034,-3.350997,-2.232007,-3.111385,-2.237593,-3.105464,-2.462032,-2.837989,-2.466893,-2.831460,-2.658762,-2.539737,-2.662832,-2.532687,-2.819536,-2.220662,-2.822760,-2.213188,-2.942182,-1.885081,-2.944517,-1.877282,
-3.025040,-1.537529,-3.026454,-1.529512,-3.066989,-1.182708,-3.067455,-1.175600,-3.069993,-1.001018,-3.070000,-1.000000,-3.070000,0.000000,-3.049497,0.049497,-3.000000,0.070000,-2.815893,0.070000,-2.799821,0.335703,-2.798802,0.344094,-2.738943,0.670736,-2.736920,0.678943,-2.638125,0.995988,-2.635128,1.003892,-2.498837,1.306718,-2.494909,1.314203,-2.323111,1.598392,-2.318309,1.605348,
-2.113508,1.866757,-2.107902,1.873084,-1.873084,2.107902,-1.866757,2.113508,-1.605348,2.318309,-1.598392,2.323111,-1.314203,2.494909,-1.306718,2.498837,-1.003892,2.635128,-0.995988,2.638125,-0.678943,2.736920,-0.670736,2.738943,-0.344094,2.798802,-0.335703,2.799821,-0.004227,2.819872,0.004227,2.819872,0.335703,2.799821,0.335703,2.799821,$1*%
G04 Aperture macros list end*
%ADD10C,0.000000*%
%ADD11RoundRect,0.070000X-0.175000X-1.000000X0.175000X-1.000000X0.175000X1.000000X-0.175000X1.000000X0*%
%ADD12FreePoly0,0.000000*%
%ADD13FreePoly1,0.000000*%
%ADD14C,1.140000*%
%ADD15RoundRect,0.070000X-0.750000X0.500000X-0.750000X-0.500000X0.750000X-0.500000X0.750000X0.500000X0*%
G04 APERTURE END LIST*
%TO.C,J2*%
G36*
X130075000Y-117500000D02*
G01*
X149925000Y-117500000D01*
X149925000Y-120000000D01*
X130075000Y-120000000D01*
X130075000Y-117500000D01*
G37*
D10*
G36*
X142906625Y-116295161D02*
G01*
X143078658Y-116378008D01*
X143227942Y-116497058D01*
X143346992Y-116646342D01*
X143429839Y-116818375D01*
X143472327Y-117004529D01*
X143475000Y-117100000D01*
X143475000Y-118000000D01*
X141775000Y-118000000D01*
X141775000Y-117100000D01*
X141777673Y-117004529D01*
X141820161Y-116818375D01*
X141903008Y-116646342D01*
X142022058Y-116497058D01*
X142171342Y-116378008D01*
X142343375Y-116295161D01*
X142529529Y-116252673D01*
X142720471Y-116252673D01*
X142906625Y-116295161D01*
G37*
%TD*%
D11*
%TO.C,J2*%
X149000000Y-118500000D03*
X148500000Y-118500000D03*
X148000000Y-118500000D03*
X147500000Y-118500000D03*
X147000000Y-118500000D03*
X146500000Y-118500000D03*
X146000000Y-118500000D03*
X145500000Y-118500000D03*
X145000000Y-118500000D03*
X144500000Y-118500000D03*
X144000000Y-118500000D03*
X141500000Y-118500000D03*
X141000000Y-118500000D03*
X140500000Y-118500000D03*
X140000000Y-118500000D03*
X139500000Y-118500000D03*
X139000000Y-118500000D03*
X138500000Y-118500000D03*
X138000000Y-118500000D03*
X137500000Y-118500000D03*
X137000000Y-118500000D03*
X136500000Y-118500000D03*
X136000000Y-118500000D03*
X135500000Y-118500000D03*
X135000000Y-118500000D03*
X134500000Y-118500000D03*
X134000000Y-118500000D03*
X133500000Y-118500000D03*
X133000000Y-118500000D03*
X132500000Y-118500000D03*
X132000000Y-118500000D03*
X131500000Y-118500000D03*
X131000000Y-118500000D03*
%TD*%
D12*
%TO.C,J1*%
X140000000Y-78000000D03*
D13*
X140000000Y-78000000D03*
%TD*%
D14*
%TO.C,TP9*%
X145900000Y-112150000D03*
%TD*%
D15*
%TO.C,JP2*%
X149750000Y-107500000D03*
X149750000Y-108800000D03*
%TD*%
D14*
%TO.C,TP6*%
X144000000Y-114900000D03*
%TD*%
%TO.C,TP5*%
X137200000Y-114250000D03*
%TD*%
%TO.C,TP7*%
X141900000Y-114900000D03*
%TD*%
%TO.C,TP2*%
X146300000Y-114600000D03*
%TD*%
D15*
%TO.C,JP1*%
X130300000Y-110650000D03*
X130300000Y-111950000D03*
%TD*%
D14*
%TO.C,TP10*%
X148400000Y-104100000D03*
%TD*%
%TO.C,TP1*%
X135150000Y-111450000D03*
%TD*%
%TO.C,TP4*%
X138600000Y-112950000D03*
%TD*%
%TO.C,TP3*%
X133550000Y-112550000D03*
%TD*%
%TO.C,TP11*%
X149900000Y-105600000D03*
%TD*%
M02*
