M48
; DRILL file {KiCad 8.0.8+1} date 2025-01-22T08:16:14-0500
; FORMAT={-:-/ absolute / inch / decimal}
; #@! TF.CreationDate,2025-01-22T08:16:14-05:00
; #@! TF.GenerationSoftware,Kicad,Pcbnew,8.0.8+1
; #@! TF.FileFunction,Plated,1,4,PTH
FMAT,2
INCH
; #@! TA.AperFunction,Plated,PTH,ViaDrill
T1C0.0085
; #@! TA.AperFunction,Plated,PTH,ComponentDrill
T2C0.1378
%
G90
G05
T1
X5.1043Y-4.1575
X5.1083Y-4.2992
X5.1476Y-4.5945
X5.1555Y-4.4429
X5.1585Y-4.2628
X5.1614Y-3.565
X5.1614Y-3.626
X5.1614Y-3.685
X5.1614Y-3.7421
X5.1614Y-3.8012
X5.1614Y-3.8583
X5.1614Y-3.8957
X5.1614Y-3.9744
X5.1614Y-4.0315
X5.1614Y-4.0906
X5.1673Y-3.3839
X5.1673Y-3.4154
X5.1673Y-3.4469
X5.1673Y-4.5
X5.1791Y-4.4685
X5.1801Y-4.2411
X5.189Y-4.3386
X5.2047Y-3.3425
X5.2067Y-4.6004
X5.2185Y-4.2382
X5.2264Y-4.5689
X5.2382Y-4.3622
X5.2657Y-4.5551
X5.2657Y-4.6004
X5.2697Y-4.0
X5.2707Y-4.4744
X5.2717Y-3.5866
X5.2717Y-3.6693
X5.2717Y-3.752
X5.2717Y-3.8346
X5.2717Y-3.9173
X5.2717Y-4.0827
X5.2717Y-4.1654
X5.315Y-3.4665
X5.3445Y-4.6024
X5.3465Y-3.5866
X5.3465Y-3.6693
X5.3465Y-3.752
X5.3465Y-3.8346
X5.3465Y-3.9173
X5.3465Y-4.0
X5.3465Y-4.0827
X5.3465Y-4.1654
X5.3465Y-4.5551
X5.3573Y-4.4882
X5.3652Y-4.4055
X5.3799Y-4.4587
X5.3819Y-3.3386
X5.3937Y-4.4094
X5.4035Y-4.6024
X5.4094Y-3.2894
X5.4232Y-4.4247
X5.4291Y-3.3799
X5.4291Y-3.5866
X5.4291Y-3.6693
X5.4291Y-3.752
X5.4291Y-3.8346
X5.4291Y-3.9173
X5.4291Y-4.0
X5.4291Y-4.0827
X5.4291Y-4.1654
X5.4331Y-4.3701
X5.4409Y-4.5551
X5.4429Y-4.4833
X5.4429Y-4.6004
X5.4626Y-4.5787
X5.4882Y-3.4488
X5.5039Y-3.3583
X5.5079Y-3.4173
X5.5118Y-3.5866
X5.5118Y-3.6693
X5.5118Y-3.752
X5.5118Y-3.8346
X5.5118Y-3.9173
X5.5118Y-4.0
X5.5118Y-4.0827
X5.5118Y-4.1654
X5.5118Y-4.2559
X5.5118Y-4.374
X5.5384Y-4.5541
X5.5413Y-4.6004
X5.5472Y-4.4065
X5.5551Y-3.5748
X5.5866Y-3.3228
X5.5866Y-3.3583
X5.5886Y-4.3652
X5.5945Y-3.6693
X5.5945Y-3.752
X5.5945Y-3.8346
X5.5945Y-3.9173
X5.5945Y-4.0
X5.5945Y-4.0827
X5.5945Y-4.1654
X5.5945Y-4.2559
X5.5984Y-3.5768
X5.628Y-4.498
X5.6417Y-4.3652
X5.6427Y-4.5502
X5.6772Y-3.5866
X5.6772Y-3.6693
X5.6772Y-3.752
X5.6772Y-3.8346
X5.6772Y-3.9173
X5.6772Y-4.0
X5.6772Y-4.0827
X5.6772Y-4.1654
X5.6772Y-4.2539
X5.7047Y-4.4134
X5.7047Y-4.4646
X5.7087Y-4.6004
X5.7283Y-4.374
X5.7539Y-3.5866
X5.7539Y-3.6713
X5.7539Y-3.752
X5.7539Y-3.8327
X5.7579Y-4.1112
X5.7589Y-3.939
X5.7589Y-3.9823
X5.7589Y-4.0256
X5.7589Y-4.0689
X5.7598Y-3.2461
X5.7677Y-3.4646
X5.7726Y-4.2461
X5.7874Y-3.1083
X5.7874Y-3.2303
X5.7953Y-3.3701
X5.8061Y-4.2746
X5.8061Y-4.3396
X5.8337Y-4.3474
X5.8346Y-3.4685
X5.8366Y-4.438
X5.8386Y-4.2746
X5.8386Y-4.5157
X5.8573Y-4.3701
X5.8671Y-4.1919
X5.872Y-3.3906
X5.872Y-3.4736
X5.872Y-3.5567
X5.872Y-3.6398
X5.872Y-3.7228
X5.872Y-3.8059
X5.872Y-3.889
X5.872Y-3.972
X5.872Y-4.0472
X5.8735Y-4.4193
X5.8819Y-4.5866
X5.9041Y-4.4193
X5.9055Y-3.1083
X5.9055Y-3.2303
X5.9232Y-3.3906
X5.9232Y-3.4736
X5.9232Y-3.5567
X5.9232Y-3.6398
X5.9232Y-3.7228
X5.9232Y-3.8059
X5.9232Y-3.889
X5.9232Y-3.972
X5.9232Y-4.0472
X5.9232Y-4.3287
X5.9247Y-4.1909
T2
X5.5118Y-3.0709
M30
