%TF.GenerationSoftware,KiCad,Pcbnew,8.0.7-8.0.7-0~ubuntu24.04.1*%
%TF.CreationDate,2024-12-23T11:48:45-05:00*%
%TF.ProjectId,gnssBoard,676e7373-426f-4617-9264-2e6b69636164,rev?*%
%TF.SameCoordinates,Original*%
%TF.FileFunction,Copper,L3,Inr*%
%TF.FilePolarity,Positive*%
%FSLAX46Y46*%
G04 Gerber Fmt 4.6, Leading zero omitted, Abs format (unit mm)*
G04 Created by KiCad (PCBNEW 8.0.7-8.0.7-0~ubuntu24.04.1) date 2024-12-23 11:48:45*
%MOMM*%
%LPD*%
G01*
G04 APERTURE LIST*
G04 Aperture macros list*
%AMFreePoly0*
4,1,129,0.331476,2.729949,0.658118,2.670090,0.975163,2.571295,1.277989,2.435004,1.562178,2.263206,1.823587,2.058405,2.058405,1.823587,2.263206,1.562178,2.435004,1.277989,2.571295,0.975163,2.670090,0.658118,2.729949,0.331476,2.750000,0.000000,2.747491,-0.166193,2.732458,-0.289997,2.729949,-0.331476,2.722458,-0.372351,2.707427,-0.496154,2.677580,-0.617241,2.670090,-0.658118,
2.657730,-0.697782,2.627882,-0.818881,2.583657,-0.935489,2.571295,-0.975163,2.554237,-1.013062,2.510016,-1.129667,2.452065,-1.240079,2.435004,-1.277989,2.413497,-1.313564,2.355549,-1.423979,2.284710,-1.526604,2.263206,-1.562178,2.237570,-1.594899,2.166733,-1.697527,2.084033,-1.790874,2.058405,-1.823587,2.029019,-1.852972,1.946321,-1.946321,1.852972,-2.029019,1.823587,-2.058405,
1.790874,-2.084033,1.697527,-2.166733,1.594899,-2.237570,1.562178,-2.263206,1.526604,-2.284710,1.423979,-2.355549,1.313564,-2.413497,1.277989,-2.435004,1.240079,-2.452065,1.129667,-2.510016,1.013062,-2.554237,0.975163,-2.571295,0.935489,-2.583657,0.818881,-2.627882,0.697785,-2.657729,0.658118,-2.670090,0.617241,-2.677580,0.496154,-2.707427,0.372351,-2.722458,0.331476,-2.729949,
0.289997,-2.732458,0.166193,-2.747491,0.041478,-2.747491,0.000000,-2.750000,-0.041478,-2.747491,-0.166193,-2.747491,-0.289997,-2.732458,-0.331476,-2.729949,-0.372351,-2.722458,-0.496154,-2.707427,-0.617241,-2.677580,-0.658118,-2.670090,-0.697785,-2.657729,-0.818881,-2.627882,-0.935489,-2.583657,-0.975163,-2.571295,-1.013062,-2.554237,-1.129667,-2.510016,-1.240079,-2.452065,-1.277989,-2.435004,
-1.313564,-2.413497,-1.423979,-2.355549,-1.526604,-2.284710,-1.562178,-2.263206,-1.594899,-2.237570,-1.697527,-2.166733,-1.790874,-2.084033,-1.823587,-2.058405,-1.852972,-2.029019,-1.946321,-1.946321,-2.029019,-1.852972,-2.058405,-1.823587,-2.084033,-1.790874,-2.166733,-1.697527,-2.237570,-1.594899,-2.263206,-1.562178,-2.284710,-1.526604,-2.355549,-1.423979,-2.413497,-1.313564,-2.435004,-1.277989,
-2.452065,-1.240079,-2.510016,-1.129667,-2.554237,-1.013062,-2.571295,-0.975163,-2.583657,-0.935489,-2.627882,-0.818881,-2.657730,-0.697782,-2.670090,-0.658118,-2.677580,-0.617241,-2.707427,-0.496154,-2.722458,-0.372351,-2.729949,-0.331476,-2.732458,-0.289997,-2.747491,-0.166193,-2.750000,0.000000,-2.729949,0.331476,-2.670090,0.658118,-2.571295,0.975163,-2.435004,1.277989,-2.263206,1.562178,
-2.058405,1.823587,-1.823587,2.058405,-1.562178,2.263206,-1.277989,2.435004,-0.975163,2.571295,-0.658118,2.670090,-0.331476,2.729949,0.000000,2.750000,0.331476,2.729949,0.331476,2.729949,$1*%
G04 Aperture macros list end*
%TA.AperFunction,CastellatedPad*%
%ADD10FreePoly0,0.000000*%
%TD*%
%TA.AperFunction,ViaPad*%
%ADD11C,0.527500*%
%TD*%
G04 APERTURE END LIST*
D10*
%TO.N,VSS*%
%TO.C,J1*%
X140000000Y-78000000D03*
%TD*%
D11*
%TO.N,VSS*%
X140000000Y-97400000D03*
X146150000Y-91100000D03*
X149150000Y-90340000D03*
X131100000Y-103900000D03*
X142100000Y-97400000D03*
X150350000Y-115000000D03*
X133900000Y-95300000D03*
X135800000Y-95300000D03*
X138250000Y-116850000D03*
X135800000Y-103700000D03*
X144200000Y-99500000D03*
X140000000Y-91100000D03*
X147300000Y-82450000D03*
X129650000Y-105600000D03*
X133750000Y-116850000D03*
X150000000Y-82150000D03*
X137900000Y-101600000D03*
X150450000Y-109950000D03*
X139400000Y-87600000D03*
X146300000Y-82450000D03*
X149150000Y-102800000D03*
X144900000Y-113400000D03*
X142100000Y-95300000D03*
X135800000Y-99500000D03*
X150450000Y-98780000D03*
X132200000Y-84900000D03*
X144200000Y-95300000D03*
X137900000Y-105800000D03*
X138250000Y-113875000D03*
X137900000Y-93200000D03*
X149150000Y-88230000D03*
X131100000Y-98000000D03*
X135800000Y-101600000D03*
X150450000Y-88230000D03*
X130200000Y-111150000D03*
X138250000Y-115600000D03*
X131100000Y-100950000D03*
X142100000Y-105800000D03*
X131100000Y-95050000D03*
X131100000Y-93600000D03*
X133900000Y-103700000D03*
X137900000Y-99500000D03*
X150450000Y-86120000D03*
X149700000Y-115600000D03*
X137900000Y-97400000D03*
X136275000Y-111900000D03*
X137900000Y-85850000D03*
X147400000Y-78850000D03*
X137900000Y-103700000D03*
X132250000Y-116850000D03*
X146150000Y-95300000D03*
X146150000Y-97350000D03*
X130750000Y-116700000D03*
X149025000Y-106475000D03*
X145000000Y-116850000D03*
X140000000Y-105800000D03*
X146250000Y-104425000D03*
X149600000Y-78850000D03*
X140000000Y-111100000D03*
X149150000Y-92450000D03*
X144200000Y-97400000D03*
X135750000Y-116900000D03*
X144200000Y-108050000D03*
X149150000Y-96670000D03*
X131250000Y-86750000D03*
X133900000Y-91100000D03*
X144200000Y-103700000D03*
X142100000Y-108100000D03*
X135800000Y-115600000D03*
X150450000Y-100890000D03*
X133900000Y-99500000D03*
X149150000Y-100890000D03*
X131250000Y-87550000D03*
X144200000Y-105800000D03*
X144900000Y-112100000D03*
X131100000Y-92100000D03*
X137900000Y-91100000D03*
X149150000Y-86120000D03*
X129550000Y-115250000D03*
X135800000Y-93200000D03*
X140000000Y-103700000D03*
X149150000Y-98780000D03*
X141900000Y-85300000D03*
X150450000Y-92450000D03*
X148300000Y-114700000D03*
X135800000Y-105800000D03*
X140000000Y-93200000D03*
X135800000Y-91100000D03*
X131100000Y-90550000D03*
X142100000Y-103700000D03*
X133900000Y-97400000D03*
X142100000Y-93200000D03*
X132900000Y-113450000D03*
X132550000Y-107650000D03*
X140000000Y-99500000D03*
X137900000Y-95300000D03*
X142950000Y-114250000D03*
X140750000Y-116850000D03*
X150450000Y-94560000D03*
X142100000Y-99500000D03*
X146150000Y-93250000D03*
X146000000Y-81250000D03*
X133900000Y-93200000D03*
X142100000Y-101600000D03*
X131250000Y-85950000D03*
X133900000Y-105800000D03*
X144200000Y-101600000D03*
X139900000Y-86800000D03*
X135800000Y-97400000D03*
X144200000Y-93200000D03*
X150450000Y-96670000D03*
X137250000Y-116900000D03*
X140000000Y-101600000D03*
X150450000Y-102800000D03*
X136700000Y-84800000D03*
X139800000Y-85300000D03*
X144200000Y-91100000D03*
X150450000Y-90340000D03*
X140000000Y-108100000D03*
X149150000Y-94560000D03*
X140000000Y-95300000D03*
%TO.N,VBAT*%
X133850000Y-101600000D03*
X135000000Y-88050000D03*
%TO.N,+3V3*%
X137750000Y-112386250D03*
X148250000Y-112725000D03*
X146625000Y-107850000D03*
X131100000Y-98950000D03*
X137400000Y-83550000D03*
X131100000Y-96550000D03*
X131100000Y-102400000D03*
X131925000Y-110325000D03*
X148775000Y-111000000D03*
%TO.N,+1V8*%
X133800000Y-115200000D03*
X138000000Y-111000000D03*
X141950000Y-110875000D03*
X137000000Y-112000000D03*
%TO.N,/ANT_SHORT_N*%
X146275000Y-101150000D03*
X147200000Y-85600000D03*
%TO.N,/TX_RDY*%
X132100000Y-111650000D03*
X132100000Y-115800000D03*
X138750000Y-116300000D03*
%TO.N,/ZED_RXD_1V8*%
X143325000Y-115575000D03*
%TO.N,/SDA_1V8*%
X136075000Y-114000000D03*
%TO.N,/RESET_N*%
X140900000Y-111925000D03*
%TO.N,/PPS*%
X145500000Y-111100000D03*
%TO.N,/RTK_STAT*%
X147475000Y-110225000D03*
X141100000Y-90800000D03*
X147475000Y-108575000D03*
%TO.N,/ZED_TXD_1V8*%
X140675000Y-115675000D03*
%TO.N,/GEOFENCE_STAT*%
X148300000Y-108575000D03*
X142200000Y-90850000D03*
X148175000Y-110425000D03*
%TO.N,/SCL_1V8*%
X136650000Y-113250000D03*
%TO.N,/ANT_OFF*%
X146275000Y-102250000D03*
X148200000Y-88100000D03*
%TO.N,/ZED_D+*%
X149963750Y-112250000D03*
X131574888Y-107725112D03*
%TO.N,/ZED_D-*%
X131025112Y-108274888D03*
X149186250Y-112250000D03*
%TO.N,/ANT_DET*%
X141900000Y-84400000D03*
X146275000Y-103350000D03*
%TO.N,VCC_RF*%
X146275000Y-100050000D03*
X146500000Y-88000000D03*
%TO.N,/EXTINT*%
X143300000Y-110875000D03*
%TO.N,Net-(JP2-Pad1)*%
X150486250Y-106450000D03*
%TO.N,Net-(D1-Pad2)*%
X130700000Y-114900000D03*
%TD*%
%TA.AperFunction,Conductor*%
%TO.N,VSS*%
G36*
X150509793Y-78252051D02*
G01*
X150557388Y-78259589D01*
X150594881Y-78271771D01*
X150628873Y-78289091D01*
X150660765Y-78312263D01*
X150687736Y-78339234D01*
X150710908Y-78371126D01*
X150728228Y-78405118D01*
X150740410Y-78442609D01*
X150747949Y-78490205D01*
X150749500Y-78509917D01*
X150749500Y-105818259D01*
X150729498Y-105886380D01*
X150675842Y-105932873D01*
X150607055Y-105943181D01*
X150486252Y-105927278D01*
X150486250Y-105927278D01*
X150350961Y-105945088D01*
X150224890Y-105997308D01*
X150224882Y-105997313D01*
X150116629Y-106080379D01*
X150033563Y-106188632D01*
X150033558Y-106188640D01*
X149981338Y-106314711D01*
X149963528Y-106449999D01*
X149963528Y-106450000D01*
X149981338Y-106585288D01*
X150033558Y-106711359D01*
X150033563Y-106711367D01*
X150116629Y-106819620D01*
X150222999Y-106901241D01*
X150224889Y-106902691D01*
X150350960Y-106954911D01*
X150418605Y-106963816D01*
X150486249Y-106972722D01*
X150486249Y-106972721D01*
X150486250Y-106972722D01*
X150607054Y-106956818D01*
X150677203Y-106967757D01*
X150730301Y-107014886D01*
X150749500Y-107081740D01*
X150749500Y-115623500D01*
X150729498Y-115691621D01*
X150675842Y-115738114D01*
X150623500Y-115749500D01*
X150469170Y-115749500D01*
X150425000Y-115749500D01*
X150351082Y-115749500D01*
X150278584Y-115763921D01*
X150206086Y-115778342D01*
X150206083Y-115778343D01*
X150069504Y-115834916D01*
X149946588Y-115917046D01*
X149946581Y-115917051D01*
X149842051Y-116021581D01*
X149842046Y-116021588D01*
X149759916Y-116144504D01*
X149703343Y-116281083D01*
X149703342Y-116281086D01*
X149674500Y-116426083D01*
X149674500Y-117124000D01*
X149654498Y-117192121D01*
X149600842Y-117238614D01*
X149548500Y-117250000D01*
X143601500Y-117250000D01*
X143533379Y-117229998D01*
X143486886Y-117176342D01*
X143475500Y-117124000D01*
X143475500Y-117010608D01*
X143450835Y-116894569D01*
X143438329Y-116835733D01*
X143365612Y-116672408D01*
X143260526Y-116527770D01*
X143260524Y-116527767D01*
X143127665Y-116408140D01*
X143127663Y-116408139D01*
X142972837Y-116318751D01*
X142972829Y-116318747D01*
X142802808Y-116263504D01*
X142802805Y-116263503D01*
X142802803Y-116263503D01*
X142625000Y-116244815D01*
X142447197Y-116263503D01*
X142447195Y-116263503D01*
X142447191Y-116263504D01*
X142277170Y-116318747D01*
X142277162Y-116318751D01*
X142122336Y-116408139D01*
X142122334Y-116408140D01*
X141989475Y-116527767D01*
X141884388Y-116672407D01*
X141811671Y-116835732D01*
X141774500Y-117010608D01*
X141774500Y-117124000D01*
X141754498Y-117192121D01*
X141700842Y-117238614D01*
X141648500Y-117250000D01*
X130451500Y-117250000D01*
X130383379Y-117229998D01*
X130336886Y-117176342D01*
X130325500Y-117124000D01*
X130325500Y-116426086D01*
X130325500Y-116426082D01*
X130296658Y-116281087D01*
X130240084Y-116144505D01*
X130157951Y-116021584D01*
X130053416Y-115917049D01*
X129930495Y-115834916D01*
X129846198Y-115799999D01*
X131577278Y-115799999D01*
X131577278Y-115800000D01*
X131595088Y-115935288D01*
X131647308Y-116061359D01*
X131647313Y-116061367D01*
X131730379Y-116169620D01*
X131838632Y-116252686D01*
X131838639Y-116252691D01*
X131964710Y-116304911D01*
X132100000Y-116322722D01*
X132235290Y-116304911D01*
X132247149Y-116299999D01*
X138227278Y-116299999D01*
X138227278Y-116300000D01*
X138245088Y-116435288D01*
X138297308Y-116561359D01*
X138297313Y-116561367D01*
X138380379Y-116669620D01*
X138488632Y-116752686D01*
X138488639Y-116752691D01*
X138614710Y-116804911D01*
X138750000Y-116822722D01*
X138885290Y-116804911D01*
X139011361Y-116752691D01*
X139119620Y-116669620D01*
X139202691Y-116561361D01*
X139254911Y-116435290D01*
X139272722Y-116300000D01*
X139272478Y-116298150D01*
X139254911Y-116164711D01*
X139246542Y-116144505D01*
X139202691Y-116038639D01*
X139202686Y-116038632D01*
X139119620Y-115930379D01*
X139011367Y-115847313D01*
X139011359Y-115847308D01*
X138885288Y-115795088D01*
X138750000Y-115777278D01*
X138614711Y-115795088D01*
X138488640Y-115847308D01*
X138488632Y-115847313D01*
X138380379Y-115930379D01*
X138297313Y-116038632D01*
X138297308Y-116038640D01*
X138245088Y-116164711D01*
X138227278Y-116299999D01*
X132247149Y-116299999D01*
X132361361Y-116252691D01*
X132469620Y-116169620D01*
X132552691Y-116061361D01*
X132604911Y-115935290D01*
X132622722Y-115800000D01*
X132622075Y-115795089D01*
X132608454Y-115691621D01*
X132604911Y-115664710D01*
X132552691Y-115538639D01*
X132552686Y-115538632D01*
X132469620Y-115430379D01*
X132361367Y-115347313D01*
X132361359Y-115347308D01*
X132235288Y-115295088D01*
X132100000Y-115277278D01*
X131964711Y-115295088D01*
X131838640Y-115347308D01*
X131838632Y-115347313D01*
X131730379Y-115430379D01*
X131647313Y-115538632D01*
X131647308Y-115538640D01*
X131595088Y-115664711D01*
X131577278Y-115799999D01*
X129846198Y-115799999D01*
X129793916Y-115778343D01*
X129793913Y-115778342D01*
X129788564Y-115777278D01*
X129648918Y-115749500D01*
X129648916Y-115749500D01*
X129376500Y-115749500D01*
X129308379Y-115729498D01*
X129261886Y-115675842D01*
X129250500Y-115623500D01*
X129250500Y-114899999D01*
X130177278Y-114899999D01*
X130177278Y-114900000D01*
X130195088Y-115035288D01*
X130247308Y-115161359D01*
X130247313Y-115161367D01*
X130330379Y-115269620D01*
X130431625Y-115347309D01*
X130438639Y-115352691D01*
X130564710Y-115404911D01*
X130700000Y-115422722D01*
X130835290Y-115404911D01*
X130961361Y-115352691D01*
X131069620Y-115269620D01*
X131123043Y-115199999D01*
X133277278Y-115199999D01*
X133277278Y-115200000D01*
X133295088Y-115335288D01*
X133347308Y-115461359D01*
X133347313Y-115461367D01*
X133430379Y-115569620D01*
X133538632Y-115652686D01*
X133538639Y-115652691D01*
X133664710Y-115704911D01*
X133800000Y-115722722D01*
X133935290Y-115704911D01*
X134007504Y-115674999D01*
X140152278Y-115674999D01*
X140152278Y-115675000D01*
X140170088Y-115810288D01*
X140222308Y-115936359D01*
X140222313Y-115936367D01*
X140305379Y-116044620D01*
X140413632Y-116127686D01*
X140413639Y-116127691D01*
X140539710Y-116179911D01*
X140675000Y-116197722D01*
X140810290Y-116179911D01*
X140936361Y-116127691D01*
X141044620Y-116044620D01*
X141127691Y-115936361D01*
X141179911Y-115810290D01*
X141197722Y-115675000D01*
X141196367Y-115664711D01*
X141184557Y-115574999D01*
X142802278Y-115574999D01*
X142802278Y-115575000D01*
X142820088Y-115710288D01*
X142872308Y-115836359D01*
X142872313Y-115836367D01*
X142955379Y-115944620D01*
X143063632Y-116027686D01*
X143063639Y-116027691D01*
X143189710Y-116079911D01*
X143325000Y-116097722D01*
X143460290Y-116079911D01*
X143586361Y-116027691D01*
X143694620Y-115944620D01*
X143777691Y-115836361D01*
X143829911Y-115710290D01*
X143847722Y-115575000D01*
X143829911Y-115439710D01*
X143777691Y-115313639D01*
X143763457Y-115295089D01*
X143694620Y-115205379D01*
X143586367Y-115122313D01*
X143586359Y-115122308D01*
X143460288Y-115070088D01*
X143325000Y-115052278D01*
X143189711Y-115070088D01*
X143063640Y-115122308D01*
X143063632Y-115122313D01*
X142955379Y-115205379D01*
X142872313Y-115313632D01*
X142872308Y-115313640D01*
X142820088Y-115439711D01*
X142802278Y-115574999D01*
X141184557Y-115574999D01*
X141179911Y-115539711D01*
X141179468Y-115538640D01*
X141127691Y-115413639D01*
X141120994Y-115404911D01*
X141044620Y-115305379D01*
X140936367Y-115222313D01*
X140936359Y-115222308D01*
X140810288Y-115170088D01*
X140675000Y-115152278D01*
X140539711Y-115170088D01*
X140413640Y-115222308D01*
X140413632Y-115222313D01*
X140305379Y-115305379D01*
X140222313Y-115413632D01*
X140222308Y-115413640D01*
X140170088Y-115539711D01*
X140152278Y-115674999D01*
X134007504Y-115674999D01*
X134061361Y-115652691D01*
X134169620Y-115569620D01*
X134252691Y-115461361D01*
X134304911Y-115335290D01*
X134322722Y-115200000D01*
X134304911Y-115064710D01*
X134252691Y-114938639D01*
X134223042Y-114900000D01*
X134169620Y-114830379D01*
X134061367Y-114747313D01*
X134061359Y-114747308D01*
X133935288Y-114695088D01*
X133800000Y-114677278D01*
X133664711Y-114695088D01*
X133538640Y-114747308D01*
X133538632Y-114747313D01*
X133430379Y-114830379D01*
X133347313Y-114938632D01*
X133347308Y-114938640D01*
X133295088Y-115064711D01*
X133277278Y-115199999D01*
X131123043Y-115199999D01*
X131152691Y-115161361D01*
X131204911Y-115035290D01*
X131222722Y-114900000D01*
X131204911Y-114764710D01*
X131152691Y-114638639D01*
X131152686Y-114638632D01*
X131069620Y-114530379D01*
X130961367Y-114447313D01*
X130961359Y-114447308D01*
X130835288Y-114395088D01*
X130700000Y-114377278D01*
X130564711Y-114395088D01*
X130438640Y-114447308D01*
X130438632Y-114447313D01*
X130330379Y-114530379D01*
X130247313Y-114638632D01*
X130247308Y-114638640D01*
X130195088Y-114764711D01*
X130177278Y-114899999D01*
X129250500Y-114899999D01*
X129250500Y-113999999D01*
X135552278Y-113999999D01*
X135552278Y-114000000D01*
X135570088Y-114135288D01*
X135622308Y-114261359D01*
X135622313Y-114261367D01*
X135705379Y-114369620D01*
X135806625Y-114447309D01*
X135813639Y-114452691D01*
X135939710Y-114504911D01*
X136075000Y-114522722D01*
X136210290Y-114504911D01*
X136336361Y-114452691D01*
X136444620Y-114369620D01*
X136527691Y-114261361D01*
X136579911Y-114135290D01*
X136597722Y-114000000D01*
X136585647Y-113908280D01*
X136596586Y-113838133D01*
X136643714Y-113785034D01*
X136694122Y-113766913D01*
X136785290Y-113754911D01*
X136911361Y-113702691D01*
X137019620Y-113619620D01*
X137102691Y-113511361D01*
X137154911Y-113385290D01*
X137172722Y-113250000D01*
X137154911Y-113114710D01*
X137102691Y-112988639D01*
X137100943Y-112986361D01*
X137019620Y-112880379D01*
X136911367Y-112797313D01*
X136911359Y-112797308D01*
X136785288Y-112745088D01*
X136650000Y-112727278D01*
X136514711Y-112745088D01*
X136388640Y-112797308D01*
X136388632Y-112797313D01*
X136280379Y-112880379D01*
X136197313Y-112988632D01*
X136197308Y-112988640D01*
X136145088Y-113114711D01*
X136127278Y-113249999D01*
X136127278Y-113250001D01*
X136139352Y-113341719D01*
X136128412Y-113411867D01*
X136081284Y-113464966D01*
X136030877Y-113483086D01*
X135939711Y-113495088D01*
X135813640Y-113547308D01*
X135813632Y-113547313D01*
X135705379Y-113630379D01*
X135622313Y-113738632D01*
X135622308Y-113738640D01*
X135570088Y-113864711D01*
X135552278Y-113999999D01*
X129250500Y-113999999D01*
X129250500Y-111649999D01*
X131577278Y-111649999D01*
X131577278Y-111650000D01*
X131595088Y-111785288D01*
X131647308Y-111911359D01*
X131647313Y-111911367D01*
X131730379Y-112019620D01*
X131838632Y-112102686D01*
X131838639Y-112102691D01*
X131964710Y-112154911D01*
X132100000Y-112172722D01*
X132235290Y-112154911D01*
X132361361Y-112102691D01*
X132469620Y-112019620D01*
X132484676Y-111999999D01*
X136477278Y-111999999D01*
X136477278Y-112000000D01*
X136495088Y-112135288D01*
X136547308Y-112261359D01*
X136547313Y-112261367D01*
X136630379Y-112369620D01*
X136732163Y-112447722D01*
X136738639Y-112452691D01*
X136864710Y-112504911D01*
X137000000Y-112522722D01*
X137135290Y-112504911D01*
X137135293Y-112504909D01*
X137137022Y-112504682D01*
X137207171Y-112515621D01*
X137260270Y-112562749D01*
X137269878Y-112581386D01*
X137297308Y-112647609D01*
X137297313Y-112647617D01*
X137380379Y-112755870D01*
X137488632Y-112838936D01*
X137488639Y-112838941D01*
X137614710Y-112891161D01*
X137750000Y-112908972D01*
X137885290Y-112891161D01*
X138011361Y-112838941D01*
X138119620Y-112755870D01*
X138143308Y-112724999D01*
X147727278Y-112724999D01*
X147727278Y-112725000D01*
X147745088Y-112860288D01*
X147797308Y-112986359D01*
X147797313Y-112986367D01*
X147880379Y-113094620D01*
X147988632Y-113177686D01*
X147988639Y-113177691D01*
X148114710Y-113229911D01*
X148250000Y-113247722D01*
X148385290Y-113229911D01*
X148511361Y-113177691D01*
X148619620Y-113094620D01*
X148702691Y-112986361D01*
X148754911Y-112860290D01*
X148761943Y-112806874D01*
X148790663Y-112741949D01*
X148849927Y-112702857D01*
X148920919Y-112702010D01*
X148935066Y-112706906D01*
X149050960Y-112754911D01*
X149186250Y-112772722D01*
X149321540Y-112754911D01*
X149447611Y-112702691D01*
X149472453Y-112683628D01*
X149498296Y-112663799D01*
X149564516Y-112638198D01*
X149634065Y-112652462D01*
X149651704Y-112663799D01*
X149702382Y-112702686D01*
X149702389Y-112702691D01*
X149828460Y-112754911D01*
X149963750Y-112772722D01*
X150099040Y-112754911D01*
X150225111Y-112702691D01*
X150333370Y-112619620D01*
X150416441Y-112511361D01*
X150468661Y-112385290D01*
X150486472Y-112250000D01*
X150468661Y-112114710D01*
X150416441Y-111988639D01*
X150416436Y-111988632D01*
X150333370Y-111880379D01*
X150225117Y-111797313D01*
X150225109Y-111797308D01*
X150099038Y-111745088D01*
X149963750Y-111727278D01*
X149828461Y-111745088D01*
X149702390Y-111797308D01*
X149702382Y-111797313D01*
X149651703Y-111836201D01*
X149585483Y-111861801D01*
X149515934Y-111847536D01*
X149498297Y-111836201D01*
X149447617Y-111797313D01*
X149447609Y-111797308D01*
X149321538Y-111745088D01*
X149186250Y-111727278D01*
X149050961Y-111745088D01*
X148924890Y-111797308D01*
X148924882Y-111797313D01*
X148816629Y-111880379D01*
X148733563Y-111988632D01*
X148733558Y-111988640D01*
X148681338Y-112114711D01*
X148674307Y-112168124D01*
X148645585Y-112233051D01*
X148586320Y-112272143D01*
X148515328Y-112272988D01*
X148501173Y-112268089D01*
X148385290Y-112220089D01*
X148385288Y-112220088D01*
X148250000Y-112202278D01*
X148114711Y-112220088D01*
X147988640Y-112272308D01*
X147988632Y-112272313D01*
X147880379Y-112355379D01*
X147797313Y-112463632D01*
X147797308Y-112463640D01*
X147745088Y-112589711D01*
X147727278Y-112724999D01*
X138143308Y-112724999D01*
X138202691Y-112647611D01*
X138254911Y-112521540D01*
X138272722Y-112386250D01*
X138254911Y-112250960D01*
X138202691Y-112124889D01*
X138194881Y-112114711D01*
X138119620Y-112016629D01*
X138011367Y-111933563D01*
X138011359Y-111933558D01*
X137990696Y-111924999D01*
X140377278Y-111924999D01*
X140377278Y-111925000D01*
X140395088Y-112060288D01*
X140447308Y-112186359D01*
X140447313Y-112186367D01*
X140530379Y-112294620D01*
X140638632Y-112377686D01*
X140638639Y-112377691D01*
X140764710Y-112429911D01*
X140900000Y-112447722D01*
X141035290Y-112429911D01*
X141161361Y-112377691D01*
X141269620Y-112294620D01*
X141352691Y-112186361D01*
X141404911Y-112060290D01*
X141422722Y-111925000D01*
X141420926Y-111911361D01*
X141404911Y-111789711D01*
X141383757Y-111738639D01*
X141352691Y-111663639D01*
X141352686Y-111663632D01*
X141269620Y-111555379D01*
X141161367Y-111472313D01*
X141161359Y-111472308D01*
X141035288Y-111420088D01*
X140900000Y-111402278D01*
X140764711Y-111420088D01*
X140638640Y-111472308D01*
X140638632Y-111472313D01*
X140530379Y-111555379D01*
X140447313Y-111663632D01*
X140447308Y-111663640D01*
X140395088Y-111789711D01*
X140377278Y-111924999D01*
X137990696Y-111924999D01*
X137885288Y-111881338D01*
X137750000Y-111863528D01*
X137612976Y-111881567D01*
X137542827Y-111870627D01*
X137489729Y-111823499D01*
X137480124Y-111804870D01*
X137452691Y-111738639D01*
X137452686Y-111738632D01*
X137369620Y-111630379D01*
X137261367Y-111547313D01*
X137261359Y-111547308D01*
X137135288Y-111495088D01*
X137000000Y-111477278D01*
X136864711Y-111495088D01*
X136738640Y-111547308D01*
X136738632Y-111547313D01*
X136630379Y-111630379D01*
X136547313Y-111738632D01*
X136547308Y-111738640D01*
X136495088Y-111864711D01*
X136477278Y-111999999D01*
X132484676Y-111999999D01*
X132552691Y-111911361D01*
X132604911Y-111785290D01*
X132622722Y-111650000D01*
X132604911Y-111514710D01*
X132552691Y-111388639D01*
X132538097Y-111369620D01*
X132469620Y-111280379D01*
X132361367Y-111197313D01*
X132361359Y-111197308D01*
X132235288Y-111145088D01*
X132100000Y-111127278D01*
X131964711Y-111145088D01*
X131838640Y-111197308D01*
X131838632Y-111197313D01*
X131730379Y-111280379D01*
X131647313Y-111388632D01*
X131647308Y-111388640D01*
X131595088Y-111514711D01*
X131577278Y-111649999D01*
X129250500Y-111649999D01*
X129250500Y-110999999D01*
X137477278Y-110999999D01*
X137477278Y-111000000D01*
X137495088Y-111135288D01*
X137547308Y-111261359D01*
X137547313Y-111261367D01*
X137630379Y-111369620D01*
X137738632Y-111452686D01*
X137738639Y-111452691D01*
X137864710Y-111504911D01*
X138000000Y-111522722D01*
X138135290Y-111504911D01*
X138261361Y-111452691D01*
X138369620Y-111369620D01*
X138452691Y-111261361D01*
X138504911Y-111135290D01*
X138522722Y-111000000D01*
X138506266Y-110874999D01*
X141427278Y-110874999D01*
X141427278Y-110875000D01*
X141445088Y-111010288D01*
X141497308Y-111136359D01*
X141497313Y-111136367D01*
X141580379Y-111244620D01*
X141688632Y-111327686D01*
X141688639Y-111327691D01*
X141814710Y-111379911D01*
X141950000Y-111397722D01*
X142085290Y-111379911D01*
X142211361Y-111327691D01*
X142319620Y-111244620D01*
X142402691Y-111136361D01*
X142454911Y-111010290D01*
X142472722Y-110875000D01*
X142472722Y-110874999D01*
X142777278Y-110874999D01*
X142777278Y-110875000D01*
X142795088Y-111010288D01*
X142847308Y-111136359D01*
X142847313Y-111136367D01*
X142930379Y-111244620D01*
X143038632Y-111327686D01*
X143038639Y-111327691D01*
X143164710Y-111379911D01*
X143300000Y-111397722D01*
X143435290Y-111379911D01*
X143561361Y-111327691D01*
X143669620Y-111244620D01*
X143752691Y-111136361D01*
X143767753Y-111099999D01*
X144977278Y-111099999D01*
X144977278Y-111100000D01*
X144995088Y-111235288D01*
X145047308Y-111361359D01*
X145047313Y-111361367D01*
X145130379Y-111469620D01*
X145231625Y-111547309D01*
X145238639Y-111552691D01*
X145364710Y-111604911D01*
X145500000Y-111622722D01*
X145635290Y-111604911D01*
X145761361Y-111552691D01*
X145869620Y-111469620D01*
X145952691Y-111361361D01*
X146004911Y-111235290D01*
X146022722Y-111100000D01*
X146016535Y-111053008D01*
X146004911Y-110964711D01*
X145993204Y-110936446D01*
X145952691Y-110838639D01*
X145945994Y-110829911D01*
X145869620Y-110730379D01*
X145761367Y-110647313D01*
X145761359Y-110647308D01*
X145635288Y-110595088D01*
X145500000Y-110577278D01*
X145364711Y-110595088D01*
X145238640Y-110647308D01*
X145238632Y-110647313D01*
X145130379Y-110730379D01*
X145047313Y-110838632D01*
X145047308Y-110838640D01*
X144995088Y-110964711D01*
X144977278Y-111099999D01*
X143767753Y-111099999D01*
X143804911Y-111010290D01*
X143822722Y-110875000D01*
X143821367Y-110864711D01*
X143804911Y-110739711D01*
X143804468Y-110738640D01*
X143752691Y-110613639D01*
X143738457Y-110595089D01*
X143669620Y-110505379D01*
X143561367Y-110422313D01*
X143561359Y-110422308D01*
X143435288Y-110370088D01*
X143300000Y-110352278D01*
X143164711Y-110370088D01*
X143038640Y-110422308D01*
X143038632Y-110422313D01*
X142930379Y-110505379D01*
X142847313Y-110613632D01*
X142847308Y-110613640D01*
X142795088Y-110739711D01*
X142777278Y-110874999D01*
X142472722Y-110874999D01*
X142471367Y-110864711D01*
X142454911Y-110739711D01*
X142454468Y-110738640D01*
X142402691Y-110613639D01*
X142388457Y-110595089D01*
X142319620Y-110505379D01*
X142211367Y-110422313D01*
X142211359Y-110422308D01*
X142085288Y-110370088D01*
X141950000Y-110352278D01*
X141814711Y-110370088D01*
X141688640Y-110422308D01*
X141688632Y-110422313D01*
X141580379Y-110505379D01*
X141497313Y-110613632D01*
X141497308Y-110613640D01*
X141445088Y-110739711D01*
X141427278Y-110874999D01*
X138506266Y-110874999D01*
X138504911Y-110864710D01*
X138452691Y-110738639D01*
X138418914Y-110694620D01*
X138369620Y-110630379D01*
X138261367Y-110547313D01*
X138261359Y-110547308D01*
X138135288Y-110495088D01*
X138000000Y-110477278D01*
X137864711Y-110495088D01*
X137738640Y-110547308D01*
X137738632Y-110547313D01*
X137630379Y-110630379D01*
X137547313Y-110738632D01*
X137547308Y-110738640D01*
X137495088Y-110864711D01*
X137477278Y-110999999D01*
X129250500Y-110999999D01*
X129250500Y-110324999D01*
X131402278Y-110324999D01*
X131402278Y-110325000D01*
X131420088Y-110460288D01*
X131472308Y-110586359D01*
X131472313Y-110586367D01*
X131555379Y-110694620D01*
X131641758Y-110760901D01*
X131663639Y-110777691D01*
X131789710Y-110829911D01*
X131925000Y-110847722D01*
X132060290Y-110829911D01*
X132186361Y-110777691D01*
X132294620Y-110694620D01*
X132377691Y-110586361D01*
X132429911Y-110460290D01*
X132447722Y-110325000D01*
X132434557Y-110224999D01*
X146952278Y-110224999D01*
X146952278Y-110225000D01*
X146970088Y-110360288D01*
X147022308Y-110486359D01*
X147022313Y-110486367D01*
X147105379Y-110594620D01*
X147213632Y-110677686D01*
X147213639Y-110677691D01*
X147339710Y-110729911D01*
X147475000Y-110747722D01*
X147610290Y-110729911D01*
X147631324Y-110721197D01*
X147701914Y-110713608D01*
X147765401Y-110745386D01*
X147779506Y-110760901D01*
X147805381Y-110794621D01*
X147910130Y-110874999D01*
X147913639Y-110877691D01*
X148039710Y-110929911D01*
X148150781Y-110944533D01*
X148215707Y-110973255D01*
X148254799Y-111032520D01*
X148259256Y-111053008D01*
X148270088Y-111135288D01*
X148322308Y-111261359D01*
X148322313Y-111261367D01*
X148405379Y-111369620D01*
X148513632Y-111452686D01*
X148513639Y-111452691D01*
X148639710Y-111504911D01*
X148775000Y-111522722D01*
X148910290Y-111504911D01*
X149036361Y-111452691D01*
X149144620Y-111369620D01*
X149227691Y-111261361D01*
X149279911Y-111135290D01*
X149297722Y-111000000D01*
X149279911Y-110864710D01*
X149227691Y-110738639D01*
X149193914Y-110694620D01*
X149144620Y-110630379D01*
X149036367Y-110547313D01*
X149036359Y-110547308D01*
X149014728Y-110538348D01*
X148910290Y-110495089D01*
X148844039Y-110486367D01*
X148799218Y-110480466D01*
X148734291Y-110451743D01*
X148695200Y-110392478D01*
X148690743Y-110371990D01*
X148689202Y-110360288D01*
X148679911Y-110289710D01*
X148627691Y-110163639D01*
X148627686Y-110163632D01*
X148544620Y-110055379D01*
X148436367Y-109972313D01*
X148436359Y-109972308D01*
X148310288Y-109920088D01*
X148175000Y-109902278D01*
X148039711Y-109920088D01*
X148018669Y-109928804D01*
X147948079Y-109936390D01*
X147884593Y-109904608D01*
X147870493Y-109889098D01*
X147844618Y-109855378D01*
X147736367Y-109772313D01*
X147736359Y-109772308D01*
X147610288Y-109720088D01*
X147475000Y-109702278D01*
X147339711Y-109720088D01*
X147213640Y-109772308D01*
X147213632Y-109772313D01*
X147105379Y-109855379D01*
X147022313Y-109963632D01*
X147022308Y-109963640D01*
X146970088Y-110089711D01*
X146952278Y-110224999D01*
X132434557Y-110224999D01*
X132429911Y-110189710D01*
X132377691Y-110063639D01*
X132371353Y-110055379D01*
X132294620Y-109955379D01*
X132186367Y-109872313D01*
X132186359Y-109872308D01*
X132060288Y-109820088D01*
X131925000Y-109802278D01*
X131789711Y-109820088D01*
X131663640Y-109872308D01*
X131663632Y-109872313D01*
X131555379Y-109955379D01*
X131472313Y-110063632D01*
X131472308Y-110063640D01*
X131420088Y-110189711D01*
X131402278Y-110324999D01*
X129250500Y-110324999D01*
X129250500Y-108274887D01*
X130502390Y-108274887D01*
X130502390Y-108274888D01*
X130520200Y-108410176D01*
X130572420Y-108536247D01*
X130572425Y-108536255D01*
X130655491Y-108644508D01*
X130763744Y-108727574D01*
X130763751Y-108727579D01*
X130889822Y-108779799D01*
X131025112Y-108797610D01*
X131160402Y-108779799D01*
X131286473Y-108727579D01*
X131394732Y-108644508D01*
X131477803Y-108536249D01*
X131530023Y-108410178D01*
X131538362Y-108346835D01*
X131567082Y-108281911D01*
X131626347Y-108242818D01*
X131646829Y-108238362D01*
X131710178Y-108230023D01*
X131836249Y-108177803D01*
X131944508Y-108094732D01*
X132027579Y-107986473D01*
X132079799Y-107860402D01*
X132081169Y-107849999D01*
X146102278Y-107849999D01*
X146102278Y-107850000D01*
X146120088Y-107985288D01*
X146172308Y-108111359D01*
X146172313Y-108111367D01*
X146255379Y-108219620D01*
X146336558Y-108281911D01*
X146363639Y-108302691D01*
X146489710Y-108354911D01*
X146625000Y-108372722D01*
X146760290Y-108354911D01*
X146792374Y-108341621D01*
X146862958Y-108334031D01*
X146926445Y-108365809D01*
X146962674Y-108426866D01*
X146965511Y-108474475D01*
X146952278Y-108574998D01*
X146952278Y-108575000D01*
X146970088Y-108710288D01*
X147022308Y-108836359D01*
X147022313Y-108836367D01*
X147105379Y-108944620D01*
X147213632Y-109027686D01*
X147213639Y-109027691D01*
X147339710Y-109079911D01*
X147475000Y-109097722D01*
X147610290Y-109079911D01*
X147736361Y-109027691D01*
X147810797Y-108970572D01*
X147877015Y-108944973D01*
X147946564Y-108959237D01*
X147964195Y-108970568D01*
X148038639Y-109027691D01*
X148164710Y-109079911D01*
X148300000Y-109097722D01*
X148435290Y-109079911D01*
X148561361Y-109027691D01*
X148669620Y-108944620D01*
X148752691Y-108836361D01*
X148804911Y-108710290D01*
X148822722Y-108575000D01*
X148804911Y-108439710D01*
X148752691Y-108313639D01*
X148752686Y-108313632D01*
X148669620Y-108205379D01*
X148561367Y-108122313D01*
X148561359Y-108122308D01*
X148435288Y-108070088D01*
X148300000Y-108052278D01*
X148164711Y-108070088D01*
X148038640Y-108122308D01*
X148038632Y-108122313D01*
X147964204Y-108179425D01*
X147897984Y-108205026D01*
X147828435Y-108190762D01*
X147810796Y-108179425D01*
X147736367Y-108122313D01*
X147736359Y-108122308D01*
X147610288Y-108070088D01*
X147475000Y-108052278D01*
X147339709Y-108070089D01*
X147307627Y-108083378D01*
X147237038Y-108090967D01*
X147173551Y-108059187D01*
X147137324Y-107998129D01*
X147134488Y-107950523D01*
X147147722Y-107850000D01*
X147147722Y-107849999D01*
X147129911Y-107714711D01*
X147104418Y-107653163D01*
X147077691Y-107588639D01*
X147077686Y-107588632D01*
X146994620Y-107480379D01*
X146886367Y-107397313D01*
X146886359Y-107397308D01*
X146760288Y-107345088D01*
X146625000Y-107327278D01*
X146489711Y-107345088D01*
X146363640Y-107397308D01*
X146363632Y-107397313D01*
X146255379Y-107480379D01*
X146172313Y-107588632D01*
X146172308Y-107588640D01*
X146120088Y-107714711D01*
X146102278Y-107849999D01*
X132081169Y-107849999D01*
X132097610Y-107725112D01*
X132079799Y-107589822D01*
X132027579Y-107463751D01*
X131976596Y-107397309D01*
X131944508Y-107355491D01*
X131836255Y-107272425D01*
X131836247Y-107272420D01*
X131710176Y-107220200D01*
X131574888Y-107202390D01*
X131439599Y-107220200D01*
X131313528Y-107272420D01*
X131313520Y-107272425D01*
X131205267Y-107355491D01*
X131122201Y-107463744D01*
X131122196Y-107463752D01*
X131069977Y-107589823D01*
X131061638Y-107653163D01*
X131032915Y-107718090D01*
X130973650Y-107757181D01*
X130953163Y-107761638D01*
X130922456Y-107765680D01*
X130889822Y-107769977D01*
X130837603Y-107791606D01*
X130763752Y-107822196D01*
X130763744Y-107822201D01*
X130655491Y-107905267D01*
X130572425Y-108013520D01*
X130572420Y-108013528D01*
X130520200Y-108139599D01*
X130502390Y-108274887D01*
X129250500Y-108274887D01*
X129250500Y-102399999D01*
X130577278Y-102399999D01*
X130577278Y-102400000D01*
X130595088Y-102535288D01*
X130647308Y-102661359D01*
X130647313Y-102661367D01*
X130730379Y-102769620D01*
X130838632Y-102852686D01*
X130838639Y-102852691D01*
X130964710Y-102904911D01*
X131100000Y-102922722D01*
X131235290Y-102904911D01*
X131361361Y-102852691D01*
X131469620Y-102769620D01*
X131552691Y-102661361D01*
X131604911Y-102535290D01*
X131622722Y-102400000D01*
X131620785Y-102385290D01*
X131604911Y-102264711D01*
X131598818Y-102249999D01*
X131552691Y-102138639D01*
X131552686Y-102138632D01*
X131469620Y-102030379D01*
X131361367Y-101947313D01*
X131361359Y-101947308D01*
X131235288Y-101895088D01*
X131100000Y-101877278D01*
X130964711Y-101895088D01*
X130838640Y-101947308D01*
X130838632Y-101947313D01*
X130730379Y-102030379D01*
X130647313Y-102138632D01*
X130647308Y-102138640D01*
X130595088Y-102264711D01*
X130577278Y-102399999D01*
X129250500Y-102399999D01*
X129250500Y-101599999D01*
X133327278Y-101599999D01*
X133327278Y-101600000D01*
X133345088Y-101735288D01*
X133397308Y-101861359D01*
X133397313Y-101861367D01*
X133480379Y-101969620D01*
X133588632Y-102052686D01*
X133588639Y-102052691D01*
X133714710Y-102104911D01*
X133850000Y-102122722D01*
X133985290Y-102104911D01*
X134111361Y-102052691D01*
X134219620Y-101969620D01*
X134302691Y-101861361D01*
X134354911Y-101735290D01*
X134372722Y-101600000D01*
X134354911Y-101464710D01*
X134302691Y-101338639D01*
X134302686Y-101338632D01*
X134219620Y-101230379D01*
X134111367Y-101147313D01*
X134111359Y-101147308D01*
X133985288Y-101095088D01*
X133850000Y-101077278D01*
X133714711Y-101095088D01*
X133588640Y-101147308D01*
X133588632Y-101147313D01*
X133480379Y-101230379D01*
X133397313Y-101338632D01*
X133397308Y-101338640D01*
X133345088Y-101464711D01*
X133327278Y-101599999D01*
X129250500Y-101599999D01*
X129250500Y-100049999D01*
X145752278Y-100049999D01*
X145752278Y-100050000D01*
X145770088Y-100185288D01*
X145822308Y-100311359D01*
X145822313Y-100311367D01*
X145905379Y-100419620D01*
X146010181Y-100500038D01*
X146052048Y-100557376D01*
X146056270Y-100628247D01*
X146021506Y-100690150D01*
X146010181Y-100699962D01*
X145905379Y-100780379D01*
X145822313Y-100888632D01*
X145822308Y-100888640D01*
X145770088Y-101014711D01*
X145752278Y-101149999D01*
X145752278Y-101150000D01*
X145770088Y-101285288D01*
X145822308Y-101411359D01*
X145822313Y-101411367D01*
X145905379Y-101519620D01*
X146010181Y-101600038D01*
X146052048Y-101657376D01*
X146056270Y-101728247D01*
X146021506Y-101790150D01*
X146010181Y-101799962D01*
X145905379Y-101880379D01*
X145822313Y-101988632D01*
X145822308Y-101988640D01*
X145770088Y-102114711D01*
X145752278Y-102249999D01*
X145752278Y-102250000D01*
X145770088Y-102385288D01*
X145822308Y-102511359D01*
X145822313Y-102511367D01*
X145905379Y-102619620D01*
X146010181Y-102700038D01*
X146052048Y-102757376D01*
X146056270Y-102828247D01*
X146021506Y-102890150D01*
X146010181Y-102899962D01*
X145905379Y-102980379D01*
X145822313Y-103088632D01*
X145822308Y-103088640D01*
X145770088Y-103214711D01*
X145752278Y-103349999D01*
X145752278Y-103350000D01*
X145770088Y-103485288D01*
X145822308Y-103611359D01*
X145822313Y-103611367D01*
X145905379Y-103719620D01*
X146013632Y-103802686D01*
X146013639Y-103802691D01*
X146139710Y-103854911D01*
X146275000Y-103872722D01*
X146410290Y-103854911D01*
X146536361Y-103802691D01*
X146644620Y-103719620D01*
X146727691Y-103611361D01*
X146779911Y-103485290D01*
X146797722Y-103350000D01*
X146779911Y-103214710D01*
X146727691Y-103088639D01*
X146727686Y-103088632D01*
X146644620Y-102980379D01*
X146539818Y-102899962D01*
X146497951Y-102842624D01*
X146493729Y-102771754D01*
X146528493Y-102709851D01*
X146539818Y-102700038D01*
X146590223Y-102661361D01*
X146644620Y-102619620D01*
X146727691Y-102511361D01*
X146779911Y-102385290D01*
X146797722Y-102250000D01*
X146779911Y-102114710D01*
X146727691Y-101988639D01*
X146713097Y-101969620D01*
X146644620Y-101880379D01*
X146539818Y-101799962D01*
X146497951Y-101742624D01*
X146493729Y-101671754D01*
X146528493Y-101609851D01*
X146539818Y-101600038D01*
X146644620Y-101519620D01*
X146727691Y-101411361D01*
X146779911Y-101285290D01*
X146797722Y-101150000D01*
X146779911Y-101014710D01*
X146727691Y-100888639D01*
X146727686Y-100888632D01*
X146644620Y-100780379D01*
X146539818Y-100699962D01*
X146497951Y-100642624D01*
X146493729Y-100571754D01*
X146528493Y-100509851D01*
X146539818Y-100500038D01*
X146644620Y-100419620D01*
X146727686Y-100311367D01*
X146727691Y-100311361D01*
X146779911Y-100185290D01*
X146797722Y-100050000D01*
X146779911Y-99914710D01*
X146727691Y-99788639D01*
X146727686Y-99788632D01*
X146644620Y-99680379D01*
X146536367Y-99597313D01*
X146536359Y-99597308D01*
X146410288Y-99545088D01*
X146275000Y-99527278D01*
X146139711Y-99545088D01*
X146013640Y-99597308D01*
X146013632Y-99597313D01*
X145905379Y-99680379D01*
X145822313Y-99788632D01*
X145822308Y-99788640D01*
X145770088Y-99914711D01*
X145752278Y-100049999D01*
X129250500Y-100049999D01*
X129250500Y-98949999D01*
X130577278Y-98949999D01*
X130577278Y-98950000D01*
X130595088Y-99085288D01*
X130647308Y-99211359D01*
X130647313Y-99211367D01*
X130730379Y-99319620D01*
X130838632Y-99402686D01*
X130838639Y-99402691D01*
X130964710Y-99454911D01*
X131100000Y-99472722D01*
X131235290Y-99454911D01*
X131361361Y-99402691D01*
X131469620Y-99319620D01*
X131552691Y-99211361D01*
X131604911Y-99085290D01*
X131622722Y-98950000D01*
X131604911Y-98814710D01*
X131552691Y-98688639D01*
X131552686Y-98688632D01*
X131469620Y-98580379D01*
X131361367Y-98497313D01*
X131361359Y-98497308D01*
X131235288Y-98445088D01*
X131100000Y-98427278D01*
X130964711Y-98445088D01*
X130838640Y-98497308D01*
X130838632Y-98497313D01*
X130730379Y-98580379D01*
X130647313Y-98688632D01*
X130647308Y-98688640D01*
X130595088Y-98814711D01*
X130577278Y-98949999D01*
X129250500Y-98949999D01*
X129250500Y-96549999D01*
X130577278Y-96549999D01*
X130577278Y-96550000D01*
X130595088Y-96685288D01*
X130647308Y-96811359D01*
X130647313Y-96811367D01*
X130730379Y-96919620D01*
X130838632Y-97002686D01*
X130838639Y-97002691D01*
X130964710Y-97054911D01*
X131100000Y-97072722D01*
X131235290Y-97054911D01*
X131361361Y-97002691D01*
X131469620Y-96919620D01*
X131552691Y-96811361D01*
X131604911Y-96685290D01*
X131622722Y-96550000D01*
X131604911Y-96414710D01*
X131552691Y-96288639D01*
X131552686Y-96288632D01*
X131469620Y-96180379D01*
X131361367Y-96097313D01*
X131361359Y-96097308D01*
X131235288Y-96045088D01*
X131100000Y-96027278D01*
X130964711Y-96045088D01*
X130838640Y-96097308D01*
X130838632Y-96097313D01*
X130730379Y-96180379D01*
X130647313Y-96288632D01*
X130647308Y-96288640D01*
X130595088Y-96414711D01*
X130577278Y-96549999D01*
X129250500Y-96549999D01*
X129250500Y-90799999D01*
X140577278Y-90799999D01*
X140577278Y-90800000D01*
X140595088Y-90935288D01*
X140647308Y-91061359D01*
X140647313Y-91061367D01*
X140730379Y-91169620D01*
X140838632Y-91252686D01*
X140838639Y-91252691D01*
X140964710Y-91304911D01*
X141100000Y-91322722D01*
X141235290Y-91304911D01*
X141361361Y-91252691D01*
X141469620Y-91169620D01*
X141532777Y-91087312D01*
X141590115Y-91045446D01*
X141660986Y-91041224D01*
X141722888Y-91075988D01*
X141741966Y-91104912D01*
X141743182Y-91104211D01*
X141747307Y-91111357D01*
X141747309Y-91111361D01*
X141747311Y-91111363D01*
X141747313Y-91111367D01*
X141830379Y-91219620D01*
X141873478Y-91252691D01*
X141938639Y-91302691D01*
X142064710Y-91354911D01*
X142200000Y-91372722D01*
X142335290Y-91354911D01*
X142461361Y-91302691D01*
X142569620Y-91219620D01*
X142652691Y-91111361D01*
X142704911Y-90985290D01*
X142722722Y-90850000D01*
X142716139Y-90800000D01*
X142704911Y-90714711D01*
X142684201Y-90664711D01*
X142652691Y-90588639D01*
X142641466Y-90574010D01*
X142569620Y-90480379D01*
X142461367Y-90397313D01*
X142461359Y-90397308D01*
X142335288Y-90345088D01*
X142200000Y-90327278D01*
X142064711Y-90345088D01*
X141938640Y-90397308D01*
X141938632Y-90397313D01*
X141830381Y-90480378D01*
X141767222Y-90562687D01*
X141709883Y-90604554D01*
X141639012Y-90608775D01*
X141577109Y-90574010D01*
X141558035Y-90545086D01*
X141556818Y-90545789D01*
X141552691Y-90538640D01*
X141552691Y-90538639D01*
X141507987Y-90480380D01*
X141469620Y-90430379D01*
X141361367Y-90347313D01*
X141361359Y-90347308D01*
X141235288Y-90295088D01*
X141100000Y-90277278D01*
X140964711Y-90295088D01*
X140838640Y-90347308D01*
X140838632Y-90347313D01*
X140730379Y-90430379D01*
X140647313Y-90538632D01*
X140647308Y-90538640D01*
X140595088Y-90664711D01*
X140577278Y-90799999D01*
X129250500Y-90799999D01*
X129250500Y-88049999D01*
X134477278Y-88049999D01*
X134477278Y-88050000D01*
X134495088Y-88185288D01*
X134547308Y-88311359D01*
X134547313Y-88311367D01*
X134630379Y-88419620D01*
X134738632Y-88502686D01*
X134738639Y-88502691D01*
X134864710Y-88554911D01*
X135000000Y-88572722D01*
X135135290Y-88554911D01*
X135261361Y-88502691D01*
X135369620Y-88419620D01*
X135452691Y-88311361D01*
X135504911Y-88185290D01*
X135522722Y-88050000D01*
X135516139Y-88000000D01*
X135516139Y-87999999D01*
X145977278Y-87999999D01*
X145977278Y-88000000D01*
X145995088Y-88135288D01*
X146047308Y-88261359D01*
X146047313Y-88261367D01*
X146130379Y-88369620D01*
X146238632Y-88452686D01*
X146238639Y-88452691D01*
X146364710Y-88504911D01*
X146500000Y-88522722D01*
X146635290Y-88504911D01*
X146761361Y-88452691D01*
X146869620Y-88369620D01*
X146952691Y-88261361D01*
X147004911Y-88135290D01*
X147009557Y-88099999D01*
X147677278Y-88099999D01*
X147677278Y-88100000D01*
X147695088Y-88235288D01*
X147747308Y-88361359D01*
X147747313Y-88361367D01*
X147830379Y-88469620D01*
X147938632Y-88552686D01*
X147938639Y-88552691D01*
X148064710Y-88604911D01*
X148200000Y-88622722D01*
X148335290Y-88604911D01*
X148461361Y-88552691D01*
X148569620Y-88469620D01*
X148652691Y-88361361D01*
X148704911Y-88235290D01*
X148722722Y-88100000D01*
X148716139Y-88050000D01*
X148704911Y-87964711D01*
X148684201Y-87914711D01*
X148652691Y-87838639D01*
X148652686Y-87838632D01*
X148569620Y-87730379D01*
X148461367Y-87647313D01*
X148461359Y-87647308D01*
X148335288Y-87595088D01*
X148200000Y-87577278D01*
X148064711Y-87595088D01*
X147938640Y-87647308D01*
X147938632Y-87647313D01*
X147830379Y-87730379D01*
X147747313Y-87838632D01*
X147747308Y-87838640D01*
X147695088Y-87964711D01*
X147677278Y-88099999D01*
X147009557Y-88099999D01*
X147022722Y-88000000D01*
X147004911Y-87864710D01*
X146952691Y-87738639D01*
X146907987Y-87680380D01*
X146869620Y-87630379D01*
X146761367Y-87547313D01*
X146761359Y-87547308D01*
X146635288Y-87495088D01*
X146500000Y-87477278D01*
X146364711Y-87495088D01*
X146238640Y-87547308D01*
X146238632Y-87547313D01*
X146130379Y-87630379D01*
X146047313Y-87738632D01*
X146047308Y-87738640D01*
X145995088Y-87864711D01*
X145977278Y-87999999D01*
X135516139Y-87999999D01*
X135511494Y-87964711D01*
X135504911Y-87914710D01*
X135452691Y-87788639D01*
X135452686Y-87788632D01*
X135369620Y-87680379D01*
X135261367Y-87597313D01*
X135261359Y-87597308D01*
X135135288Y-87545088D01*
X135000000Y-87527278D01*
X134864711Y-87545088D01*
X134738640Y-87597308D01*
X134738632Y-87597313D01*
X134630379Y-87680379D01*
X134547313Y-87788632D01*
X134547308Y-87788640D01*
X134495088Y-87914711D01*
X134477278Y-88049999D01*
X129250500Y-88049999D01*
X129250500Y-85599999D01*
X146677278Y-85599999D01*
X146677278Y-85600000D01*
X146695088Y-85735288D01*
X146747308Y-85861359D01*
X146747313Y-85861367D01*
X146830379Y-85969620D01*
X146938632Y-86052686D01*
X146938639Y-86052691D01*
X147064710Y-86104911D01*
X147200000Y-86122722D01*
X147335290Y-86104911D01*
X147461361Y-86052691D01*
X147569620Y-85969620D01*
X147652691Y-85861361D01*
X147704911Y-85735290D01*
X147722722Y-85600000D01*
X147704911Y-85464710D01*
X147652691Y-85338639D01*
X147652686Y-85338632D01*
X147569620Y-85230379D01*
X147461367Y-85147313D01*
X147461359Y-85147308D01*
X147335288Y-85095088D01*
X147200000Y-85077278D01*
X147064711Y-85095088D01*
X146938640Y-85147308D01*
X146938632Y-85147313D01*
X146830379Y-85230379D01*
X146747313Y-85338632D01*
X146747308Y-85338640D01*
X146695088Y-85464711D01*
X146677278Y-85599999D01*
X129250500Y-85599999D01*
X129250500Y-84399999D01*
X141377278Y-84399999D01*
X141377278Y-84400000D01*
X141395088Y-84535288D01*
X141447308Y-84661359D01*
X141447313Y-84661367D01*
X141530379Y-84769620D01*
X141638632Y-84852686D01*
X141638639Y-84852691D01*
X141764710Y-84904911D01*
X141900000Y-84922722D01*
X142035290Y-84904911D01*
X142161361Y-84852691D01*
X142269620Y-84769620D01*
X142352691Y-84661361D01*
X142404911Y-84535290D01*
X142422722Y-84400000D01*
X142404911Y-84264710D01*
X142352691Y-84138639D01*
X142288444Y-84054911D01*
X142269620Y-84030379D01*
X142161367Y-83947313D01*
X142161359Y-83947308D01*
X142035288Y-83895088D01*
X141900000Y-83877278D01*
X141764711Y-83895088D01*
X141638640Y-83947308D01*
X141638632Y-83947313D01*
X141530379Y-84030379D01*
X141447313Y-84138632D01*
X141447308Y-84138640D01*
X141395088Y-84264711D01*
X141377278Y-84399999D01*
X129250500Y-84399999D01*
X129250500Y-83549999D01*
X136877278Y-83549999D01*
X136877278Y-83550000D01*
X136895088Y-83685288D01*
X136947308Y-83811359D01*
X136947313Y-83811367D01*
X137030379Y-83919620D01*
X137138632Y-84002686D01*
X137138639Y-84002691D01*
X137264710Y-84054911D01*
X137400000Y-84072722D01*
X137535290Y-84054911D01*
X137661361Y-84002691D01*
X137769620Y-83919620D01*
X137852691Y-83811361D01*
X137904911Y-83685290D01*
X137922722Y-83550000D01*
X137904911Y-83414710D01*
X137852691Y-83288639D01*
X137852686Y-83288632D01*
X137769620Y-83180379D01*
X137661367Y-83097313D01*
X137661359Y-83097308D01*
X137535288Y-83045088D01*
X137400000Y-83027278D01*
X137264711Y-83045088D01*
X137138640Y-83097308D01*
X137138632Y-83097313D01*
X137030379Y-83180379D01*
X136947313Y-83288632D01*
X136947308Y-83288640D01*
X136895088Y-83414711D01*
X136877278Y-83549999D01*
X129250500Y-83549999D01*
X129250500Y-78509917D01*
X129252051Y-78490207D01*
X129259589Y-78442611D01*
X129271770Y-78405120D01*
X129289092Y-78371123D01*
X129312260Y-78339237D01*
X129339237Y-78312260D01*
X129371123Y-78289092D01*
X129405120Y-78271770D01*
X129442609Y-78259589D01*
X129490207Y-78252050D01*
X129509917Y-78250500D01*
X129544170Y-78250500D01*
X150455830Y-78250500D01*
X150490083Y-78250500D01*
X150509793Y-78252051D01*
G37*
%TD.AperFunction*%
%TD*%
M02*
