%TF.GenerationSoftware,KiCad,Pcbnew,8.0.7-8.0.7-0~ubuntu24.04.1*%
%TF.CreationDate,2024-12-23T11:48:45-05:00*%
%TF.ProjectId,gnssBoard,676e7373-426f-4617-9264-2e6b69636164,rev?*%
%TF.SameCoordinates,Original*%
%TF.FileFunction,Legend,Top*%
%TF.FilePolarity,Positive*%
%FSLAX46Y46*%
G04 Gerber Fmt 4.6, Leading zero omitted, Abs format (unit mm)*
G04 Created by KiCad (PCBNEW 8.0.7-8.0.7-0~ubuntu24.04.1) date 2024-12-23 11:48:45*
%MOMM*%
%LPD*%
G01*
G04 APERTURE LIST*
%ADD10C,0.200000*%
%ADD11C,0.150000*%
%ADD12C,0.180000*%
%ADD13C,0.120000*%
%ADD14C,0.100000*%
G04 APERTURE END LIST*
D10*
G36*
X129896200Y-84669190D02*
G01*
X130579103Y-85127878D01*
X130579103Y-84684333D01*
X130751050Y-84684333D01*
X130751050Y-85374564D01*
X130589849Y-85374564D01*
X129906946Y-84901710D01*
X129906946Y-85384333D01*
X129735000Y-85384333D01*
X129735000Y-84669190D01*
X129896200Y-84669190D01*
G37*
G36*
X130751050Y-85561898D02*
G01*
X130751050Y-86197662D01*
X130579103Y-86197662D01*
X130579103Y-85763643D01*
X130360261Y-85763643D01*
X130360261Y-86156629D01*
X130188314Y-86156629D01*
X130188314Y-85763643D01*
X129906946Y-85763643D01*
X129906946Y-86197662D01*
X129735000Y-86197662D01*
X129735000Y-85561898D01*
X130751050Y-85561898D01*
G37*
G36*
X130751050Y-86598953D02*
G01*
X130749199Y-86659453D01*
X130743646Y-86715533D01*
X130734392Y-86767194D01*
X130721435Y-86814436D01*
X130700034Y-86867274D01*
X130672849Y-86913207D01*
X130639880Y-86952234D01*
X130632592Y-86959211D01*
X130592387Y-86990395D01*
X130544741Y-87016475D01*
X130495496Y-87035582D01*
X130477742Y-87041033D01*
X130427001Y-87053321D01*
X130378294Y-87061193D01*
X130325567Y-87066378D01*
X130268820Y-87068874D01*
X130243269Y-87069121D01*
X130194201Y-87068155D01*
X130132845Y-87063861D01*
X130076136Y-87056133D01*
X130024076Y-87044971D01*
X129976665Y-87030373D01*
X129923937Y-87007297D01*
X129878471Y-86978853D01*
X129854678Y-86959211D01*
X129820201Y-86921372D01*
X129791567Y-86876698D01*
X129768776Y-86825191D01*
X129751829Y-86766851D01*
X129742479Y-86715258D01*
X129736869Y-86659293D01*
X129736248Y-86639253D01*
X129922578Y-86639253D01*
X129926084Y-86688020D01*
X129938678Y-86735739D01*
X129963794Y-86779204D01*
X129995851Y-86808758D01*
X130045203Y-86833197D01*
X130094647Y-86846676D01*
X130144730Y-86854379D01*
X130201923Y-86858526D01*
X130244002Y-86859316D01*
X130295748Y-86858082D01*
X130351390Y-86853342D01*
X130399990Y-86845047D01*
X130447792Y-86830877D01*
X130490687Y-86808758D01*
X130529069Y-86770795D01*
X130551459Y-86724964D01*
X130561694Y-86674947D01*
X130563471Y-86639253D01*
X130563471Y-86584543D01*
X129922578Y-86584543D01*
X129922578Y-86639253D01*
X129736248Y-86639253D01*
X129735000Y-86598953D01*
X129735000Y-86382798D01*
X130751050Y-86382798D01*
X130751050Y-86598953D01*
G37*
G36*
X130250840Y-87282589D02*
G01*
X130250840Y-87823098D01*
X130047630Y-87823098D01*
X130047630Y-87282589D01*
X130250840Y-87282589D01*
G37*
G36*
X130751050Y-88097871D02*
G01*
X130751050Y-88733636D01*
X130579103Y-88733636D01*
X130579103Y-88299616D01*
X130344630Y-88299616D01*
X130344630Y-88694801D01*
X130172683Y-88694801D01*
X130172683Y-88299616D01*
X129735000Y-88299616D01*
X129735000Y-88097871D01*
X130751050Y-88097871D01*
G37*
G36*
X130466067Y-88893694D02*
G01*
X130521503Y-88901502D01*
X130571803Y-88915166D01*
X130616969Y-88934687D01*
X130663173Y-88964862D01*
X130675090Y-88974948D01*
X130710779Y-89015174D01*
X130737701Y-89062763D01*
X130753801Y-89109415D01*
X130763461Y-89161476D01*
X130766681Y-89218946D01*
X130764131Y-89269955D01*
X130755315Y-89320922D01*
X130738345Y-89370043D01*
X130734441Y-89378192D01*
X130706529Y-89423221D01*
X130670785Y-89461586D01*
X130642606Y-89483461D01*
X130597340Y-89509946D01*
X130551502Y-89529215D01*
X130500834Y-89544155D01*
X130476765Y-89549407D01*
X130426268Y-89557955D01*
X130372962Y-89564061D01*
X130324015Y-89567401D01*
X130272918Y-89568870D01*
X130257923Y-89568946D01*
X130203847Y-89568010D01*
X130153361Y-89565202D01*
X130098996Y-89559561D01*
X130049517Y-89551371D01*
X130010994Y-89542324D01*
X129964252Y-89527593D01*
X129916995Y-89507627D01*
X129871104Y-89481227D01*
X129850771Y-89466364D01*
X129811968Y-89430605D01*
X129780131Y-89389886D01*
X129755258Y-89344205D01*
X129751120Y-89334473D01*
X129734376Y-89283530D01*
X129724608Y-89234623D01*
X129719864Y-89182817D01*
X129719368Y-89158862D01*
X129721660Y-89108612D01*
X129721810Y-89107083D01*
X129729626Y-89057746D01*
X129741891Y-89008405D01*
X129757161Y-88960674D01*
X129759424Y-88954431D01*
X129943827Y-88954431D01*
X129919417Y-89000313D01*
X129900898Y-89045633D01*
X129896688Y-89058479D01*
X129884873Y-89108908D01*
X129881545Y-89153978D01*
X129886003Y-89203498D01*
X129899375Y-89248011D01*
X129925693Y-89291331D01*
X129954818Y-89319574D01*
X129997495Y-89345330D01*
X130043967Y-89362561D01*
X130095338Y-89373527D01*
X130145621Y-89378610D01*
X130172927Y-89379658D01*
X130136062Y-89342823D01*
X130109729Y-89297287D01*
X130095329Y-89250305D01*
X130091567Y-89218458D01*
X130250840Y-89218458D01*
X130259583Y-89269889D01*
X130288351Y-89312024D01*
X130296514Y-89318841D01*
X130340507Y-89340981D01*
X130392279Y-89351399D01*
X130427428Y-89353035D01*
X130476576Y-89349763D01*
X130505341Y-89343754D01*
X130551096Y-89324480D01*
X130559319Y-89318841D01*
X130591752Y-89279389D01*
X130604107Y-89230463D01*
X130604504Y-89218458D01*
X130596442Y-89168635D01*
X130592292Y-89159107D01*
X130561909Y-89120638D01*
X130559319Y-89118562D01*
X130515599Y-89095474D01*
X130463506Y-89084609D01*
X130427916Y-89082903D01*
X130378352Y-89086385D01*
X130329076Y-89099758D01*
X130296514Y-89118562D01*
X130263731Y-89158150D01*
X130251242Y-89206623D01*
X130250840Y-89218458D01*
X130091567Y-89218458D01*
X130088992Y-89196662D01*
X130088663Y-89180112D01*
X130091677Y-89130320D01*
X130102812Y-89077874D01*
X130122151Y-89031505D01*
X130154300Y-88985954D01*
X130174392Y-88966155D01*
X130215003Y-88937128D01*
X130262462Y-88915231D01*
X130316770Y-88900463D01*
X130368771Y-88893479D01*
X130415949Y-88891661D01*
X130466067Y-88893694D01*
G37*
G36*
X130751050Y-90048151D02*
G01*
X130749890Y-90098961D01*
X130745176Y-90157343D01*
X130736838Y-90210024D01*
X130722046Y-90265718D01*
X130702033Y-90313202D01*
X130676800Y-90352477D01*
X130640041Y-90388356D01*
X130594307Y-90415422D01*
X130547962Y-90431608D01*
X130495022Y-90441320D01*
X130445868Y-90444467D01*
X130435488Y-90444557D01*
X130385611Y-90442309D01*
X130331710Y-90433676D01*
X130284300Y-90418569D01*
X130237193Y-90392762D01*
X130198922Y-90358142D01*
X130194176Y-90352477D01*
X130165245Y-90305858D01*
X130146102Y-90257005D01*
X130132180Y-90199944D01*
X130124567Y-90146123D01*
X130120579Y-90086600D01*
X130120055Y-90055722D01*
X130282103Y-90055722D01*
X130284808Y-90107141D01*
X130295461Y-90157026D01*
X130316297Y-90195185D01*
X130359639Y-90223585D01*
X130410231Y-90233786D01*
X130435488Y-90234752D01*
X130487781Y-90230077D01*
X130534177Y-90212495D01*
X130554434Y-90195185D01*
X130577976Y-90149016D01*
X130587225Y-90096540D01*
X130588872Y-90055722D01*
X130588872Y-89972924D01*
X130282103Y-89972924D01*
X130282103Y-90055722D01*
X130120055Y-90055722D01*
X130119926Y-90048151D01*
X130119926Y-89972924D01*
X129735000Y-89972924D01*
X129735000Y-89771423D01*
X130751050Y-89771423D01*
X130751050Y-90048151D01*
G37*
D11*
G36*
X130083414Y-115000082D02*
G01*
X130127201Y-115003617D01*
X130166712Y-115009871D01*
X130208482Y-115020965D01*
X130244095Y-115035974D01*
X130273551Y-115054899D01*
X130300460Y-115082468D01*
X130320760Y-115116769D01*
X130332900Y-115151528D01*
X130340183Y-115191232D01*
X130342544Y-115228098D01*
X130342611Y-115235883D01*
X130340925Y-115273291D01*
X130334451Y-115313717D01*
X130323121Y-115349274D01*
X130303765Y-115384604D01*
X130277800Y-115413308D01*
X130273551Y-115416867D01*
X130238587Y-115438566D01*
X130201948Y-115452922D01*
X130159152Y-115463364D01*
X130118785Y-115469074D01*
X130074144Y-115472065D01*
X130045307Y-115472554D01*
X129988886Y-115472554D01*
X129988886Y-115761250D01*
X129837761Y-115761250D01*
X129837761Y-115350922D01*
X129988886Y-115350922D01*
X130050985Y-115350922D01*
X130089550Y-115348893D01*
X130126963Y-115340904D01*
X130155582Y-115325276D01*
X130176882Y-115292770D01*
X130184533Y-115254826D01*
X130185258Y-115235883D01*
X130181751Y-115196663D01*
X130168565Y-115161866D01*
X130155582Y-115146673D01*
X130120956Y-115129017D01*
X130081598Y-115122081D01*
X130050985Y-115120845D01*
X129988886Y-115120845D01*
X129988886Y-115350922D01*
X129837761Y-115350922D01*
X129837761Y-114999212D01*
X130045307Y-114999212D01*
X130083414Y-115000082D01*
G37*
G36*
X130384194Y-114999212D02*
G01*
X130516451Y-114999212D01*
X130571406Y-115555170D01*
X130637534Y-115186790D01*
X130763014Y-115186790D01*
X130839951Y-115555170D01*
X130882998Y-114999212D01*
X131016355Y-114999212D01*
X130928244Y-115761250D01*
X130787194Y-115761250D01*
X130700000Y-115354219D01*
X130618483Y-115761250D01*
X130478532Y-115761250D01*
X130384194Y-114999212D01*
G37*
G36*
X131346594Y-115000477D02*
G01*
X131386642Y-115004274D01*
X131429339Y-115012172D01*
X131466189Y-115023715D01*
X131501789Y-115041788D01*
X131514610Y-115051052D01*
X131541344Y-115079061D01*
X131559687Y-115111739D01*
X131562787Y-115119562D01*
X131573106Y-115156239D01*
X131577962Y-115193904D01*
X131578724Y-115217565D01*
X131576631Y-115255054D01*
X131569199Y-115291021D01*
X131554488Y-115324677D01*
X131540256Y-115344877D01*
X131512344Y-115370658D01*
X131494827Y-115381330D01*
X131458935Y-115394762D01*
X131429614Y-115400381D01*
X131462925Y-115415850D01*
X131468998Y-115421447D01*
X131486584Y-115444894D01*
X131504769Y-115477080D01*
X131509481Y-115486293D01*
X131647967Y-115761250D01*
X131481821Y-115761250D01*
X131389497Y-115566527D01*
X131378872Y-115543812D01*
X131361159Y-115511455D01*
X131338942Y-115482088D01*
X131334726Y-115477867D01*
X131302471Y-115458967D01*
X131283435Y-115456434D01*
X131235258Y-115456434D01*
X131235258Y-115761250D01*
X131083949Y-115761250D01*
X131083949Y-115334801D01*
X131235258Y-115334801D01*
X131306516Y-115334801D01*
X131345239Y-115331814D01*
X131380120Y-115320582D01*
X131395725Y-115309522D01*
X131415143Y-115278565D01*
X131421945Y-115240846D01*
X131422287Y-115227640D01*
X131418551Y-115188966D01*
X131403377Y-115153953D01*
X131395725Y-115145574D01*
X131362621Y-115127824D01*
X131325067Y-115121449D01*
X131306516Y-115120845D01*
X131235258Y-115120845D01*
X131235258Y-115334801D01*
X131083949Y-115334801D01*
X131083949Y-114999212D01*
X131302486Y-114999212D01*
X131346594Y-115000477D01*
G37*
D12*
G36*
X129719368Y-105992149D02*
G01*
X129722683Y-105932819D01*
X129732630Y-105877865D01*
X129749207Y-105827288D01*
X129772414Y-105781089D01*
X129802253Y-105739266D01*
X129838723Y-105701819D01*
X129855167Y-105688066D01*
X129898802Y-105658228D01*
X129943253Y-105635166D01*
X129992611Y-105615698D01*
X130016123Y-105608199D01*
X130066361Y-105595804D01*
X130121086Y-105586950D01*
X130172653Y-105582108D01*
X130227655Y-105579978D01*
X130244002Y-105579867D01*
X130305845Y-105581577D01*
X130363879Y-105586706D01*
X130418105Y-105595254D01*
X130468522Y-105607222D01*
X130515130Y-105622609D01*
X130568035Y-105646652D01*
X130614988Y-105676038D01*
X130632103Y-105689288D01*
X130670873Y-105725736D01*
X130703072Y-105766692D01*
X130728700Y-105812156D01*
X130747756Y-105862128D01*
X130760242Y-105916608D01*
X130766156Y-105975596D01*
X130766681Y-106000453D01*
X130763698Y-106052313D01*
X130754750Y-106102319D01*
X130748607Y-106124773D01*
X130730865Y-106172140D01*
X130707802Y-106216604D01*
X130695362Y-106236147D01*
X130471147Y-106236147D01*
X130507738Y-106202705D01*
X130539006Y-106162523D01*
X130552236Y-106139183D01*
X130569631Y-106093270D01*
X130578158Y-106043246D01*
X130579103Y-106018771D01*
X130573913Y-105964687D01*
X130558342Y-105917960D01*
X130528418Y-105874187D01*
X130496060Y-105846580D01*
X130448616Y-105821789D01*
X130398587Y-105805908D01*
X130349380Y-105796611D01*
X130294334Y-105791299D01*
X130244002Y-105789916D01*
X130194571Y-105791251D01*
X130140166Y-105796381D01*
X130091119Y-105805356D01*
X130040669Y-105820690D01*
X129991943Y-105844626D01*
X129953844Y-105875925D01*
X129928928Y-105909839D01*
X129911776Y-105956169D01*
X129906946Y-106004605D01*
X129908168Y-106032449D01*
X129913053Y-106058583D01*
X129920136Y-106081053D01*
X129929661Y-106096196D01*
X130119926Y-106096196D01*
X130119926Y-105957955D01*
X130282103Y-105957955D01*
X130282103Y-106272540D01*
X129823171Y-106272540D01*
X129790910Y-106231190D01*
X129764652Y-106187070D01*
X129745990Y-106144556D01*
X129731520Y-106097338D01*
X129726207Y-106072016D01*
X129720176Y-106020981D01*
X129719368Y-105992149D01*
G37*
G36*
X130751050Y-106423482D02*
G01*
X130751050Y-106640125D01*
X130008796Y-106924668D01*
X130751050Y-106924668D01*
X130751050Y-107102233D01*
X129735000Y-107102233D01*
X129735000Y-106887055D01*
X130463087Y-106601290D01*
X129735000Y-106601290D01*
X129735000Y-106423482D01*
X130751050Y-106423482D01*
G37*
G36*
X129719368Y-107582170D02*
G01*
X129720894Y-107531642D01*
X129723276Y-107502058D01*
X129730260Y-107453419D01*
X129736465Y-107424145D01*
X129749230Y-107375735D01*
X129765240Y-107329424D01*
X129786597Y-107280907D01*
X129788733Y-107276622D01*
X129994385Y-107276622D01*
X129964555Y-107321889D01*
X129939362Y-107366189D01*
X129916808Y-107414280D01*
X129909389Y-107433182D01*
X129894706Y-107480437D01*
X129884835Y-107531206D01*
X129881545Y-107580704D01*
X129886319Y-107632419D01*
X129903957Y-107680858D01*
X129915495Y-107697697D01*
X129955856Y-107728471D01*
X130005340Y-107738689D01*
X130009040Y-107738729D01*
X130057469Y-107730074D01*
X130089152Y-107711374D01*
X130119926Y-107676692D01*
X130142641Y-107631995D01*
X130180010Y-107532833D01*
X130198657Y-107486527D01*
X130219225Y-107441816D01*
X130239849Y-107403628D01*
X130268457Y-107361489D01*
X130301399Y-107326448D01*
X130344575Y-107297983D01*
X130391224Y-107281378D01*
X130445254Y-107273313D01*
X130471636Y-107272470D01*
X130521439Y-107275595D01*
X130574159Y-107287143D01*
X130621082Y-107307198D01*
X130662208Y-107335762D01*
X130688035Y-107361374D01*
X130718679Y-107403653D01*
X130741797Y-107452055D01*
X130757388Y-107506582D01*
X130764761Y-107558193D01*
X130766681Y-107604640D01*
X130764979Y-107655679D01*
X130759870Y-107704351D01*
X130752271Y-107746545D01*
X130738784Y-107797035D01*
X130721714Y-107845127D01*
X130704399Y-107885764D01*
X130511203Y-107885764D01*
X130538082Y-107844641D01*
X130564323Y-107795136D01*
X130584003Y-107745459D01*
X130597124Y-107695611D01*
X130603684Y-107645590D01*
X130604504Y-107620516D01*
X130600417Y-107570129D01*
X130583812Y-107521540D01*
X130575439Y-107508897D01*
X130534816Y-107477495D01*
X130492641Y-107470062D01*
X130443604Y-107482369D01*
X130422787Y-107498639D01*
X130394944Y-107539427D01*
X130374247Y-107585108D01*
X130361727Y-107617096D01*
X130329242Y-107703803D01*
X130307975Y-107754800D01*
X130284136Y-107799439D01*
X130253743Y-107842670D01*
X130215536Y-107881379D01*
X130211029Y-107885031D01*
X130166138Y-107913131D01*
X130114446Y-107932034D01*
X130062789Y-107941117D01*
X130020519Y-107943161D01*
X129966910Y-107939941D01*
X129918556Y-107930281D01*
X129868784Y-107910871D01*
X129826165Y-107882696D01*
X129795327Y-107851570D01*
X129765730Y-107807373D01*
X129743402Y-107754925D01*
X129730050Y-107703402D01*
X129722038Y-107645817D01*
X129719442Y-107593199D01*
X129719368Y-107582170D01*
G37*
G36*
X129719368Y-108424319D02*
G01*
X129720894Y-108373791D01*
X129723276Y-108344207D01*
X129730260Y-108295569D01*
X129736465Y-108266294D01*
X129749230Y-108217884D01*
X129765240Y-108171574D01*
X129786597Y-108123056D01*
X129788733Y-108118771D01*
X129994385Y-108118771D01*
X129964555Y-108164038D01*
X129939362Y-108208339D01*
X129916808Y-108256429D01*
X129909389Y-108275331D01*
X129894706Y-108322586D01*
X129884835Y-108373355D01*
X129881545Y-108422854D01*
X129886319Y-108474568D01*
X129903957Y-108523008D01*
X129915495Y-108539846D01*
X129955856Y-108570621D01*
X130005340Y-108580839D01*
X130009040Y-108580879D01*
X130057469Y-108572223D01*
X130089152Y-108553524D01*
X130119926Y-108518841D01*
X130142641Y-108474145D01*
X130180010Y-108374982D01*
X130198657Y-108328676D01*
X130219225Y-108283966D01*
X130239849Y-108245778D01*
X130268457Y-108203639D01*
X130301399Y-108168597D01*
X130344575Y-108140132D01*
X130391224Y-108123528D01*
X130445254Y-108115463D01*
X130471636Y-108114619D01*
X130521439Y-108117745D01*
X130574159Y-108129292D01*
X130621082Y-108149347D01*
X130662208Y-108177911D01*
X130688035Y-108203524D01*
X130718679Y-108245802D01*
X130741797Y-108294204D01*
X130757388Y-108348731D01*
X130764761Y-108400343D01*
X130766681Y-108446789D01*
X130764979Y-108497828D01*
X130759870Y-108546501D01*
X130752271Y-108588695D01*
X130738784Y-108639184D01*
X130721714Y-108687277D01*
X130704399Y-108727913D01*
X130511203Y-108727913D01*
X130538082Y-108686790D01*
X130564323Y-108637285D01*
X130584003Y-108587608D01*
X130597124Y-108537760D01*
X130603684Y-108487740D01*
X130604504Y-108462665D01*
X130600417Y-108412279D01*
X130583812Y-108363689D01*
X130575439Y-108351046D01*
X130534816Y-108319645D01*
X130492641Y-108312212D01*
X130443604Y-108324518D01*
X130422787Y-108340788D01*
X130394944Y-108381577D01*
X130374247Y-108427258D01*
X130361727Y-108459246D01*
X130329242Y-108545952D01*
X130307975Y-108596949D01*
X130284136Y-108641588D01*
X130253743Y-108684819D01*
X130215536Y-108723528D01*
X130211029Y-108727180D01*
X130166138Y-108755280D01*
X130114446Y-108774184D01*
X130062789Y-108783266D01*
X130020519Y-108785310D01*
X129966910Y-108782090D01*
X129918556Y-108772430D01*
X129868784Y-108753021D01*
X129826165Y-108724846D01*
X129795327Y-108693719D01*
X129765730Y-108649522D01*
X129743402Y-108597074D01*
X129730050Y-108545551D01*
X129722038Y-108487966D01*
X129719442Y-108435348D01*
X129719368Y-108424319D01*
G37*
G36*
X130751050Y-110092986D02*
G01*
X130749362Y-110151798D01*
X130744300Y-110205195D01*
X130733770Y-110262124D01*
X130718379Y-110311257D01*
X130694282Y-110358725D01*
X130681929Y-110375819D01*
X130644584Y-110411465D01*
X130601014Y-110435922D01*
X130590582Y-110440055D01*
X130541680Y-110453813D01*
X130491460Y-110460288D01*
X130459912Y-110461304D01*
X130409927Y-110458514D01*
X130361971Y-110448604D01*
X130317097Y-110428990D01*
X130290163Y-110410013D01*
X130255788Y-110372797D01*
X130241559Y-110349441D01*
X130223649Y-110301585D01*
X130216158Y-110262491D01*
X130195532Y-110306906D01*
X130188070Y-110315003D01*
X130156807Y-110338450D01*
X130113893Y-110362698D01*
X130101608Y-110368981D01*
X129735000Y-110553628D01*
X129735000Y-110332100D01*
X129994630Y-110209002D01*
X130024916Y-110194836D01*
X130068059Y-110171217D01*
X130107215Y-110141595D01*
X130112843Y-110135973D01*
X130134883Y-110098360D01*
X130303597Y-110098360D01*
X130307580Y-110149991D01*
X130322556Y-110196499D01*
X130337302Y-110217306D01*
X130378579Y-110243196D01*
X130428871Y-110252265D01*
X130446479Y-110252721D01*
X130498045Y-110247741D01*
X130544728Y-110227508D01*
X130555900Y-110217306D01*
X130579567Y-110173167D01*
X130588067Y-110123095D01*
X130588872Y-110098360D01*
X130588872Y-110003349D01*
X130303597Y-110003349D01*
X130303597Y-110098360D01*
X130134883Y-110098360D01*
X130138043Y-110092967D01*
X130141420Y-110067585D01*
X130141420Y-110003349D01*
X129735000Y-110003349D01*
X129735000Y-109801605D01*
X130751050Y-109801605D01*
X130751050Y-110092986D01*
G37*
G36*
X129719368Y-111071667D02*
G01*
X129721471Y-111022048D01*
X129730013Y-110964210D01*
X129745127Y-110911022D01*
X129766812Y-110862486D01*
X129795068Y-110818601D01*
X129829895Y-110779367D01*
X129853946Y-110758060D01*
X129899116Y-110726748D01*
X129950059Y-110700744D01*
X130006774Y-110680046D01*
X130056302Y-110667309D01*
X130109524Y-110657969D01*
X130166440Y-110652025D01*
X130227051Y-110649478D01*
X130242780Y-110649371D01*
X130304589Y-110651070D01*
X130362643Y-110656164D01*
X130416941Y-110664656D01*
X130467484Y-110676543D01*
X130514272Y-110691828D01*
X130567475Y-110715709D01*
X130614812Y-110744898D01*
X130632103Y-110758060D01*
X130670873Y-110794503D01*
X130703072Y-110835597D01*
X130728700Y-110881343D01*
X130747756Y-110931739D01*
X130760242Y-110986787D01*
X130766156Y-111046486D01*
X130766681Y-111071667D01*
X130764204Y-111122598D01*
X130756770Y-111171097D01*
X130753736Y-111184508D01*
X130738581Y-111232976D01*
X130717844Y-111278546D01*
X130714658Y-111284403D01*
X130481161Y-111284403D01*
X130515342Y-111246746D01*
X130528545Y-111229204D01*
X130553916Y-111187384D01*
X130555900Y-111183286D01*
X130572418Y-111136921D01*
X130573485Y-111132240D01*
X130579097Y-111083513D01*
X130579103Y-111081926D01*
X130573821Y-111030512D01*
X130555252Y-110980555D01*
X130523314Y-110938944D01*
X130494595Y-110915840D01*
X130446525Y-110891050D01*
X130396324Y-110875168D01*
X130347248Y-110865872D01*
X130292591Y-110860559D01*
X130242780Y-110859176D01*
X130192800Y-110860559D01*
X130138097Y-110865872D01*
X130089148Y-110875168D01*
X130039311Y-110891050D01*
X129991943Y-110915840D01*
X129950856Y-110951887D01*
X129923215Y-110996280D01*
X129909022Y-111049020D01*
X129906946Y-111081926D01*
X129911669Y-111130580D01*
X129925837Y-111177624D01*
X129928440Y-111183775D01*
X129951967Y-111228225D01*
X129953841Y-111231158D01*
X129983847Y-111271754D01*
X129994385Y-111284403D01*
X129769682Y-111284403D01*
X129748888Y-111238450D01*
X129733675Y-111190350D01*
X129732069Y-111183775D01*
X129722952Y-111133353D01*
X129719480Y-111082904D01*
X129719368Y-111071667D01*
G37*
G36*
X130751050Y-111434124D02*
G01*
X130751050Y-111637090D01*
X129900108Y-111816120D01*
X130751050Y-111995882D01*
X130751050Y-112198848D01*
X129735000Y-111956315D01*
X129735000Y-111676657D01*
X130751050Y-111434124D01*
G37*
G36*
X130751050Y-112619434D02*
G01*
X130749362Y-112678246D01*
X130744300Y-112731643D01*
X130733770Y-112788572D01*
X130718379Y-112837705D01*
X130694282Y-112885173D01*
X130681929Y-112902267D01*
X130644584Y-112937913D01*
X130601014Y-112962370D01*
X130590582Y-112966503D01*
X130541680Y-112980261D01*
X130491460Y-112986736D01*
X130459912Y-112987752D01*
X130409927Y-112984962D01*
X130361971Y-112975052D01*
X130317097Y-112955438D01*
X130290163Y-112936461D01*
X130255788Y-112899245D01*
X130241559Y-112875889D01*
X130223649Y-112828033D01*
X130216158Y-112788939D01*
X130195532Y-112833354D01*
X130188070Y-112841451D01*
X130156807Y-112864898D01*
X130113893Y-112889146D01*
X130101608Y-112895429D01*
X129735000Y-113080076D01*
X129735000Y-112858548D01*
X129994630Y-112735450D01*
X130024916Y-112721284D01*
X130068059Y-112697665D01*
X130107215Y-112668043D01*
X130112843Y-112662421D01*
X130134883Y-112624808D01*
X130303597Y-112624808D01*
X130307580Y-112676439D01*
X130322556Y-112722947D01*
X130337302Y-112743754D01*
X130378579Y-112769644D01*
X130428871Y-112778713D01*
X130446479Y-112779169D01*
X130498045Y-112774189D01*
X130544728Y-112753956D01*
X130555900Y-112743754D01*
X130579567Y-112699615D01*
X130588067Y-112649543D01*
X130588872Y-112624808D01*
X130588872Y-112529797D01*
X130303597Y-112529797D01*
X130303597Y-112624808D01*
X130134883Y-112624808D01*
X130138043Y-112619415D01*
X130141420Y-112594033D01*
X130141420Y-112529797D01*
X129735000Y-112529797D01*
X129735000Y-112328053D01*
X130751050Y-112328053D01*
X130751050Y-112619434D01*
G37*
D11*
G36*
X149033414Y-111550082D02*
G01*
X149077201Y-111553617D01*
X149116712Y-111559871D01*
X149158482Y-111570965D01*
X149194095Y-111585974D01*
X149223551Y-111604899D01*
X149250460Y-111632468D01*
X149270760Y-111666769D01*
X149282900Y-111701528D01*
X149290183Y-111741232D01*
X149292544Y-111778098D01*
X149292611Y-111785883D01*
X149290925Y-111823291D01*
X149284451Y-111863717D01*
X149273121Y-111899274D01*
X149253765Y-111934604D01*
X149227800Y-111963308D01*
X149223551Y-111966867D01*
X149188587Y-111988566D01*
X149151948Y-112002922D01*
X149109152Y-112013364D01*
X149068785Y-112019074D01*
X149024144Y-112022065D01*
X148995307Y-112022554D01*
X148938886Y-112022554D01*
X148938886Y-112311250D01*
X148787761Y-112311250D01*
X148787761Y-111900922D01*
X148938886Y-111900922D01*
X149000985Y-111900922D01*
X149039550Y-111898893D01*
X149076963Y-111890904D01*
X149105582Y-111875276D01*
X149126882Y-111842770D01*
X149134533Y-111804826D01*
X149135258Y-111785883D01*
X149131751Y-111746663D01*
X149118565Y-111711866D01*
X149105582Y-111696673D01*
X149070956Y-111679017D01*
X149031598Y-111672081D01*
X149000985Y-111670845D01*
X148938886Y-111670845D01*
X148938886Y-111900922D01*
X148787761Y-111900922D01*
X148787761Y-111549212D01*
X148995307Y-111549212D01*
X149033414Y-111550082D01*
G37*
G36*
X149665026Y-111550082D02*
G01*
X149708813Y-111553617D01*
X149748324Y-111559871D01*
X149790094Y-111570965D01*
X149825707Y-111585974D01*
X149855163Y-111604899D01*
X149882072Y-111632468D01*
X149902372Y-111666769D01*
X149914512Y-111701528D01*
X149921795Y-111741232D01*
X149924156Y-111778098D01*
X149924223Y-111785883D01*
X149922537Y-111823291D01*
X149916063Y-111863717D01*
X149904733Y-111899274D01*
X149885377Y-111934604D01*
X149859412Y-111963308D01*
X149855163Y-111966867D01*
X149820199Y-111988566D01*
X149783560Y-112002922D01*
X149740764Y-112013364D01*
X149700397Y-112019074D01*
X149655756Y-112022065D01*
X149626919Y-112022554D01*
X149570498Y-112022554D01*
X149570498Y-112311250D01*
X149419373Y-112311250D01*
X149419373Y-111900922D01*
X149570498Y-111900922D01*
X149632597Y-111900922D01*
X149671162Y-111898893D01*
X149708575Y-111890904D01*
X149737194Y-111875276D01*
X149758494Y-111842770D01*
X149766145Y-111804826D01*
X149766870Y-111785883D01*
X149763363Y-111746663D01*
X149750177Y-111711866D01*
X149737194Y-111696673D01*
X149702568Y-111679017D01*
X149663210Y-111672081D01*
X149632597Y-111670845D01*
X149570498Y-111670845D01*
X149570498Y-111900922D01*
X149419373Y-111900922D01*
X149419373Y-111549212D01*
X149626919Y-111549212D01*
X149665026Y-111550082D01*
G37*
G36*
X150264209Y-112322973D02*
G01*
X150226313Y-112321828D01*
X150204125Y-112320042D01*
X150167646Y-112314804D01*
X150145690Y-112310150D01*
X150109383Y-112300576D01*
X150074650Y-112288569D01*
X150038262Y-112272552D01*
X150035048Y-112270949D01*
X150035048Y-112116710D01*
X150068998Y-112139083D01*
X150102224Y-112157978D01*
X150138292Y-112174893D01*
X150152468Y-112180457D01*
X150187910Y-112191470D01*
X150225986Y-112198873D01*
X150263110Y-112201340D01*
X150301896Y-112197760D01*
X150338226Y-112184531D01*
X150350854Y-112175878D01*
X150373935Y-112145607D01*
X150381599Y-112108494D01*
X150381629Y-112105719D01*
X150375137Y-112069398D01*
X150361113Y-112045635D01*
X150335101Y-112022554D01*
X150301578Y-112005519D01*
X150227206Y-111977492D01*
X150192477Y-111963506D01*
X150158944Y-111948081D01*
X150130303Y-111932612D01*
X150098699Y-111911156D01*
X150072418Y-111886450D01*
X150051069Y-111854068D01*
X150038616Y-111819081D01*
X150032567Y-111778559D01*
X150031934Y-111758772D01*
X150034278Y-111721420D01*
X150042939Y-111681880D01*
X150057980Y-111646688D01*
X150079403Y-111615843D01*
X150098613Y-111596473D01*
X150130321Y-111573490D01*
X150166623Y-111556151D01*
X150207518Y-111544458D01*
X150246227Y-111538928D01*
X150281062Y-111537488D01*
X150319341Y-111538765D01*
X150355845Y-111542597D01*
X150387491Y-111548296D01*
X150425358Y-111558411D01*
X150461427Y-111571213D01*
X150491905Y-111584200D01*
X150491905Y-111729097D01*
X150461062Y-111708938D01*
X150423934Y-111689257D01*
X150386676Y-111674497D01*
X150349290Y-111664656D01*
X150311775Y-111659736D01*
X150292969Y-111659121D01*
X150255179Y-111662187D01*
X150218737Y-111674640D01*
X150209255Y-111680920D01*
X150185703Y-111711387D01*
X150180129Y-111743019D01*
X150189359Y-111779796D01*
X150201561Y-111795409D01*
X150232152Y-111816291D01*
X150266413Y-111831814D01*
X150290404Y-111841204D01*
X150355434Y-111865567D01*
X150393682Y-111881518D01*
X150427161Y-111899397D01*
X150459584Y-111922192D01*
X150488616Y-111950847D01*
X150491355Y-111954228D01*
X150512430Y-111987896D01*
X150526608Y-112026665D01*
X150533420Y-112065408D01*
X150534952Y-112097110D01*
X150532537Y-112137317D01*
X150525292Y-112173582D01*
X150510735Y-112210911D01*
X150489604Y-112242875D01*
X150466259Y-112266004D01*
X150433112Y-112288202D01*
X150393776Y-112304948D01*
X150355133Y-112314962D01*
X150311945Y-112320970D01*
X150272481Y-112322918D01*
X150264209Y-112322973D01*
G37*
D13*
%TO.C,C9*%
X134535000Y-85185000D02*
X135445000Y-85185000D01*
X134535000Y-86515000D02*
X134535000Y-85185000D01*
X135445000Y-86515000D02*
X134535000Y-86515000D01*
X136355000Y-86515000D02*
X137265000Y-86515000D01*
X137265000Y-85185000D02*
X136355000Y-85185000D01*
X137265000Y-86515000D02*
X137265000Y-85185000D01*
%TO.C,R3*%
X132430000Y-111205000D02*
X132430000Y-111835000D01*
X132430000Y-113095000D02*
X132430000Y-112465000D01*
X133370000Y-111205000D02*
X132430000Y-111205000D01*
X133370000Y-111835000D02*
X133370000Y-111205000D01*
X133370000Y-112465000D02*
X133370000Y-113095000D01*
X133370000Y-113095000D02*
X132430000Y-113095000D01*
%TO.C,R12*%
X139705000Y-87130000D02*
X139705000Y-88070000D01*
X139705000Y-88070000D02*
X140335000Y-88070000D01*
X140335000Y-87130000D02*
X139705000Y-87130000D01*
X140965000Y-87130000D02*
X141595000Y-87130000D01*
X141595000Y-87130000D02*
X141595000Y-88070000D01*
X141595000Y-88070000D02*
X140965000Y-88070000D01*
%TO.C,U4*%
X140890000Y-83690000D02*
X142910000Y-83690000D01*
X142910000Y-86910000D02*
X140890000Y-86910000D01*
D14*
X140500000Y-83800000D02*
X140250000Y-83550000D01*
X140750000Y-83550000D01*
X140500000Y-83800000D01*
G36*
X140500000Y-83800000D02*
G01*
X140250000Y-83550000D01*
X140750000Y-83550000D01*
X140500000Y-83800000D01*
G37*
D13*
%TO.C,D1*%
X129340000Y-114710000D02*
X129340000Y-113490000D01*
X131160000Y-113490000D02*
X132060000Y-113490000D01*
X131160000Y-114710000D02*
X132060000Y-114710000D01*
X132060000Y-114710000D02*
X132060000Y-113490000D01*
%TO.C,R2*%
X132355000Y-113830000D02*
X132355000Y-114770000D01*
X132355000Y-114770000D02*
X132985000Y-114770000D01*
X132985000Y-113830000D02*
X132355000Y-113830000D01*
X133615000Y-113830000D02*
X134245000Y-113830000D01*
X134245000Y-113830000D02*
X134245000Y-114770000D01*
X134245000Y-114770000D02*
X133615000Y-114770000D01*
%TO.C,R9*%
X148530000Y-112555000D02*
X148530000Y-113185000D01*
X148530000Y-114445000D02*
X148530000Y-113815000D01*
X149470000Y-112555000D02*
X148530000Y-112555000D01*
X149470000Y-113185000D02*
X149470000Y-112555000D01*
X149470000Y-113815000D02*
X149470000Y-114445000D01*
X149470000Y-114445000D02*
X148530000Y-114445000D01*
%TO.C,C1*%
X146960000Y-111435000D02*
X148290000Y-111435000D01*
X146960000Y-112345000D02*
X146960000Y-111435000D01*
X146960000Y-113255000D02*
X146960000Y-114165000D01*
X146960000Y-114165000D02*
X148290000Y-114165000D01*
X148290000Y-111435000D02*
X148290000Y-112345000D01*
X148290000Y-114165000D02*
X148290000Y-113255000D01*
%TO.C,U2*%
X133750000Y-111200000D02*
X133750000Y-111850000D01*
X133750000Y-112450000D02*
X133750000Y-113100000D01*
X135950000Y-111200000D02*
X135950000Y-111850000D01*
X135950000Y-112450000D02*
X135950000Y-113100000D01*
D14*
X134300000Y-113650000D02*
X133800000Y-113650000D01*
X134050000Y-113400000D01*
X134300000Y-113650000D01*
G36*
X134300000Y-113650000D02*
G01*
X133800000Y-113650000D01*
X134050000Y-113400000D01*
X134300000Y-113650000D01*
G37*
D13*
%TO.C,R4*%
X134505000Y-86780000D02*
X134505000Y-87720000D01*
X134505000Y-87720000D02*
X135135000Y-87720000D01*
X135135000Y-86780000D02*
X134505000Y-86780000D01*
X135765000Y-86780000D02*
X136395000Y-86780000D01*
X136395000Y-86780000D02*
X136395000Y-87720000D01*
X136395000Y-87720000D02*
X135765000Y-87720000D01*
%TO.C,R11*%
X138430000Y-110955000D02*
X138430000Y-111585000D01*
X138430000Y-112845000D02*
X138430000Y-112215000D01*
X139370000Y-110955000D02*
X138430000Y-110955000D01*
X139370000Y-111585000D02*
X139370000Y-110955000D01*
X139370000Y-112215000D02*
X139370000Y-112845000D01*
X139370000Y-112845000D02*
X138430000Y-112845000D01*
%TO.C,C6*%
X129585000Y-99585000D02*
X129585000Y-100495000D01*
X129585000Y-102315000D02*
X129585000Y-101405000D01*
X130915000Y-99585000D02*
X129585000Y-99585000D01*
X130915000Y-100495000D02*
X130915000Y-99585000D01*
X130915000Y-101405000D02*
X130915000Y-102315000D01*
X130915000Y-102315000D02*
X129585000Y-102315000D01*
%TO.C,C4*%
X129585000Y-93685000D02*
X129585000Y-94595000D01*
X129585000Y-96415000D02*
X129585000Y-95505000D01*
X130915000Y-93685000D02*
X129585000Y-93685000D01*
X130915000Y-94595000D02*
X130915000Y-93685000D01*
X130915000Y-95505000D02*
X130915000Y-96415000D01*
X130915000Y-96415000D02*
X129585000Y-96415000D01*
%TO.C,D4*%
X149240000Y-108590000D02*
X150460000Y-108590000D01*
X149240000Y-110410000D02*
X149240000Y-111310000D01*
X149240000Y-111310000D02*
X150460000Y-111310000D01*
X150460000Y-110410000D02*
X150460000Y-111310000D01*
%TO.C,U3*%
X131376700Y-88374800D02*
X131376700Y-110625200D01*
X131376700Y-110625200D02*
X147250000Y-110625200D01*
X147250000Y-110625200D02*
X148623300Y-109250000D01*
X148623300Y-88374800D02*
X131376700Y-88374800D01*
X148623300Y-109250000D02*
X148623300Y-88374800D01*
%TO.C,R8*%
X147730000Y-85855000D02*
X148670000Y-85855000D01*
X147730000Y-86485000D02*
X147730000Y-85855000D01*
X147730000Y-87115000D02*
X147730000Y-87745000D01*
X147730000Y-87745000D02*
X148670000Y-87745000D01*
X148670000Y-85855000D02*
X148670000Y-86485000D01*
X148670000Y-87745000D02*
X148670000Y-87115000D01*
%TO.C,C8*%
X129585000Y-90735000D02*
X129585000Y-91645000D01*
X129585000Y-93465000D02*
X129585000Y-92555000D01*
X130915000Y-90735000D02*
X129585000Y-90735000D01*
X130915000Y-91645000D02*
X130915000Y-90735000D01*
X130915000Y-92555000D02*
X130915000Y-93465000D01*
X130915000Y-93465000D02*
X129585000Y-93465000D01*
%TO.C,C7*%
X129585000Y-102535000D02*
X130915000Y-102535000D01*
X129585000Y-103445000D02*
X129585000Y-102535000D01*
X129585000Y-104355000D02*
X129585000Y-105265000D01*
X129585000Y-105265000D02*
X130915000Y-105265000D01*
X130915000Y-102535000D02*
X130915000Y-103445000D01*
X130915000Y-105265000D02*
X130915000Y-104355000D01*
%TO.C,U1*%
X146485000Y-111165000D02*
X143315000Y-111165000D01*
X146485000Y-114335000D02*
X143315000Y-114335000D01*
D14*
X143050000Y-111775000D02*
X142800000Y-112025000D01*
X142800000Y-111525000D01*
X143050000Y-111775000D01*
G36*
X143050000Y-111775000D02*
G01*
X142800000Y-112025000D01*
X142800000Y-111525000D01*
X143050000Y-111775000D01*
G37*
D13*
%TO.C,D2*%
X137640000Y-83890000D02*
X137640000Y-86860000D01*
X137640000Y-86860000D02*
X137975000Y-86860000D01*
X137975000Y-83890000D02*
X137640000Y-83890000D01*
X138050000Y-87875000D02*
X139050000Y-87875000D01*
X139125000Y-83890000D02*
X139460000Y-83890000D01*
X139460000Y-83890000D02*
X139460000Y-86860000D01*
X139460000Y-86860000D02*
X139125000Y-86860000D01*
%TO.C,C5*%
X129585000Y-96635000D02*
X129585000Y-97545000D01*
X129585000Y-99365000D02*
X129585000Y-98455000D01*
X130915000Y-96635000D02*
X129585000Y-96635000D01*
X130915000Y-97545000D02*
X130915000Y-96635000D01*
X130915000Y-98455000D02*
X130915000Y-99365000D01*
X130915000Y-99365000D02*
X129585000Y-99365000D01*
%TO.C,R6*%
X149380000Y-106255000D02*
X150320000Y-106255000D01*
X149380000Y-106885000D02*
X149380000Y-106255000D01*
X149380000Y-107515000D02*
X149380000Y-108145000D01*
X149380000Y-108145000D02*
X150320000Y-108145000D01*
X150320000Y-106255000D02*
X150320000Y-106885000D01*
X150320000Y-108145000D02*
X150320000Y-107515000D01*
%TO.C,R1*%
X144790000Y-114630000D02*
X145420000Y-114630000D01*
X144790000Y-115570000D02*
X144790000Y-114630000D01*
X145420000Y-115570000D02*
X144790000Y-115570000D01*
X146050000Y-115570000D02*
X146680000Y-115570000D01*
X146680000Y-114630000D02*
X146050000Y-114630000D01*
X146680000Y-115570000D02*
X146680000Y-114630000D01*
%TO.C,R5*%
X144055000Y-84455000D02*
X145345000Y-84455000D01*
X144055000Y-85352000D02*
X144055000Y-84455000D01*
X144055000Y-86248000D02*
X144055000Y-87145000D01*
X144055000Y-87145000D02*
X145345000Y-87145000D01*
X145345000Y-84455000D02*
X145345000Y-85352000D01*
X145345000Y-87145000D02*
X145345000Y-86248000D01*
%TO.C,C3*%
X149135000Y-103135000D02*
X150465000Y-103135000D01*
X149135000Y-104045000D02*
X149135000Y-103135000D01*
X149135000Y-104955000D02*
X149135000Y-105865000D01*
X149135000Y-105865000D02*
X150465000Y-105865000D01*
X150465000Y-103135000D02*
X150465000Y-104045000D01*
X150465000Y-105865000D02*
X150465000Y-104955000D01*
%TO.C,D3*%
X147400000Y-83025000D02*
X147400000Y-84125000D01*
X148900000Y-83025000D02*
X147800000Y-83025000D01*
X148900000Y-83025000D02*
X148900000Y-84125000D01*
X148900000Y-84125000D02*
X147800000Y-84125000D01*
%TO.C,L1*%
X147400000Y-84600000D02*
X147400000Y-85400000D01*
X147790000Y-84590000D02*
X147400000Y-84590000D01*
X147790000Y-85400000D02*
X147400000Y-85400000D01*
X148800000Y-84600000D02*
X148800000Y-85400000D01*
%TO.C,Q1*%
X146000000Y-85890000D02*
X146985000Y-85890000D01*
X146000000Y-86440000D02*
X146000000Y-85890000D01*
X146000000Y-87710000D02*
X146000000Y-87150000D01*
X146985000Y-86660000D02*
X146985000Y-86940000D01*
X146985000Y-87710000D02*
X146000000Y-87710000D01*
D14*
X147400000Y-88050000D02*
X146900000Y-88050000D01*
X147150000Y-87800000D01*
X147400000Y-88050000D01*
G36*
X147400000Y-88050000D02*
G01*
X146900000Y-88050000D01*
X147150000Y-87800000D01*
X147400000Y-88050000D01*
G37*
D13*
%TO.C,R10*%
X141955000Y-87130000D02*
X141955000Y-88070000D01*
X141955000Y-88070000D02*
X142585000Y-88070000D01*
X142585000Y-87130000D02*
X141955000Y-87130000D01*
X143215000Y-87130000D02*
X143845000Y-87130000D01*
X143845000Y-87130000D02*
X143845000Y-88070000D01*
X143845000Y-88070000D02*
X143215000Y-88070000D01*
%TO.C,C2*%
X141285000Y-111185000D02*
X142615000Y-111185000D01*
X141285000Y-112095000D02*
X141285000Y-111185000D01*
X141285000Y-113005000D02*
X141285000Y-113915000D01*
X141285000Y-113915000D02*
X142615000Y-113915000D01*
X142615000Y-111185000D02*
X142615000Y-112095000D01*
X142615000Y-113915000D02*
X142615000Y-113005000D01*
%TO.C,R7*%
X149680000Y-112555000D02*
X149680000Y-113185000D01*
X149680000Y-114445000D02*
X149680000Y-113815000D01*
X150620000Y-112555000D02*
X149680000Y-112555000D01*
X150620000Y-113185000D02*
X150620000Y-112555000D01*
X150620000Y-113815000D02*
X150620000Y-114445000D01*
X150620000Y-114445000D02*
X149680000Y-114445000D01*
%TO.C,C10*%
X145635000Y-82885000D02*
X145635000Y-83795000D01*
X145635000Y-85615000D02*
X145635000Y-84705000D01*
X146965000Y-82885000D02*
X145635000Y-82885000D01*
X146965000Y-83795000D02*
X146965000Y-82885000D01*
X146965000Y-84705000D02*
X146965000Y-85615000D01*
X146965000Y-85615000D02*
X145635000Y-85615000D01*
%TO.C,BT1*%
X136450000Y-81748750D02*
G75*
G02*
X129450000Y-81748750I-3500000J0D01*
G01*
X129450000Y-81748750D02*
G75*
G02*
X136450000Y-81748750I3500000J0D01*
G01*
%TD*%
M02*
