%TF.GenerationSoftware,KiCad,Pcbnew,8.0.8+1*%
%TF.CreationDate,2025-01-22T08:14:43-05:00*%
%TF.ProjectId,gnssBoard,676e7373-426f-4617-9264-2e6b69636164,rev?*%
%TF.SameCoordinates,Original*%
%TF.FileFunction,Copper,L1,Top*%
%TF.FilePolarity,Positive*%
%FSLAX46Y46*%
G04 Gerber Fmt 4.6, Leading zero omitted, Abs format (unit mm)*
G04 Created by KiCad (PCBNEW 8.0.8+1) date 2025-01-22 08:14:43*
%MOMM*%
%LPD*%
G01*
G04 APERTURE LIST*
G04 Aperture macros list*
%AMRoundRect*
0 Rectangle with rounded corners*
0 $1 Rounding radius*
0 $2 $3 $4 $5 $6 $7 $8 $9 X,Y pos of 4 corners*
0 Add a 4 corners polygon primitive as box body*
4,1,4,$2,$3,$4,$5,$6,$7,$8,$9,$2,$3,0*
0 Add four circle primitives for the rounded corners*
1,1,$1+$1,$2,$3*
1,1,$1+$1,$4,$5*
1,1,$1+$1,$6,$7*
1,1,$1+$1,$8,$9*
0 Add four rect primitives between the rounded corners*
20,1,$1+$1,$2,$3,$4,$5,0*
20,1,$1+$1,$4,$5,$6,$7,0*
20,1,$1+$1,$6,$7,$8,$9,0*
20,1,$1+$1,$8,$9,$2,$3,0*%
%AMFreePoly0*
4,1,129,0.331476,2.729949,0.658118,2.670090,0.975163,2.571295,1.277989,2.435004,1.562178,2.263206,1.823587,2.058405,2.058405,1.823587,2.263206,1.562178,2.435004,1.277989,2.571295,0.975163,2.670090,0.658118,2.729949,0.331476,2.750000,0.000000,2.747491,-0.166193,2.732458,-0.289997,2.729949,-0.331476,2.722458,-0.372351,2.707427,-0.496154,2.677580,-0.617241,2.670090,-0.658118,
2.657730,-0.697782,2.627882,-0.818881,2.583657,-0.935489,2.571295,-0.975163,2.554237,-1.013062,2.510016,-1.129667,2.452065,-1.240079,2.435004,-1.277989,2.413497,-1.313564,2.355549,-1.423979,2.284710,-1.526604,2.263206,-1.562178,2.237570,-1.594899,2.166733,-1.697527,2.084033,-1.790874,2.058405,-1.823587,2.029019,-1.852972,1.946321,-1.946321,1.852972,-2.029019,1.823587,-2.058405,
1.790874,-2.084033,1.697527,-2.166733,1.594899,-2.237570,1.562178,-2.263206,1.526604,-2.284710,1.423979,-2.355549,1.313564,-2.413497,1.277989,-2.435004,1.240079,-2.452065,1.129667,-2.510016,1.013062,-2.554237,0.975163,-2.571295,0.935489,-2.583657,0.818881,-2.627882,0.697785,-2.657729,0.658118,-2.670090,0.617241,-2.677580,0.496154,-2.707427,0.372351,-2.722458,0.331476,-2.729949,
0.289997,-2.732458,0.166193,-2.747491,0.041478,-2.747491,0.000000,-2.750000,-0.041478,-2.747491,-0.166193,-2.747491,-0.289997,-2.732458,-0.331476,-2.729949,-0.372351,-2.722458,-0.496154,-2.707427,-0.617241,-2.677580,-0.658118,-2.670090,-0.697785,-2.657729,-0.818881,-2.627882,-0.935489,-2.583657,-0.975163,-2.571295,-1.013062,-2.554237,-1.129667,-2.510016,-1.240079,-2.452065,-1.277989,-2.435004,
-1.313564,-2.413497,-1.423979,-2.355549,-1.526604,-2.284710,-1.562178,-2.263206,-1.594899,-2.237570,-1.697527,-2.166733,-1.790874,-2.084033,-1.823587,-2.058405,-1.852972,-2.029019,-1.946321,-1.946321,-2.029019,-1.852972,-2.058405,-1.823587,-2.084033,-1.790874,-2.166733,-1.697527,-2.237570,-1.594899,-2.263206,-1.562178,-2.284710,-1.526604,-2.355549,-1.423979,-2.413497,-1.313564,-2.435004,-1.277989,
-2.452065,-1.240079,-2.510016,-1.129667,-2.554237,-1.013062,-2.571295,-0.975163,-2.583657,-0.935489,-2.627882,-0.818881,-2.657730,-0.697782,-2.670090,-0.658118,-2.677580,-0.617241,-2.707427,-0.496154,-2.722458,-0.372351,-2.729949,-0.331476,-2.732458,-0.289997,-2.747491,-0.166193,-2.750000,0.000000,-2.729949,0.331476,-2.670090,0.658118,-2.571295,0.975163,-2.435004,1.277989,-2.263206,1.562178,
-2.058405,1.823587,-1.823587,2.058405,-1.562178,2.263206,-1.277989,2.435004,-0.975163,2.571295,-0.658118,2.670090,-0.331476,2.729949,0.000000,2.750000,0.331476,2.729949,0.331476,2.729949,$1*%
G04 Aperture macros list end*
%TA.AperFunction,Conductor*%
%ADD10C,0.296000*%
%TD*%
%TA.AperFunction,SMDPad,CuDef*%
%ADD11RoundRect,0.217750X-0.217750X-0.267250X0.217750X-0.267250X0.217750X0.267250X-0.217750X0.267250X0*%
%TD*%
%TA.AperFunction,SMDPad,CuDef*%
%ADD12RoundRect,0.137500X0.137500X0.152500X-0.137500X0.152500X-0.137500X-0.152500X0.137500X-0.152500X0*%
%TD*%
%TA.AperFunction,SMDPad,CuDef*%
%ADD13RoundRect,0.145000X0.155000X0.145000X-0.155000X0.145000X-0.155000X-0.145000X0.155000X-0.145000X0*%
%TD*%
%TA.AperFunction,SMDPad,CuDef*%
%ADD14RoundRect,0.137500X0.262500X0.137500X-0.262500X0.137500X-0.262500X-0.137500X0.262500X-0.137500X0*%
%TD*%
%TA.AperFunction,SMDPad,CuDef*%
%ADD15RoundRect,0.200000X-0.200000X0.200000X-0.200000X-0.200000X0.200000X-0.200000X0.200000X0.200000X0*%
%TD*%
%TA.AperFunction,SMDPad,CuDef*%
%ADD16RoundRect,0.137500X0.152500X-0.137500X0.152500X0.137500X-0.152500X0.137500X-0.152500X-0.137500X0*%
%TD*%
%TA.AperFunction,SMDPad,CuDef*%
%ADD17RoundRect,0.145000X0.145000X-0.155000X0.145000X0.155000X-0.145000X0.155000X-0.145000X-0.155000X0*%
%TD*%
%TA.AperFunction,SMDPad,CuDef*%
%ADD18RoundRect,0.217750X-0.267250X0.217750X-0.267250X-0.217750X0.267250X-0.217750X0.267250X0.217750X0*%
%TD*%
%TA.AperFunction,SMDPad,CuDef*%
%ADD19RoundRect,0.050000X0.050000X-0.300000X0.050000X0.300000X-0.050000X0.300000X-0.050000X-0.300000X0*%
%TD*%
%TA.AperFunction,SMDPad,CuDef*%
%ADD20RoundRect,0.050000X0.300000X0.050000X-0.300000X0.050000X-0.300000X-0.050000X0.300000X-0.050000X0*%
%TD*%
%TA.AperFunction,SMDPad,CuDef*%
%ADD21RoundRect,0.050000X-0.050000X0.300000X-0.050000X-0.300000X0.050000X-0.300000X0.050000X0.300000X0*%
%TD*%
%TA.AperFunction,SMDPad,CuDef*%
%ADD22RoundRect,0.050000X-0.300000X-0.050000X0.300000X-0.050000X0.300000X0.050000X-0.300000X0.050000X0*%
%TD*%
%TA.AperFunction,SMDPad,CuDef*%
%ADD23RoundRect,0.217750X0.267250X-0.217750X0.267250X0.217750X-0.267250X0.217750X-0.267250X-0.217750X0*%
%TD*%
%TA.AperFunction,SMDPad,CuDef*%
%ADD24R,0.350000X1.500000*%
%TD*%
%TA.AperFunction,SMDPad,CuDef*%
%ADD25R,1.498600X0.812800*%
%TD*%
%TA.AperFunction,SMDPad,CuDef*%
%ADD26R,0.812800X1.498600*%
%TD*%
%TA.AperFunction,SMDPad,CuDef*%
%ADD27R,1.092200X1.092200*%
%TD*%
%TA.AperFunction,SMDPad,CuDef*%
%ADD28RoundRect,0.137500X-0.152500X0.137500X-0.152500X-0.137500X0.152500X-0.137500X0.152500X0.137500X0*%
%TD*%
%TA.AperFunction,SMDPad,CuDef*%
%ADD29RoundRect,0.145000X-0.145000X0.155000X-0.145000X-0.155000X0.145000X-0.155000X0.145000X0.155000X0*%
%TD*%
%TA.AperFunction,SMDPad,CuDef*%
%ADD30RoundRect,0.087500X-0.237500X-0.087500X0.237500X-0.087500X0.237500X0.087500X-0.237500X0.087500X0*%
%TD*%
%TA.AperFunction,SMDPad,CuDef*%
%ADD31RoundRect,0.050000X-0.775000X-1.125000X0.775000X-1.125000X0.775000X1.125000X-0.775000X1.125000X0*%
%TD*%
%TA.AperFunction,SMDPad,CuDef*%
%ADD32RoundRect,0.190000X0.205000X-0.190000X0.205000X0.190000X-0.205000X0.190000X-0.205000X-0.190000X0*%
%TD*%
%TA.AperFunction,SMDPad,CuDef*%
%ADD33RoundRect,0.137500X-0.137500X-0.152500X0.137500X-0.152500X0.137500X0.152500X-0.137500X0.152500X0*%
%TD*%
%TA.AperFunction,SMDPad,CuDef*%
%ADD34RoundRect,0.145000X-0.155000X-0.145000X0.155000X-0.145000X0.155000X0.145000X-0.155000X0.145000X0*%
%TD*%
%TA.AperFunction,SMDPad,CuDef*%
%ADD35RoundRect,0.205000X-0.259500X0.205000X-0.259500X-0.205000X0.259500X-0.205000X0.259500X0.205000X0*%
%TD*%
%TA.AperFunction,SMDPad,CuDef*%
%ADD36RoundRect,0.100000X-0.100000X-0.250000X0.100000X-0.250000X0.100000X0.250000X-0.100000X0.250000X0*%
%TD*%
%TA.AperFunction,SMDPad,CuDef*%
%ADD37RoundRect,0.100000X0.100000X0.150000X-0.100000X0.150000X-0.100000X-0.150000X0.100000X-0.150000X0*%
%TD*%
%TA.AperFunction,SMDPad,CuDef*%
%ADD38RoundRect,0.100000X0.155000X-0.100000X0.155000X0.100000X-0.155000X0.100000X-0.155000X-0.100000X0*%
%TD*%
%TA.AperFunction,SMDPad,CuDef*%
%ADD39RoundRect,0.250000X0.250000X0.275000X-0.250000X0.275000X-0.250000X-0.275000X0.250000X-0.275000X0*%
%TD*%
%TA.AperFunction,SMDPad,CuDef*%
%ADD40RoundRect,0.262500X0.262500X0.837500X-0.262500X0.837500X-0.262500X-0.837500X0.262500X-0.837500X0*%
%TD*%
%TA.AperFunction,CastellatedPad*%
%ADD41FreePoly0,0.000000*%
%TD*%
%TA.AperFunction,SMDPad,CuDef*%
%ADD42RoundRect,0.217750X0.217750X0.267250X-0.217750X0.267250X-0.217750X-0.267250X0.217750X-0.267250X0*%
%TD*%
%TA.AperFunction,SMDPad,CuDef*%
%ADD43RoundRect,0.187500X-0.187500X0.875000X-0.187500X-0.875000X0.187500X-0.875000X0.187500X0.875000X0*%
%TD*%
%TA.AperFunction,ViaPad*%
%ADD44C,0.527500*%
%TD*%
%TA.AperFunction,Conductor*%
%ADD45C,0.250000*%
%TD*%
%TA.AperFunction,Conductor*%
%ADD46C,0.200000*%
%TD*%
%TA.AperFunction,Conductor*%
%ADD47C,0.256500*%
%TD*%
%TA.AperFunction,Conductor*%
%ADD48C,0.300000*%
%TD*%
%TA.AperFunction,Conductor*%
%ADD49C,0.236200*%
%TD*%
%TA.AperFunction,Conductor*%
%ADD50C,0.208000*%
%TD*%
%TA.AperFunction,Conductor*%
%ADD51C,0.150000*%
%TD*%
G04 APERTURE END LIST*
D10*
%TO.N,/ANT_IN*%
X148700000Y-85000000D02*
G75*
G02*
X149800000Y-86100000I0J-1100000D01*
G01*
%TD*%
D11*
%TO.P,C9,1*%
%TO.N,VBAT*%
X135150000Y-85850000D03*
%TO.P,C9,2*%
%TO.N,VSS*%
X136650000Y-85850000D03*
%TD*%
D12*
%TO.P,R12,1*%
%TO.N,Net-(U4-+)*%
X141140000Y-87600000D03*
D13*
%TO.P,R12,2*%
%TO.N,VSS*%
X140185000Y-87600000D03*
%TD*%
D14*
%TO.P,U4,1*%
%TO.N,/ANT_DET*%
X140700000Y-84350000D03*
%TO.P,U4,2,V-*%
%TO.N,VSS*%
X140700000Y-85300000D03*
%TO.P,U4,3,+*%
%TO.N,Net-(U4-+)*%
X140700000Y-86250000D03*
%TO.P,U4,4,-*%
%TO.N,/ANT_SHORT_N*%
X143100000Y-86250000D03*
%TO.P,U4,5,V+*%
%TO.N,+3V3*%
X143100000Y-84350000D03*
%TD*%
D15*
%TO.P,D1,1*%
%TO.N,+1V8*%
X130250000Y-115050000D03*
%TO.P,D1,2*%
%TO.N,Net-(D1-Pad2)*%
X130250000Y-113550000D03*
%TD*%
D16*
%TO.P,R9,1*%
%TO.N,/HOST_D-*%
X149000000Y-113990000D03*
D17*
%TO.P,R9,2*%
%TO.N,/ZED_D-*%
X149000000Y-113035000D03*
%TD*%
D18*
%TO.P,C1,1*%
%TO.N,+3V3*%
X147625000Y-112050000D03*
%TO.P,C1,2*%
%TO.N,VSS*%
X147625000Y-113550000D03*
%TD*%
D19*
%TO.P,U2,1,VCCA*%
%TO.N,+1V8*%
X134050000Y-112850000D03*
%TO.P,U2,2,A1*%
%TO.N,/ZED_TXD_1V8*%
X134450000Y-112850000D03*
%TO.P,U2,3,A2*%
%TO.N,/ZED_RXD_1V8*%
X134850000Y-112850000D03*
%TO.P,U2,4,A3*%
%TO.N,/SDA_1V8*%
X135250000Y-112850000D03*
%TO.P,U2,5,A4*%
%TO.N,/SCL_1V8*%
X135650000Y-112850000D03*
D20*
%TO.P,U2,6,GND*%
%TO.N,VSS*%
X135700000Y-112150000D03*
D21*
%TO.P,U2,7,B4*%
%TO.N,/SCL_3V3*%
X135650000Y-111450000D03*
%TO.P,U2,8,B3*%
%TO.N,/SDA_3V3*%
X135250000Y-111450000D03*
%TO.P,U2,9,B2*%
%TO.N,/ZED_RXD_3V3*%
X134850000Y-111450000D03*
%TO.P,U2,10,B1*%
%TO.N,/ZED_TXD_3V3*%
X134450000Y-111450000D03*
%TO.P,U2,11,VCCB*%
%TO.N,+3V3*%
X134050000Y-111450000D03*
D22*
%TO.P,U2,12,OE*%
%TO.N,+1V8*%
X134000000Y-112150000D03*
%TD*%
D12*
%TO.P,R4,1*%
%TO.N,Net-(D2-Pad2)*%
X135940000Y-87250000D03*
D13*
%TO.P,R4,2*%
%TO.N,VBAT*%
X134985000Y-87250000D03*
%TD*%
D16*
%TO.P,R11,1*%
%TO.N,+3V3*%
X138900000Y-112390000D03*
D17*
%TO.P,R11,2*%
%TO.N,Net-(U3-D_SEL)*%
X138900000Y-111435000D03*
%TD*%
D23*
%TO.P,C6,1*%
%TO.N,+3V3*%
X130250000Y-98750000D03*
%TO.P,C6,2*%
%TO.N,VSS*%
X130250000Y-97250000D03*
%TD*%
%TO.P,C4,1*%
%TO.N,+3V3*%
X130250000Y-92850000D03*
%TO.P,C4,2*%
%TO.N,VSS*%
X130250000Y-91350000D03*
%TD*%
D24*
%TO.P,J2,1,GND*%
%TO.N,VSS*%
X149250000Y-118750000D03*
%TO.P,J2,3,USB_D+*%
%TO.N,/HOST_D+*%
X148750000Y-118750000D03*
%TO.P,J2,5,USB_D-*%
%TO.N,/HOST_D-*%
X148250000Y-118750000D03*
%TO.P,J2,7,GND*%
%TO.N,VSS*%
X147750000Y-118750000D03*
%TO.P,J2,9,SDIO_CLK*%
%TO.N,unconnected-(J2-SDIO_CLK-Pad9)*%
X147250000Y-118750000D03*
%TO.P,J2,11,SDIO_CMD*%
%TO.N,unconnected-(J2-SDIO_CMD-Pad11)*%
X146750000Y-118750000D03*
%TO.P,J2,13,SDIO_DATA0*%
%TO.N,unconnected-(J2-SDIO_DATA0-Pad13)*%
X146250000Y-118750000D03*
%TO.P,J2,15,SDIO_DATA1*%
%TO.N,unconnected-(J2-SDIO_DATA1-Pad15)*%
X145750000Y-118750000D03*
%TO.P,J2,17,SDIO_DATA2*%
%TO.N,unconnected-(J2-SDIO_DATA2-Pad17)*%
X145250000Y-118750000D03*
%TO.P,J2,19,SDIO_DATA3*%
%TO.N,unconnected-(J2-SDIO_DATA3-Pad19)*%
X144750000Y-118750000D03*
%TO.P,J2,21,~{SDIO_WAKE}*%
%TO.N,unconnected-(J2-~{SDIO_WAKE}-Pad21)*%
X144250000Y-118750000D03*
%TO.P,J2,23,~{SDIO_RESET}*%
%TO.N,unconnected-(J2-~{SDIO_RESET}-Pad23)*%
X143750000Y-118750000D03*
%TO.P,J2,33,GND*%
%TO.N,VSS*%
X141250000Y-118750000D03*
%TO.P,J2,35,PETp0*%
%TO.N,unconnected-(J2-PETp0-Pad35)*%
X140750000Y-118750000D03*
%TO.P,J2,37,PETn0*%
%TO.N,unconnected-(J2-PETn0-Pad37)*%
X140250000Y-118750000D03*
%TO.P,J2,39,GND*%
%TO.N,VSS*%
X139750000Y-118750000D03*
%TO.P,J2,41,PERp0*%
%TO.N,unconnected-(J2-PERp0-Pad41)*%
X139250000Y-118750000D03*
%TO.P,J2,43,PERn0*%
%TO.N,unconnected-(J2-PERn0-Pad43)*%
X138750000Y-118750000D03*
%TO.P,J2,45,GND*%
%TO.N,VSS*%
X138250000Y-118750000D03*
%TO.P,J2,47,REFCLKp0*%
%TO.N,unconnected-(J2-REFCLKp0-Pad47)*%
X137750000Y-118750000D03*
%TO.P,J2,49,REFCLKn0*%
%TO.N,unconnected-(J2-REFCLKn0-Pad49)*%
X137250000Y-118750000D03*
%TO.P,J2,51,GND*%
%TO.N,VSS*%
X136750000Y-118750000D03*
%TO.P,J2,53,~{CLKREQ0}*%
%TO.N,unconnected-(J2-~{CLKREQ0}-Pad53)*%
X136250000Y-118750000D03*
%TO.P,J2,55,~{PEWAKE0}*%
%TO.N,unconnected-(J2-~{PEWAKE0}-Pad55)*%
X135750000Y-118750000D03*
%TO.P,J2,57,GND*%
%TO.N,VSS*%
X135250000Y-118750000D03*
%TO.P,J2,59,RESERVED/PETp1*%
%TO.N,unconnected-(J2-RESERVED{slash}PETp1-Pad59)*%
X134750000Y-118750000D03*
%TO.P,J2,61,RESERVED/PETn1*%
%TO.N,unconnected-(J2-RESERVED{slash}PETn1-Pad61)*%
X134250000Y-118750000D03*
%TO.P,J2,63,GND*%
%TO.N,VSS*%
X133750000Y-118750000D03*
%TO.P,J2,65,RESERVED/PERp1*%
%TO.N,unconnected-(J2-RESERVED{slash}PERp1-Pad65)*%
X133250000Y-118750000D03*
%TO.P,J2,67,RESERVED/PERn1*%
%TO.N,unconnected-(J2-RESERVED{slash}PERn1-Pad67)*%
X132750000Y-118750000D03*
%TO.P,J2,69,GND*%
%TO.N,VSS*%
X132250000Y-118750000D03*
%TO.P,J2,71,RESERVED/REFCLKp1*%
%TO.N,unconnected-(J2-RESERVED{slash}REFCLKp1-Pad71)*%
X131750000Y-118750000D03*
%TO.P,J2,73,RESERVED/REFCLKn1*%
%TO.N,unconnected-(J2-RESERVED{slash}REFCLKn1-Pad73)*%
X131250000Y-118750000D03*
%TO.P,J2,75,GND*%
%TO.N,VSS*%
X130750000Y-118750000D03*
%TD*%
D15*
%TO.P,D4,1*%
%TO.N,/PPS*%
X149850000Y-110700000D03*
%TO.P,D4,2*%
%TO.N,Net-(D4-Pad2)*%
X149850000Y-109200000D03*
%TD*%
D25*
%TO.P,U3,1,GND*%
%TO.N,VSS*%
X147450000Y-106650000D03*
%TO.P,U3,2,RF_IN*%
%TO.N,/RF_IN*%
X147450000Y-105550001D03*
%TO.P,U3,3,GND*%
%TO.N,VSS*%
X147450000Y-104450000D03*
%TO.P,U3,4,ANT_DET*%
%TO.N,/ANT_DET*%
X147450000Y-103350000D03*
%TO.P,U3,5,ANT_OFF*%
%TO.N,/ANT_OFF*%
X147450000Y-102250000D03*
%TO.P,U3,6,ANT_SHORT_N*%
%TO.N,/ANT_SHORT_N*%
X147450000Y-101149999D03*
%TO.P,U3,7,VCC_RF*%
%TO.N,VCC_RF*%
X147450000Y-100049999D03*
%TO.P,U3,8,Reserved*%
%TO.N,unconnected-(U3-Reserved-Pad10)_14*%
X147450000Y-98950001D03*
%TO.P,U3,9,Reserved*%
%TO.N,unconnected-(U3-Reserved-Pad10)_17*%
X147450000Y-97850001D03*
%TO.P,U3,10,Reserved*%
%TO.N,unconnected-(U3-Reserved-Pad10)*%
X147450000Y-96750000D03*
%TO.P,U3,11,Reserved*%
%TO.N,unconnected-(U3-Reserved-Pad10)_15*%
X147450000Y-95650000D03*
%TO.P,U3,12,GND*%
%TO.N,VSS*%
X147450000Y-94550000D03*
%TO.P,U3,13,Reserved*%
%TO.N,unconnected-(U3-Reserved-Pad10)_12*%
X147450000Y-93449999D03*
%TO.P,U3,14,GND*%
%TO.N,VSS*%
X147450000Y-92349999D03*
D26*
%TO.P,U3,15,Reserved*%
%TO.N,unconnected-(U3-Reserved-Pad10)_18*%
X146599999Y-89550000D03*
%TO.P,U3,16,Reserved*%
%TO.N,unconnected-(U3-Reserved-Pad10)_11*%
X145499999Y-89550000D03*
%TO.P,U3,17,Reserved*%
%TO.N,unconnected-(U3-Reserved-Pad10)_7*%
X144399999Y-89550000D03*
%TO.P,U3,18,Reserved*%
%TO.N,unconnected-(U3-Reserved-Pad10)_16*%
X143300001Y-89550000D03*
%TO.P,U3,19,GEOFENCE_STAT*%
%TO.N,/GEOFENCE_STAT*%
X142200001Y-89550000D03*
%TO.P,U3,20,RTK_STAT*%
%TO.N,/RTK_STAT*%
X141100000Y-89550000D03*
%TO.P,U3,21,Reserved*%
%TO.N,unconnected-(U3-Reserved-Pad10)_8*%
X140000000Y-89550000D03*
%TO.P,U3,22,Reserved*%
%TO.N,unconnected-(U3-Reserved-Pad10)_1*%
X138900000Y-89550000D03*
%TO.P,U3,23,Reserved*%
%TO.N,unconnected-(U3-Reserved-Pad10)_2*%
X137799999Y-89550000D03*
%TO.P,U3,24,Reserved*%
%TO.N,unconnected-(U3-Reserved-Pad10)_6*%
X136699999Y-89550000D03*
%TO.P,U3,25,Reserved*%
%TO.N,unconnected-(U3-Reserved-Pad10)_10*%
X135599999Y-89550000D03*
%TO.P,U3,26,RXD2*%
%TO.N,unconnected-(U3-RXD2-Pad26)*%
X134499998Y-89550000D03*
%TO.P,U3,27,TXD2*%
%TO.N,unconnected-(U3-TXD2-Pad27)*%
X133399998Y-89550000D03*
D25*
%TO.P,U3,28,Reserved*%
%TO.N,unconnected-(U3-Reserved-Pad10)_5*%
X132550000Y-92349999D03*
%TO.P,U3,29,Reserved*%
%TO.N,unconnected-(U3-Reserved-Pad10)_20*%
X132550000Y-93449999D03*
%TO.P,U3,30,Reserved*%
%TO.N,unconnected-(U3-Reserved-Pad10)_9*%
X132550000Y-94550000D03*
%TO.P,U3,31,Reserved*%
%TO.N,unconnected-(U3-Reserved-Pad10)_3*%
X132550000Y-95650000D03*
%TO.P,U3,32,GND*%
%TO.N,VSS*%
X132550000Y-96750000D03*
%TO.P,U3,33,VCC*%
%TO.N,+3V3*%
X132550000Y-97850001D03*
%TO.P,U3,34,VCC*%
X132550000Y-98950001D03*
%TO.P,U3,35,Reserved*%
%TO.N,unconnected-(U3-Reserved-Pad10)_4*%
X132550000Y-100049999D03*
%TO.P,U3,36,V_BCKP*%
%TO.N,VBAT*%
X132550000Y-101149999D03*
%TO.P,U3,37,GND*%
%TO.N,VSS*%
X132550000Y-102250000D03*
%TO.P,U3,38,V_USB*%
%TO.N,+3V3*%
X132550000Y-103350000D03*
%TO.P,U3,39,USB_DM*%
%TO.N,/ZED_D-*%
X132550000Y-104450000D03*
%TO.P,U3,40,USB_DP*%
%TO.N,/ZED_D+*%
X132550000Y-105550001D03*
%TO.P,U3,41,GND*%
%TO.N,VSS*%
X132550000Y-106650001D03*
D26*
%TO.P,U3,42,TXD*%
%TO.N,/ZED_TXD_3V3*%
X133400001Y-109450000D03*
%TO.P,U3,43,RXD*%
%TO.N,/ZED_RXD_3V3*%
X134500001Y-109450000D03*
%TO.P,U3,44,SDA*%
%TO.N,/SDA_3V3*%
X135600001Y-109450000D03*
%TO.P,U3,45,SCL*%
%TO.N,/SCL_3V3*%
X136699999Y-109450000D03*
%TO.P,U3,46,TX_RDY*%
%TO.N,/TX_RDY*%
X137799999Y-109450000D03*
%TO.P,U3,47,D_SEL*%
%TO.N,Net-(U3-D_SEL)*%
X138900000Y-109450000D03*
%TO.P,U3,48,GND*%
%TO.N,VSS*%
X140000000Y-109450000D03*
%TO.P,U3,49,RESET_N*%
%TO.N,/RESET_N*%
X141100000Y-109450000D03*
%TO.P,U3,50,SAFEBOOT_N*%
%TO.N,unconnected-(U3-SAFEBOOT_N-Pad50)*%
X142200001Y-109450000D03*
%TO.P,U3,51,EXTINT*%
%TO.N,/EXTINT*%
X143300001Y-109450000D03*
%TO.P,U3,52,Reserved*%
%TO.N,unconnected-(U3-Reserved-Pad10)_19*%
X144400001Y-109450000D03*
%TO.P,U3,53,TIMEPULSE*%
%TO.N,/PPS*%
X145500002Y-109450000D03*
%TO.P,U3,54,Reserved*%
%TO.N,unconnected-(U3-Reserved-Pad10)_13*%
X146600002Y-109450000D03*
D27*
%TO.P,U3,55,PGND*%
%TO.N,VSS*%
X145250000Y-106850000D03*
%TO.P,U3,56,PGND*%
X143149999Y-106850000D03*
%TO.P,U3,57,PGND*%
X141050000Y-106850000D03*
%TO.P,U3,58,PGND*%
X138950000Y-106850000D03*
%TO.P,U3,59,PGND*%
X136850001Y-106850000D03*
%TO.P,U3,60,PGND*%
X134750000Y-106850000D03*
%TO.P,U3,61,PGND*%
X145250000Y-104750000D03*
%TO.P,U3,62,PGND*%
X143149999Y-104750000D03*
%TO.P,U3,63,PGND*%
X141050000Y-104750000D03*
%TO.P,U3,64,PGND*%
X138950000Y-104750000D03*
%TO.P,U3,65,PGND*%
X136850001Y-104750000D03*
%TO.P,U3,66,PGND*%
X134750000Y-104750000D03*
%TO.P,U3,67,PGND*%
X145250000Y-102650000D03*
%TO.P,U3,68,PGND*%
X143149999Y-102650000D03*
%TO.P,U3,69,PGND*%
X141050000Y-102650000D03*
%TO.P,U3,70,PGND*%
X138950000Y-102650000D03*
%TO.P,U3,71,PGND*%
X136850001Y-102650000D03*
%TO.P,U3,72,PGND*%
X134750000Y-102650000D03*
%TO.P,U3,73,PGND*%
X145250000Y-100550000D03*
%TO.P,U3,74,PGND*%
X143149999Y-100550000D03*
%TO.P,U3,75,PGND*%
X141050000Y-100550000D03*
%TO.P,U3,76,PGND*%
X138950000Y-100550000D03*
%TO.P,U3,77,PGND*%
X136850001Y-100550000D03*
%TO.P,U3,78,PGND*%
X134750000Y-100550000D03*
%TO.P,U3,79,PGND*%
X145250000Y-98450000D03*
%TO.P,U3,80,PGND*%
X143149999Y-98450000D03*
%TO.P,U3,81,PGND*%
X141050000Y-98450000D03*
%TO.P,U3,82,PGND*%
X138950000Y-98450000D03*
%TO.P,U3,83,PGND*%
X136850001Y-98450000D03*
%TO.P,U3,84,PGND*%
X134750000Y-98450000D03*
%TO.P,U3,85,PGND*%
X145250000Y-96350000D03*
%TO.P,U3,86,PGND*%
X143149999Y-96350000D03*
%TO.P,U3,87,PGND*%
X141050000Y-96350000D03*
%TO.P,U3,88,PGND*%
X138950000Y-96350000D03*
%TO.P,U3,89,PGND*%
X136850001Y-96350000D03*
%TO.P,U3,90,PGND*%
X134750000Y-96350000D03*
%TO.P,U3,91,PGND*%
X145250000Y-94250000D03*
%TO.P,U3,92,PGND*%
X143149999Y-94250000D03*
%TO.P,U3,93,PGND*%
X141050000Y-94250000D03*
%TO.P,U3,94,PGND*%
X138950000Y-94250000D03*
%TO.P,U3,95,PGND*%
X136850001Y-94250000D03*
%TO.P,U3,96,PGND*%
X134750000Y-94250000D03*
%TO.P,U3,97,PGND*%
X145250000Y-92150000D03*
%TO.P,U3,98,PGND*%
X143149999Y-92150000D03*
%TO.P,U3,99,PGND*%
X141050000Y-92150000D03*
%TO.P,U3,100,PGND*%
X138950000Y-92150000D03*
%TO.P,U3,101,PGND*%
X136850001Y-92150000D03*
%TO.P,U3,102,PGND*%
X134750000Y-92150000D03*
%TD*%
D28*
%TO.P,R8,1*%
%TO.N,VCC_RF*%
X148200000Y-86310000D03*
D29*
%TO.P,R8,2*%
%TO.N,/ANT_OFF*%
X148200000Y-87265000D03*
%TD*%
D18*
%TO.P,C8,1*%
%TO.N,+3V3*%
X130250000Y-103150000D03*
%TO.P,C8,2*%
%TO.N,VSS*%
X130250000Y-104650000D03*
%TD*%
D23*
%TO.P,C7,1*%
%TO.N,+3V3*%
X130250000Y-101700000D03*
%TO.P,C7,2*%
%TO.N,VSS*%
X130250000Y-100200000D03*
%TD*%
D30*
%TO.P,U1,1,OUT*%
%TO.N,+1V8*%
X143575000Y-111775000D03*
%TO.P,U1,2,NC*%
%TO.N,unconnected-(U1-NC-Pad2)*%
X143575000Y-112425000D03*
%TO.P,U1,3,NC*%
%TO.N,unconnected-(U1-ADJ-Pad3)*%
X143575000Y-113075000D03*
%TO.P,U1,4,GND*%
%TO.N,VSS*%
X143575000Y-113725000D03*
%TO.P,U1,5,EN*%
%TO.N,Net-(U1-EN)*%
X146225000Y-113725000D03*
%TO.P,U1,6,NC*%
%TO.N,unconnected-(U1-NC-Pad2)_1*%
X146225000Y-113075000D03*
%TO.P,U1,7,PG*%
%TO.N,unconnected-(U1-PG-Pad7)*%
X146225000Y-112425000D03*
%TO.P,U1,8,IN*%
%TO.N,+3V3*%
X146225000Y-111775000D03*
D31*
%TO.P,U1,9,GND*%
%TO.N,VSS*%
X144900000Y-112750000D03*
%TD*%
D32*
%TO.P,D2,1*%
%TO.N,+3V3*%
X138550000Y-83570000D03*
%TO.P,D2,2*%
%TO.N,Net-(D2-Pad2)*%
X138550000Y-87180000D03*
%TD*%
D23*
%TO.P,C5,1*%
%TO.N,+3V3*%
X130250000Y-95800000D03*
%TO.P,C5,2*%
%TO.N,VSS*%
X130250000Y-94300000D03*
%TD*%
D28*
%TO.P,R6,1*%
%TO.N,Net-(JP2-Pad1)*%
X149850000Y-106710000D03*
D29*
%TO.P,R6,2*%
%TO.N,Net-(D4-Pad2)*%
X149850000Y-107665000D03*
%TD*%
D33*
%TO.P,R1,1*%
%TO.N,+3V3*%
X145245000Y-115100000D03*
D34*
%TO.P,R1,2*%
%TO.N,Net-(U1-EN)*%
X146200000Y-115100000D03*
%TD*%
D35*
%TO.P,R5,1*%
%TO.N,/ANT_SHORT_N*%
X144700000Y-85045000D03*
%TO.P,R5,2*%
%TO.N,Net-(Q1-Pad3)*%
X144700000Y-86555000D03*
%TD*%
D18*
%TO.P,C3,1*%
%TO.N,/ANT_IN*%
X149800000Y-103750000D03*
%TO.P,C3,2*%
%TO.N,/RF_IN*%
X149800000Y-105250000D03*
%TD*%
D36*
%TO.P,D3,1*%
%TO.N,VSS*%
X147800000Y-83575000D03*
%TO.P,D3,2*%
%TO.N,/ANT_IN*%
X148500000Y-83575000D03*
%TD*%
D37*
%TO.P,L1,1*%
%TO.N,/ANT_IN*%
X148500000Y-85000000D03*
%TO.P,L1,2*%
%TO.N,/ANT_SHORT_N*%
X147700000Y-85000000D03*
%TD*%
D38*
%TO.P,Q1,1*%
%TO.N,/ANT_OFF*%
X147150000Y-87300000D03*
%TO.P,Q1,2*%
%TO.N,VCC_RF*%
X147150000Y-86300000D03*
%TO.P,Q1,3*%
%TO.N,Net-(Q1-Pad3)*%
X145850000Y-86800000D03*
%TD*%
D12*
%TO.P,R10,1*%
%TO.N,Net-(Q1-Pad3)*%
X143390000Y-87600000D03*
D13*
%TO.P,R10,2*%
%TO.N,Net-(U4-+)*%
X142435000Y-87600000D03*
%TD*%
D39*
%TO.P,AE1,1,A*%
%TO.N,/ANT_IN*%
X148500000Y-82025000D03*
D40*
%TO.P,AE1,2,Shield*%
%TO.N,VSS*%
X149975000Y-80500000D03*
D39*
X148500000Y-78975000D03*
D40*
X147025000Y-80500000D03*
%TD*%
D41*
%TO.P,J1,1*%
%TO.N,VSS*%
X140000000Y-78000000D03*
%TD*%
D18*
%TO.P,C2,1*%
%TO.N,+1V8*%
X141950000Y-111800000D03*
%TO.P,C2,2*%
%TO.N,VSS*%
X141950000Y-113300000D03*
%TD*%
%TO.P,C12,1*%
%TO.N,+3V3*%
X132750000Y-111700000D03*
%TO.P,C12,2*%
%TO.N,VSS*%
X132750000Y-113200000D03*
%TD*%
D42*
%TO.P,C11,1*%
%TO.N,+1V8*%
X133700000Y-114700000D03*
%TO.P,C11,2*%
%TO.N,VSS*%
X132200000Y-114700000D03*
%TD*%
D16*
%TO.P,R7,1*%
%TO.N,/HOST_D+*%
X150150000Y-113990000D03*
D17*
%TO.P,R7,2*%
%TO.N,/ZED_D+*%
X150150000Y-113035000D03*
%TD*%
D23*
%TO.P,C10,1*%
%TO.N,/ANT_SHORT_N*%
X146300000Y-85000000D03*
%TO.P,C10,2*%
%TO.N,VSS*%
X146300000Y-83500000D03*
%TD*%
D43*
%TO.P,BT1,1*%
%TO.N,VBAT*%
X133700000Y-86748750D03*
%TO.P,BT1,2*%
%TO.N,VSS*%
X132200000Y-86748750D03*
%TD*%
D44*
%TO.N,VSS*%
X140000000Y-97400000D03*
X146150000Y-91100000D03*
X149150000Y-90340000D03*
X131100000Y-103900000D03*
X142100000Y-97400000D03*
X133900000Y-95300000D03*
X135800000Y-95300000D03*
X138250000Y-116850000D03*
X135800000Y-103700000D03*
X144200000Y-99500000D03*
X140000000Y-91100000D03*
X147000000Y-82050000D03*
X129650000Y-105600000D03*
X133750000Y-116850000D03*
X150000000Y-82050000D03*
X137900000Y-101600000D03*
X150450000Y-109950000D03*
X139400000Y-87600000D03*
X146300000Y-82450000D03*
X149150000Y-102800000D03*
X144900000Y-113400000D03*
X129750000Y-109200000D03*
X142100000Y-95300000D03*
X135800000Y-99500000D03*
X150450000Y-98780000D03*
X132200000Y-84900000D03*
X144200000Y-95300000D03*
X137900000Y-105800000D03*
X138250000Y-113875000D03*
X137900000Y-93200000D03*
X149150000Y-88230000D03*
X131100000Y-98000000D03*
X135800000Y-101600000D03*
X150450000Y-88230000D03*
X138200000Y-115700000D03*
X131100000Y-100950000D03*
X142100000Y-105800000D03*
X131100000Y-95050000D03*
X131100000Y-93600000D03*
X133900000Y-103700000D03*
X137900000Y-99500000D03*
X133750000Y-115700000D03*
X150450000Y-86120000D03*
X137900000Y-97400000D03*
X136275000Y-111900000D03*
X137900000Y-85850000D03*
X147000000Y-78950000D03*
X137900000Y-103700000D03*
X132250000Y-116850000D03*
X146150000Y-95300000D03*
X146150000Y-97350000D03*
X130750000Y-116700000D03*
X149025000Y-106475000D03*
X145000000Y-116850000D03*
X140000000Y-105800000D03*
X149400000Y-116500000D03*
X146250000Y-104425000D03*
X150000000Y-78950000D03*
X140000000Y-111100000D03*
X149150000Y-92450000D03*
X144200000Y-97400000D03*
X135750000Y-116900000D03*
X144200000Y-108050000D03*
X149150000Y-96670000D03*
X131250000Y-86750000D03*
X133900000Y-91100000D03*
X144200000Y-103700000D03*
X142100000Y-108100000D03*
X135800000Y-115700000D03*
X150450000Y-100890000D03*
X133900000Y-99500000D03*
X149150000Y-100890000D03*
X131250000Y-87550000D03*
X144200000Y-105800000D03*
X144900000Y-112100000D03*
X131100000Y-92100000D03*
X131550000Y-113500000D03*
X137900000Y-91100000D03*
X149150000Y-86120000D03*
X135800000Y-93200000D03*
X140000000Y-103700000D03*
X149150000Y-98780000D03*
X141900000Y-85300000D03*
X150450000Y-92450000D03*
X148300000Y-114700000D03*
X135800000Y-105800000D03*
X140000000Y-93200000D03*
X135800000Y-91100000D03*
X131100000Y-90550000D03*
X142100000Y-103700000D03*
X133900000Y-97400000D03*
X142100000Y-93200000D03*
X132550000Y-107650000D03*
X140000000Y-99500000D03*
X137900000Y-95300000D03*
X142950000Y-114250000D03*
X140750000Y-116850000D03*
X150450000Y-94560000D03*
X142100000Y-99500000D03*
X146150000Y-93250000D03*
X133900000Y-93200000D03*
X142100000Y-101600000D03*
X131250000Y-85950000D03*
X133900000Y-105800000D03*
X144200000Y-101600000D03*
X139900000Y-86800000D03*
X135800000Y-97400000D03*
X144200000Y-93200000D03*
X150450000Y-96670000D03*
X137250000Y-116900000D03*
X131250000Y-114300000D03*
X140000000Y-101600000D03*
X150450000Y-102800000D03*
X136700000Y-84800000D03*
X139800000Y-85300000D03*
X144200000Y-91100000D03*
X150450000Y-90340000D03*
X140000000Y-108100000D03*
X149150000Y-94560000D03*
X140000000Y-95300000D03*
%TO.N,VBAT*%
X133850000Y-101600000D03*
X135000000Y-88050000D03*
%TO.N,+3V3*%
X137750000Y-112386250D03*
X148250000Y-112725000D03*
X146625000Y-107850000D03*
X131100000Y-98950000D03*
X137400000Y-83550000D03*
X131100000Y-96550000D03*
X131100000Y-102400000D03*
X131800000Y-110200000D03*
X148775000Y-111000000D03*
%TO.N,+1V8*%
X133875000Y-113650000D03*
X138000000Y-111000000D03*
X141950000Y-110875000D03*
X137000000Y-112000000D03*
%TO.N,/ANT_SHORT_N*%
X146275000Y-101150000D03*
X147200000Y-85600000D03*
%TO.N,/TX_RDY*%
X133050000Y-110800000D03*
X132750000Y-116050000D03*
X138750000Y-116300000D03*
%TO.N,/ZED_RXD_1V8*%
X143325000Y-115575000D03*
%TO.N,/SDA_1V8*%
X136075000Y-114000000D03*
%TO.N,/RESET_N*%
X140900000Y-111925000D03*
%TO.N,/PPS*%
X145500000Y-111100000D03*
%TO.N,/RTK_STAT*%
X147475000Y-110225000D03*
X141100000Y-90800000D03*
X147475000Y-108575000D03*
%TO.N,/ZED_TXD_1V8*%
X140675000Y-115675000D03*
%TO.N,/GEOFENCE_STAT*%
X148300000Y-108575000D03*
X142200000Y-90850000D03*
X148175000Y-110425000D03*
%TO.N,/SCL_1V8*%
X136650000Y-113250000D03*
%TO.N,/ANT_OFF*%
X146275000Y-102250000D03*
X148200000Y-88100000D03*
%TO.N,/ZED_D+*%
X149963750Y-112250000D03*
X131574888Y-107725112D03*
%TO.N,/ZED_D-*%
X131025112Y-108274888D03*
X149186250Y-112250000D03*
%TO.N,/ANT_DET*%
X141900000Y-84400000D03*
X146275000Y-103350000D03*
%TO.N,VCC_RF*%
X146275000Y-100050000D03*
X146500000Y-88000000D03*
%TO.N,/EXTINT*%
X143300000Y-110875000D03*
%TO.N,Net-(JP2-Pad1)*%
X150486250Y-106450000D03*
%TO.N,Net-(D1-Pad2)*%
X130950000Y-112850000D03*
%TD*%
D45*
%TO.N,VSS*%
X139750000Y-118750000D02*
X139750000Y-117050000D01*
X133750000Y-118750000D02*
X133750000Y-116850000D01*
D46*
X136275000Y-111900000D02*
X136025000Y-112150000D01*
D45*
X135250000Y-118750000D02*
X135250000Y-117050000D01*
D46*
X136025000Y-112150000D02*
X135700000Y-112150000D01*
D45*
X138250000Y-118750000D02*
X138250000Y-116850000D01*
X149250000Y-118750000D02*
X149250000Y-117050000D01*
X130750000Y-116700000D02*
X130750000Y-118750000D01*
X147750000Y-118750000D02*
X147750000Y-117050000D01*
X132250000Y-116850000D02*
X132250000Y-118750000D01*
X141250000Y-117047264D02*
X141250000Y-118750000D01*
X136750000Y-117050000D02*
X136750000Y-118750000D01*
D10*
%TO.N,/ANT_IN*%
X148500000Y-83600000D02*
X148500000Y-82025000D01*
D47*
X148700000Y-85000000D02*
X148500000Y-85000000D01*
D10*
X149800000Y-103750000D02*
X149800000Y-86100000D01*
X148500000Y-85000000D02*
X148500000Y-83600000D01*
D48*
%TO.N,VBAT*%
X134985000Y-88035000D02*
X134985000Y-87250000D01*
X133700000Y-87250000D02*
X134985000Y-87250000D01*
X134985000Y-87250000D02*
X134985000Y-86015000D01*
X134985000Y-86015000D02*
X135150000Y-85850000D01*
X133850000Y-101400000D02*
X133850000Y-101600000D01*
X135000000Y-88050000D02*
X134985000Y-88035000D01*
X133599999Y-101149999D02*
X133850000Y-101400000D01*
X133700000Y-86748750D02*
X133700000Y-87250000D01*
X132550000Y-101149999D02*
X133599999Y-101149999D01*
%TO.N,+3V3*%
X130250000Y-102400000D02*
X130250000Y-103150000D01*
X138550000Y-83595000D02*
X142195000Y-83595000D01*
X130250000Y-102400000D02*
X131100000Y-102400000D01*
D45*
X147625000Y-112050000D02*
X147625000Y-112100000D01*
X148888750Y-110886250D02*
X148888750Y-108331131D01*
X138505000Y-83550000D02*
X138550000Y-83595000D01*
X138900000Y-112390000D02*
X139540000Y-112390000D01*
X147625000Y-112100000D02*
X148250000Y-112725000D01*
D48*
X130350000Y-95800000D02*
X130250000Y-95800000D01*
D45*
X147650000Y-112050000D02*
X147625000Y-112050000D01*
D48*
X131100000Y-96550000D02*
X131100000Y-96950000D01*
X142950000Y-84350000D02*
X143100000Y-84350000D01*
D45*
X147350000Y-111775000D02*
X146225000Y-111775000D01*
D48*
X132000001Y-97850001D02*
X132550000Y-97850001D01*
X130250000Y-101700000D02*
X130250000Y-102400000D01*
X129400000Y-94950000D02*
X130250000Y-95800000D01*
X131100000Y-96550000D02*
X130350000Y-95800000D01*
D46*
X134050000Y-111700000D02*
X132750000Y-111700000D01*
D45*
X137750000Y-112386250D02*
X137753750Y-112390000D01*
X145095000Y-114950000D02*
X145245000Y-115100000D01*
D48*
X142195000Y-83595000D02*
X142950000Y-84350000D01*
X131100000Y-96950000D02*
X132000001Y-97850001D01*
D45*
X148888750Y-108331131D02*
X148407619Y-107850000D01*
X148259727Y-112725000D02*
X148259727Y-112659727D01*
D48*
X131300000Y-103150000D02*
X130250000Y-103150000D01*
X132550000Y-103350000D02*
X131500000Y-103350000D01*
X131500000Y-103350000D02*
X131300000Y-103150000D01*
D45*
X139540000Y-112390000D02*
X142100000Y-114950000D01*
X147625000Y-112050000D02*
X147350000Y-111775000D01*
D48*
X132550000Y-98950001D02*
X130450001Y-98950001D01*
D45*
X142100000Y-114950000D02*
X145095000Y-114950000D01*
D46*
X138490000Y-83535000D02*
X138550000Y-83595000D01*
D45*
X148775000Y-111000000D02*
X148888750Y-110886250D01*
X148407619Y-107850000D02*
X146625000Y-107850000D01*
D48*
X130450001Y-98950001D02*
X130250000Y-98750000D01*
D45*
X131800000Y-110200000D02*
X131800000Y-110750000D01*
X137753750Y-112390000D02*
X138900000Y-112390000D01*
X137400000Y-83550000D02*
X138505000Y-83550000D01*
X131800000Y-110750000D02*
X132750000Y-111700000D01*
D48*
X130250000Y-92850000D02*
X129400000Y-93700000D01*
X129400000Y-93700000D02*
X129400000Y-94950000D01*
D46*
%TO.N,+1V8*%
X133875000Y-113650000D02*
X133875000Y-114525000D01*
X134050000Y-112850000D02*
X134050000Y-112200000D01*
X133875000Y-113650000D02*
X134050000Y-113475000D01*
X132913750Y-115486250D02*
X130686250Y-115486250D01*
X133450000Y-114700000D02*
X133500000Y-114700000D01*
X133700000Y-114700000D02*
X132913750Y-115486250D01*
X141950000Y-110875000D02*
X141950000Y-111800000D01*
X130686250Y-115486250D02*
X130250000Y-115050000D01*
X134050000Y-112200000D02*
X134000000Y-112150000D01*
X133875000Y-114525000D02*
X133700000Y-114700000D01*
X138000000Y-111000000D02*
X137000000Y-112000000D01*
X141975000Y-111775000D02*
X141950000Y-111800000D01*
X143575000Y-111775000D02*
X141975000Y-111775000D01*
X134050000Y-113475000D02*
X134050000Y-112850000D01*
D10*
%TO.N,/RF_IN*%
X149499999Y-105550001D02*
X149800000Y-105250000D01*
X147450000Y-105550001D02*
X149499999Y-105550001D01*
D46*
%TO.N,/ANT_SHORT_N*%
X146275000Y-101150000D02*
X146275001Y-101149999D01*
X146300000Y-85000000D02*
X144745000Y-85000000D01*
X146275001Y-101149999D02*
X147450000Y-101149999D01*
X144700000Y-85045000D02*
X144555000Y-85045000D01*
X143350000Y-86250000D02*
X143100000Y-86250000D01*
X147700000Y-85000000D02*
X147200000Y-85000000D01*
X147200000Y-85000000D02*
X147200000Y-85600000D01*
X144555000Y-85045000D02*
X143350000Y-86250000D01*
X147200000Y-85000000D02*
X146300000Y-85000000D01*
X144745000Y-85000000D02*
X144700000Y-85045000D01*
D49*
%TO.N,/HOST_D+*%
X150150000Y-114005000D02*
X150150000Y-113990000D01*
D50*
X149755600Y-114599808D02*
X149755600Y-114399400D01*
X148680600Y-117555599D02*
X148680600Y-115674808D01*
X148680600Y-115674808D02*
X149755600Y-114599808D01*
X148750000Y-117624999D02*
X148680600Y-117555599D01*
X149755600Y-114399400D02*
X150150000Y-114005000D01*
X148750000Y-118750000D02*
X148750000Y-117624999D01*
D49*
%TO.N,/HOST_D-*%
X149000000Y-114005000D02*
X149000000Y-113990000D01*
D50*
X148319400Y-115525192D02*
X149394400Y-114450192D01*
X148319400Y-117555599D02*
X148319400Y-115525192D01*
X149394400Y-114399400D02*
X149000000Y-114005000D01*
X148250000Y-118750000D02*
X148250000Y-117624999D01*
X149394400Y-114450192D02*
X149394400Y-114399400D01*
X148250000Y-117624999D02*
X148319400Y-117555599D01*
D48*
%TO.N,Net-(D2-Pad2)*%
X138480000Y-87250000D02*
X138550000Y-87180000D01*
X135940000Y-87250000D02*
X138480000Y-87250000D01*
D51*
%TO.N,/TX_RDY*%
X132500000Y-108650000D02*
X132900000Y-108250000D01*
X132500000Y-110250000D02*
X132500000Y-108650000D01*
X137799999Y-108550350D02*
X137799999Y-109450000D01*
X133050000Y-110800000D02*
X132500000Y-110250000D01*
X132900000Y-108250000D02*
X137499649Y-108250000D01*
X137499649Y-108250000D02*
X137799999Y-108550350D01*
X133000000Y-116300000D02*
X138750000Y-116300000D01*
X132750000Y-116050000D02*
X133000000Y-116300000D01*
D46*
%TO.N,/ZED_RXD_1V8*%
X134850000Y-114134314D02*
X134850000Y-112850000D01*
X135315686Y-114600000D02*
X134850000Y-114134314D01*
X141050000Y-114600000D02*
X135315686Y-114600000D01*
X142025000Y-115575000D02*
X141050000Y-114600000D01*
X143325000Y-115575000D02*
X142025000Y-115575000D01*
%TO.N,/SDA_1V8*%
X135500000Y-114000000D02*
X135250000Y-113750000D01*
X136075000Y-114000000D02*
X135500000Y-114000000D01*
X135250000Y-113750000D02*
X135250000Y-112850000D01*
%TO.N,/RESET_N*%
X140900000Y-111925000D02*
X140900000Y-109650000D01*
X140900000Y-109650000D02*
X141100000Y-109450000D01*
X141100000Y-109450000D02*
X140800000Y-109750000D01*
%TO.N,/PPS*%
X148513750Y-111563750D02*
X148050000Y-111100000D01*
X145500000Y-111100000D02*
X145500000Y-109450002D01*
X149850000Y-110700000D02*
X149850000Y-111250000D01*
X149536250Y-111563750D02*
X148513750Y-111563750D01*
X149850000Y-111250000D02*
X149536250Y-111563750D01*
X148050000Y-111100000D02*
X145500000Y-111100000D01*
X145500000Y-109450002D02*
X145500002Y-109450000D01*
%TO.N,/RTK_STAT*%
X141100000Y-89550000D02*
X141100000Y-90800000D01*
X147475000Y-108575000D02*
X147475000Y-110225000D01*
%TO.N,/ZED_TXD_1V8*%
X135125000Y-115050000D02*
X134450000Y-114375000D01*
X140675000Y-115675000D02*
X140050000Y-115050000D01*
X140050000Y-115050000D02*
X135125000Y-115050000D01*
X134450000Y-114375000D02*
X134450000Y-112850000D01*
%TO.N,/GEOFENCE_STAT*%
X148300000Y-110300000D02*
X148175000Y-110425000D01*
X142200001Y-90849999D02*
X142200000Y-90850000D01*
X142200001Y-89550000D02*
X142200001Y-90849999D01*
X148300000Y-108575000D02*
X148300000Y-110300000D01*
%TO.N,/SCL_1V8*%
X135650000Y-113150000D02*
X135650000Y-112850000D01*
X136650000Y-113250000D02*
X135750000Y-113250000D01*
X135750000Y-113250000D02*
X135650000Y-113150000D01*
%TO.N,/ANT_OFF*%
X148200000Y-87265000D02*
X147185000Y-87265000D01*
X147185000Y-87265000D02*
X147150000Y-87300000D01*
X146275000Y-102250000D02*
X147450000Y-102250000D01*
X148200000Y-87265000D02*
X148200000Y-88100000D01*
D50*
%TO.N,/ZED_D+*%
X132207100Y-105550001D02*
X132550000Y-105550001D01*
X131125000Y-107506801D02*
X131125000Y-105641686D01*
X149818100Y-112395650D02*
X149963750Y-112250000D01*
X150150000Y-113025000D02*
X149818100Y-112693100D01*
X149818100Y-112693100D02*
X149818100Y-112395650D01*
X131541686Y-105225000D02*
X131882099Y-105225000D01*
X131125000Y-105641686D02*
X131541686Y-105225000D01*
X131343311Y-107725112D02*
X131125000Y-107506801D01*
X131882099Y-105225000D02*
X132207100Y-105550001D01*
X131574888Y-107725112D02*
X131343311Y-107725112D01*
D49*
X150150000Y-113035000D02*
X150150000Y-113025000D01*
%TO.N,/ZED_D-*%
X149000000Y-113035000D02*
X149000000Y-113025000D01*
D50*
X132207100Y-104450000D02*
X132550000Y-104450000D01*
X131025112Y-108043311D02*
X130675000Y-107693199D01*
X131025112Y-108274888D02*
X131025112Y-108043311D01*
X130675000Y-105455286D02*
X131355285Y-104775001D01*
X131355285Y-104775001D02*
X131882099Y-104775001D01*
X131882099Y-104775001D02*
X132207100Y-104450000D01*
X149331900Y-112693100D02*
X149331900Y-112395650D01*
X149000000Y-113025000D02*
X149331900Y-112693100D01*
X149331900Y-112395650D02*
X149186250Y-112250000D01*
X130675000Y-107693199D02*
X130675000Y-105455286D01*
D46*
%TO.N,/ANT_DET*%
X141900000Y-84400000D02*
X141850000Y-84350000D01*
X141850000Y-84350000D02*
X140700000Y-84350000D01*
X146275000Y-103350000D02*
X147450000Y-103350000D01*
%TO.N,VCC_RF*%
X146500000Y-86950000D02*
X146500000Y-88000000D01*
X146275000Y-100050000D02*
X146275001Y-100049999D01*
X148200000Y-86310000D02*
X147160000Y-86310000D01*
X147160000Y-86310000D02*
X147150000Y-86300000D01*
X146275001Y-100049999D02*
X147450000Y-100049999D01*
X147150000Y-86300000D02*
X146500000Y-86950000D01*
%TO.N,Net-(Q1-Pad3)*%
X144945000Y-86800000D02*
X144690000Y-86545000D01*
X145850000Y-86800000D02*
X144945000Y-86800000D01*
X144700000Y-87100000D02*
X144700000Y-86555000D01*
X144200000Y-87600000D02*
X144700000Y-87100000D01*
X143390000Y-87600000D02*
X144200000Y-87600000D01*
X144690000Y-86545000D02*
X144690000Y-86500000D01*
%TO.N,/ZED_TXD_3V3*%
X134450000Y-111450000D02*
X134450000Y-111003640D01*
X133400001Y-110350001D02*
X133400001Y-109450000D01*
X134246360Y-110800000D02*
X133850000Y-110800000D01*
X133850000Y-110800000D02*
X133400001Y-110350001D01*
X134450000Y-111003640D02*
X134246360Y-110800000D01*
X133400001Y-110006400D02*
X133400001Y-109450000D01*
%TO.N,/SDA_3V3*%
X135600001Y-110349999D02*
X135600001Y-109450000D01*
X135250000Y-111400000D02*
X135250000Y-110700000D01*
X135250000Y-110700000D02*
X135600001Y-110349999D01*
D45*
%TO.N,Net-(U3-D_SEL)*%
X138900000Y-109450000D02*
X138900000Y-111435000D01*
D46*
%TO.N,Net-(U4-+)*%
X141140000Y-87600000D02*
X140700000Y-87160000D01*
X140700000Y-87160000D02*
X140700000Y-86250000D01*
X142435000Y-87600000D02*
X141140000Y-87600000D01*
%TO.N,/ZED_RXD_3V3*%
X134850000Y-110700000D02*
X134500001Y-110350001D01*
X134500001Y-110350001D02*
X134500001Y-109450000D01*
X134850000Y-111400000D02*
X134850000Y-110700000D01*
%TO.N,/SCL_3V3*%
X136699999Y-110350001D02*
X136699999Y-109450000D01*
X135650000Y-111450000D02*
X135650000Y-111003640D01*
X135650000Y-111003640D02*
X135853640Y-110800000D01*
X135853640Y-110800000D02*
X136250000Y-110800000D01*
X136250000Y-110800000D02*
X136699999Y-110350001D01*
D45*
%TO.N,Net-(U1-EN)*%
X146225000Y-115075000D02*
X146225000Y-113725000D01*
X146200000Y-115050000D02*
X146200000Y-115100000D01*
D46*
%TO.N,/EXTINT*%
X143300001Y-110874999D02*
X143300001Y-109450000D01*
X143300000Y-110875000D02*
X143300001Y-110874999D01*
%TO.N,Net-(JP2-Pad1)*%
X149850000Y-106710000D02*
X150226250Y-106710000D01*
X150226250Y-106710000D02*
X150486250Y-106450000D01*
%TO.N,Net-(D1-Pad2)*%
X130950000Y-112850000D02*
X130250000Y-113550000D01*
X130000000Y-113550000D02*
X130000000Y-113600000D01*
%TO.N,Net-(D4-Pad2)*%
X149850000Y-107665000D02*
X149850000Y-109200000D01*
%TD*%
%TA.AperFunction,Conductor*%
%TO.N,VSS*%
G36*
X146887296Y-112462764D02*
G01*
X146944882Y-112504289D01*
X146946246Y-112506078D01*
X147020384Y-112605115D01*
X147129092Y-112686493D01*
X147129093Y-112686493D01*
X147129097Y-112686496D01*
X147256334Y-112733953D01*
X147256338Y-112733953D01*
X147256339Y-112733954D01*
X147281529Y-112736661D01*
X147312581Y-112740000D01*
X147618753Y-112739999D01*
X147686873Y-112760001D01*
X147733366Y-112813656D01*
X147743675Y-112849550D01*
X147745089Y-112860290D01*
X147779609Y-112943628D01*
X147797308Y-112986359D01*
X147797313Y-112986367D01*
X147880379Y-113094620D01*
X147970016Y-113163401D01*
X147988639Y-113177691D01*
X148114710Y-113229911D01*
X148250000Y-113247722D01*
X148336423Y-113236344D01*
X148406570Y-113247283D01*
X148459669Y-113294411D01*
X148465279Y-113306427D01*
X148465815Y-113306155D01*
X148527768Y-113427746D01*
X148533729Y-113433707D01*
X148567755Y-113496019D01*
X148562690Y-113566834D01*
X148533736Y-113611891D01*
X148526411Y-113619216D01*
X148470040Y-113729853D01*
X148470039Y-113729855D01*
X148455500Y-113821651D01*
X148455500Y-113821654D01*
X148455500Y-114158346D01*
X148470038Y-114250144D01*
X148511409Y-114331338D01*
X148526412Y-114360784D01*
X148614216Y-114448588D01*
X148641732Y-114462608D01*
X148693347Y-114511357D01*
X148710413Y-114580272D01*
X148687512Y-114647473D01*
X148673625Y-114663970D01*
X148099276Y-115238321D01*
X148099275Y-115238321D01*
X148032534Y-115305061D01*
X148032528Y-115305069D01*
X147985330Y-115386819D01*
X147960900Y-115477991D01*
X147960900Y-117124000D01*
X147940898Y-117192121D01*
X147887242Y-117238614D01*
X147834900Y-117250000D01*
X143601500Y-117250000D01*
X143533379Y-117229998D01*
X143486886Y-117176342D01*
X143475500Y-117124000D01*
X143475500Y-117010608D01*
X143450835Y-116894569D01*
X143438329Y-116835733D01*
X143365612Y-116672408D01*
X143292306Y-116571511D01*
X143260524Y-116527767D01*
X143127665Y-116408140D01*
X143127663Y-116408139D01*
X142972837Y-116318751D01*
X142972829Y-116318747D01*
X142802808Y-116263504D01*
X142802805Y-116263503D01*
X142802803Y-116263503D01*
X142625000Y-116244815D01*
X142447197Y-116263503D01*
X142447195Y-116263503D01*
X142447191Y-116263504D01*
X142277170Y-116318747D01*
X142277162Y-116318751D01*
X142122336Y-116408139D01*
X142122334Y-116408140D01*
X141989475Y-116527767D01*
X141884388Y-116672407D01*
X141811671Y-116835732D01*
X141774500Y-117010608D01*
X141774500Y-117124000D01*
X141754498Y-117192121D01*
X141700842Y-117238614D01*
X141648500Y-117250000D01*
X130451500Y-117250000D01*
X130383379Y-117229998D01*
X130336886Y-117176342D01*
X130325500Y-117124000D01*
X130325500Y-116426086D01*
X130325500Y-116426082D01*
X130296658Y-116281087D01*
X130240084Y-116144505D01*
X130157951Y-116021584D01*
X130055961Y-115919594D01*
X130021935Y-115857282D01*
X130027000Y-115786467D01*
X130069547Y-115729631D01*
X130136067Y-115704820D01*
X130145038Y-115704499D01*
X130350969Y-115704499D01*
X130419090Y-115724501D01*
X130440064Y-115741404D01*
X130468575Y-115769915D01*
X130468580Y-115769919D01*
X130468582Y-115769921D01*
X130468583Y-115769922D01*
X130468585Y-115769923D01*
X130538504Y-115810290D01*
X130549418Y-115816591D01*
X130639579Y-115840750D01*
X130732921Y-115840750D01*
X132111151Y-115840750D01*
X132179272Y-115860752D01*
X132225765Y-115914408D01*
X132236073Y-115983196D01*
X132227278Y-116049999D01*
X132227278Y-116050000D01*
X132245088Y-116185288D01*
X132297308Y-116311359D01*
X132297313Y-116311367D01*
X132380379Y-116419620D01*
X132485132Y-116500000D01*
X132488639Y-116502691D01*
X132614710Y-116554911D01*
X132750000Y-116572722D01*
X132759194Y-116571511D01*
X132829341Y-116582449D01*
X132838640Y-116587312D01*
X132872817Y-116607045D01*
X132890526Y-116611790D01*
X132956621Y-116629500D01*
X138288069Y-116629500D01*
X138356190Y-116649502D01*
X138377164Y-116666405D01*
X138380378Y-116669619D01*
X138488632Y-116752686D01*
X138488639Y-116752691D01*
X138614710Y-116804911D01*
X138750000Y-116822722D01*
X138885290Y-116804911D01*
X139011361Y-116752691D01*
X139119620Y-116669620D01*
X139202691Y-116561361D01*
X139254911Y-116435290D01*
X139272722Y-116300000D01*
X139272478Y-116298150D01*
X139254911Y-116164711D01*
X139246542Y-116144505D01*
X139202691Y-116038639D01*
X139202686Y-116038632D01*
X139119620Y-115930379D01*
X139011367Y-115847313D01*
X139011359Y-115847308D01*
X138885288Y-115795088D01*
X138750000Y-115777278D01*
X138614711Y-115795088D01*
X138488640Y-115847308D01*
X138488632Y-115847313D01*
X138380378Y-115930380D01*
X138377164Y-115933595D01*
X138314852Y-115967621D01*
X138288069Y-115970500D01*
X133362210Y-115970500D01*
X133294089Y-115950498D01*
X133247596Y-115896842D01*
X133245801Y-115892717D01*
X133208551Y-115802785D01*
X133200962Y-115732195D01*
X133232742Y-115668708D01*
X133235865Y-115665473D01*
X133424934Y-115476404D01*
X133487246Y-115442378D01*
X133514029Y-115439499D01*
X133962911Y-115439499D01*
X133962918Y-115439499D01*
X133987733Y-115436831D01*
X134019160Y-115433454D01*
X134019161Y-115433453D01*
X134019166Y-115433453D01*
X134146403Y-115385996D01*
X134255115Y-115304615D01*
X134336496Y-115195903D01*
X134383953Y-115068666D01*
X134383953Y-115068662D01*
X134385626Y-115064178D01*
X134428173Y-115007343D01*
X134494693Y-114982532D01*
X134564067Y-114997623D01*
X134592777Y-115019116D01*
X134841329Y-115267668D01*
X134907332Y-115333671D01*
X134907333Y-115333672D01*
X134907335Y-115333673D01*
X134979168Y-115375145D01*
X134988168Y-115380341D01*
X135078329Y-115404500D01*
X139850971Y-115404500D01*
X139919092Y-115424502D01*
X139940066Y-115441405D01*
X140118791Y-115620130D01*
X140152817Y-115682442D01*
X140154618Y-115692778D01*
X140170088Y-115810288D01*
X140222308Y-115936359D01*
X140222313Y-115936367D01*
X140305379Y-116044620D01*
X140413632Y-116127686D01*
X140413639Y-116127691D01*
X140539710Y-116179911D01*
X140675000Y-116197722D01*
X140810290Y-116179911D01*
X140936361Y-116127691D01*
X141044620Y-116044620D01*
X141127691Y-115936361D01*
X141179911Y-115810290D01*
X141197722Y-115675000D01*
X141181593Y-115552488D01*
X141192532Y-115482342D01*
X141239660Y-115429243D01*
X141308014Y-115410053D01*
X141375892Y-115430864D01*
X141395610Y-115446949D01*
X141741329Y-115792668D01*
X141807332Y-115858671D01*
X141888168Y-115905341D01*
X141978329Y-115929500D01*
X142892904Y-115929500D01*
X142961025Y-115949502D01*
X142969602Y-115955533D01*
X143063639Y-116027691D01*
X143189710Y-116079911D01*
X143325000Y-116097722D01*
X143460290Y-116079911D01*
X143586361Y-116027691D01*
X143694620Y-115944620D01*
X143777691Y-115836361D01*
X143829911Y-115710290D01*
X143847722Y-115575000D01*
X143847357Y-115572231D01*
X143834155Y-115471946D01*
X143845094Y-115401797D01*
X143892223Y-115348699D01*
X143959077Y-115329500D01*
X144629569Y-115329500D01*
X144697690Y-115349502D01*
X144741835Y-115398297D01*
X144786412Y-115485784D01*
X144874216Y-115573588D01*
X144984855Y-115629961D01*
X145076651Y-115644500D01*
X145413348Y-115644499D01*
X145505145Y-115629961D01*
X145615784Y-115573588D01*
X145623102Y-115566270D01*
X145685414Y-115532244D01*
X145756229Y-115537309D01*
X145801292Y-115566270D01*
X145807253Y-115572231D01*
X145920009Y-115629683D01*
X146013558Y-115644500D01*
X146013561Y-115644500D01*
X146386439Y-115644500D01*
X146386442Y-115644500D01*
X146479991Y-115629683D01*
X146592747Y-115572231D01*
X146682231Y-115482747D01*
X146739683Y-115369991D01*
X146754500Y-115276442D01*
X146754500Y-114923558D01*
X146739683Y-114830009D01*
X146706329Y-114764549D01*
X146682231Y-114717253D01*
X146641405Y-114676427D01*
X146607379Y-114614115D01*
X146604500Y-114587332D01*
X146604500Y-114101273D01*
X146624502Y-114033152D01*
X146644871Y-114012422D01*
X146643337Y-114010888D01*
X146652110Y-114002114D01*
X146652110Y-114002112D01*
X146652112Y-114002112D01*
X146710240Y-113915117D01*
X146725500Y-113838401D01*
X146725499Y-113611600D01*
X146723820Y-113603161D01*
X146710240Y-113534883D01*
X146666888Y-113470002D01*
X146645673Y-113402249D01*
X146664456Y-113333782D01*
X146666888Y-113329998D01*
X146676915Y-113314991D01*
X146710240Y-113265117D01*
X146725500Y-113188401D01*
X146725499Y-112961600D01*
X146721924Y-112943628D01*
X146710240Y-112884883D01*
X146666888Y-112820002D01*
X146645673Y-112752249D01*
X146664456Y-112683782D01*
X146666888Y-112679998D01*
X146688528Y-112647611D01*
X146710240Y-112615117D01*
X146721799Y-112557005D01*
X146754706Y-112494096D01*
X146816401Y-112458964D01*
X146887296Y-112462764D01*
G37*
%TD.AperFunction*%
%TA.AperFunction,Conductor*%
G36*
X150667532Y-114421006D02*
G01*
X150724368Y-114463553D01*
X150749179Y-114530073D01*
X150749500Y-114539062D01*
X150749500Y-115623500D01*
X150729498Y-115691621D01*
X150675842Y-115738114D01*
X150623500Y-115749500D01*
X150469170Y-115749500D01*
X150425000Y-115749500D01*
X150351082Y-115749500D01*
X150278584Y-115763921D01*
X150206086Y-115778342D01*
X150206083Y-115778343D01*
X150069504Y-115834916D01*
X149946588Y-115917046D01*
X149946581Y-115917051D01*
X149842051Y-116021581D01*
X149842046Y-116021588D01*
X149759916Y-116144504D01*
X149703343Y-116281083D01*
X149703342Y-116281086D01*
X149703342Y-116281087D01*
X149675786Y-116419620D01*
X149674500Y-116426083D01*
X149674500Y-117124000D01*
X149654498Y-117192121D01*
X149600842Y-117238614D01*
X149548500Y-117250000D01*
X149165100Y-117250000D01*
X149096979Y-117229998D01*
X149050486Y-117176342D01*
X149039100Y-117124000D01*
X149039100Y-115875493D01*
X149059102Y-115807372D01*
X149076000Y-115786402D01*
X150042471Y-114819932D01*
X150089669Y-114738183D01*
X150114100Y-114647005D01*
X150114100Y-114645499D01*
X150114459Y-114644275D01*
X150115178Y-114638816D01*
X150116029Y-114638928D01*
X150134102Y-114577378D01*
X150187758Y-114530885D01*
X150240100Y-114519499D01*
X150333346Y-114519499D01*
X150333348Y-114519499D01*
X150425145Y-114504961D01*
X150535784Y-114448588D01*
X150535786Y-114448585D01*
X150543803Y-114442761D01*
X150544881Y-114444245D01*
X150596717Y-114415941D01*
X150667532Y-114421006D01*
G37*
%TD.AperFunction*%
%TA.AperFunction,Conductor*%
G36*
X150509793Y-78252051D02*
G01*
X150557388Y-78259589D01*
X150594881Y-78271771D01*
X150628873Y-78289091D01*
X150660765Y-78312263D01*
X150687736Y-78339234D01*
X150710908Y-78371126D01*
X150728228Y-78405118D01*
X150740410Y-78442609D01*
X150747949Y-78490205D01*
X150749500Y-78509917D01*
X150749500Y-103311708D01*
X150729498Y-103379829D01*
X150675842Y-103426322D01*
X150605568Y-103436426D01*
X150540988Y-103406932D01*
X150505445Y-103355743D01*
X150485996Y-103303597D01*
X150485993Y-103303593D01*
X150485993Y-103303592D01*
X150404615Y-103194884D01*
X150295905Y-103113505D01*
X150295903Y-103113504D01*
X150284464Y-103109237D01*
X150227630Y-103066690D01*
X150202821Y-103000169D01*
X150202500Y-102991183D01*
X150202500Y-85992537D01*
X150202499Y-85992532D01*
X150171915Y-85779817D01*
X150171914Y-85779814D01*
X150171913Y-85779805D01*
X150111363Y-85573589D01*
X150022081Y-85378089D01*
X150013406Y-85364591D01*
X149986354Y-85322497D01*
X149905886Y-85197285D01*
X149765142Y-85034858D01*
X149602715Y-84894114D01*
X149538251Y-84852686D01*
X149421912Y-84777919D01*
X149226410Y-84688636D01*
X149020204Y-84628089D01*
X149020186Y-84628085D01*
X149010566Y-84626702D01*
X148945985Y-84597208D01*
X148907603Y-84537481D01*
X148902500Y-84501985D01*
X148902500Y-84042532D01*
X148915302Y-83987194D01*
X148944461Y-83927550D01*
X148954500Y-83858646D01*
X148954500Y-83291354D01*
X148944461Y-83222450D01*
X148928842Y-83190500D01*
X148915303Y-83162805D01*
X148902500Y-83107467D01*
X148902500Y-82869053D01*
X148922502Y-82800932D01*
X148976158Y-82754439D01*
X148984469Y-82750997D01*
X148994264Y-82747343D01*
X148994263Y-82747343D01*
X148994267Y-82747342D01*
X149110404Y-82660404D01*
X149197342Y-82544267D01*
X149248040Y-82408342D01*
X149254500Y-82348255D01*
X149254499Y-81701746D01*
X149253045Y-81688223D01*
X149247805Y-81639466D01*
X149260412Y-81569598D01*
X149308791Y-81517637D01*
X149373083Y-81500000D01*
X149450000Y-81500000D01*
X149450000Y-79500000D01*
X147550000Y-79500000D01*
X147550000Y-81500000D01*
X147626918Y-81500000D01*
X147695039Y-81520002D01*
X147741532Y-81573658D01*
X147752196Y-81639471D01*
X147751961Y-81641654D01*
X147751960Y-81641658D01*
X147748050Y-81678025D01*
X147745500Y-81701740D01*
X147745500Y-82348246D01*
X147745502Y-82348270D01*
X147751959Y-82408339D01*
X147751959Y-82408341D01*
X147802657Y-82544266D01*
X147802658Y-82544267D01*
X147889596Y-82660404D01*
X148005733Y-82747342D01*
X148005734Y-82747342D01*
X148005735Y-82747343D01*
X148015531Y-82750997D01*
X148072367Y-82793543D01*
X148097179Y-82860063D01*
X148097500Y-82869053D01*
X148097500Y-83107467D01*
X148084697Y-83162805D01*
X148055539Y-83222448D01*
X148045896Y-83288639D01*
X148045500Y-83291354D01*
X148045500Y-83858646D01*
X148055539Y-83927550D01*
X148084697Y-83987194D01*
X148097500Y-84042532D01*
X148097500Y-84398995D01*
X148077498Y-84467116D01*
X148023842Y-84513609D01*
X147953568Y-84523713D01*
X147916164Y-84512194D01*
X147902550Y-84505539D01*
X147833647Y-84495500D01*
X147833646Y-84495500D01*
X147566354Y-84495500D01*
X147566352Y-84495500D01*
X147497449Y-84505539D01*
X147497447Y-84505540D01*
X147391160Y-84557500D01*
X147391158Y-84557501D01*
X147340065Y-84608595D01*
X147277753Y-84642621D01*
X147250970Y-84645500D01*
X147107757Y-84645500D01*
X147039636Y-84625498D01*
X146993143Y-84571842D01*
X146989706Y-84563545D01*
X146985996Y-84553597D01*
X146985994Y-84553594D01*
X146985994Y-84553593D01*
X146904615Y-84444884D01*
X146795907Y-84363506D01*
X146795904Y-84363505D01*
X146795903Y-84363504D01*
X146668666Y-84316047D01*
X146668662Y-84316046D01*
X146668661Y-84316046D01*
X146668660Y-84316045D01*
X146612422Y-84310000D01*
X145987589Y-84310000D01*
X145987565Y-84310002D01*
X145931339Y-84316045D01*
X145804092Y-84363506D01*
X145695384Y-84444884D01*
X145614005Y-84553593D01*
X145614005Y-84553594D01*
X145614004Y-84553597D01*
X145610297Y-84563533D01*
X145567752Y-84620368D01*
X145501232Y-84645179D01*
X145492243Y-84645500D01*
X145450653Y-84645500D01*
X145382532Y-84625498D01*
X145349274Y-84594322D01*
X145332683Y-84571842D01*
X145288085Y-84511415D01*
X145222902Y-84463307D01*
X145176633Y-84429158D01*
X145045893Y-84383411D01*
X145045895Y-84383411D01*
X145021055Y-84381082D01*
X145014847Y-84380500D01*
X145014846Y-84380500D01*
X144385162Y-84380500D01*
X144385146Y-84380501D01*
X144354107Y-84383411D01*
X144354104Y-84383412D01*
X144223366Y-84429158D01*
X144111915Y-84511415D01*
X144029658Y-84622866D01*
X143983911Y-84753605D01*
X143981000Y-84784650D01*
X143981000Y-85065471D01*
X143960998Y-85133592D01*
X143944099Y-85154561D01*
X143671234Y-85427427D01*
X143415065Y-85683596D01*
X143352753Y-85717621D01*
X143325970Y-85720500D01*
X142806653Y-85720500D01*
X142714855Y-85735038D01*
X142604216Y-85791411D01*
X142516411Y-85879216D01*
X142473251Y-85963925D01*
X142460039Y-85989855D01*
X142445500Y-86081651D01*
X142445500Y-86081654D01*
X142445500Y-86418346D01*
X142460038Y-86510144D01*
X142505301Y-86598977D01*
X142516412Y-86620784D01*
X142604216Y-86708588D01*
X142714855Y-86764961D01*
X142806651Y-86779500D01*
X143393348Y-86779499D01*
X143485145Y-86764961D01*
X143595784Y-86708588D01*
X143683588Y-86620784D01*
X143739961Y-86510145D01*
X143739961Y-86510144D01*
X143742733Y-86504704D01*
X143791481Y-86453088D01*
X143860395Y-86436022D01*
X143927597Y-86458922D01*
X143971750Y-86514520D01*
X143981000Y-86561906D01*
X143981000Y-86815337D01*
X143981001Y-86815353D01*
X143983911Y-86846392D01*
X143983912Y-86846395D01*
X144029658Y-86977133D01*
X144035471Y-86985009D01*
X144072734Y-87035498D01*
X144079510Y-87044678D01*
X144103868Y-87111365D01*
X144088306Y-87180635D01*
X144037764Y-87230495D01*
X143978131Y-87245500D01*
X143932062Y-87245500D01*
X143863941Y-87225498D01*
X143842967Y-87208595D01*
X143760783Y-87126411D01*
X143705464Y-87098225D01*
X143650145Y-87070039D01*
X143558349Y-87055500D01*
X143558345Y-87055500D01*
X143221653Y-87055500D01*
X143129855Y-87070038D01*
X143019216Y-87126411D01*
X143011891Y-87133736D01*
X142949577Y-87167756D01*
X142878761Y-87162687D01*
X142833707Y-87133729D01*
X142827746Y-87127768D01*
X142714992Y-87070317D01*
X142691603Y-87066612D01*
X142621442Y-87055500D01*
X142248558Y-87055500D01*
X142192428Y-87064390D01*
X142155007Y-87070317D01*
X142042254Y-87127768D01*
X141961426Y-87208596D01*
X141899114Y-87242621D01*
X141872331Y-87245500D01*
X141682062Y-87245500D01*
X141613941Y-87225498D01*
X141592967Y-87208595D01*
X141510783Y-87126411D01*
X141455464Y-87098225D01*
X141400145Y-87070039D01*
X141308349Y-87055500D01*
X141308346Y-87055500D01*
X141180500Y-87055500D01*
X141112379Y-87035498D01*
X141065886Y-86981842D01*
X141054500Y-86929500D01*
X141054500Y-86857788D01*
X141074502Y-86789667D01*
X141123298Y-86745521D01*
X141195784Y-86708588D01*
X141283588Y-86620784D01*
X141339961Y-86510145D01*
X141354500Y-86418349D01*
X141354499Y-86081652D01*
X141339961Y-85989855D01*
X141283588Y-85879216D01*
X141195784Y-85791412D01*
X141195783Y-85791411D01*
X141098573Y-85741881D01*
X141085145Y-85735039D01*
X140993349Y-85720500D01*
X140993345Y-85720500D01*
X140406653Y-85720500D01*
X140314855Y-85735038D01*
X140204216Y-85791411D01*
X140116411Y-85879216D01*
X140073251Y-85963925D01*
X140060039Y-85989855D01*
X140045500Y-86081651D01*
X140045500Y-86081654D01*
X140045500Y-86418346D01*
X140060038Y-86510144D01*
X140105301Y-86598977D01*
X140116412Y-86620784D01*
X140204216Y-86708588D01*
X140274621Y-86744461D01*
X140276702Y-86745521D01*
X140328318Y-86794269D01*
X140345500Y-86857788D01*
X140345500Y-87206674D01*
X140369659Y-87296833D01*
X140416326Y-87377664D01*
X140416327Y-87377665D01*
X140416329Y-87377668D01*
X140573596Y-87534935D01*
X140607620Y-87597245D01*
X140610500Y-87624028D01*
X140610500Y-87783346D01*
X140625038Y-87875144D01*
X140679865Y-87982747D01*
X140681412Y-87985784D01*
X140769216Y-88073588D01*
X140879855Y-88129961D01*
X140971651Y-88144500D01*
X141308348Y-88144499D01*
X141400145Y-88129961D01*
X141510784Y-88073588D01*
X141592967Y-87991405D01*
X141655279Y-87957379D01*
X141682062Y-87954500D01*
X141872331Y-87954500D01*
X141940452Y-87974502D01*
X141961426Y-87991404D01*
X142042253Y-88072231D01*
X142155009Y-88129683D01*
X142248558Y-88144500D01*
X142248561Y-88144500D01*
X142621439Y-88144500D01*
X142621442Y-88144500D01*
X142714991Y-88129683D01*
X142827747Y-88072231D01*
X142833707Y-88066270D01*
X142896014Y-88032246D01*
X142966830Y-88037308D01*
X143011894Y-88066266D01*
X143019216Y-88073588D01*
X143129855Y-88129961D01*
X143221651Y-88144500D01*
X143558348Y-88144499D01*
X143650145Y-88129961D01*
X143760784Y-88073588D01*
X143842967Y-87991405D01*
X143905279Y-87957379D01*
X143932062Y-87954500D01*
X144246671Y-87954500D01*
X144336832Y-87930341D01*
X144417668Y-87883671D01*
X144983671Y-87317668D01*
X145005221Y-87280341D01*
X145017673Y-87258772D01*
X145069055Y-87209779D01*
X145085171Y-87202844D01*
X145176635Y-87170840D01*
X145176638Y-87170838D01*
X145179928Y-87169100D01*
X145238801Y-87154500D01*
X145395970Y-87154500D01*
X145464091Y-87174502D01*
X145485065Y-87191405D01*
X145486158Y-87192498D01*
X145486160Y-87192499D01*
X145592450Y-87244461D01*
X145661354Y-87254500D01*
X145661360Y-87254500D01*
X146019500Y-87254500D01*
X146087621Y-87274502D01*
X146134114Y-87328158D01*
X146145500Y-87380500D01*
X146145500Y-87567903D01*
X146125498Y-87636024D01*
X146119462Y-87644607D01*
X146047313Y-87738632D01*
X146047308Y-87738640D01*
X145995088Y-87864711D01*
X145977278Y-87999999D01*
X145977278Y-88000000D01*
X145995088Y-88135288D01*
X146047308Y-88261359D01*
X146047310Y-88261362D01*
X146122311Y-88359105D01*
X146147911Y-88425325D01*
X146133646Y-88494874D01*
X146084045Y-88545670D01*
X146014855Y-88561586D01*
X145997768Y-88559388D01*
X145931466Y-88546200D01*
X145068535Y-88546200D01*
X145068525Y-88546201D01*
X144982126Y-88563387D01*
X144981675Y-88561122D01*
X144927612Y-88566928D01*
X144910689Y-88561958D01*
X144831467Y-88546200D01*
X143968535Y-88546200D01*
X143968525Y-88546201D01*
X143882127Y-88563387D01*
X143881676Y-88561122D01*
X143827613Y-88566928D01*
X143810690Y-88561958D01*
X143731469Y-88546200D01*
X142868537Y-88546200D01*
X142868527Y-88546201D01*
X142782128Y-88563387D01*
X142781677Y-88561122D01*
X142727614Y-88566928D01*
X142710691Y-88561958D01*
X142631469Y-88546200D01*
X141768537Y-88546200D01*
X141768527Y-88546201D01*
X141682129Y-88563387D01*
X141681678Y-88561121D01*
X141627623Y-88566931D01*
X141610690Y-88561958D01*
X141531468Y-88546200D01*
X140668536Y-88546200D01*
X140668526Y-88546201D01*
X140582127Y-88563387D01*
X140581676Y-88561122D01*
X140527613Y-88566928D01*
X140510690Y-88561958D01*
X140431468Y-88546200D01*
X139568536Y-88546200D01*
X139568526Y-88546201D01*
X139482127Y-88563387D01*
X139481676Y-88561122D01*
X139427613Y-88566928D01*
X139410690Y-88561958D01*
X139331468Y-88546200D01*
X138468536Y-88546200D01*
X138468526Y-88546201D01*
X138382128Y-88563387D01*
X138381677Y-88561121D01*
X138327622Y-88566931D01*
X138310689Y-88561958D01*
X138231467Y-88546200D01*
X137368535Y-88546200D01*
X137368525Y-88546201D01*
X137282126Y-88563387D01*
X137281675Y-88561122D01*
X137227612Y-88566928D01*
X137210689Y-88561958D01*
X137131467Y-88546200D01*
X136268535Y-88546200D01*
X136268525Y-88546201D01*
X136182126Y-88563387D01*
X136181675Y-88561122D01*
X136127612Y-88566928D01*
X136110689Y-88561958D01*
X136031468Y-88546200D01*
X135527994Y-88546200D01*
X135459873Y-88526198D01*
X135413380Y-88472542D01*
X135403276Y-88402268D01*
X135428033Y-88343495D01*
X135452691Y-88311361D01*
X135504911Y-88185290D01*
X135522722Y-88050000D01*
X135504911Y-87914710D01*
X135504910Y-87914708D01*
X135504575Y-87912161D01*
X135515514Y-87842013D01*
X135562642Y-87788914D01*
X135630996Y-87769724D01*
X135669654Y-87779252D01*
X135670420Y-87776896D01*
X135679848Y-87779959D01*
X135679852Y-87779959D01*
X135679855Y-87779961D01*
X135771651Y-87794500D01*
X136108348Y-87794499D01*
X136200145Y-87779961D01*
X136310784Y-87723588D01*
X136342967Y-87691405D01*
X136405279Y-87657379D01*
X136432062Y-87654500D01*
X137941591Y-87654500D01*
X138009712Y-87674502D01*
X138019463Y-87682360D01*
X138019543Y-87682252D01*
X138134951Y-87767427D01*
X138134958Y-87767430D01*
X138261425Y-87811683D01*
X138261427Y-87811683D01*
X138261429Y-87811684D01*
X138291458Y-87814500D01*
X138291461Y-87814500D01*
X138808539Y-87814500D01*
X138808542Y-87814500D01*
X138838571Y-87811684D01*
X138838573Y-87811683D01*
X138838575Y-87811683D01*
X138939832Y-87776250D01*
X138965047Y-87767428D01*
X139072859Y-87687859D01*
X139152428Y-87580047D01*
X139196684Y-87453571D01*
X139199500Y-87423542D01*
X139199500Y-86936458D01*
X139196684Y-86906429D01*
X139196683Y-86906426D01*
X139196683Y-86906424D01*
X139152430Y-86779958D01*
X139152427Y-86779951D01*
X139072859Y-86672140D01*
X138965048Y-86592572D01*
X138965041Y-86592569D01*
X138838574Y-86548316D01*
X138838576Y-86548316D01*
X138808544Y-86545500D01*
X138808542Y-86545500D01*
X138291458Y-86545500D01*
X138291455Y-86545500D01*
X138261424Y-86548316D01*
X138134958Y-86592569D01*
X138134951Y-86592572D01*
X138027140Y-86672140D01*
X137941965Y-86787550D01*
X137940518Y-86786482D01*
X137898885Y-86829259D01*
X137837007Y-86845500D01*
X136432062Y-86845500D01*
X136363941Y-86825498D01*
X136342967Y-86808595D01*
X136310783Y-86776411D01*
X136255464Y-86748225D01*
X136200145Y-86720039D01*
X136108349Y-86705500D01*
X136108345Y-86705500D01*
X135771653Y-86705500D01*
X135764698Y-86706602D01*
X135694288Y-86697496D01*
X135639978Y-86651768D01*
X135619012Y-86583938D01*
X135638046Y-86515541D01*
X135669488Y-86481284D01*
X135705115Y-86454615D01*
X135786496Y-86345903D01*
X135833953Y-86218666D01*
X135840000Y-86162419D01*
X135839999Y-85537582D01*
X135833953Y-85481338D01*
X135833953Y-85481337D01*
X135833953Y-85481334D01*
X135786496Y-85354097D01*
X135786493Y-85354093D01*
X135786493Y-85354092D01*
X135705115Y-85245384D01*
X135596407Y-85164006D01*
X135596404Y-85164005D01*
X135596403Y-85164004D01*
X135469166Y-85116547D01*
X135469162Y-85116546D01*
X135469161Y-85116546D01*
X135469160Y-85116545D01*
X135412922Y-85110500D01*
X134887089Y-85110500D01*
X134887065Y-85110502D01*
X134830839Y-85116545D01*
X134703592Y-85164006D01*
X134594884Y-85245384D01*
X134513506Y-85354092D01*
X134513504Y-85354096D01*
X134513504Y-85354097D01*
X134467083Y-85478558D01*
X134466046Y-85481338D01*
X134460085Y-85536780D01*
X134432915Y-85602372D01*
X134374597Y-85642862D01*
X134303645Y-85645396D01*
X134242588Y-85609168D01*
X134233427Y-85598131D01*
X134203570Y-85557675D01*
X134096369Y-85478558D01*
X134096364Y-85478555D01*
X133970606Y-85434551D01*
X133970601Y-85434550D01*
X133940743Y-85431750D01*
X133940742Y-85431750D01*
X133459265Y-85431750D01*
X133459250Y-85431751D01*
X133429397Y-85434550D01*
X133429394Y-85434551D01*
X133303635Y-85478555D01*
X133303630Y-85478558D01*
X133196427Y-85557677D01*
X133117308Y-85664880D01*
X133117305Y-85664885D01*
X133073301Y-85790643D01*
X133073300Y-85790648D01*
X133070500Y-85820504D01*
X133070500Y-87676984D01*
X133070501Y-87676999D01*
X133073300Y-87706852D01*
X133073301Y-87706855D01*
X133117305Y-87832614D01*
X133117308Y-87832619D01*
X133196427Y-87939822D01*
X133303630Y-88018941D01*
X133303635Y-88018944D01*
X133429393Y-88062948D01*
X133429399Y-88062950D01*
X133459257Y-88065750D01*
X133940742Y-88065749D01*
X133970601Y-88062950D01*
X134058348Y-88032246D01*
X134096364Y-88018944D01*
X134096369Y-88018941D01*
X134203570Y-87939824D01*
X134203570Y-87939822D01*
X134203572Y-87939822D01*
X134264298Y-87857539D01*
X134320843Y-87814608D01*
X134391623Y-87809061D01*
X134454165Y-87842661D01*
X134488613Y-87904741D01*
X134490600Y-87948807D01*
X134477278Y-88049999D01*
X134477278Y-88050000D01*
X134495088Y-88185288D01*
X134547308Y-88311359D01*
X134547311Y-88311363D01*
X134571967Y-88343495D01*
X134597568Y-88409715D01*
X134583304Y-88479264D01*
X134533703Y-88530061D01*
X134472005Y-88546200D01*
X134068534Y-88546200D01*
X134068524Y-88546201D01*
X133982125Y-88563387D01*
X133981674Y-88561122D01*
X133927611Y-88566928D01*
X133910688Y-88561958D01*
X133831466Y-88546200D01*
X132968534Y-88546200D01*
X132968524Y-88546201D01*
X132894297Y-88560965D01*
X132810113Y-88617216D01*
X132753864Y-88701397D01*
X132739098Y-88775630D01*
X132739098Y-90324363D01*
X132739099Y-90324373D01*
X132753863Y-90398600D01*
X132810114Y-90482784D01*
X132894295Y-90539033D01*
X132894297Y-90539034D01*
X132968531Y-90553800D01*
X133831464Y-90553799D01*
X133831467Y-90553798D01*
X133831471Y-90553798D01*
X133917871Y-90536613D01*
X133918321Y-90538879D01*
X133972364Y-90533067D01*
X133989303Y-90538040D01*
X133994295Y-90539033D01*
X133994297Y-90539034D01*
X134068531Y-90553800D01*
X134931464Y-90553799D01*
X134931467Y-90553798D01*
X134931471Y-90553798D01*
X135017871Y-90536613D01*
X135018321Y-90538879D01*
X135072357Y-90533065D01*
X135089301Y-90538040D01*
X135094297Y-90539033D01*
X135094298Y-90539034D01*
X135168532Y-90553800D01*
X136031465Y-90553799D01*
X136031468Y-90553798D01*
X136031472Y-90553798D01*
X136117872Y-90536613D01*
X136118322Y-90538879D01*
X136172365Y-90533067D01*
X136189304Y-90538040D01*
X136194296Y-90539033D01*
X136194298Y-90539034D01*
X136268532Y-90553800D01*
X137131465Y-90553799D01*
X137131468Y-90553798D01*
X137131472Y-90553798D01*
X137217872Y-90536613D01*
X137218322Y-90538879D01*
X137272365Y-90533067D01*
X137289304Y-90538040D01*
X137294296Y-90539033D01*
X137294298Y-90539034D01*
X137368532Y-90553800D01*
X138231465Y-90553799D01*
X138231468Y-90553798D01*
X138231472Y-90553798D01*
X138317872Y-90536613D01*
X138318322Y-90538879D01*
X138372358Y-90533065D01*
X138389302Y-90538040D01*
X138394298Y-90539033D01*
X138394299Y-90539034D01*
X138468533Y-90553800D01*
X139331466Y-90553799D01*
X139331469Y-90553798D01*
X139331473Y-90553798D01*
X139417873Y-90536613D01*
X139418323Y-90538879D01*
X139472366Y-90533067D01*
X139489305Y-90538040D01*
X139494297Y-90539033D01*
X139494299Y-90539034D01*
X139568533Y-90553800D01*
X140431466Y-90553799D01*
X140442028Y-90551698D01*
X140512742Y-90558026D01*
X140568809Y-90601580D01*
X140592429Y-90668532D01*
X140591532Y-90691722D01*
X140577278Y-90799998D01*
X140577278Y-90800000D01*
X140595088Y-90935288D01*
X140647308Y-91061359D01*
X140647313Y-91061367D01*
X140730379Y-91169620D01*
X140838632Y-91252686D01*
X140838639Y-91252691D01*
X140964710Y-91304911D01*
X141100000Y-91322722D01*
X141235290Y-91304911D01*
X141361361Y-91252691D01*
X141469620Y-91169620D01*
X141532777Y-91087312D01*
X141590115Y-91045446D01*
X141660986Y-91041224D01*
X141722888Y-91075988D01*
X141741966Y-91104912D01*
X141743182Y-91104211D01*
X141747307Y-91111357D01*
X141747309Y-91111361D01*
X141747311Y-91111363D01*
X141747313Y-91111367D01*
X141830379Y-91219620D01*
X141873478Y-91252691D01*
X141938639Y-91302691D01*
X142064710Y-91354911D01*
X142200000Y-91372722D01*
X142335290Y-91354911D01*
X142461361Y-91302691D01*
X142569620Y-91219620D01*
X142652691Y-91111361D01*
X142704911Y-90985290D01*
X142722722Y-90850000D01*
X142704911Y-90714710D01*
X142704909Y-90714706D01*
X142702774Y-90706734D01*
X142706106Y-90705840D01*
X142700185Y-90651180D01*
X142731912Y-90587667D01*
X142792940Y-90551390D01*
X142848781Y-90549871D01*
X142868534Y-90553800D01*
X143731467Y-90553799D01*
X143731470Y-90553798D01*
X143731474Y-90553798D01*
X143817874Y-90536613D01*
X143818324Y-90538879D01*
X143872360Y-90533066D01*
X143889302Y-90538040D01*
X143894297Y-90539033D01*
X143894298Y-90539034D01*
X143968532Y-90553800D01*
X144831465Y-90553799D01*
X144831468Y-90553798D01*
X144831472Y-90553798D01*
X144917872Y-90536613D01*
X144918322Y-90538879D01*
X144972365Y-90533067D01*
X144989304Y-90538040D01*
X144994296Y-90539033D01*
X144994298Y-90539034D01*
X145068532Y-90553800D01*
X145931465Y-90553799D01*
X145931468Y-90553798D01*
X145931472Y-90553798D01*
X146017872Y-90536613D01*
X146018322Y-90538879D01*
X146072365Y-90533067D01*
X146089304Y-90538040D01*
X146094296Y-90539033D01*
X146094298Y-90539034D01*
X146168532Y-90553800D01*
X147031465Y-90553799D01*
X147031468Y-90553798D01*
X147031472Y-90553798D01*
X147080725Y-90544001D01*
X147105700Y-90539034D01*
X147189883Y-90482784D01*
X147246133Y-90398601D01*
X147260899Y-90324367D01*
X147260898Y-88775634D01*
X147260897Y-88775630D01*
X147260897Y-88775626D01*
X147246133Y-88701399D01*
X147189882Y-88617215D01*
X147105701Y-88560966D01*
X147031468Y-88546200D01*
X146989628Y-88546200D01*
X146921507Y-88526198D01*
X146875014Y-88472542D01*
X146864910Y-88402268D01*
X146889665Y-88343496D01*
X146952691Y-88261361D01*
X147004911Y-88135290D01*
X147022722Y-88000000D01*
X147021590Y-87991405D01*
X147009155Y-87896946D01*
X147020094Y-87826797D01*
X147067223Y-87773699D01*
X147134077Y-87754500D01*
X147338640Y-87754500D01*
X147338646Y-87754500D01*
X147407550Y-87744461D01*
X147513840Y-87692499D01*
X147549084Y-87657255D01*
X147611395Y-87623229D01*
X147682211Y-87628293D01*
X147727275Y-87657254D01*
X147739228Y-87669207D01*
X147773254Y-87731519D01*
X147768189Y-87802334D01*
X147750101Y-87834998D01*
X147747316Y-87838627D01*
X147747308Y-87838640D01*
X147695088Y-87964711D01*
X147677278Y-88099999D01*
X147677278Y-88100000D01*
X147695088Y-88235288D01*
X147747308Y-88361359D01*
X147747313Y-88361367D01*
X147830379Y-88469620D01*
X147930181Y-88546201D01*
X147938639Y-88552691D01*
X148064710Y-88604911D01*
X148200000Y-88622722D01*
X148335290Y-88604911D01*
X148461361Y-88552691D01*
X148569620Y-88469620D01*
X148652691Y-88361361D01*
X148704911Y-88235290D01*
X148722722Y-88100000D01*
X148716139Y-88050000D01*
X148707685Y-87985783D01*
X148704911Y-87964710D01*
X148652691Y-87838639D01*
X148649902Y-87835004D01*
X148624303Y-87768783D01*
X148638569Y-87699234D01*
X148660767Y-87669210D01*
X148672231Y-87657747D01*
X148729683Y-87544991D01*
X148744500Y-87451442D01*
X148744500Y-87078558D01*
X148729683Y-86985009D01*
X148672231Y-86872253D01*
X148666270Y-86866292D01*
X148632244Y-86803980D01*
X148637309Y-86733165D01*
X148666270Y-86688102D01*
X148673588Y-86680784D01*
X148729961Y-86570145D01*
X148744500Y-86478349D01*
X148744499Y-86141652D01*
X148729961Y-86049855D01*
X148673588Y-85939216D01*
X148585784Y-85851412D01*
X148585783Y-85851411D01*
X148505952Y-85810736D01*
X148475145Y-85795039D01*
X148383349Y-85780500D01*
X148383345Y-85780500D01*
X148016653Y-85780500D01*
X147924854Y-85795038D01*
X147924853Y-85795039D01*
X147894045Y-85810736D01*
X147824268Y-85823839D01*
X147758484Y-85797137D01*
X147717579Y-85739109D01*
X147711923Y-85682025D01*
X147720945Y-85613494D01*
X147749666Y-85548571D01*
X147808931Y-85509479D01*
X147829211Y-85505692D01*
X147829134Y-85505157D01*
X147833643Y-85504500D01*
X147833646Y-85504500D01*
X147902550Y-85494461D01*
X148008840Y-85442499D01*
X148008841Y-85442498D01*
X148010905Y-85440435D01*
X148014418Y-85438516D01*
X148017335Y-85436434D01*
X148017586Y-85436786D01*
X148073217Y-85406409D01*
X148144032Y-85411474D01*
X148189095Y-85440435D01*
X148191158Y-85442498D01*
X148191160Y-85442499D01*
X148297450Y-85494461D01*
X148366354Y-85504500D01*
X148366360Y-85504500D01*
X148633640Y-85504500D01*
X148633646Y-85504500D01*
X148702550Y-85494461D01*
X148719033Y-85486402D01*
X148808335Y-85442746D01*
X148878319Y-85430797D01*
X148900244Y-85435367D01*
X148955046Y-85451991D01*
X148977864Y-85461443D01*
X149076567Y-85514201D01*
X149097104Y-85527924D01*
X149183613Y-85598920D01*
X149201079Y-85616386D01*
X149272075Y-85702895D01*
X149285798Y-85723432D01*
X149338556Y-85822135D01*
X149348008Y-85844954D01*
X149380495Y-85952047D01*
X149385314Y-85976274D01*
X149396893Y-86093836D01*
X149397500Y-86106186D01*
X149397500Y-102991183D01*
X149377498Y-103059304D01*
X149323842Y-103105797D01*
X149315540Y-103109235D01*
X149308200Y-103111973D01*
X149304094Y-103113505D01*
X149304093Y-103113505D01*
X149195384Y-103194884D01*
X149114006Y-103303592D01*
X149114004Y-103303596D01*
X149114004Y-103303597D01*
X149073224Y-103412934D01*
X149066546Y-103430838D01*
X149066545Y-103430839D01*
X149060500Y-103487069D01*
X149060500Y-104012910D01*
X149060502Y-104012934D01*
X149066545Y-104069160D01*
X149066546Y-104069165D01*
X149066547Y-104069166D01*
X149114004Y-104196403D01*
X149114005Y-104196404D01*
X149114006Y-104196407D01*
X149195384Y-104305115D01*
X149304091Y-104386492D01*
X149304093Y-104386493D01*
X149304097Y-104386496D01*
X149304101Y-104386497D01*
X149309435Y-104389410D01*
X149359638Y-104439611D01*
X149374732Y-104508984D01*
X149349924Y-104575506D01*
X149309435Y-104610590D01*
X149304091Y-104613507D01*
X149195384Y-104694884D01*
X149114006Y-104803592D01*
X149114004Y-104803596D01*
X149114004Y-104803597D01*
X149076606Y-104903867D01*
X149066546Y-104930838D01*
X149066545Y-104930839D01*
X149060500Y-104987069D01*
X149060500Y-105021501D01*
X149040498Y-105089622D01*
X148986842Y-105136115D01*
X148934500Y-105147501D01*
X148562967Y-105147501D01*
X148494846Y-105127499D01*
X148448353Y-105073843D01*
X148439389Y-105046085D01*
X148439034Y-105044300D01*
X148382784Y-104960117D01*
X148382783Y-104960116D01*
X148298602Y-104903867D01*
X148224367Y-104889101D01*
X146675636Y-104889101D01*
X146675626Y-104889102D01*
X146601399Y-104903866D01*
X146517215Y-104960117D01*
X146460966Y-105044298D01*
X146446200Y-105118531D01*
X146446200Y-105981464D01*
X146446201Y-105981474D01*
X146460965Y-106055701D01*
X146517216Y-106139885D01*
X146601397Y-106196134D01*
X146601399Y-106196135D01*
X146675633Y-106210901D01*
X148224366Y-106210900D01*
X148224369Y-106210899D01*
X148224373Y-106210899D01*
X148273626Y-106201102D01*
X148298601Y-106196135D01*
X148382784Y-106139885D01*
X148411818Y-106096433D01*
X148439034Y-106055703D01*
X148439034Y-106055701D01*
X148439390Y-106053916D01*
X148441235Y-106050387D01*
X148443783Y-106044238D01*
X148444333Y-106044466D01*
X148472299Y-105991008D01*
X148533995Y-105955877D01*
X148562968Y-105952501D01*
X149526035Y-105952501D01*
X149594156Y-105972503D01*
X149640649Y-106026159D01*
X149650753Y-106096433D01*
X149621259Y-106161013D01*
X149583238Y-106190768D01*
X149464216Y-106251411D01*
X149376411Y-106339216D01*
X149320040Y-106449853D01*
X149320039Y-106449855D01*
X149305500Y-106541651D01*
X149305500Y-106541654D01*
X149305500Y-106878346D01*
X149320038Y-106970144D01*
X149376411Y-107080783D01*
X149383729Y-107088101D01*
X149417755Y-107150413D01*
X149412690Y-107221228D01*
X149383736Y-107266285D01*
X149377768Y-107272253D01*
X149320317Y-107385007D01*
X149318368Y-107397313D01*
X149306777Y-107470500D01*
X149305500Y-107478561D01*
X149305500Y-107851441D01*
X149312537Y-107895874D01*
X149303437Y-107966285D01*
X149257714Y-108020598D01*
X149189886Y-108041570D01*
X149121487Y-108022542D01*
X149098993Y-108004679D01*
X148718480Y-107624167D01*
X148718470Y-107624155D01*
X148640644Y-107546329D01*
X148640634Y-107546321D01*
X148554099Y-107496361D01*
X148543902Y-107493629D01*
X148533703Y-107490896D01*
X148457584Y-107470499D01*
X148457581Y-107470499D01*
X148357657Y-107470499D01*
X148349939Y-107470499D01*
X148349923Y-107470500D01*
X147024516Y-107470500D01*
X146956395Y-107450498D01*
X146947811Y-107444462D01*
X146886363Y-107397310D01*
X146886358Y-107397308D01*
X146760290Y-107345089D01*
X146760288Y-107345088D01*
X146625000Y-107327278D01*
X146489711Y-107345088D01*
X146363640Y-107397308D01*
X146363632Y-107397313D01*
X146255379Y-107480379D01*
X146172313Y-107588632D01*
X146172308Y-107588640D01*
X146120088Y-107714711D01*
X146102278Y-107849999D01*
X146102278Y-107850000D01*
X146120088Y-107985288D01*
X146172308Y-108111359D01*
X146172313Y-108111367D01*
X146228546Y-108184650D01*
X146255380Y-108219620D01*
X146256183Y-108220236D01*
X146256691Y-108220932D01*
X146261219Y-108225460D01*
X146260513Y-108226165D01*
X146298051Y-108277573D01*
X146302275Y-108348444D01*
X146267512Y-108410348D01*
X146204800Y-108443630D01*
X146179488Y-108446200D01*
X146168542Y-108446200D01*
X146168528Y-108446201D01*
X146082129Y-108463387D01*
X146081678Y-108461122D01*
X146027615Y-108466928D01*
X146010692Y-108461958D01*
X145931470Y-108446200D01*
X145068538Y-108446200D01*
X145068528Y-108446201D01*
X144982130Y-108463387D01*
X144981679Y-108461121D01*
X144927624Y-108466931D01*
X144910691Y-108461958D01*
X144831469Y-108446200D01*
X143968537Y-108446200D01*
X143968527Y-108446201D01*
X143882128Y-108463387D01*
X143881677Y-108461122D01*
X143827614Y-108466928D01*
X143810691Y-108461958D01*
X143731469Y-108446200D01*
X142868537Y-108446200D01*
X142868527Y-108446201D01*
X142782128Y-108463387D01*
X142781677Y-108461122D01*
X142727614Y-108466928D01*
X142710691Y-108461958D01*
X142631469Y-108446200D01*
X141768537Y-108446200D01*
X141768527Y-108446201D01*
X141682129Y-108463387D01*
X141681678Y-108461121D01*
X141627623Y-108466931D01*
X141610690Y-108461958D01*
X141531468Y-108446200D01*
X140668536Y-108446200D01*
X140668526Y-108446201D01*
X140594299Y-108460965D01*
X140510115Y-108517216D01*
X140453866Y-108601397D01*
X140439100Y-108675630D01*
X140439100Y-110224363D01*
X140439101Y-110224373D01*
X140453865Y-110298600D01*
X140517011Y-110393103D01*
X140515580Y-110394058D01*
X140542619Y-110443566D01*
X140545500Y-110470358D01*
X140545500Y-111492903D01*
X140525498Y-111561024D01*
X140519462Y-111569607D01*
X140447313Y-111663632D01*
X140447308Y-111663640D01*
X140395088Y-111789711D01*
X140377278Y-111924999D01*
X140377278Y-111925000D01*
X140395088Y-112060288D01*
X140447308Y-112186359D01*
X140447313Y-112186367D01*
X140530379Y-112294620D01*
X140635219Y-112375067D01*
X140638639Y-112377691D01*
X140764710Y-112429911D01*
X140900000Y-112447722D01*
X141035290Y-112429911D01*
X141161361Y-112377691D01*
X141191365Y-112354667D01*
X141257581Y-112329067D01*
X141327131Y-112343330D01*
X141343577Y-112353762D01*
X141454092Y-112436493D01*
X141454093Y-112436493D01*
X141454097Y-112436496D01*
X141581334Y-112483953D01*
X141581338Y-112483953D01*
X141581339Y-112483954D01*
X141606529Y-112486661D01*
X141637581Y-112490000D01*
X142262418Y-112489999D01*
X142287233Y-112487331D01*
X142318660Y-112483954D01*
X142318661Y-112483953D01*
X142318666Y-112483953D01*
X142445903Y-112436496D01*
X142554615Y-112355115D01*
X142575454Y-112327278D01*
X142635994Y-112246406D01*
X142635994Y-112246405D01*
X142635996Y-112246403D01*
X142649027Y-112211466D01*
X142691574Y-112154631D01*
X142758094Y-112129821D01*
X142767082Y-112129500D01*
X142957190Y-112129500D01*
X143025311Y-112149502D01*
X143071804Y-112203158D01*
X143081908Y-112273432D01*
X143080769Y-112280082D01*
X143074500Y-112311596D01*
X143074500Y-112538397D01*
X143074501Y-112538406D01*
X143089759Y-112615116D01*
X143133112Y-112679999D01*
X143154326Y-112747752D01*
X143135542Y-112816219D01*
X143133112Y-112820001D01*
X143089759Y-112884883D01*
X143074500Y-112961596D01*
X143074500Y-113188397D01*
X143074501Y-113188406D01*
X143089759Y-113265117D01*
X143147887Y-113352112D01*
X143202544Y-113388632D01*
X143234883Y-113410240D01*
X143311599Y-113425500D01*
X143838400Y-113425499D01*
X143838403Y-113425498D01*
X143838406Y-113425498D01*
X143915117Y-113410240D01*
X144002112Y-113352112D01*
X144060240Y-113265117D01*
X144075500Y-113188401D01*
X144075499Y-112961600D01*
X144071924Y-112943628D01*
X144060240Y-112884883D01*
X144016888Y-112820002D01*
X143995673Y-112752249D01*
X144014456Y-112683782D01*
X144016888Y-112679998D01*
X144038528Y-112647611D01*
X144060240Y-112615117D01*
X144075500Y-112538401D01*
X144075499Y-112311600D01*
X144072085Y-112294438D01*
X144060240Y-112234883D01*
X144016888Y-112170002D01*
X143995673Y-112102249D01*
X144014456Y-112033782D01*
X144016888Y-112029998D01*
X144029916Y-112010500D01*
X144060240Y-111965117D01*
X144075500Y-111888401D01*
X144075499Y-111661600D01*
X144069289Y-111630380D01*
X144060240Y-111584882D01*
X144002112Y-111497887D01*
X143915117Y-111439760D01*
X143915116Y-111439759D01*
X143838404Y-111424500D01*
X143838401Y-111424500D01*
X143787096Y-111424500D01*
X143718975Y-111404498D01*
X143672482Y-111350842D01*
X143662378Y-111280568D01*
X143687134Y-111221795D01*
X143690203Y-111217796D01*
X143752691Y-111136361D01*
X143804911Y-111010290D01*
X143822722Y-110875000D01*
X143821367Y-110864711D01*
X143804911Y-110739711D01*
X143804911Y-110739710D01*
X143752691Y-110613639D01*
X143752689Y-110613637D01*
X143751367Y-110610444D01*
X143743778Y-110539854D01*
X143775557Y-110476367D01*
X143836616Y-110440140D01*
X143892359Y-110438647D01*
X143894298Y-110439032D01*
X143894300Y-110439034D01*
X143968534Y-110453800D01*
X144831467Y-110453799D01*
X144831470Y-110453798D01*
X144831474Y-110453798D01*
X144917874Y-110436613D01*
X144918324Y-110438879D01*
X144972360Y-110433065D01*
X144989306Y-110438040D01*
X144994300Y-110439033D01*
X144994301Y-110439034D01*
X145019081Y-110443963D01*
X145044081Y-110448936D01*
X145106991Y-110481843D01*
X145142123Y-110543538D01*
X145145500Y-110572515D01*
X145145500Y-110667903D01*
X145125498Y-110736024D01*
X145119462Y-110744607D01*
X145047313Y-110838632D01*
X145047308Y-110838640D01*
X144995088Y-110964711D01*
X144977278Y-111099999D01*
X144977278Y-111100000D01*
X144995088Y-111235288D01*
X145047308Y-111361359D01*
X145047313Y-111361367D01*
X145130379Y-111469620D01*
X145231625Y-111547309D01*
X145238639Y-111552691D01*
X145364710Y-111604911D01*
X145500000Y-111622722D01*
X145582055Y-111611919D01*
X145652202Y-111622858D01*
X145705301Y-111669986D01*
X145724500Y-111736840D01*
X145724500Y-111888397D01*
X145724501Y-111888406D01*
X145739759Y-111965116D01*
X145783112Y-112029999D01*
X145804326Y-112097752D01*
X145785542Y-112166219D01*
X145783112Y-112170001D01*
X145739759Y-112234883D01*
X145724500Y-112311596D01*
X145724500Y-112538397D01*
X145724501Y-112538406D01*
X145739759Y-112615116D01*
X145783112Y-112679999D01*
X145804326Y-112747752D01*
X145785542Y-112816219D01*
X145783112Y-112820001D01*
X145739759Y-112884883D01*
X145724500Y-112961596D01*
X145724500Y-113188397D01*
X145724501Y-113188406D01*
X145739759Y-113265116D01*
X145783112Y-113329999D01*
X145804326Y-113397752D01*
X145785542Y-113466219D01*
X145783112Y-113470001D01*
X145739759Y-113534883D01*
X145724500Y-113611596D01*
X145724500Y-113838397D01*
X145724501Y-113838406D01*
X145739759Y-113915117D01*
X145797889Y-114002114D01*
X145806663Y-114010888D01*
X145803857Y-114013693D01*
X145835013Y-114050947D01*
X145845500Y-114101273D01*
X145845500Y-114537331D01*
X145825498Y-114605452D01*
X145808589Y-114626433D01*
X145801285Y-114633736D01*
X145738971Y-114667756D01*
X145668155Y-114662687D01*
X145623101Y-114633729D01*
X145615783Y-114626411D01*
X145560464Y-114598225D01*
X145505145Y-114570039D01*
X145413349Y-114555500D01*
X145413345Y-114555500D01*
X145076653Y-114555500D01*
X145009792Y-114566089D01*
X144991736Y-114568949D01*
X144972030Y-114570500D01*
X142309384Y-114570500D01*
X142241263Y-114550498D01*
X142220289Y-114533595D01*
X139850864Y-112164170D01*
X139850852Y-112164156D01*
X139773025Y-112086329D01*
X139773015Y-112086321D01*
X139686483Y-112036362D01*
X139686485Y-112036362D01*
X139664009Y-112030340D01*
X139589965Y-112010499D01*
X139589962Y-112010499D01*
X139490038Y-112010499D01*
X139484727Y-112010499D01*
X139416606Y-111990497D01*
X139370113Y-111936841D01*
X139360009Y-111866567D01*
X139372460Y-111827297D01*
X139429683Y-111714991D01*
X139444500Y-111621442D01*
X139444500Y-111248558D01*
X139429683Y-111155009D01*
X139372231Y-111042253D01*
X139316404Y-110986426D01*
X139282379Y-110924113D01*
X139279500Y-110897331D01*
X139279500Y-110567542D01*
X139299502Y-110499421D01*
X139353158Y-110452928D01*
X139380920Y-110443963D01*
X139400140Y-110440140D01*
X139405701Y-110439034D01*
X139489884Y-110382784D01*
X139546134Y-110298601D01*
X139560900Y-110224367D01*
X139560899Y-108675634D01*
X139560898Y-108675630D01*
X139560898Y-108675626D01*
X139546134Y-108601399D01*
X139546133Y-108601397D01*
X139489884Y-108517216D01*
X139489883Y-108517215D01*
X139405702Y-108460966D01*
X139331468Y-108446200D01*
X138468536Y-108446200D01*
X138468526Y-108446201D01*
X138382128Y-108463387D01*
X138381677Y-108461121D01*
X138327622Y-108466931D01*
X138310689Y-108461958D01*
X138231468Y-108446200D01*
X138231466Y-108446200D01*
X138193088Y-108446200D01*
X138124967Y-108426198D01*
X138083969Y-108383201D01*
X138077919Y-108372722D01*
X138063664Y-108348032D01*
X138002317Y-108286685D01*
X137701967Y-107986335D01*
X137701964Y-107986333D01*
X137701963Y-107986332D01*
X137626835Y-107942957D01*
X137626832Y-107942956D01*
X137626831Y-107942955D01*
X137626829Y-107942954D01*
X137626828Y-107942954D01*
X137604373Y-107936937D01*
X137543028Y-107920500D01*
X132856621Y-107920500D01*
X132856618Y-107920500D01*
X132790526Y-107938208D01*
X132790526Y-107938209D01*
X132786783Y-107939211D01*
X132772817Y-107942954D01*
X132697683Y-107986333D01*
X132589285Y-108094732D01*
X132297682Y-108386335D01*
X132273841Y-108410176D01*
X132236336Y-108447680D01*
X132236332Y-108447685D01*
X132192957Y-108522813D01*
X132192954Y-108522820D01*
X132170500Y-108606622D01*
X132170500Y-109603944D01*
X132150498Y-109672065D01*
X132096842Y-109718558D01*
X132026568Y-109728662D01*
X131996285Y-109720353D01*
X131935290Y-109695089D01*
X131935288Y-109695088D01*
X131800000Y-109677278D01*
X131664711Y-109695088D01*
X131538640Y-109747308D01*
X131538632Y-109747313D01*
X131430379Y-109830379D01*
X131347313Y-109938632D01*
X131347308Y-109938640D01*
X131295088Y-110064711D01*
X131277278Y-110199999D01*
X131277278Y-110200000D01*
X131295088Y-110335288D01*
X131319036Y-110393103D01*
X131345875Y-110457900D01*
X131347310Y-110461363D01*
X131394462Y-110522811D01*
X131420063Y-110589031D01*
X131420500Y-110599516D01*
X131420500Y-110692303D01*
X131420499Y-110692321D01*
X131420499Y-110700038D01*
X131420499Y-110799962D01*
X131430861Y-110838632D01*
X131433015Y-110846670D01*
X131433015Y-110846677D01*
X131446361Y-110896480D01*
X131496321Y-110983015D01*
X131496329Y-110983025D01*
X131574156Y-111060852D01*
X131574170Y-111060864D01*
X131973595Y-111460289D01*
X132007621Y-111522601D01*
X132010500Y-111549384D01*
X132010500Y-111962910D01*
X132010502Y-111962934D01*
X132016545Y-112019160D01*
X132016546Y-112019165D01*
X132016547Y-112019166D01*
X132064004Y-112146403D01*
X132064005Y-112146404D01*
X132064006Y-112146407D01*
X132145384Y-112255115D01*
X132254092Y-112336493D01*
X132254093Y-112336493D01*
X132254097Y-112336496D01*
X132381334Y-112383953D01*
X132381338Y-112383953D01*
X132381339Y-112383954D01*
X132406529Y-112386661D01*
X132437581Y-112390000D01*
X133062418Y-112389999D01*
X133087233Y-112387331D01*
X133118660Y-112383954D01*
X133118661Y-112383953D01*
X133118666Y-112383953D01*
X133245903Y-112336496D01*
X133255517Y-112329298D01*
X133322033Y-112304486D01*
X133391408Y-112319573D01*
X133437502Y-112365661D01*
X133437838Y-112365432D01*
X133439067Y-112367226D01*
X133441613Y-112369772D01*
X133443667Y-112373942D01*
X133444438Y-112375067D01*
X133524932Y-112455561D01*
X133524931Y-112455561D01*
X133524934Y-112455562D01*
X133524935Y-112455563D01*
X133620397Y-112497713D01*
X133674630Y-112543523D01*
X133695490Y-112611386D01*
X133695500Y-112612975D01*
X133695500Y-113079210D01*
X133675498Y-113147331D01*
X133621842Y-113193824D01*
X133617726Y-113195615D01*
X133613640Y-113197307D01*
X133505378Y-113280381D01*
X133422313Y-113388632D01*
X133422308Y-113388640D01*
X133370088Y-113514711D01*
X133352278Y-113649999D01*
X133352278Y-113650000D01*
X133370089Y-113785290D01*
X133386588Y-113825123D01*
X133394177Y-113895713D01*
X133362397Y-113959199D01*
X133314213Y-113991395D01*
X133253596Y-114014004D01*
X133253593Y-114014005D01*
X133144884Y-114095384D01*
X133063506Y-114204092D01*
X133063504Y-114204096D01*
X133063504Y-114204097D01*
X133023427Y-114311549D01*
X133016046Y-114331338D01*
X133016045Y-114331339D01*
X133010000Y-114387569D01*
X133010000Y-114836469D01*
X132989998Y-114904590D01*
X132973096Y-114925564D01*
X132803816Y-115094845D01*
X132741504Y-115128870D01*
X132714720Y-115131750D01*
X131030500Y-115131750D01*
X130962379Y-115111748D01*
X130915886Y-115058092D01*
X130904500Y-115005751D01*
X130904499Y-114795259D01*
X130904498Y-114795251D01*
X130901621Y-114764549D01*
X130870786Y-114676427D01*
X130856371Y-114635232D01*
X130856368Y-114635225D01*
X130775010Y-114524989D01*
X130664774Y-114443631D01*
X130664769Y-114443629D01*
X130594179Y-114418928D01*
X130536488Y-114377549D01*
X130510325Y-114311549D01*
X130523999Y-114241881D01*
X130573167Y-114190666D01*
X130594172Y-114181073D01*
X130664773Y-114156369D01*
X130775010Y-114075010D01*
X130856369Y-113964773D01*
X130901621Y-113835451D01*
X130904500Y-113804749D01*
X130904499Y-113489210D01*
X130924501Y-113421091D01*
X130978156Y-113374598D01*
X131014050Y-113364289D01*
X131085290Y-113354911D01*
X131211361Y-113302691D01*
X131319620Y-113219620D01*
X131402691Y-113111361D01*
X131454911Y-112985290D01*
X131472722Y-112850000D01*
X131471265Y-112838936D01*
X131457444Y-112733953D01*
X131454911Y-112714710D01*
X131402691Y-112588639D01*
X131382825Y-112562749D01*
X131319620Y-112480379D01*
X131211367Y-112397313D01*
X131211359Y-112397308D01*
X131085288Y-112345088D01*
X130950000Y-112327278D01*
X130814711Y-112345088D01*
X130688640Y-112397308D01*
X130688632Y-112397313D01*
X130580379Y-112480379D01*
X130497313Y-112588632D01*
X130497308Y-112588640D01*
X130445088Y-112714711D01*
X130435710Y-112785947D01*
X130406987Y-112850874D01*
X130347721Y-112889965D01*
X130310788Y-112895500D01*
X129995259Y-112895500D01*
X129995244Y-112895501D01*
X129964547Y-112898379D01*
X129964544Y-112898380D01*
X129835232Y-112943628D01*
X129835225Y-112943631D01*
X129724989Y-113024989D01*
X129643631Y-113135225D01*
X129643628Y-113135232D01*
X129598379Y-113264545D01*
X129595500Y-113295248D01*
X129595500Y-113804740D01*
X129595501Y-113804755D01*
X129598379Y-113835452D01*
X129598380Y-113835455D01*
X129643628Y-113964767D01*
X129643631Y-113964774D01*
X129724989Y-114075010D01*
X129835225Y-114156368D01*
X129835232Y-114156371D01*
X129905819Y-114181071D01*
X129963511Y-114222449D01*
X129989673Y-114288449D01*
X129976000Y-114358117D01*
X129926833Y-114409333D01*
X129905819Y-114418929D01*
X129835232Y-114443628D01*
X129835225Y-114443631D01*
X129724989Y-114524989D01*
X129643631Y-114635225D01*
X129643628Y-114635232D01*
X129598379Y-114764545D01*
X129595500Y-114795248D01*
X129595500Y-115304740D01*
X129595501Y-115304755D01*
X129598379Y-115335452D01*
X129598380Y-115335455D01*
X129643628Y-115464767D01*
X129643631Y-115464774D01*
X129705556Y-115548679D01*
X129729914Y-115615366D01*
X129714351Y-115684636D01*
X129663809Y-115734496D01*
X129604177Y-115749500D01*
X129376500Y-115749500D01*
X129308379Y-115729498D01*
X129261886Y-115675842D01*
X129250500Y-115623500D01*
X129250500Y-101437069D01*
X129510500Y-101437069D01*
X129510500Y-101962910D01*
X129510502Y-101962934D01*
X129516545Y-102019160D01*
X129516546Y-102019165D01*
X129516547Y-102019166D01*
X129564004Y-102146403D01*
X129564005Y-102146404D01*
X129564006Y-102146407D01*
X129645383Y-102255113D01*
X129645384Y-102255113D01*
X129645385Y-102255115D01*
X129658204Y-102264711D01*
X129737580Y-102324132D01*
X129780126Y-102380968D01*
X129785190Y-102451784D01*
X129751165Y-102514096D01*
X129737580Y-102525868D01*
X129645383Y-102594886D01*
X129564006Y-102703592D01*
X129564004Y-102703596D01*
X129564004Y-102703597D01*
X129517874Y-102827278D01*
X129516546Y-102830838D01*
X129516545Y-102830839D01*
X129510500Y-102887069D01*
X129510500Y-103412910D01*
X129510502Y-103412934D01*
X129516545Y-103469160D01*
X129516546Y-103469165D01*
X129516547Y-103469166D01*
X129564004Y-103596403D01*
X129564005Y-103596404D01*
X129564006Y-103596407D01*
X129645384Y-103705115D01*
X129754092Y-103786493D01*
X129754093Y-103786493D01*
X129754097Y-103786496D01*
X129881334Y-103833953D01*
X129881338Y-103833953D01*
X129881339Y-103833954D01*
X129906529Y-103836661D01*
X129937581Y-103840000D01*
X130562418Y-103839999D01*
X130587233Y-103837331D01*
X130618660Y-103833954D01*
X130618661Y-103833953D01*
X130618666Y-103833953D01*
X130745903Y-103786496D01*
X130854615Y-103705115D01*
X130878149Y-103673678D01*
X130929568Y-103604991D01*
X130986404Y-103562444D01*
X131030436Y-103554500D01*
X131080261Y-103554500D01*
X131148382Y-103574502D01*
X131169351Y-103591400D01*
X131251631Y-103673680D01*
X131343869Y-103726934D01*
X131446747Y-103754500D01*
X131446753Y-103754500D01*
X131453842Y-103755433D01*
X131518770Y-103784152D01*
X131557865Y-103843415D01*
X131560981Y-103855777D01*
X131563387Y-103867874D01*
X131561121Y-103868324D01*
X131566929Y-103922380D01*
X131561957Y-103939313D01*
X131546200Y-104018530D01*
X131546200Y-104290501D01*
X131526198Y-104358622D01*
X131472542Y-104405115D01*
X131420200Y-104416501D01*
X131308084Y-104416501D01*
X131216912Y-104440931D01*
X131216909Y-104440932D01*
X131176035Y-104464531D01*
X131176034Y-104464530D01*
X131135163Y-104488127D01*
X131135157Y-104488132D01*
X130454876Y-105168415D01*
X130454875Y-105168415D01*
X130388134Y-105235155D01*
X130388128Y-105235163D01*
X130340930Y-105316913D01*
X130316500Y-105408085D01*
X130316500Y-107740399D01*
X130340930Y-107831572D01*
X130385271Y-107908372D01*
X130385271Y-107908373D01*
X130388126Y-107913319D01*
X130388128Y-107913321D01*
X130388129Y-107913323D01*
X130488670Y-108013864D01*
X130522694Y-108076174D01*
X130521281Y-108135569D01*
X130520200Y-108139600D01*
X130502390Y-108274887D01*
X130502390Y-108274888D01*
X130520200Y-108410176D01*
X130572420Y-108536247D01*
X130572425Y-108536255D01*
X130655491Y-108644508D01*
X130696058Y-108675636D01*
X130763751Y-108727579D01*
X130889822Y-108779799D01*
X131025112Y-108797610D01*
X131160402Y-108779799D01*
X131286473Y-108727579D01*
X131394732Y-108644508D01*
X131477803Y-108536249D01*
X131530023Y-108410178D01*
X131538362Y-108346835D01*
X131567082Y-108281911D01*
X131626347Y-108242818D01*
X131646829Y-108238362D01*
X131710178Y-108230023D01*
X131836249Y-108177803D01*
X131944508Y-108094732D01*
X132027579Y-107986473D01*
X132079799Y-107860402D01*
X132097610Y-107725112D01*
X132079799Y-107589822D01*
X132027579Y-107463751D01*
X132027574Y-107463744D01*
X131944508Y-107355491D01*
X131836255Y-107272425D01*
X131836247Y-107272420D01*
X131710176Y-107220200D01*
X131593053Y-107204781D01*
X131528126Y-107176058D01*
X131489035Y-107116793D01*
X131483500Y-107079859D01*
X131483500Y-106286269D01*
X131503502Y-106218148D01*
X131557158Y-106171655D01*
X131627432Y-106161551D01*
X131679503Y-106181505D01*
X131701397Y-106196134D01*
X131701399Y-106196135D01*
X131775633Y-106210901D01*
X133324366Y-106210900D01*
X133324369Y-106210899D01*
X133324373Y-106210899D01*
X133373626Y-106201102D01*
X133398601Y-106196135D01*
X133482784Y-106139885D01*
X133539034Y-106055702D01*
X133553800Y-105981468D01*
X133553799Y-105118535D01*
X133553798Y-105118531D01*
X133553798Y-105118527D01*
X133536613Y-105032128D01*
X133538878Y-105031677D01*
X133533069Y-104977622D01*
X133538041Y-104960688D01*
X133539032Y-104955703D01*
X133539034Y-104955701D01*
X133553800Y-104881467D01*
X133553799Y-104018534D01*
X133553798Y-104018530D01*
X133553798Y-104018526D01*
X133536613Y-103932127D01*
X133538878Y-103931676D01*
X133533068Y-103877627D01*
X133538041Y-103860690D01*
X133539033Y-103855702D01*
X133539034Y-103855701D01*
X133553800Y-103781467D01*
X133553799Y-102918534D01*
X133553798Y-102918531D01*
X133553798Y-102918526D01*
X133539034Y-102844299D01*
X133530040Y-102830839D01*
X133482784Y-102760116D01*
X133482783Y-102760115D01*
X133398602Y-102703866D01*
X133324367Y-102689100D01*
X131775636Y-102689100D01*
X131775629Y-102689101D01*
X131750492Y-102694101D01*
X131679779Y-102687770D01*
X131623713Y-102644214D01*
X131600095Y-102577261D01*
X131604210Y-102537904D01*
X131604908Y-102535295D01*
X131604911Y-102535290D01*
X131622722Y-102400000D01*
X131620785Y-102385290D01*
X131604911Y-102264711D01*
X131600937Y-102255115D01*
X131552691Y-102138639D01*
X131552686Y-102138632D01*
X131469620Y-102030379D01*
X131361367Y-101947313D01*
X131361359Y-101947308D01*
X131235288Y-101895088D01*
X131099053Y-101877153D01*
X131034125Y-101848431D01*
X130995034Y-101789165D01*
X130989499Y-101752231D01*
X130989499Y-101437089D01*
X130989499Y-101437082D01*
X130983453Y-101380838D01*
X130983453Y-101380837D01*
X130983453Y-101380834D01*
X130935996Y-101253597D01*
X130935993Y-101253593D01*
X130935993Y-101253592D01*
X130854615Y-101144884D01*
X130745907Y-101063506D01*
X130745904Y-101063505D01*
X130745903Y-101063504D01*
X130618666Y-101016047D01*
X130618662Y-101016046D01*
X130618661Y-101016046D01*
X130618660Y-101016045D01*
X130562422Y-101010000D01*
X129937589Y-101010000D01*
X129937565Y-101010002D01*
X129881339Y-101016045D01*
X129754092Y-101063506D01*
X129645384Y-101144884D01*
X129564006Y-101253592D01*
X129516546Y-101380838D01*
X129516545Y-101380839D01*
X129510500Y-101437069D01*
X129250500Y-101437069D01*
X129250500Y-95676739D01*
X129270502Y-95608618D01*
X129324158Y-95562125D01*
X129394432Y-95552021D01*
X129459012Y-95581515D01*
X129465595Y-95587644D01*
X129473595Y-95595644D01*
X129507621Y-95657956D01*
X129510500Y-95684739D01*
X129510500Y-96062910D01*
X129510502Y-96062934D01*
X129516545Y-96119160D01*
X129516546Y-96119165D01*
X129516547Y-96119166D01*
X129564004Y-96246403D01*
X129564005Y-96246404D01*
X129564006Y-96246407D01*
X129645384Y-96355115D01*
X129754092Y-96436493D01*
X129754093Y-96436493D01*
X129754097Y-96436496D01*
X129881334Y-96483953D01*
X129881338Y-96483953D01*
X129881339Y-96483954D01*
X129906529Y-96486661D01*
X129937581Y-96490000D01*
X130415760Y-96489999D01*
X130483881Y-96510001D01*
X130504855Y-96526904D01*
X130554511Y-96576560D01*
X130588537Y-96638872D01*
X130590338Y-96649206D01*
X130595089Y-96685290D01*
X130647309Y-96811361D01*
X130669462Y-96840232D01*
X130695063Y-96906450D01*
X130695500Y-96916935D01*
X130695500Y-97003253D01*
X130715678Y-97078561D01*
X130723065Y-97106128D01*
X130723068Y-97106135D01*
X130776317Y-97198365D01*
X130776322Y-97198371D01*
X131509296Y-97931346D01*
X131543321Y-97993658D01*
X131546200Y-98020441D01*
X131546200Y-98281464D01*
X131546201Y-98281474D01*
X131563387Y-98367874D01*
X131561121Y-98368324D01*
X131566929Y-98422381D01*
X131559345Y-98448210D01*
X131559005Y-98449031D01*
X131514461Y-98504315D01*
X131447099Y-98526740D01*
X131378307Y-98509187D01*
X131365885Y-98500780D01*
X131361364Y-98497311D01*
X131361363Y-98497310D01*
X131361361Y-98497309D01*
X131235290Y-98445089D01*
X131235288Y-98445088D01*
X131100001Y-98427278D01*
X131099996Y-98427278D01*
X131087089Y-98428977D01*
X131016940Y-98418036D01*
X130963842Y-98370907D01*
X130952592Y-98348094D01*
X130935996Y-98303597D01*
X130935994Y-98303595D01*
X130935994Y-98303593D01*
X130854615Y-98194884D01*
X130745907Y-98113506D01*
X130745904Y-98113505D01*
X130745903Y-98113504D01*
X130618666Y-98066047D01*
X130618662Y-98066046D01*
X130618661Y-98066046D01*
X130618660Y-98066045D01*
X130562422Y-98060000D01*
X129937589Y-98060000D01*
X129937565Y-98060002D01*
X129881339Y-98066045D01*
X129754092Y-98113506D01*
X129645384Y-98194884D01*
X129564006Y-98303592D01*
X129564004Y-98303596D01*
X129564004Y-98303597D01*
X129517874Y-98427278D01*
X129516546Y-98430838D01*
X129516545Y-98430839D01*
X129510500Y-98487069D01*
X129510500Y-99012910D01*
X129510502Y-99012934D01*
X129516545Y-99069160D01*
X129516546Y-99069165D01*
X129516547Y-99069166D01*
X129564004Y-99196403D01*
X129564005Y-99196404D01*
X129564006Y-99196407D01*
X129645384Y-99305115D01*
X129754092Y-99386493D01*
X129754093Y-99386493D01*
X129754097Y-99386496D01*
X129881334Y-99433953D01*
X129881338Y-99433953D01*
X129881339Y-99433954D01*
X129906529Y-99436661D01*
X129937581Y-99440000D01*
X130562418Y-99439999D01*
X130618666Y-99433953D01*
X130729580Y-99392583D01*
X130800395Y-99387518D01*
X130836616Y-99401522D01*
X130838632Y-99402686D01*
X130838639Y-99402691D01*
X130964710Y-99454911D01*
X131100000Y-99472722D01*
X131235290Y-99454911D01*
X131361361Y-99402691D01*
X131365885Y-99399218D01*
X131432102Y-99373616D01*
X131501652Y-99387876D01*
X131552451Y-99437475D01*
X131559005Y-99450968D01*
X131559345Y-99451789D01*
X131566929Y-99522380D01*
X131561959Y-99539305D01*
X131546200Y-99618529D01*
X131546200Y-100481462D01*
X131546201Y-100481472D01*
X131563387Y-100567872D01*
X131561121Y-100568322D01*
X131566929Y-100622379D01*
X131561957Y-100639312D01*
X131546200Y-100718529D01*
X131546200Y-101581462D01*
X131546201Y-101581472D01*
X131560965Y-101655699D01*
X131617216Y-101739883D01*
X131701397Y-101796132D01*
X131701399Y-101796133D01*
X131775633Y-101810899D01*
X133296450Y-101810898D01*
X133364571Y-101830900D01*
X133396412Y-101860193D01*
X133480381Y-101969621D01*
X133559561Y-102030379D01*
X133588639Y-102052691D01*
X133714710Y-102104911D01*
X133850000Y-102122722D01*
X133985290Y-102104911D01*
X134111361Y-102052691D01*
X134219620Y-101969620D01*
X134302691Y-101861361D01*
X134354911Y-101735290D01*
X134372722Y-101600000D01*
X134370281Y-101581462D01*
X134354911Y-101464711D01*
X134343467Y-101437081D01*
X134302691Y-101338639D01*
X134302686Y-101338632D01*
X134222732Y-101234435D01*
X134213575Y-101220731D01*
X134173682Y-101151634D01*
X134173678Y-101151629D01*
X134166933Y-101144884D01*
X134098369Y-101076320D01*
X133848368Y-100826319D01*
X133848366Y-100826318D01*
X133848364Y-100826316D01*
X133756134Y-100773067D01*
X133756131Y-100773066D01*
X133756130Y-100773065D01*
X133756128Y-100773064D01*
X133756127Y-100773064D01*
X133653250Y-100745498D01*
X133646149Y-100744564D01*
X133581223Y-100715841D01*
X133542131Y-100656575D01*
X133539016Y-100644213D01*
X133536611Y-100632117D01*
X133538877Y-100631666D01*
X133533068Y-100577626D01*
X133538041Y-100560689D01*
X133539033Y-100555701D01*
X133539034Y-100555700D01*
X133553800Y-100481466D01*
X133553799Y-100049999D01*
X145752278Y-100049999D01*
X145752278Y-100050000D01*
X145770088Y-100185288D01*
X145822308Y-100311359D01*
X145822313Y-100311367D01*
X145905379Y-100419620D01*
X146010181Y-100500038D01*
X146052048Y-100557376D01*
X146056270Y-100628247D01*
X146021506Y-100690150D01*
X146010181Y-100699962D01*
X145905379Y-100780379D01*
X145822313Y-100888632D01*
X145822308Y-100888640D01*
X145770088Y-101014711D01*
X145752278Y-101149999D01*
X145752278Y-101150000D01*
X145770088Y-101285288D01*
X145822308Y-101411359D01*
X145822313Y-101411367D01*
X145905379Y-101519620D01*
X146010181Y-101600038D01*
X146052048Y-101657376D01*
X146056270Y-101728247D01*
X146021506Y-101790150D01*
X146010181Y-101799962D01*
X145905379Y-101880379D01*
X145822313Y-101988632D01*
X145822308Y-101988640D01*
X145770088Y-102114711D01*
X145752278Y-102249999D01*
X145752278Y-102250000D01*
X145770088Y-102385288D01*
X145822308Y-102511359D01*
X145822313Y-102511367D01*
X145905379Y-102619620D01*
X146010181Y-102700038D01*
X146052048Y-102757376D01*
X146056270Y-102828247D01*
X146021506Y-102890150D01*
X146010181Y-102899962D01*
X145905379Y-102980379D01*
X145822313Y-103088632D01*
X145822308Y-103088640D01*
X145770088Y-103214711D01*
X145752278Y-103349999D01*
X145752278Y-103350000D01*
X145770088Y-103485288D01*
X145822308Y-103611359D01*
X145822313Y-103611367D01*
X145905379Y-103719620D01*
X146013632Y-103802686D01*
X146013639Y-103802691D01*
X146139710Y-103854911D01*
X146275000Y-103872722D01*
X146378703Y-103859069D01*
X146448850Y-103870008D01*
X146499912Y-103913988D01*
X146517215Y-103939884D01*
X146601397Y-103996133D01*
X146601399Y-103996134D01*
X146675633Y-104010900D01*
X148224366Y-104010899D01*
X148224369Y-104010898D01*
X148224373Y-104010898D01*
X148273626Y-104001101D01*
X148298601Y-103996134D01*
X148382784Y-103939884D01*
X148439034Y-103855701D01*
X148453800Y-103781467D01*
X148453799Y-102918534D01*
X148453798Y-102918531D01*
X148453798Y-102918526D01*
X148436613Y-102832127D01*
X148438878Y-102831676D01*
X148433068Y-102777627D01*
X148438041Y-102760690D01*
X148439033Y-102755702D01*
X148439034Y-102755701D01*
X148453800Y-102681467D01*
X148453799Y-101818534D01*
X148453798Y-101818531D01*
X148453798Y-101818526D01*
X148436613Y-101732127D01*
X148438878Y-101731676D01*
X148433069Y-101677621D01*
X148438041Y-101660687D01*
X148439032Y-101655702D01*
X148439034Y-101655700D01*
X148453800Y-101581466D01*
X148453799Y-100718533D01*
X148453798Y-100718529D01*
X148453798Y-100718525D01*
X148436613Y-100632126D01*
X148438878Y-100631675D01*
X148433068Y-100577626D01*
X148438041Y-100560689D01*
X148439033Y-100555701D01*
X148439034Y-100555700D01*
X148453800Y-100481466D01*
X148453799Y-99618533D01*
X148453798Y-99618529D01*
X148453798Y-99618525D01*
X148436613Y-99532126D01*
X148438879Y-99531675D01*
X148433067Y-99477633D01*
X148438040Y-99460694D01*
X148439032Y-99455704D01*
X148439034Y-99455702D01*
X148453800Y-99381468D01*
X148453799Y-98518535D01*
X148453798Y-98518531D01*
X148453798Y-98518527D01*
X148436613Y-98432128D01*
X148438878Y-98431677D01*
X148433068Y-98377628D01*
X148438041Y-98360691D01*
X148439033Y-98355703D01*
X148439034Y-98355702D01*
X148453800Y-98281468D01*
X148453799Y-97418535D01*
X148453798Y-97418531D01*
X148453798Y-97418527D01*
X148436613Y-97332128D01*
X148438878Y-97331677D01*
X148433069Y-97277622D01*
X148438041Y-97260688D01*
X148439032Y-97255703D01*
X148439034Y-97255701D01*
X148453800Y-97181467D01*
X148453799Y-96318534D01*
X148453798Y-96318530D01*
X148453798Y-96318526D01*
X148436613Y-96232127D01*
X148438878Y-96231676D01*
X148433068Y-96177627D01*
X148438041Y-96160690D01*
X148439033Y-96155702D01*
X148439034Y-96155701D01*
X148453800Y-96081467D01*
X148453799Y-95218534D01*
X148453798Y-95218530D01*
X148453798Y-95218526D01*
X148439034Y-95144299D01*
X148402751Y-95089998D01*
X148382784Y-95060116D01*
X148376177Y-95055701D01*
X148298602Y-95003866D01*
X148224367Y-94989100D01*
X146675636Y-94989100D01*
X146675626Y-94989101D01*
X146601399Y-95003865D01*
X146517215Y-95060116D01*
X146460966Y-95144297D01*
X146446200Y-95218530D01*
X146446200Y-96081463D01*
X146446201Y-96081473D01*
X146463387Y-96167873D01*
X146461121Y-96168323D01*
X146466929Y-96222380D01*
X146461957Y-96239313D01*
X146446200Y-96318530D01*
X146446200Y-97181463D01*
X146446201Y-97181473D01*
X146463387Y-97267873D01*
X146461121Y-97268323D01*
X146466932Y-97322373D01*
X146461958Y-97339309D01*
X146446200Y-97418531D01*
X146446200Y-98281464D01*
X146446201Y-98281474D01*
X146463387Y-98367874D01*
X146461121Y-98368324D01*
X146466929Y-98422381D01*
X146461957Y-98439314D01*
X146446200Y-98518531D01*
X146446200Y-99381464D01*
X146446202Y-99381484D01*
X146446287Y-99381907D01*
X146446266Y-99382132D01*
X146446808Y-99387629D01*
X146445765Y-99387731D01*
X146439950Y-99452620D01*
X146396387Y-99508681D01*
X146329432Y-99532291D01*
X146306260Y-99531393D01*
X146275002Y-99527278D01*
X146275000Y-99527278D01*
X146139711Y-99545088D01*
X146013640Y-99597308D01*
X146013632Y-99597313D01*
X145905379Y-99680379D01*
X145822313Y-99788632D01*
X145822308Y-99788640D01*
X145770088Y-99914711D01*
X145752278Y-100049999D01*
X133553799Y-100049999D01*
X133553799Y-99618533D01*
X133553798Y-99618529D01*
X133553798Y-99618525D01*
X133536613Y-99532126D01*
X133538879Y-99531675D01*
X133533067Y-99477633D01*
X133538040Y-99460694D01*
X133539032Y-99455704D01*
X133539034Y-99455702D01*
X133553800Y-99381468D01*
X133553799Y-98518535D01*
X133553798Y-98518531D01*
X133553798Y-98518527D01*
X133536613Y-98432128D01*
X133538878Y-98431677D01*
X133533068Y-98377628D01*
X133538041Y-98360691D01*
X133539033Y-98355703D01*
X133539034Y-98355702D01*
X133553800Y-98281468D01*
X133553799Y-97418535D01*
X133553798Y-97418531D01*
X133553798Y-97418527D01*
X133539034Y-97344300D01*
X133509433Y-97300000D01*
X133482784Y-97260117D01*
X133482783Y-97260116D01*
X133398602Y-97203867D01*
X133324369Y-97189101D01*
X133324367Y-97189101D01*
X131963342Y-97189101D01*
X131895221Y-97169099D01*
X131874247Y-97152197D01*
X131606575Y-96884526D01*
X131572550Y-96822213D01*
X131577614Y-96751398D01*
X131579249Y-96747241D01*
X131604911Y-96685290D01*
X131622722Y-96550000D01*
X131609236Y-96447564D01*
X131620175Y-96377417D01*
X131667303Y-96324318D01*
X131735657Y-96305128D01*
X131758739Y-96307540D01*
X131767272Y-96309236D01*
X131775633Y-96310900D01*
X133324366Y-96310899D01*
X133324369Y-96310898D01*
X133324373Y-96310898D01*
X133373626Y-96301101D01*
X133398601Y-96296134D01*
X133482784Y-96239884D01*
X133539034Y-96155701D01*
X133553800Y-96081467D01*
X133553799Y-95218534D01*
X133553798Y-95218530D01*
X133553798Y-95218526D01*
X133536613Y-95132127D01*
X133538878Y-95131676D01*
X133533068Y-95077627D01*
X133538041Y-95060690D01*
X133539033Y-95055702D01*
X133539034Y-95055701D01*
X133553800Y-94981467D01*
X133553799Y-94118534D01*
X133553798Y-94118530D01*
X133553798Y-94118526D01*
X133536613Y-94032127D01*
X133538878Y-94031676D01*
X133533069Y-93977621D01*
X133538041Y-93960687D01*
X133539033Y-93955701D01*
X133539034Y-93955700D01*
X133553800Y-93881466D01*
X133553799Y-93018533D01*
X133553798Y-93018529D01*
X146446200Y-93018529D01*
X146446200Y-93881462D01*
X146446201Y-93881472D01*
X146460965Y-93955699D01*
X146517216Y-94039883D01*
X146601397Y-94096132D01*
X146601399Y-94096133D01*
X146675633Y-94110899D01*
X148224366Y-94110898D01*
X148224369Y-94110897D01*
X148224373Y-94110897D01*
X148273626Y-94101100D01*
X148298601Y-94096133D01*
X148382784Y-94039883D01*
X148439034Y-93955700D01*
X148453800Y-93881466D01*
X148453799Y-93018533D01*
X148453798Y-93018529D01*
X148453798Y-93018525D01*
X148439034Y-92944298D01*
X148409434Y-92899999D01*
X148382784Y-92860115D01*
X148376177Y-92855700D01*
X148298602Y-92803865D01*
X148224367Y-92789099D01*
X146675636Y-92789099D01*
X146675626Y-92789100D01*
X146601399Y-92803864D01*
X146517215Y-92860115D01*
X146460966Y-92944296D01*
X146446200Y-93018529D01*
X133553798Y-93018529D01*
X133553798Y-93018525D01*
X133536613Y-92932126D01*
X133538878Y-92931675D01*
X133533068Y-92877626D01*
X133538041Y-92860689D01*
X133539033Y-92855701D01*
X133539034Y-92855700D01*
X133553800Y-92781466D01*
X133553799Y-91918533D01*
X133553798Y-91918529D01*
X133553798Y-91918525D01*
X133539034Y-91844298D01*
X133482783Y-91760114D01*
X133398602Y-91703865D01*
X133324367Y-91689099D01*
X131775636Y-91689099D01*
X131775626Y-91689100D01*
X131701399Y-91703864D01*
X131617215Y-91760115D01*
X131560966Y-91844296D01*
X131546200Y-91918529D01*
X131546200Y-92781462D01*
X131546201Y-92781472D01*
X131563387Y-92867872D01*
X131561121Y-92868322D01*
X131566929Y-92922379D01*
X131561957Y-92939312D01*
X131546200Y-93018529D01*
X131546200Y-93881462D01*
X131546201Y-93881472D01*
X131563387Y-93967872D01*
X131561121Y-93968322D01*
X131566932Y-94022372D01*
X131561958Y-94039308D01*
X131546200Y-94118530D01*
X131546200Y-94981463D01*
X131546201Y-94981473D01*
X131563387Y-95067873D01*
X131561121Y-95068323D01*
X131566929Y-95122380D01*
X131561957Y-95139313D01*
X131546200Y-95218530D01*
X131546200Y-95985788D01*
X131526198Y-96053909D01*
X131472542Y-96100402D01*
X131402268Y-96110506D01*
X131369528Y-96099173D01*
X131368991Y-96100470D01*
X131361362Y-96097310D01*
X131361361Y-96097309D01*
X131235290Y-96045089D01*
X131225100Y-96043747D01*
X131199206Y-96040338D01*
X131134280Y-96011614D01*
X131126560Y-96004511D01*
X131026404Y-95904355D01*
X130992378Y-95842043D01*
X130989499Y-95815260D01*
X130989499Y-95537089D01*
X130989499Y-95537082D01*
X130983453Y-95480834D01*
X130935996Y-95353597D01*
X130935993Y-95353593D01*
X130935993Y-95353592D01*
X130854615Y-95244884D01*
X130745907Y-95163506D01*
X130745904Y-95163505D01*
X130745903Y-95163504D01*
X130618666Y-95116047D01*
X130618662Y-95116046D01*
X130618661Y-95116046D01*
X130618660Y-95116045D01*
X130562430Y-95110000D01*
X130562419Y-95110000D01*
X130184240Y-95110000D01*
X130116119Y-95089998D01*
X130095145Y-95073095D01*
X129841405Y-94819355D01*
X129807379Y-94757043D01*
X129804500Y-94730260D01*
X129804500Y-93919739D01*
X129824502Y-93851618D01*
X129841405Y-93830644D01*
X130095145Y-93576904D01*
X130157457Y-93542878D01*
X130184240Y-93539999D01*
X130562411Y-93539999D01*
X130562418Y-93539999D01*
X130587233Y-93537331D01*
X130618660Y-93533954D01*
X130618661Y-93533953D01*
X130618666Y-93533953D01*
X130745903Y-93486496D01*
X130854615Y-93405115D01*
X130935996Y-93296403D01*
X130983453Y-93169166D01*
X130989500Y-93112919D01*
X130989499Y-92587082D01*
X130983453Y-92530838D01*
X130983453Y-92530837D01*
X130983453Y-92530834D01*
X130935996Y-92403597D01*
X130935993Y-92403593D01*
X130935993Y-92403592D01*
X130854615Y-92294884D01*
X130745907Y-92213506D01*
X130745904Y-92213505D01*
X130745903Y-92213504D01*
X130618666Y-92166047D01*
X130618662Y-92166046D01*
X130618661Y-92166046D01*
X130618660Y-92166045D01*
X130562422Y-92160000D01*
X129937589Y-92160000D01*
X129937565Y-92160002D01*
X129881339Y-92166045D01*
X129754092Y-92213506D01*
X129645384Y-92294884D01*
X129564006Y-92403592D01*
X129516546Y-92530838D01*
X129516545Y-92530839D01*
X129510500Y-92587069D01*
X129510500Y-92965258D01*
X129490498Y-93033379D01*
X129473595Y-93054353D01*
X129465595Y-93062353D01*
X129403283Y-93096379D01*
X129332468Y-93091314D01*
X129275632Y-93048767D01*
X129250821Y-92982247D01*
X129250500Y-92973258D01*
X129250500Y-83549999D01*
X136877278Y-83549999D01*
X136877278Y-83550000D01*
X136895088Y-83685288D01*
X136947308Y-83811359D01*
X136947313Y-83811367D01*
X137030379Y-83919620D01*
X137134480Y-83999500D01*
X137138639Y-84002691D01*
X137264710Y-84054911D01*
X137400000Y-84072722D01*
X137535290Y-84054911D01*
X137661361Y-84002691D01*
X137722811Y-83955537D01*
X137789031Y-83929937D01*
X137799516Y-83929500D01*
X137854040Y-83929500D01*
X137922161Y-83949502D01*
X137955416Y-83980675D01*
X138027141Y-84077859D01*
X138027142Y-84077860D01*
X138134951Y-84157427D01*
X138134958Y-84157430D01*
X138261425Y-84201683D01*
X138261427Y-84201683D01*
X138261429Y-84201684D01*
X138291458Y-84204500D01*
X138291461Y-84204500D01*
X138808539Y-84204500D01*
X138808542Y-84204500D01*
X138838571Y-84201684D01*
X138838573Y-84201683D01*
X138838575Y-84201683D01*
X138965041Y-84157430D01*
X138965039Y-84157430D01*
X138965047Y-84157428D01*
X139072859Y-84077859D01*
X139089796Y-84054911D01*
X139092921Y-84050677D01*
X139149466Y-84007746D01*
X139194299Y-83999500D01*
X139926823Y-83999500D01*
X139994944Y-84019502D01*
X140041437Y-84073158D01*
X140051541Y-84143432D01*
X140051282Y-84145142D01*
X140045500Y-84181651D01*
X140045500Y-84181654D01*
X140045500Y-84518346D01*
X140060038Y-84610144D01*
X140109582Y-84707379D01*
X140116412Y-84720784D01*
X140204216Y-84808588D01*
X140314855Y-84864961D01*
X140406651Y-84879500D01*
X140993348Y-84879499D01*
X141085145Y-84864961D01*
X141195784Y-84808588D01*
X141262968Y-84741404D01*
X141325281Y-84707379D01*
X141352063Y-84704500D01*
X141418275Y-84704500D01*
X141486396Y-84724502D01*
X141518237Y-84753795D01*
X141530381Y-84769621D01*
X141581163Y-84808588D01*
X141638639Y-84852691D01*
X141764710Y-84904911D01*
X141900000Y-84922722D01*
X142035290Y-84904911D01*
X142161361Y-84852691D01*
X142269620Y-84769620D01*
X142311892Y-84714530D01*
X142369227Y-84672664D01*
X142440098Y-84668442D01*
X142502002Y-84703205D01*
X142513786Y-84717169D01*
X142516410Y-84720781D01*
X142516412Y-84720784D01*
X142604216Y-84808588D01*
X142714855Y-84864961D01*
X142806651Y-84879500D01*
X143393348Y-84879499D01*
X143485145Y-84864961D01*
X143595784Y-84808588D01*
X143683588Y-84720784D01*
X143739961Y-84610145D01*
X143754500Y-84518349D01*
X143754499Y-84181652D01*
X143739961Y-84089855D01*
X143683588Y-83979216D01*
X143595784Y-83891412D01*
X143595783Y-83891411D01*
X143540464Y-83863225D01*
X143485145Y-83835039D01*
X143393349Y-83820500D01*
X143393346Y-83820500D01*
X143044739Y-83820500D01*
X142976618Y-83800498D01*
X142955648Y-83783599D01*
X142443369Y-83271320D01*
X142443367Y-83271319D01*
X142443365Y-83271317D01*
X142351135Y-83218068D01*
X142351132Y-83218067D01*
X142351131Y-83218066D01*
X142351129Y-83218065D01*
X142351128Y-83218065D01*
X142323561Y-83210678D01*
X142248253Y-83190500D01*
X142248251Y-83190500D01*
X139231200Y-83190500D01*
X139163079Y-83170498D01*
X139129821Y-83139321D01*
X139072859Y-83062140D01*
X138965048Y-82982572D01*
X138965041Y-82982569D01*
X138838574Y-82938316D01*
X138838576Y-82938316D01*
X138808544Y-82935500D01*
X138808542Y-82935500D01*
X138291458Y-82935500D01*
X138291455Y-82935500D01*
X138261424Y-82938316D01*
X138134958Y-82982569D01*
X138134951Y-82982572D01*
X138027142Y-83062139D01*
X138027141Y-83062141D01*
X137984939Y-83119322D01*
X137928396Y-83162253D01*
X137883561Y-83170500D01*
X137799516Y-83170500D01*
X137731395Y-83150498D01*
X137722811Y-83144462D01*
X137661363Y-83097310D01*
X137661358Y-83097308D01*
X137598325Y-83071199D01*
X137535288Y-83045088D01*
X137400000Y-83027278D01*
X137264711Y-83045088D01*
X137138640Y-83097308D01*
X137138632Y-83097313D01*
X137030379Y-83180379D01*
X136947313Y-83288632D01*
X136947308Y-83288640D01*
X136895088Y-83414711D01*
X136877278Y-83549999D01*
X129250500Y-83549999D01*
X129250500Y-78509917D01*
X129252051Y-78490207D01*
X129259589Y-78442611D01*
X129271770Y-78405120D01*
X129289092Y-78371123D01*
X129312260Y-78339237D01*
X129339237Y-78312260D01*
X129371123Y-78289092D01*
X129405120Y-78271770D01*
X129442609Y-78259589D01*
X129490207Y-78252050D01*
X129509917Y-78250500D01*
X129544170Y-78250500D01*
X150455830Y-78250500D01*
X150490083Y-78250500D01*
X150509793Y-78252051D01*
G37*
%TD.AperFunction*%
%TA.AperFunction,Conductor*%
G36*
X137289304Y-110438040D02*
G01*
X137294296Y-110439033D01*
X137294298Y-110439034D01*
X137368532Y-110453800D01*
X137510372Y-110453799D01*
X137578491Y-110473801D01*
X137624984Y-110527456D01*
X137635089Y-110597730D01*
X137610334Y-110656502D01*
X137547313Y-110738633D01*
X137547308Y-110738640D01*
X137495088Y-110864711D01*
X137479618Y-110982220D01*
X137450895Y-111047147D01*
X137443791Y-111054868D01*
X137054868Y-111443791D01*
X136992556Y-111477817D01*
X136982220Y-111479618D01*
X136864711Y-111495088D01*
X136738640Y-111547308D01*
X136738632Y-111547313D01*
X136630379Y-111630379D01*
X136547313Y-111738632D01*
X136547308Y-111738640D01*
X136495088Y-111864711D01*
X136477278Y-111999999D01*
X136477278Y-112000000D01*
X136495088Y-112135288D01*
X136547308Y-112261359D01*
X136547313Y-112261367D01*
X136630379Y-112369620D01*
X136732163Y-112447722D01*
X136738639Y-112452691D01*
X136864710Y-112504911D01*
X137000000Y-112522722D01*
X137135290Y-112504911D01*
X137135293Y-112504909D01*
X137137022Y-112504682D01*
X137207171Y-112515621D01*
X137260270Y-112562749D01*
X137269878Y-112581386D01*
X137297308Y-112647609D01*
X137297313Y-112647617D01*
X137380379Y-112755870D01*
X137455687Y-112813656D01*
X137488639Y-112838941D01*
X137614710Y-112891161D01*
X137750000Y-112908972D01*
X137885290Y-112891161D01*
X138011361Y-112838941D01*
X138067924Y-112795537D01*
X138134144Y-112769937D01*
X138144629Y-112769500D01*
X138382938Y-112769500D01*
X138451059Y-112789502D01*
X138472033Y-112806405D01*
X138514216Y-112848588D01*
X138624855Y-112904961D01*
X138716651Y-112919500D01*
X139083348Y-112919499D01*
X139175145Y-112904961D01*
X139285784Y-112848588D01*
X139285786Y-112848585D01*
X139293803Y-112842761D01*
X139294801Y-112844135D01*
X139347056Y-112815602D01*
X139417871Y-112820667D01*
X139462934Y-112849628D01*
X140643711Y-114030405D01*
X140677737Y-114092717D01*
X140672672Y-114163532D01*
X140630125Y-114220368D01*
X140563605Y-114245179D01*
X140554616Y-114245500D01*
X136709077Y-114245500D01*
X136640956Y-114225498D01*
X136594463Y-114171842D01*
X136584155Y-114103054D01*
X136597722Y-114000000D01*
X136597722Y-113999999D01*
X136586547Y-113915116D01*
X136585647Y-113908280D01*
X136596586Y-113838133D01*
X136643714Y-113785034D01*
X136694122Y-113766913D01*
X136785290Y-113754911D01*
X136911361Y-113702691D01*
X137019620Y-113619620D01*
X137102691Y-113511361D01*
X137154911Y-113385290D01*
X137172722Y-113250000D01*
X137168722Y-113219620D01*
X137154911Y-113114711D01*
X137153524Y-113111361D01*
X137102691Y-112988639D01*
X137102686Y-112988632D01*
X137019620Y-112880379D01*
X136911367Y-112797313D01*
X136911359Y-112797308D01*
X136785288Y-112745088D01*
X136650000Y-112727278D01*
X136514711Y-112745088D01*
X136388640Y-112797308D01*
X136388636Y-112797311D01*
X136359065Y-112820002D01*
X136294607Y-112869462D01*
X136228388Y-112895063D01*
X136217904Y-112895500D01*
X136130500Y-112895500D01*
X136062379Y-112875498D01*
X136015886Y-112821842D01*
X136004500Y-112769500D01*
X136004500Y-112504539D01*
X136004499Y-112504535D01*
X136004470Y-112504289D01*
X136001546Y-112479077D01*
X135955563Y-112374935D01*
X135955562Y-112374934D01*
X135955561Y-112374932D01*
X135875067Y-112294438D01*
X135875065Y-112294437D01*
X135842554Y-112280082D01*
X135808993Y-112265263D01*
X135754757Y-112219451D01*
X135733898Y-112151588D01*
X135753040Y-112083221D01*
X135806105Y-112036055D01*
X135808994Y-112034736D01*
X135811155Y-112033782D01*
X135875065Y-112005563D01*
X135955563Y-111925065D01*
X136001546Y-111820923D01*
X136004500Y-111795460D01*
X136004500Y-111280500D01*
X136024502Y-111212379D01*
X136078158Y-111165886D01*
X136130500Y-111154500D01*
X136296671Y-111154500D01*
X136386832Y-111130341D01*
X136467668Y-111083671D01*
X136983670Y-110567669D01*
X136995425Y-110547309D01*
X137013040Y-110516799D01*
X137064423Y-110467806D01*
X137122159Y-110453799D01*
X137131463Y-110453799D01*
X137131465Y-110453799D01*
X137131468Y-110453798D01*
X137131471Y-110453798D01*
X137217872Y-110436613D01*
X137218322Y-110438879D01*
X137272365Y-110433067D01*
X137289304Y-110438040D01*
G37*
%TD.AperFunction*%
%TA.AperFunction,Conductor*%
G36*
X150667621Y-109399896D02*
G01*
X150724425Y-109442486D01*
X150749186Y-109509025D01*
X150749500Y-109517919D01*
X150749500Y-110382081D01*
X150729498Y-110450202D01*
X150675842Y-110496695D01*
X150605568Y-110506799D01*
X150540988Y-110477305D01*
X150505096Y-110421457D01*
X150504154Y-110421787D01*
X150502774Y-110417843D01*
X150502604Y-110417579D01*
X150502393Y-110416756D01*
X150490505Y-110382783D01*
X150461049Y-110298601D01*
X150456371Y-110285232D01*
X150456368Y-110285225D01*
X150375010Y-110174989D01*
X150264774Y-110093631D01*
X150264769Y-110093629D01*
X150194179Y-110068928D01*
X150136488Y-110027549D01*
X150110325Y-109961549D01*
X150123999Y-109891881D01*
X150173167Y-109840666D01*
X150194172Y-109831073D01*
X150264773Y-109806369D01*
X150375010Y-109725010D01*
X150456369Y-109614773D01*
X150490260Y-109517919D01*
X150504154Y-109478214D01*
X150506893Y-109479172D01*
X150534472Y-109428757D01*
X150596809Y-109394778D01*
X150667621Y-109399896D01*
G37*
%TD.AperFunction*%
%TD*%
M02*
