%TF.GenerationSoftware,KiCad,Pcbnew,8.0.7-8.0.7-0~ubuntu24.04.1*%
%TF.CreationDate,2024-12-23T11:48:45-05:00*%
%TF.ProjectId,gnssBoard,676e7373-426f-4617-9264-2e6b69636164,rev?*%
%TF.SameCoordinates,Original*%
%TF.FileFunction,Copper,L4,Bot*%
%TF.FilePolarity,Positive*%
%FSLAX46Y46*%
G04 Gerber Fmt 4.6, Leading zero omitted, Abs format (unit mm)*
G04 Created by KiCad (PCBNEW 8.0.7-8.0.7-0~ubuntu24.04.1) date 2024-12-23 11:48:45*
%MOMM*%
%LPD*%
G01*
G04 APERTURE LIST*
G04 Aperture macros list*
%AMFreePoly0*
4,1,129,0.331476,2.729949,0.658118,2.670090,0.975163,2.571295,1.277989,2.435004,1.562178,2.263206,1.823587,2.058405,2.058405,1.823587,2.263206,1.562178,2.435004,1.277989,2.571295,0.975163,2.670090,0.658118,2.729949,0.331476,2.750000,0.000000,2.747491,-0.166193,2.732458,-0.289997,2.729949,-0.331476,2.722458,-0.372351,2.707427,-0.496154,2.677580,-0.617241,2.670090,-0.658118,
2.657730,-0.697782,2.627882,-0.818881,2.583657,-0.935489,2.571295,-0.975163,2.554237,-1.013062,2.510016,-1.129667,2.452065,-1.240079,2.435004,-1.277989,2.413497,-1.313564,2.355549,-1.423979,2.284710,-1.526604,2.263206,-1.562178,2.237570,-1.594899,2.166733,-1.697527,2.084033,-1.790874,2.058405,-1.823587,2.029019,-1.852972,1.946321,-1.946321,1.852972,-2.029019,1.823587,-2.058405,
1.790874,-2.084033,1.697527,-2.166733,1.594899,-2.237570,1.562178,-2.263206,1.526604,-2.284710,1.423979,-2.355549,1.313564,-2.413497,1.277989,-2.435004,1.240079,-2.452065,1.129667,-2.510016,1.013062,-2.554237,0.975163,-2.571295,0.935489,-2.583657,0.818881,-2.627882,0.697785,-2.657729,0.658118,-2.670090,0.617241,-2.677580,0.496154,-2.707427,0.372351,-2.722458,0.331476,-2.729949,
0.289997,-2.732458,0.166193,-2.747491,0.041478,-2.747491,0.000000,-2.750000,-0.041478,-2.747491,-0.166193,-2.747491,-0.289997,-2.732458,-0.331476,-2.729949,-0.372351,-2.722458,-0.496154,-2.707427,-0.617241,-2.677580,-0.658118,-2.670090,-0.697785,-2.657729,-0.818881,-2.627882,-0.935489,-2.583657,-0.975163,-2.571295,-1.013062,-2.554237,-1.129667,-2.510016,-1.240079,-2.452065,-1.277989,-2.435004,
-1.313564,-2.413497,-1.423979,-2.355549,-1.526604,-2.284710,-1.562178,-2.263206,-1.594899,-2.237570,-1.697527,-2.166733,-1.790874,-2.084033,-1.823587,-2.058405,-1.852972,-2.029019,-1.946321,-1.946321,-2.029019,-1.852972,-2.058405,-1.823587,-2.084033,-1.790874,-2.166733,-1.697527,-2.237570,-1.594899,-2.263206,-1.562178,-2.284710,-1.526604,-2.355549,-1.423979,-2.413497,-1.313564,-2.435004,-1.277989,
-2.452065,-1.240079,-2.510016,-1.129667,-2.554237,-1.013062,-2.571295,-0.975163,-2.583657,-0.935489,-2.627882,-0.818881,-2.657730,-0.697782,-2.670090,-0.658118,-2.677580,-0.617241,-2.707427,-0.496154,-2.722458,-0.372351,-2.729949,-0.331476,-2.732458,-0.289997,-2.747491,-0.166193,-2.750000,0.000000,-2.729949,0.331476,-2.670090,0.658118,-2.571295,0.975163,-2.435004,1.277989,-2.263206,1.562178,
-2.058405,1.823587,-1.823587,2.058405,-1.562178,2.263206,-1.277989,2.435004,-0.975163,2.571295,-0.658118,2.670090,-0.331476,2.729949,0.000000,2.750000,0.331476,2.729949,0.331476,2.729949,$1*%
%AMFreePoly1*
4,1,59,0.331476,2.729949,0.658118,2.670090,0.975163,2.571295,1.277989,2.435004,1.562178,2.263206,1.823587,2.058405,2.058405,1.823587,2.263206,1.562178,2.435004,1.277989,2.571295,0.975163,2.670090,0.658118,2.729949,0.331476,2.750000,0.000000,3.000000,0.000000,3.000000,-1.000000,2.997462,-1.174582,2.956927,-1.521386,2.876404,-1.861139,2.756982,-2.189246,2.600278,-2.501271,
2.408409,-2.792994,2.183970,-3.060469,1.929997,-3.300081,1.649924,-3.508587,1.347538,-3.683170,1.026930,-3.821467,0.692434,-3.921608,0.348574,-3.982240,0.000000,-4.002542,-0.348574,-3.982240,-0.692434,-3.921608,-1.026930,-3.821467,-1.347538,-3.683170,-1.649924,-3.508587,-1.929997,-3.300081,-2.183970,-3.060469,-2.408409,-2.792994,-2.600278,-2.501271,-2.756982,-2.189246,-2.876404,-1.861139,
-2.956927,-1.521386,-2.997462,-1.174582,-3.000000,-1.000000,-3.000000,0.000000,-2.750000,0.000000,-2.729949,0.331476,-2.670090,0.658118,-2.571295,0.975163,-2.435004,1.277989,-2.263206,1.562178,-2.058405,1.823587,-1.823587,2.058405,-1.562178,2.263206,-1.277989,2.435004,-0.975163,2.571295,-0.658118,2.670090,-0.331476,2.729949,0.000000,2.750000,0.331476,2.729949,0.331476,2.729949,
$1*%
G04 Aperture macros list end*
%TA.AperFunction,EtchedComponent*%
%ADD10C,0.000000*%
%TD*%
%TA.AperFunction,SMDPad,CuDef*%
%ADD11R,0.350000X2.000000*%
%TD*%
%TA.AperFunction,CastellatedPad*%
%ADD12FreePoly0,0.000000*%
%TD*%
%TA.AperFunction,HeatsinkPad*%
%ADD13FreePoly1,0.000000*%
%TD*%
%TA.AperFunction,SMDPad,CuDef*%
%ADD14C,1.000000*%
%TD*%
%TA.AperFunction,SMDPad,CuDef*%
%ADD15R,1.500000X1.000000*%
%TD*%
%TA.AperFunction,ViaPad*%
%ADD16C,0.527500*%
%TD*%
%TA.AperFunction,Conductor*%
%ADD17C,0.250000*%
%TD*%
%TA.AperFunction,Conductor*%
%ADD18C,0.150000*%
%TD*%
%TA.AperFunction,Conductor*%
%ADD19C,0.300000*%
%TD*%
%TA.AperFunction,Conductor*%
%ADD20C,0.200000*%
%TD*%
G04 APERTURE END LIST*
D10*
%TA.AperFunction,EtchedComponent*%
%TO.C,JP2*%
G36*
X150050000Y-108400000D02*
G01*
X149450000Y-108400000D01*
X149450000Y-107900000D01*
X150050000Y-107900000D01*
X150050000Y-108400000D01*
G37*
%TD.AperFunction*%
%TA.AperFunction,EtchedComponent*%
%TO.C,JP1*%
G36*
X130500000Y-113400000D02*
G01*
X129900000Y-113400000D01*
X129900000Y-112900000D01*
X130500000Y-112900000D01*
X130500000Y-113400000D01*
G37*
%TD.AperFunction*%
%TD*%
D11*
%TO.P,J2,2,3.3V*%
%TO.N,+3V3*%
X149000000Y-118500000D03*
%TO.P,J2,4,3.3V*%
X148500000Y-118500000D03*
%TO.P,J2,6,~{LED_1}*%
%TO.N,/GEOFENCE_STAT*%
X148000000Y-118500000D03*
%TO.P,J2,8,PCM_CLK/I2S_SCK*%
%TO.N,unconnected-(J2-PCM_CLK{slash}I2S_SCK-Pad8)*%
X147500000Y-118500000D03*
%TO.P,J2,10,PCM_SYNC/I2S_WS*%
%TO.N,unconnected-(J2-PCM_SYNC{slash}I2S_WS-Pad10)*%
X147000000Y-118500000D03*
%TO.P,J2,12,PCM_IN/I2S_SD_IN*%
%TO.N,unconnected-(J2-PCM_IN{slash}I2S_SD_IN-Pad12)*%
X146500000Y-118500000D03*
%TO.P,J2,14,PCM_OUT/I2S_SD_OUT*%
%TO.N,unconnected-(J2-PCM_OUT{slash}I2S_SD_OUT-Pad14)*%
X146000000Y-118500000D03*
%TO.P,J2,16,~{LED_2}*%
%TO.N,/RTK_STAT*%
X145500000Y-118500000D03*
%TO.P,J2,18,GND*%
%TO.N,VSS*%
X145000000Y-118500000D03*
%TO.P,J2,20,~{UART_WAKE}*%
%TO.N,unconnected-(J2-~{UART_WAKE}-Pad20)*%
X144500000Y-118500000D03*
%TO.P,J2,22,UART_RXD*%
%TO.N,/ZED_RXD_1V8*%
X144000000Y-118500000D03*
%TO.P,J2,32,UART_TXD*%
%TO.N,/ZED_TXD_1V8*%
X141500000Y-118500000D03*
%TO.P,J2,34,UART_CTS*%
%TO.N,unconnected-(J2-UART_CTS-Pad34)*%
X141000000Y-118500000D03*
%TO.P,J2,36,UART_RTS*%
%TO.N,unconnected-(J2-UART_RTS-Pad36)*%
X140500000Y-118500000D03*
%TO.P,J2,38,VENDOR_DEFINED*%
%TO.N,/PPS*%
X140000000Y-118500000D03*
%TO.P,J2,40,VENDOR_DEFINED*%
%TO.N,/EXTINT*%
X139500000Y-118500000D03*
%TO.P,J2,42,VENDOR_DEFINED*%
%TO.N,/TX_RDY*%
X139000000Y-118500000D03*
%TO.P,J2,44,COEX3*%
%TO.N,unconnected-(J2-COEX3-Pad44)*%
X138500000Y-118500000D03*
%TO.P,J2,46,COEX2*%
%TO.N,unconnected-(J2-COEX2-Pad46)*%
X138000000Y-118500000D03*
%TO.P,J2,48,COEX1*%
%TO.N,unconnected-(J2-COEX1-Pad48)*%
X137500000Y-118500000D03*
%TO.P,J2,50,SUSCLK*%
%TO.N,unconnected-(J2-SUSCLK-Pad50)*%
X137000000Y-118500000D03*
%TO.P,J2,52,~{PERST0}*%
%TO.N,/RESET_N*%
X136500000Y-118500000D03*
%TO.P,J2,54,~{W_DISABLE2}*%
%TO.N,unconnected-(J2-~{W_DISABLE2}-Pad54)*%
X136000000Y-118500000D03*
%TO.P,J2,56,~{W_DISABLE1}*%
%TO.N,unconnected-(J2-~{W_DISABLE1}-Pad56)*%
X135500000Y-118500000D03*
%TO.P,J2,58,I2C_DATA*%
%TO.N,/SDA_1V8*%
X135000000Y-118500000D03*
%TO.P,J2,60,I2C_CLK*%
%TO.N,/SCL_1V8*%
X134500000Y-118500000D03*
%TO.P,J2,62,~{ALERT}*%
%TO.N,unconnected-(J2-~{ALERT}-Pad62)*%
X134000000Y-118500000D03*
%TO.P,J2,64,RESERVED*%
%TO.N,unconnected-(J2-RESERVED-Pad64)*%
X133500000Y-118500000D03*
%TO.P,J2,66,UIM_SWP/~{PERST1}*%
%TO.N,unconnected-(J2-UIM_SWP{slash}~{PERST1}-Pad66)*%
X133000000Y-118500000D03*
%TO.P,J2,68,UIM_POWER_SNK/~{CLKREQ1}*%
%TO.N,unconnected-(J2-UIM_POWER_SNK{slash}~{CLKREQ1}-Pad68)*%
X132500000Y-118500000D03*
%TO.P,J2,70,UIM_POWER_SRC/GPIO1/~{PEWAKE1}*%
%TO.N,unconnected-(J2-UIM_POWER_SRC{slash}GPIO1{slash}~{PEWAKE1}-Pad70)*%
X132000000Y-118500000D03*
%TO.P,J2,72,3.3V*%
%TO.N,+3V3*%
X131500000Y-118500000D03*
%TO.P,J2,74,3.3V*%
X131000000Y-118500000D03*
%TD*%
D12*
%TO.P,J1,1*%
%TO.N,VSS*%
X140000000Y-78000000D03*
D13*
X140000000Y-78000000D03*
%TD*%
D14*
%TO.P,TP9,1*%
%TO.N,/PPS*%
X145900000Y-112150000D03*
%TD*%
D15*
%TO.P,JP2,1*%
%TO.N,Net-(JP2-Pad1)*%
X149750000Y-107500000D03*
%TO.P,JP2,2*%
%TO.N,VSS*%
X149750000Y-108800000D03*
%TD*%
D14*
%TO.P,TP6,1*%
%TO.N,/ZED_RXD_1V8*%
X144000000Y-114900000D03*
%TD*%
%TO.P,TP5,1*%
%TO.N,/SDA_1V8*%
X137200000Y-114250000D03*
%TD*%
%TO.P,TP7,1*%
%TO.N,/ZED_TXD_1V8*%
X141900000Y-114900000D03*
%TD*%
%TO.P,TP2,1*%
%TO.N,+1V8*%
X146300000Y-114600000D03*
%TD*%
D15*
%TO.P,JP1,1*%
%TO.N,VSS*%
X130200000Y-112500000D03*
%TO.P,JP1,2*%
%TO.N,Net-(D1-Pad2)*%
X130200000Y-113800000D03*
%TD*%
D14*
%TO.P,TP10,1*%
%TO.N,/ANT_DET*%
X148400000Y-104100000D03*
%TD*%
%TO.P,TP1,1*%
%TO.N,+3V3*%
X135150000Y-111450000D03*
%TD*%
%TO.P,TP4,1*%
%TO.N,/SCL_1V8*%
X138600000Y-112950000D03*
%TD*%
%TO.P,TP3,1*%
%TO.N,VSS*%
X133550000Y-112550000D03*
%TD*%
%TO.P,TP8,1*%
%TO.N,VSS*%
X143750000Y-113350000D03*
%TD*%
%TO.P,TP11,1*%
%TO.N,VSS*%
X149900000Y-105600000D03*
%TD*%
D16*
%TO.N,VSS*%
X140000000Y-97400000D03*
X146150000Y-91100000D03*
X149150000Y-90340000D03*
X131100000Y-103900000D03*
X142100000Y-97400000D03*
X150350000Y-115000000D03*
X133900000Y-95300000D03*
X135800000Y-95300000D03*
X138250000Y-116850000D03*
X135800000Y-103700000D03*
X144200000Y-99500000D03*
X140000000Y-91100000D03*
X147300000Y-82450000D03*
X129650000Y-105600000D03*
X133750000Y-116850000D03*
X150000000Y-82150000D03*
X137900000Y-101600000D03*
X150450000Y-109950000D03*
X139400000Y-87600000D03*
X146300000Y-82450000D03*
X149150000Y-102800000D03*
X144900000Y-113400000D03*
X142100000Y-95300000D03*
X135800000Y-99500000D03*
X150450000Y-98780000D03*
X132200000Y-84900000D03*
X144200000Y-95300000D03*
X137900000Y-105800000D03*
X138250000Y-113875000D03*
X137900000Y-93200000D03*
X149150000Y-88230000D03*
X131100000Y-98000000D03*
X135800000Y-101600000D03*
X150450000Y-88230000D03*
X130200000Y-111150000D03*
X138250000Y-115600000D03*
X131100000Y-100950000D03*
X142100000Y-105800000D03*
X131100000Y-95050000D03*
X131100000Y-93600000D03*
X133900000Y-103700000D03*
X137900000Y-99500000D03*
X150450000Y-86120000D03*
X149700000Y-115600000D03*
X137900000Y-97400000D03*
X136275000Y-111900000D03*
X137900000Y-85850000D03*
X147400000Y-78850000D03*
X137900000Y-103700000D03*
X132250000Y-116850000D03*
X146150000Y-95300000D03*
X146150000Y-97350000D03*
X130750000Y-116700000D03*
X149025000Y-106475000D03*
X145000000Y-116850000D03*
X140000000Y-105800000D03*
X146250000Y-104425000D03*
X149600000Y-78850000D03*
X140000000Y-111100000D03*
X149150000Y-92450000D03*
X144200000Y-97400000D03*
X135750000Y-116900000D03*
X144200000Y-108050000D03*
X149150000Y-96670000D03*
X131250000Y-86750000D03*
X133900000Y-91100000D03*
X144200000Y-103700000D03*
X142100000Y-108100000D03*
X135800000Y-115600000D03*
X150450000Y-100890000D03*
X133900000Y-99500000D03*
X149150000Y-100890000D03*
X131250000Y-87550000D03*
X144200000Y-105800000D03*
X144900000Y-112100000D03*
X131100000Y-92100000D03*
X137900000Y-91100000D03*
X149150000Y-86120000D03*
X129550000Y-115250000D03*
X135800000Y-93200000D03*
X140000000Y-103700000D03*
X149150000Y-98780000D03*
X141900000Y-85300000D03*
X150450000Y-92450000D03*
X148300000Y-114700000D03*
X135800000Y-105800000D03*
X140000000Y-93200000D03*
X135800000Y-91100000D03*
X131100000Y-90550000D03*
X142100000Y-103700000D03*
X133900000Y-97400000D03*
X142100000Y-93200000D03*
X132900000Y-113450000D03*
X132550000Y-107650000D03*
X140000000Y-99500000D03*
X137900000Y-95300000D03*
X142950000Y-114250000D03*
X140750000Y-116850000D03*
X150450000Y-94560000D03*
X142100000Y-99500000D03*
X146150000Y-93250000D03*
X146000000Y-81250000D03*
X133900000Y-93200000D03*
X142100000Y-101600000D03*
X131250000Y-85950000D03*
X133900000Y-105800000D03*
X144200000Y-101600000D03*
X139900000Y-86800000D03*
X135800000Y-97400000D03*
X144200000Y-93200000D03*
X150450000Y-96670000D03*
X137250000Y-116900000D03*
X140000000Y-101600000D03*
X150450000Y-102800000D03*
X136700000Y-84800000D03*
X139800000Y-85300000D03*
X144200000Y-91100000D03*
X150450000Y-90340000D03*
X140000000Y-108100000D03*
X149150000Y-94560000D03*
X140000000Y-95300000D03*
%TO.N,VBAT*%
X133850000Y-101600000D03*
X135000000Y-88050000D03*
%TO.N,+3V3*%
X137750000Y-112386250D03*
X148250000Y-112725000D03*
X146625000Y-107850000D03*
X131100000Y-98950000D03*
X137400000Y-83550000D03*
X131100000Y-96550000D03*
X131100000Y-102400000D03*
X131925000Y-110325000D03*
X148775000Y-111000000D03*
%TO.N,+1V8*%
X133800000Y-115200000D03*
X138000000Y-111000000D03*
X141950000Y-110875000D03*
X137000000Y-112000000D03*
%TO.N,/ANT_SHORT_N*%
X146275000Y-101150000D03*
X147200000Y-85600000D03*
%TO.N,/TX_RDY*%
X132100000Y-111650000D03*
X132100000Y-115800000D03*
X138750000Y-116300000D03*
%TO.N,/ZED_RXD_1V8*%
X143325000Y-115575000D03*
%TO.N,/SDA_1V8*%
X136075000Y-114000000D03*
%TO.N,/RESET_N*%
X140900000Y-111925000D03*
%TO.N,/PPS*%
X145500000Y-111100000D03*
%TO.N,/RTK_STAT*%
X147475000Y-110225000D03*
X141100000Y-90800000D03*
X147475000Y-108575000D03*
%TO.N,/ZED_TXD_1V8*%
X140675000Y-115675000D03*
%TO.N,/GEOFENCE_STAT*%
X148300000Y-108575000D03*
X142200000Y-90850000D03*
X148175000Y-110425000D03*
%TO.N,/SCL_1V8*%
X136650000Y-113250000D03*
%TO.N,/ANT_OFF*%
X146275000Y-102250000D03*
X148200000Y-88100000D03*
%TO.N,/ZED_D+*%
X149963750Y-112250000D03*
X131574888Y-107725112D03*
%TO.N,/ZED_D-*%
X131025112Y-108274888D03*
X149186250Y-112250000D03*
%TO.N,/ANT_DET*%
X141900000Y-84400000D03*
X146275000Y-103350000D03*
%TO.N,VCC_RF*%
X146275000Y-100050000D03*
X146500000Y-88000000D03*
%TO.N,/EXTINT*%
X143300000Y-110875000D03*
%TO.N,Net-(JP2-Pad1)*%
X150486250Y-106450000D03*
%TO.N,Net-(D1-Pad2)*%
X130700000Y-114900000D03*
%TD*%
D17*
%TO.N,VSS*%
X145000000Y-116850000D02*
X145000000Y-118500000D01*
D18*
X149225000Y-109100000D02*
X149800000Y-109100000D01*
D19*
%TO.N,VBAT*%
X135000000Y-100450000D02*
X133850000Y-101600000D01*
X135000000Y-88050000D02*
X135000000Y-100450000D01*
D17*
%TO.N,+3V3*%
X130250000Y-85450000D02*
X130250000Y-105300000D01*
X131100000Y-102400000D02*
X130250000Y-102400000D01*
X137400000Y-83550000D02*
X132150000Y-83550000D01*
X148500000Y-117350000D02*
X148750000Y-117100000D01*
X148500000Y-118500000D02*
X148500000Y-117350000D01*
X148250000Y-111525000D02*
X148250000Y-112725000D01*
X131250000Y-117100000D02*
X131500000Y-117100000D01*
X130250000Y-108650000D02*
X130250000Y-106500000D01*
X148775000Y-111000000D02*
X148250000Y-111525000D01*
X130250000Y-105300000D02*
X131607003Y-106657003D01*
X131000000Y-117350000D02*
X131250000Y-117100000D01*
X149000000Y-113475000D02*
X149000000Y-118500000D01*
X131500000Y-118500000D02*
X131500000Y-110750000D01*
D20*
X135150000Y-111450000D02*
X135150000Y-110325000D01*
D17*
X131100000Y-98950001D02*
X130250000Y-98950001D01*
X145432003Y-106657003D02*
X131667665Y-106657003D01*
X148250000Y-112725000D02*
X149000000Y-113475000D01*
X130250000Y-106500000D02*
X130850000Y-105900000D01*
X131500000Y-110750000D02*
X131925000Y-110325000D01*
X136157619Y-110325000D02*
X135150000Y-110325000D01*
X137750000Y-112386250D02*
X137750000Y-111917381D01*
X131925000Y-110325000D02*
X130250000Y-108650000D01*
X148750000Y-117100000D02*
X149000000Y-117100000D01*
X131100000Y-96550000D02*
X130250000Y-96550000D01*
X137750000Y-111917381D02*
X136157619Y-110325000D01*
X146625000Y-107850000D02*
X145432003Y-106657003D01*
X131607003Y-106657003D02*
X131650000Y-106657003D01*
X131925000Y-110325000D02*
X135150000Y-110325000D01*
X131000000Y-118500000D02*
X131000000Y-117350000D01*
X132150000Y-83550000D02*
X130250000Y-85450000D01*
D20*
%TO.N,+1V8*%
X146300000Y-114600000D02*
X146840032Y-114059968D01*
X141950000Y-110875000D02*
X141950000Y-110050000D01*
X146840032Y-114059968D02*
X146840032Y-111540032D01*
X138950000Y-110050000D02*
X138000000Y-111000000D01*
X145350000Y-110050000D02*
X138950000Y-110050000D01*
X136372263Y-112625000D02*
X136997263Y-112000000D01*
X136997263Y-112000000D02*
X137000000Y-112000000D01*
X134900000Y-112625000D02*
X136372263Y-112625000D01*
X146840032Y-111540032D02*
X145350000Y-110050000D01*
X133800000Y-115200000D02*
X133800000Y-113725000D01*
X133800000Y-113725000D02*
X134900000Y-112625000D01*
%TO.N,/ANT_SHORT_N*%
X147200000Y-100225000D02*
X147200000Y-85600000D01*
X146275000Y-101150000D02*
X147200000Y-100225000D01*
D18*
%TO.N,/TX_RDY*%
X132100000Y-111650000D02*
X132100000Y-115800000D01*
X138750000Y-116300000D02*
X139000000Y-116550000D01*
X139000000Y-116550000D02*
X139000000Y-118500000D01*
D20*
%TO.N,/ZED_RXD_1V8*%
X144000000Y-116250000D02*
X144000000Y-118500000D01*
X143325000Y-115575000D02*
X144000000Y-116250000D01*
X143325000Y-115575000D02*
X144000000Y-114900000D01*
%TO.N,/SDA_1V8*%
X136075000Y-114000000D02*
X136325000Y-114250000D01*
X136325000Y-114250000D02*
X137200000Y-114250000D01*
X135000000Y-115075000D02*
X135000000Y-118750000D01*
X136075000Y-114000000D02*
X135000000Y-115075000D01*
%TO.N,/RESET_N*%
X140900000Y-112022263D02*
X140900000Y-111925000D01*
X136500000Y-116422263D02*
X140900000Y-112022263D01*
X136500000Y-118500000D02*
X136500000Y-116422263D01*
%TO.N,/PPS*%
X144445496Y-111100000D02*
X140000000Y-115545496D01*
X140000000Y-115545496D02*
X140000000Y-118500000D01*
X145900000Y-112150000D02*
X145900000Y-111500000D01*
X145900000Y-111500000D02*
X145500000Y-111100000D01*
X145500000Y-111100000D02*
X144445496Y-111100000D01*
%TO.N,/RTK_STAT*%
X147475000Y-107012949D02*
X145150000Y-104687949D01*
X141100000Y-90897263D02*
X141100000Y-90800000D01*
X147286250Y-115438750D02*
X145500000Y-117225000D01*
X147475000Y-110225000D02*
X147286250Y-110413750D01*
X147286250Y-110413750D02*
X147286250Y-115438750D01*
X147475000Y-108575000D02*
X147475000Y-107012949D01*
X145150000Y-104687949D02*
X145150000Y-94947263D01*
X145500000Y-117225000D02*
X145500000Y-118500000D01*
X145150000Y-94947263D02*
X141100000Y-90897263D01*
%TO.N,/ZED_TXD_1V8*%
X140675000Y-115675000D02*
X141125000Y-116125000D01*
X141500000Y-116500000D02*
X141900000Y-116100000D01*
X141125000Y-116125000D02*
X141500000Y-116500000D01*
X141900000Y-116100000D02*
X141900000Y-114950000D01*
X141500000Y-116500000D02*
X141500000Y-118500000D01*
%TO.N,/GEOFENCE_STAT*%
X148175000Y-110425000D02*
X147686250Y-110913750D01*
X148300000Y-107272263D02*
X145550000Y-104522263D01*
X142647263Y-90850000D02*
X142200000Y-90850000D01*
X147686250Y-110913750D02*
X147686250Y-116911250D01*
X148000000Y-117225000D02*
X148000000Y-118500000D01*
X145550000Y-93752737D02*
X142647263Y-90850000D01*
X145550000Y-104522263D02*
X145550000Y-93752737D01*
X148300000Y-108575000D02*
X148300000Y-107272263D01*
X147686250Y-116911250D02*
X148000000Y-117225000D01*
%TO.N,/SCL_1V8*%
X136650000Y-113250000D02*
X136950000Y-112950000D01*
X134500000Y-114750000D02*
X134500000Y-118500000D01*
X136650000Y-113250000D02*
X136000000Y-113250000D01*
X136000000Y-113250000D02*
X134500000Y-114750000D01*
X136950000Y-112950000D02*
X138600000Y-112950000D01*
%TO.N,/ANT_OFF*%
X147650000Y-100875000D02*
X147650000Y-88650000D01*
X146275000Y-102250000D02*
X147650000Y-100875000D01*
X147650000Y-88650000D02*
X148200000Y-88100000D01*
%TO.N,/ZED_D+*%
X139204971Y-108596245D02*
X139324971Y-108596245D01*
X149800001Y-112086251D02*
X149963750Y-112250000D01*
X139924971Y-109175000D02*
X143254002Y-109175000D01*
X131574888Y-107725112D02*
X131574888Y-107956689D01*
X139804971Y-109175000D02*
X139924971Y-109175000D01*
X143254002Y-109175000D02*
X148393200Y-109175000D01*
X138964971Y-108935000D02*
X138964971Y-108836245D01*
X132793199Y-109175000D02*
X138724971Y-109175000D01*
X139564971Y-108836245D02*
X139564971Y-108935000D01*
X131574888Y-107956689D02*
X132793199Y-109175000D01*
X148393200Y-109175000D02*
X149800001Y-110581801D01*
X149800001Y-110581801D02*
X149800001Y-112086251D01*
X139564971Y-108935000D02*
G75*
G03*
X139804971Y-109175029I240029J0D01*
G01*
X139324971Y-108596245D02*
G75*
G02*
X139564955Y-108836245I29J-239955D01*
G01*
X138724971Y-109175000D02*
G75*
G03*
X138965000Y-108935000I29J240000D01*
G01*
X138964971Y-108836245D02*
G75*
G02*
X139204971Y-108596171I240029J45D01*
G01*
%TO.N,/ZED_D-*%
X149349999Y-112086251D02*
X149349999Y-110768199D01*
X132606801Y-109625000D02*
X131256689Y-108274888D01*
X131256689Y-108274888D02*
X131025112Y-108274888D01*
X149349999Y-110768199D02*
X148206800Y-109625000D01*
X149186250Y-112250000D02*
X149349999Y-112086251D01*
X148206800Y-109625000D02*
X132606801Y-109625000D01*
%TO.N,/ANT_DET*%
X147000000Y-104100000D02*
X148400000Y-104100000D01*
X149800000Y-88700000D02*
X148100000Y-90400000D01*
X148350000Y-84400000D02*
X149800000Y-85850000D01*
X146275000Y-103350000D02*
X146275000Y-103375000D01*
X141900000Y-84400000D02*
X148350000Y-84400000D01*
X149800000Y-85850000D02*
X149800000Y-88700000D01*
X148100000Y-101525000D02*
X146275000Y-103350000D01*
X148100000Y-90400000D02*
X148100000Y-101525000D01*
X146275000Y-103375000D02*
X147000000Y-104100000D01*
%TO.N,VCC_RF*%
X146750000Y-88250000D02*
X146500000Y-88000000D01*
X146750000Y-99575000D02*
X146750000Y-88250000D01*
X146275000Y-100050000D02*
X146750000Y-99575000D01*
%TO.N,/EXTINT*%
X143300000Y-110875000D02*
X139500000Y-114675000D01*
X139500000Y-114675000D02*
X139500000Y-118500000D01*
%TO.N,Net-(JP2-Pad1)*%
X150486250Y-106450000D02*
X150400000Y-106536250D01*
X150400000Y-106536250D02*
X150400000Y-107250000D01*
%TO.N,Net-(D1-Pad2)*%
X130700000Y-114900000D02*
X130200000Y-114400000D01*
X130200000Y-114400000D02*
X130200000Y-113800000D01*
%TD*%
%TA.AperFunction,Conductor*%
%TO.N,VSS*%
G36*
X129401072Y-114549753D02*
G01*
X129424933Y-114554500D01*
X129807112Y-114554499D01*
X129875232Y-114574501D01*
X129910638Y-114611630D01*
X129911305Y-114611119D01*
X129916058Y-114617314D01*
X129916226Y-114617490D01*
X129916325Y-114617662D01*
X129916327Y-114617664D01*
X129916329Y-114617668D01*
X130143792Y-114845131D01*
X130177816Y-114907442D01*
X130179618Y-114917778D01*
X130195088Y-115035288D01*
X130247308Y-115161359D01*
X130247313Y-115161367D01*
X130330379Y-115269620D01*
X130436887Y-115351347D01*
X130438639Y-115352691D01*
X130564710Y-115404911D01*
X130700000Y-115422722D01*
X130835290Y-115404911D01*
X130946284Y-115358935D01*
X131016872Y-115351347D01*
X131080359Y-115383126D01*
X131116586Y-115444184D01*
X131120500Y-115475345D01*
X131120500Y-116663811D01*
X131100498Y-116731932D01*
X131057500Y-116772930D01*
X131016984Y-116796321D01*
X131016979Y-116796325D01*
X130996056Y-116817249D01*
X130946324Y-116866981D01*
X130946322Y-116866983D01*
X130766983Y-117046322D01*
X130766981Y-117046324D01*
X130731653Y-117081652D01*
X130696325Y-117116979D01*
X130696323Y-117116982D01*
X130689432Y-117128918D01*
X130655898Y-117187000D01*
X130604517Y-117235993D01*
X130546780Y-117250000D01*
X130451500Y-117250000D01*
X130383379Y-117229998D01*
X130336886Y-117176342D01*
X130325500Y-117124000D01*
X130325500Y-116426086D01*
X130325500Y-116426082D01*
X130296658Y-116281087D01*
X130240084Y-116144505D01*
X130157951Y-116021584D01*
X130053416Y-115917049D01*
X129930495Y-115834916D01*
X129920336Y-115830708D01*
X129793916Y-115778343D01*
X129793913Y-115778342D01*
X129778369Y-115775250D01*
X129648918Y-115749500D01*
X129648916Y-115749500D01*
X129376500Y-115749500D01*
X129308379Y-115729498D01*
X129261886Y-115675842D01*
X129250500Y-115623500D01*
X129250500Y-114673334D01*
X129270502Y-114605213D01*
X129324158Y-114558720D01*
X129394432Y-114548616D01*
X129401072Y-114549753D01*
G37*
%TD.AperFunction*%
%TA.AperFunction,Conductor*%
G36*
X134592406Y-110724502D02*
G01*
X134638899Y-110778158D01*
X134649003Y-110848432D01*
X134619509Y-110913012D01*
X134613380Y-110919595D01*
X134556377Y-110976597D01*
X134556375Y-110976600D01*
X134465919Y-111120560D01*
X134465918Y-111120562D01*
X134439062Y-111197313D01*
X134409763Y-111281046D01*
X134390726Y-111450000D01*
X134409763Y-111618954D01*
X134432478Y-111683871D01*
X134465918Y-111779437D01*
X134465919Y-111779439D01*
X134556375Y-111923399D01*
X134556377Y-111923402D01*
X134676595Y-112043620D01*
X134676597Y-112043621D01*
X134676600Y-112043624D01*
X134749206Y-112089245D01*
X134796242Y-112142422D01*
X134807062Y-112212589D01*
X134778229Y-112277467D01*
X134745169Y-112305050D01*
X134701366Y-112330340D01*
X134701365Y-112330340D01*
X134682335Y-112341326D01*
X134682325Y-112341334D01*
X133856748Y-113166913D01*
X133582332Y-113441329D01*
X133549331Y-113474330D01*
X133516330Y-113507330D01*
X133516326Y-113507335D01*
X133469659Y-113588166D01*
X133445500Y-113678325D01*
X133445500Y-114767903D01*
X133425498Y-114836024D01*
X133419462Y-114844607D01*
X133347313Y-114938632D01*
X133347308Y-114938640D01*
X133295088Y-115064711D01*
X133277278Y-115199999D01*
X133277278Y-115200000D01*
X133295088Y-115335288D01*
X133347308Y-115461359D01*
X133347313Y-115461367D01*
X133430379Y-115569620D01*
X133523468Y-115641050D01*
X133538639Y-115652691D01*
X133664710Y-115704911D01*
X133800000Y-115722722D01*
X133935290Y-115704911D01*
X133971284Y-115690001D01*
X134041871Y-115682413D01*
X134105358Y-115714192D01*
X134141586Y-115775250D01*
X134145500Y-115806411D01*
X134145500Y-117124000D01*
X134125498Y-117192121D01*
X134071842Y-117238614D01*
X134019500Y-117250000D01*
X132005500Y-117250000D01*
X131937379Y-117229998D01*
X131890886Y-117176342D01*
X131879500Y-117124000D01*
X131879500Y-116437368D01*
X131899502Y-116369247D01*
X131953158Y-116322754D01*
X132021945Y-116312446D01*
X132100000Y-116322722D01*
X132235290Y-116304911D01*
X132361361Y-116252691D01*
X132469620Y-116169620D01*
X132552691Y-116061361D01*
X132604911Y-115935290D01*
X132622722Y-115800000D01*
X132622075Y-115795089D01*
X132607242Y-115682413D01*
X132604911Y-115664710D01*
X132552691Y-115538639D01*
X132552686Y-115538632D01*
X132469619Y-115430378D01*
X132466405Y-115427164D01*
X132432379Y-115364852D01*
X132429500Y-115338069D01*
X132429500Y-112111931D01*
X132449502Y-112043810D01*
X132466405Y-112022836D01*
X132469619Y-112019621D01*
X132469620Y-112019620D01*
X132552691Y-111911361D01*
X132604911Y-111785290D01*
X132622722Y-111650000D01*
X132617943Y-111613703D01*
X132604911Y-111514711D01*
X132601051Y-111505390D01*
X132552691Y-111388639D01*
X132538097Y-111369620D01*
X132469620Y-111280379D01*
X132361367Y-111197313D01*
X132361359Y-111197308D01*
X132235288Y-111145088D01*
X132100000Y-111127278D01*
X132099998Y-111127278D01*
X132021945Y-111137553D01*
X131951796Y-111126613D01*
X131898698Y-111079484D01*
X131879500Y-111012631D01*
X131879500Y-110964210D01*
X131899502Y-110896089D01*
X131953158Y-110849596D01*
X131989052Y-110839289D01*
X132060290Y-110829911D01*
X132186361Y-110777691D01*
X132247811Y-110730537D01*
X132314031Y-110704937D01*
X132324516Y-110704500D01*
X134524285Y-110704500D01*
X134592406Y-110724502D01*
G37*
%TD.AperFunction*%
%TA.AperFunction,Conductor*%
G36*
X136131098Y-114549406D02*
G01*
X136150060Y-114558339D01*
X136188168Y-114580341D01*
X136278329Y-114604500D01*
X136462028Y-114604500D01*
X136530149Y-114624502D01*
X136568715Y-114663464D01*
X136606374Y-114723398D01*
X136606375Y-114723400D01*
X136726597Y-114843622D01*
X136726600Y-114843624D01*
X136870563Y-114934082D01*
X137031046Y-114990237D01*
X137130224Y-115001411D01*
X137195675Y-115028915D01*
X137235868Y-115087439D01*
X137238039Y-115158402D01*
X137205211Y-115215712D01*
X136282332Y-116138592D01*
X136256214Y-116164710D01*
X136216330Y-116204593D01*
X136216326Y-116204598D01*
X136169659Y-116285429D01*
X136145500Y-116375588D01*
X136145500Y-117124000D01*
X136125498Y-117192121D01*
X136071842Y-117238614D01*
X136019500Y-117250000D01*
X135480500Y-117250000D01*
X135412379Y-117229998D01*
X135365886Y-117176342D01*
X135354500Y-117124000D01*
X135354500Y-115274029D01*
X135374502Y-115205908D01*
X135391400Y-115184938D01*
X135997972Y-114578365D01*
X136060283Y-114544342D01*
X136131098Y-114549406D01*
G37*
%TD.AperFunction*%
%TA.AperFunction,Conductor*%
G36*
X139074311Y-114453456D02*
G01*
X139131147Y-114496003D01*
X139155958Y-114562523D01*
X139151986Y-114604123D01*
X139145500Y-114628329D01*
X139145500Y-115714299D01*
X139125498Y-115782420D01*
X139071842Y-115828913D01*
X139001568Y-115839017D01*
X138971282Y-115830708D01*
X138885288Y-115795088D01*
X138750000Y-115777278D01*
X138614711Y-115795088D01*
X138488640Y-115847308D01*
X138488632Y-115847313D01*
X138380379Y-115930379D01*
X138297313Y-116038632D01*
X138297308Y-116038640D01*
X138245088Y-116164711D01*
X138227278Y-116299999D01*
X138227278Y-116300000D01*
X138245088Y-116435288D01*
X138297308Y-116561359D01*
X138297313Y-116561367D01*
X138380379Y-116669620D01*
X138488632Y-116752686D01*
X138488639Y-116752691D01*
X138592719Y-116795802D01*
X138647999Y-116840349D01*
X138670420Y-116907712D01*
X138670500Y-116912210D01*
X138670500Y-117124000D01*
X138650498Y-117192121D01*
X138596842Y-117238614D01*
X138544500Y-117250000D01*
X136980500Y-117250000D01*
X136912379Y-117229998D01*
X136865886Y-117176342D01*
X136854500Y-117124000D01*
X136854500Y-116621291D01*
X136874502Y-116553170D01*
X136891400Y-116532201D01*
X138941185Y-114482416D01*
X139003496Y-114448391D01*
X139074311Y-114453456D01*
G37*
%TD.AperFunction*%
%TA.AperFunction,Conductor*%
G36*
X140528712Y-116175355D02*
G01*
X140539710Y-116179911D01*
X140657220Y-116195381D01*
X140722147Y-116224103D01*
X140729869Y-116231208D01*
X141108595Y-116609934D01*
X141142621Y-116672246D01*
X141145500Y-116699029D01*
X141145500Y-117124000D01*
X141125498Y-117192121D01*
X141071842Y-117238614D01*
X141019500Y-117250000D01*
X140480500Y-117250000D01*
X140412379Y-117229998D01*
X140365886Y-117176342D01*
X140354500Y-117124000D01*
X140354500Y-116291766D01*
X140374502Y-116223645D01*
X140428158Y-116177152D01*
X140498432Y-116167048D01*
X140528712Y-116175355D01*
G37*
%TD.AperFunction*%
%TA.AperFunction,Conductor*%
G36*
X145136025Y-111474502D02*
G01*
X145144602Y-111480533D01*
X145238639Y-111552691D01*
X145245192Y-111557719D01*
X145243105Y-111560438D01*
X145281134Y-111600245D01*
X145294638Y-111669945D01*
X145275884Y-111725126D01*
X145215919Y-111820559D01*
X145215918Y-111820562D01*
X145179374Y-111925000D01*
X145159763Y-111981046D01*
X145140726Y-112150000D01*
X145159763Y-112318954D01*
X145172858Y-112356377D01*
X145215918Y-112479437D01*
X145215919Y-112479439D01*
X145306375Y-112623399D01*
X145306377Y-112623402D01*
X145426597Y-112743622D01*
X145426600Y-112743624D01*
X145570563Y-112834082D01*
X145731046Y-112890237D01*
X145900000Y-112909274D01*
X146068954Y-112890237D01*
X146229437Y-112834082D01*
X146292497Y-112794458D01*
X146360816Y-112775153D01*
X146428729Y-112795848D01*
X146474673Y-112849974D01*
X146485532Y-112901146D01*
X146485532Y-113720636D01*
X146465530Y-113788757D01*
X146411874Y-113835250D01*
X146345425Y-113845844D01*
X146300000Y-113840726D01*
X146131046Y-113859763D01*
X146131043Y-113859763D01*
X146131043Y-113859764D01*
X145970562Y-113915918D01*
X145970560Y-113915919D01*
X145826600Y-114006375D01*
X145826597Y-114006377D01*
X145706377Y-114126597D01*
X145706375Y-114126600D01*
X145615919Y-114270560D01*
X145615918Y-114270562D01*
X145603386Y-114306377D01*
X145559763Y-114431046D01*
X145540726Y-114600000D01*
X145559763Y-114768954D01*
X145576817Y-114817692D01*
X145615918Y-114929437D01*
X145615919Y-114929439D01*
X145706375Y-115073399D01*
X145706377Y-115073402D01*
X145826597Y-115193622D01*
X145826600Y-115193624D01*
X145970563Y-115284082D01*
X146131046Y-115340237D01*
X146300000Y-115359274D01*
X146468954Y-115340237D01*
X146585458Y-115299470D01*
X146656359Y-115295851D01*
X146717964Y-115331140D01*
X146750711Y-115394133D01*
X146744203Y-115464831D01*
X146716165Y-115507495D01*
X145992453Y-116231208D01*
X145282332Y-116941329D01*
X145265740Y-116957921D01*
X145216330Y-117007330D01*
X145216326Y-117007335D01*
X145169661Y-117088162D01*
X145169659Y-117088166D01*
X145169659Y-117088168D01*
X145151318Y-117156614D01*
X145114368Y-117217234D01*
X145050507Y-117248256D01*
X145029613Y-117250000D01*
X144480500Y-117250000D01*
X144412379Y-117229998D01*
X144365886Y-117176342D01*
X144354500Y-117124000D01*
X144354500Y-116203329D01*
X144354499Y-116203325D01*
X144347005Y-116175358D01*
X144330341Y-116113168D01*
X144328330Y-116109684D01*
X144283673Y-116032335D01*
X144283669Y-116032330D01*
X144250839Y-115999500D01*
X144217668Y-115966329D01*
X144104326Y-115852987D01*
X144070300Y-115790675D01*
X144075365Y-115719860D01*
X144117912Y-115663024D01*
X144165389Y-115641050D01*
X144168942Y-115640238D01*
X144168954Y-115640237D01*
X144329437Y-115584082D01*
X144473400Y-115493624D01*
X144593624Y-115373400D01*
X144684082Y-115229437D01*
X144740237Y-115068954D01*
X144759274Y-114900000D01*
X144740237Y-114731046D01*
X144684082Y-114570563D01*
X144593624Y-114426600D01*
X144593622Y-114426597D01*
X144473402Y-114306377D01*
X144473399Y-114306375D01*
X144329439Y-114215919D01*
X144329437Y-114215918D01*
X144223490Y-114178846D01*
X144168954Y-114159763D01*
X144000000Y-114140726D01*
X143831046Y-114159763D01*
X143831043Y-114159763D01*
X143831043Y-114159764D01*
X143670562Y-114215918D01*
X143670560Y-114215919D01*
X143526600Y-114306375D01*
X143526597Y-114306377D01*
X143406377Y-114426597D01*
X143406375Y-114426600D01*
X143315920Y-114570558D01*
X143315918Y-114570562D01*
X143315918Y-114570563D01*
X143265161Y-114715617D01*
X143223785Y-114773306D01*
X143157785Y-114799469D01*
X143146234Y-114800000D01*
X142753767Y-114800000D01*
X142685646Y-114779998D01*
X142639153Y-114726342D01*
X142634838Y-114715615D01*
X142602956Y-114624502D01*
X142584082Y-114570563D01*
X142493624Y-114426600D01*
X142493622Y-114426597D01*
X142373402Y-114306377D01*
X142373399Y-114306375D01*
X142229439Y-114215919D01*
X142229437Y-114215918D01*
X142123491Y-114178846D01*
X142065799Y-114137468D01*
X142039637Y-114071468D01*
X142053310Y-114001800D01*
X142076008Y-113970825D01*
X144555430Y-111491405D01*
X144617742Y-111457379D01*
X144644525Y-111454500D01*
X145067904Y-111454500D01*
X145136025Y-111474502D01*
G37*
%TD.AperFunction*%
%TA.AperFunction,Conductor*%
G36*
X150669633Y-108246137D02*
G01*
X150725700Y-108289692D01*
X150749319Y-108356644D01*
X150749500Y-108363388D01*
X150749500Y-115623500D01*
X150729498Y-115691621D01*
X150675842Y-115738114D01*
X150623500Y-115749500D01*
X150469170Y-115749500D01*
X150425000Y-115749500D01*
X150351082Y-115749500D01*
X150278584Y-115763921D01*
X150206086Y-115778342D01*
X150206083Y-115778343D01*
X150069504Y-115834916D01*
X149946588Y-115917046D01*
X149946581Y-115917051D01*
X149895912Y-115967721D01*
X149833600Y-116001747D01*
X149802191Y-115999500D01*
X149802191Y-116000000D01*
X149505500Y-116000000D01*
X149437379Y-115979998D01*
X149390886Y-115926342D01*
X149379500Y-115874000D01*
X149379500Y-113535125D01*
X149379501Y-113535112D01*
X149379501Y-113425038D01*
X149379500Y-113425034D01*
X149353639Y-113328520D01*
X149322701Y-113274934D01*
X149303676Y-113241981D01*
X149303671Y-113241976D01*
X149303669Y-113241973D01*
X149228630Y-113166934D01*
X149228607Y-113166913D01*
X149043539Y-112981845D01*
X149009513Y-112919533D01*
X149014578Y-112848718D01*
X149057125Y-112791882D01*
X149123645Y-112767071D01*
X149149074Y-112767827D01*
X149186250Y-112772722D01*
X149321540Y-112754911D01*
X149447611Y-112702691D01*
X149472453Y-112683628D01*
X149498296Y-112663799D01*
X149564516Y-112638198D01*
X149634065Y-112652462D01*
X149651704Y-112663799D01*
X149702382Y-112702686D01*
X149702389Y-112702691D01*
X149828460Y-112754911D01*
X149963750Y-112772722D01*
X150099040Y-112754911D01*
X150225111Y-112702691D01*
X150333370Y-112619620D01*
X150416441Y-112511361D01*
X150468661Y-112385290D01*
X150486472Y-112250000D01*
X150468661Y-112114710D01*
X150416441Y-111988639D01*
X150414979Y-111986734D01*
X150333371Y-111880381D01*
X150225109Y-111797307D01*
X150217965Y-111793183D01*
X150219709Y-111790161D01*
X150176963Y-111755676D01*
X150154579Y-111688300D01*
X150154501Y-111683871D01*
X150154501Y-110535130D01*
X150154500Y-110535126D01*
X150143772Y-110495089D01*
X150130342Y-110444969D01*
X150130341Y-110444967D01*
X150083674Y-110364136D01*
X150083670Y-110364131D01*
X150017669Y-110298130D01*
X148745384Y-109025845D01*
X148711358Y-108963533D01*
X148716423Y-108892718D01*
X148734517Y-108860045D01*
X148752691Y-108836361D01*
X148804911Y-108710290D01*
X148822722Y-108575000D01*
X148804911Y-108439710D01*
X148796248Y-108418797D01*
X148788660Y-108348209D01*
X148820439Y-108284722D01*
X148881498Y-108248495D01*
X148937238Y-108247002D01*
X148974933Y-108254500D01*
X149064500Y-108254499D01*
X149132620Y-108274500D01*
X149179113Y-108328156D01*
X149190500Y-108380499D01*
X149190500Y-108400005D01*
X149210253Y-108499307D01*
X149222723Y-108517969D01*
X149266506Y-108583494D01*
X149329502Y-108625587D01*
X149350692Y-108639746D01*
X149350694Y-108639747D01*
X149425848Y-108654696D01*
X149449994Y-108659499D01*
X149449997Y-108659499D01*
X149450000Y-108659500D01*
X149450001Y-108659500D01*
X150049999Y-108659500D01*
X150050000Y-108659500D01*
X150149306Y-108639747D01*
X150233494Y-108583494D01*
X150289747Y-108499306D01*
X150309500Y-108400000D01*
X150309500Y-108380499D01*
X150329502Y-108312378D01*
X150383158Y-108265885D01*
X150435500Y-108254499D01*
X150525064Y-108254499D01*
X150525066Y-108254499D01*
X150598922Y-108239809D01*
X150669633Y-108246137D01*
G37*
%TD.AperFunction*%
%TA.AperFunction,Conductor*%
G36*
X150509793Y-78252051D02*
G01*
X150557388Y-78259589D01*
X150594881Y-78271771D01*
X150628873Y-78289091D01*
X150660765Y-78312263D01*
X150687736Y-78339234D01*
X150710908Y-78371126D01*
X150728228Y-78405118D01*
X150740410Y-78442609D01*
X150747949Y-78490205D01*
X150749500Y-78509917D01*
X150749500Y-105818259D01*
X150729498Y-105886380D01*
X150675842Y-105932873D01*
X150607055Y-105943181D01*
X150486252Y-105927278D01*
X150486250Y-105927278D01*
X150350961Y-105945088D01*
X150224890Y-105997308D01*
X150224882Y-105997313D01*
X150116629Y-106080379D01*
X150033563Y-106188632D01*
X150033558Y-106188640D01*
X149981338Y-106314711D01*
X149965280Y-106436694D01*
X149963528Y-106450000D01*
X149976688Y-106549965D01*
X149981339Y-106585289D01*
X149981767Y-106586887D01*
X149981733Y-106588287D01*
X149982417Y-106593478D01*
X149981607Y-106593584D01*
X149980079Y-106657864D01*
X149940285Y-106716660D01*
X149875021Y-106744609D01*
X149860061Y-106745500D01*
X148974936Y-106745500D01*
X148974926Y-106745501D01*
X148900699Y-106760265D01*
X148816515Y-106816516D01*
X148760266Y-106900696D01*
X148751422Y-106945159D01*
X148718514Y-107008068D01*
X148656818Y-107043199D01*
X148585924Y-107039398D01*
X148538750Y-107009674D01*
X148528938Y-106999862D01*
X148517668Y-106988592D01*
X145941405Y-104412329D01*
X145907379Y-104350017D01*
X145904500Y-104323234D01*
X145904500Y-103946055D01*
X145924502Y-103877934D01*
X145978158Y-103831441D01*
X146048432Y-103821337D01*
X146078712Y-103829645D01*
X146139710Y-103854911D01*
X146228429Y-103866590D01*
X146293355Y-103895312D01*
X146301078Y-103902417D01*
X146716329Y-104317668D01*
X146782332Y-104383671D01*
X146782333Y-104383672D01*
X146782335Y-104383673D01*
X146863166Y-104430340D01*
X146863168Y-104430341D01*
X146953329Y-104454500D01*
X147046671Y-104454500D01*
X147662028Y-104454500D01*
X147730149Y-104474502D01*
X147768715Y-104513464D01*
X147806374Y-104573398D01*
X147806375Y-104573400D01*
X147926597Y-104693622D01*
X147926600Y-104693624D01*
X148070563Y-104784082D01*
X148231046Y-104840237D01*
X148400000Y-104859274D01*
X148568954Y-104840237D01*
X148729437Y-104784082D01*
X148873400Y-104693624D01*
X148993624Y-104573400D01*
X149084082Y-104429437D01*
X149140237Y-104268954D01*
X149159274Y-104100000D01*
X149140237Y-103931046D01*
X149084082Y-103770563D01*
X148993624Y-103626600D01*
X148993623Y-103626599D01*
X148993622Y-103626597D01*
X148873402Y-103506377D01*
X148873399Y-103506375D01*
X148729439Y-103415919D01*
X148729437Y-103415918D01*
X148568954Y-103359763D01*
X148400000Y-103340726D01*
X148231046Y-103359763D01*
X148231043Y-103359763D01*
X148231043Y-103359764D01*
X148070562Y-103415918D01*
X148070560Y-103415919D01*
X147926600Y-103506375D01*
X147926597Y-103506377D01*
X147806375Y-103626599D01*
X147806374Y-103626601D01*
X147768715Y-103686536D01*
X147715537Y-103733574D01*
X147662028Y-103745500D01*
X147199029Y-103745500D01*
X147130908Y-103725498D01*
X147109934Y-103708595D01*
X146852933Y-103451594D01*
X146818907Y-103389282D01*
X146823972Y-103318467D01*
X146852929Y-103273408D01*
X148383671Y-101742668D01*
X148392556Y-101727278D01*
X148430341Y-101661832D01*
X148454500Y-101571671D01*
X148454500Y-90599029D01*
X148474502Y-90530908D01*
X148491405Y-90509934D01*
X150083665Y-88917674D01*
X150083671Y-88917668D01*
X150130341Y-88836832D01*
X150154500Y-88746671D01*
X150154500Y-88653329D01*
X150154500Y-85803329D01*
X150130341Y-85713168D01*
X150083671Y-85632332D01*
X150017668Y-85566329D01*
X149304025Y-84852686D01*
X148567674Y-84116334D01*
X148567664Y-84116326D01*
X148486833Y-84069659D01*
X148396674Y-84045500D01*
X148396671Y-84045500D01*
X142332096Y-84045500D01*
X142263975Y-84025498D01*
X142255397Y-84019466D01*
X142161361Y-83947309D01*
X142094514Y-83919620D01*
X142035288Y-83895088D01*
X141900000Y-83877278D01*
X141764711Y-83895088D01*
X141638640Y-83947308D01*
X141638632Y-83947313D01*
X141530379Y-84030379D01*
X141447313Y-84138632D01*
X141447308Y-84138640D01*
X141395088Y-84264711D01*
X141377278Y-84399999D01*
X141377278Y-84400000D01*
X141395088Y-84535288D01*
X141447308Y-84661359D01*
X141447313Y-84661367D01*
X141530379Y-84769620D01*
X141544608Y-84780538D01*
X141638639Y-84852691D01*
X141764710Y-84904911D01*
X141900000Y-84922722D01*
X142035290Y-84904911D01*
X142161361Y-84852691D01*
X142255392Y-84780537D01*
X142321612Y-84754937D01*
X142332096Y-84754500D01*
X148150971Y-84754500D01*
X148219092Y-84774502D01*
X148240066Y-84791405D01*
X149408595Y-85959934D01*
X149442621Y-86022246D01*
X149445500Y-86049029D01*
X149445500Y-88500971D01*
X149425498Y-88569092D01*
X149408595Y-88590066D01*
X148219595Y-89779066D01*
X148157283Y-89813092D01*
X148086468Y-89808027D01*
X148029632Y-89765480D01*
X148004821Y-89698960D01*
X148004500Y-89689971D01*
X148004500Y-88849028D01*
X148024502Y-88780907D01*
X148041399Y-88759938D01*
X148145132Y-88656205D01*
X148207440Y-88622183D01*
X148217765Y-88620383D01*
X148335290Y-88604911D01*
X148461361Y-88552691D01*
X148569620Y-88469620D01*
X148652691Y-88361361D01*
X148704911Y-88235290D01*
X148722722Y-88100000D01*
X148716139Y-88050000D01*
X148704911Y-87964711D01*
X148684201Y-87914711D01*
X148652691Y-87838639D01*
X148628228Y-87806758D01*
X148569620Y-87730379D01*
X148461367Y-87647313D01*
X148461359Y-87647308D01*
X148335288Y-87595088D01*
X148200000Y-87577278D01*
X148064711Y-87595088D01*
X147938640Y-87647308D01*
X147938632Y-87647313D01*
X147830379Y-87730379D01*
X147780462Y-87795433D01*
X147723124Y-87837300D01*
X147652253Y-87841522D01*
X147590350Y-87806758D01*
X147557069Y-87744045D01*
X147554500Y-87718729D01*
X147554500Y-86032096D01*
X147574502Y-85963975D01*
X147580538Y-85955391D01*
X147652691Y-85861361D01*
X147704911Y-85735290D01*
X147722722Y-85600000D01*
X147704911Y-85464710D01*
X147652691Y-85338639D01*
X147652686Y-85338632D01*
X147569620Y-85230379D01*
X147461367Y-85147313D01*
X147461359Y-85147308D01*
X147335288Y-85095088D01*
X147200000Y-85077278D01*
X147064711Y-85095088D01*
X146938640Y-85147308D01*
X146938632Y-85147313D01*
X146830379Y-85230379D01*
X146747313Y-85338632D01*
X146747308Y-85338640D01*
X146695088Y-85464711D01*
X146677278Y-85599999D01*
X146677278Y-85600000D01*
X146695088Y-85735288D01*
X146747308Y-85861359D01*
X146747311Y-85861363D01*
X146819462Y-85955391D01*
X146845063Y-86021612D01*
X146845500Y-86032096D01*
X146845500Y-87393588D01*
X146825498Y-87461709D01*
X146771842Y-87508202D01*
X146701568Y-87518306D01*
X146671284Y-87509998D01*
X146635288Y-87495088D01*
X146500000Y-87477278D01*
X146364711Y-87495088D01*
X146238640Y-87547308D01*
X146238632Y-87547313D01*
X146130379Y-87630379D01*
X146047313Y-87738632D01*
X146047308Y-87738640D01*
X145995088Y-87864711D01*
X145977278Y-87999999D01*
X145977278Y-88000000D01*
X145995088Y-88135288D01*
X146047308Y-88261359D01*
X146047313Y-88261367D01*
X146130379Y-88369620D01*
X146192041Y-88416935D01*
X146238639Y-88452691D01*
X146317719Y-88485447D01*
X146372998Y-88529992D01*
X146395420Y-88597355D01*
X146395500Y-88601854D01*
X146395500Y-93424000D01*
X146375498Y-93492121D01*
X146321842Y-93538614D01*
X146269500Y-93550000D01*
X145900793Y-93550000D01*
X145832672Y-93529998D01*
X145811699Y-93513096D01*
X145767669Y-93469067D01*
X145767668Y-93469066D01*
X142864937Y-90566334D01*
X142864927Y-90566326D01*
X142784096Y-90519659D01*
X142693937Y-90495500D01*
X142693934Y-90495500D01*
X142632096Y-90495500D01*
X142563975Y-90475498D01*
X142555397Y-90469466D01*
X142461361Y-90397309D01*
X142340660Y-90347313D01*
X142335288Y-90345088D01*
X142200000Y-90327278D01*
X142064711Y-90345088D01*
X141938640Y-90397308D01*
X141938632Y-90397313D01*
X141830381Y-90480378D01*
X141767222Y-90562687D01*
X141709883Y-90604554D01*
X141639012Y-90608775D01*
X141577109Y-90574010D01*
X141558035Y-90545086D01*
X141556818Y-90545789D01*
X141552691Y-90538640D01*
X141552691Y-90538639D01*
X141507987Y-90480380D01*
X141469620Y-90430379D01*
X141361367Y-90347313D01*
X141361359Y-90347308D01*
X141235288Y-90295088D01*
X141100000Y-90277278D01*
X140964711Y-90295088D01*
X140838640Y-90347308D01*
X140838632Y-90347313D01*
X140730379Y-90430379D01*
X140647313Y-90538632D01*
X140647308Y-90538640D01*
X140595088Y-90664711D01*
X140577278Y-90799999D01*
X140577278Y-90800000D01*
X140595088Y-90935288D01*
X140647308Y-91061359D01*
X140647313Y-91061367D01*
X140730379Y-91169620D01*
X140826137Y-91243098D01*
X140838639Y-91252691D01*
X140964708Y-91304910D01*
X140964707Y-91304910D01*
X140964710Y-91304911D01*
X140970205Y-91305634D01*
X141035131Y-91334351D01*
X141042859Y-91341461D01*
X144758595Y-95057197D01*
X144792621Y-95119509D01*
X144795500Y-95146292D01*
X144795500Y-104734619D01*
X144795705Y-104735384D01*
X144800000Y-104768002D01*
X144800000Y-106151503D01*
X144779998Y-106219624D01*
X144726342Y-106266117D01*
X144674000Y-106277503D01*
X131816387Y-106277503D01*
X131748266Y-106257501D01*
X131727292Y-106240598D01*
X130666405Y-105179711D01*
X130632379Y-105117399D01*
X130629500Y-105090616D01*
X130629500Y-102947716D01*
X130649502Y-102879595D01*
X130703158Y-102833102D01*
X130773432Y-102822998D01*
X130832206Y-102847755D01*
X130838639Y-102852691D01*
X130964710Y-102904911D01*
X131100000Y-102922722D01*
X131235290Y-102904911D01*
X131361361Y-102852691D01*
X131469620Y-102769620D01*
X131552691Y-102661361D01*
X131604911Y-102535290D01*
X131622722Y-102400000D01*
X131604911Y-102264710D01*
X131552691Y-102138639D01*
X131552686Y-102138632D01*
X131469620Y-102030379D01*
X131361367Y-101947313D01*
X131361359Y-101947308D01*
X131235288Y-101895088D01*
X131100000Y-101877278D01*
X130964711Y-101895088D01*
X130857098Y-101939662D01*
X130838642Y-101947308D01*
X130838632Y-101947312D01*
X130832201Y-101952247D01*
X130765981Y-101977846D01*
X130696432Y-101963580D01*
X130645637Y-101913977D01*
X130629500Y-101852283D01*
X130629500Y-101599999D01*
X133327278Y-101599999D01*
X133327278Y-101600000D01*
X133345088Y-101735288D01*
X133397308Y-101861359D01*
X133397313Y-101861367D01*
X133480379Y-101969620D01*
X133588632Y-102052686D01*
X133588639Y-102052691D01*
X133714710Y-102104911D01*
X133850000Y-102122722D01*
X133985290Y-102104911D01*
X134111361Y-102052691D01*
X134219620Y-101969620D01*
X134302691Y-101861361D01*
X134354911Y-101735290D01*
X134359660Y-101699210D01*
X134388381Y-101634284D01*
X134395474Y-101626573D01*
X135323681Y-100698369D01*
X135376934Y-100606131D01*
X135404500Y-100503253D01*
X135404500Y-100396747D01*
X135404500Y-88416935D01*
X135424502Y-88348814D01*
X135430529Y-88340242D01*
X135452691Y-88311361D01*
X135504911Y-88185290D01*
X135522722Y-88050000D01*
X135516139Y-88000000D01*
X135511494Y-87964711D01*
X135504911Y-87914710D01*
X135452691Y-87788639D01*
X135452686Y-87788632D01*
X135369620Y-87680379D01*
X135261367Y-87597313D01*
X135261359Y-87597308D01*
X135135288Y-87545088D01*
X135000000Y-87527278D01*
X134864711Y-87545088D01*
X134738640Y-87597308D01*
X134738632Y-87597313D01*
X134630379Y-87680379D01*
X134547313Y-87788632D01*
X134547308Y-87788640D01*
X134495088Y-87914711D01*
X134477278Y-88049999D01*
X134477278Y-88050000D01*
X134495088Y-88185288D01*
X134526598Y-88261359D01*
X134547309Y-88311361D01*
X134569462Y-88340232D01*
X134595063Y-88406450D01*
X134595500Y-88416935D01*
X134595500Y-100230260D01*
X134575498Y-100298381D01*
X134558599Y-100319350D01*
X134180641Y-100697309D01*
X133823438Y-101054512D01*
X133761126Y-101088537D01*
X133750792Y-101090338D01*
X133714711Y-101095088D01*
X133588640Y-101147308D01*
X133588632Y-101147313D01*
X133480379Y-101230379D01*
X133397313Y-101338632D01*
X133397308Y-101338640D01*
X133345088Y-101464711D01*
X133327278Y-101599999D01*
X130629500Y-101599999D01*
X130629500Y-99497715D01*
X130649502Y-99429594D01*
X130703158Y-99383101D01*
X130773432Y-99372997D01*
X130832205Y-99397754D01*
X130838639Y-99402691D01*
X130964710Y-99454911D01*
X131100000Y-99472722D01*
X131235290Y-99454911D01*
X131361361Y-99402691D01*
X131469620Y-99319620D01*
X131552691Y-99211361D01*
X131604911Y-99085290D01*
X131622722Y-98950000D01*
X131604911Y-98814710D01*
X131552691Y-98688639D01*
X131552686Y-98688632D01*
X131469620Y-98580379D01*
X131361367Y-98497313D01*
X131361359Y-98497308D01*
X131235288Y-98445088D01*
X131100000Y-98427278D01*
X130964711Y-98445088D01*
X130838640Y-98497308D01*
X130838637Y-98497310D01*
X130835138Y-98499994D01*
X130832201Y-98502248D01*
X130765982Y-98527847D01*
X130696433Y-98513582D01*
X130645638Y-98463980D01*
X130629500Y-98402284D01*
X130629500Y-97097716D01*
X130649502Y-97029595D01*
X130703158Y-96983102D01*
X130773432Y-96972998D01*
X130832206Y-96997755D01*
X130838639Y-97002691D01*
X130964710Y-97054911D01*
X131100000Y-97072722D01*
X131235290Y-97054911D01*
X131361361Y-97002691D01*
X131469620Y-96919620D01*
X131552691Y-96811361D01*
X131604911Y-96685290D01*
X131622722Y-96550000D01*
X131604911Y-96414710D01*
X131552691Y-96288639D01*
X131552686Y-96288632D01*
X131469620Y-96180379D01*
X131361367Y-96097313D01*
X131361359Y-96097308D01*
X131235288Y-96045088D01*
X131100000Y-96027278D01*
X130964711Y-96045088D01*
X130857098Y-96089662D01*
X130838642Y-96097308D01*
X130838632Y-96097312D01*
X130832201Y-96102247D01*
X130765981Y-96127846D01*
X130696432Y-96113580D01*
X130645637Y-96063977D01*
X130629500Y-96002283D01*
X130629500Y-85659384D01*
X130649502Y-85591263D01*
X130666405Y-85570289D01*
X132270289Y-83966405D01*
X132332601Y-83932379D01*
X132359384Y-83929500D01*
X137000484Y-83929500D01*
X137068605Y-83949502D01*
X137077187Y-83955537D01*
X137138639Y-84002691D01*
X137264710Y-84054911D01*
X137400000Y-84072722D01*
X137535290Y-84054911D01*
X137661361Y-84002691D01*
X137769620Y-83919620D01*
X137852691Y-83811361D01*
X137904911Y-83685290D01*
X137922722Y-83550000D01*
X137904911Y-83414710D01*
X137852691Y-83288639D01*
X137820222Y-83246325D01*
X137769620Y-83180379D01*
X137661367Y-83097313D01*
X137661359Y-83097308D01*
X137535288Y-83045088D01*
X137400000Y-83027278D01*
X137264711Y-83045088D01*
X137138636Y-83097310D01*
X137077189Y-83144462D01*
X137010969Y-83170063D01*
X137000484Y-83170500D01*
X132207696Y-83170500D01*
X132207680Y-83170499D01*
X132199962Y-83170499D01*
X132100038Y-83170499D01*
X132067866Y-83179119D01*
X132023916Y-83190895D01*
X132023915Y-83190896D01*
X132003518Y-83196362D01*
X132003517Y-83196362D01*
X132003515Y-83196363D01*
X132003514Y-83196363D01*
X131916984Y-83246321D01*
X131916979Y-83246325D01*
X131881652Y-83281653D01*
X131846324Y-83316981D01*
X131846322Y-83316983D01*
X130016983Y-85146322D01*
X130016981Y-85146324D01*
X129981653Y-85181652D01*
X129946325Y-85216979D01*
X129946321Y-85216984D01*
X129896361Y-85303519D01*
X129892068Y-85319542D01*
X129870499Y-85400034D01*
X129870499Y-85510112D01*
X129870500Y-85510125D01*
X129870500Y-105242303D01*
X129870499Y-105242321D01*
X129870499Y-105349965D01*
X129890896Y-105426084D01*
X129890897Y-105426086D01*
X129896361Y-105446480D01*
X129946321Y-105533015D01*
X129946329Y-105533025D01*
X130024156Y-105610852D01*
X130024170Y-105610864D01*
X130224210Y-105810904D01*
X130258236Y-105873216D01*
X130253171Y-105944031D01*
X130224210Y-105989094D01*
X130016990Y-106196313D01*
X130016983Y-106196321D01*
X130016983Y-106196322D01*
X130016981Y-106196324D01*
X129993681Y-106219624D01*
X129946325Y-106266979D01*
X129946321Y-106266984D01*
X129896361Y-106353519D01*
X129892068Y-106369542D01*
X129870499Y-106450034D01*
X129870499Y-106560112D01*
X129870500Y-106560125D01*
X129870500Y-108592303D01*
X129870499Y-108592321D01*
X129870499Y-108699965D01*
X129886379Y-108759227D01*
X129892909Y-108783595D01*
X129896362Y-108796482D01*
X129896363Y-108796484D01*
X129896364Y-108796486D01*
X129946321Y-108883015D01*
X129946329Y-108883025D01*
X130024156Y-108960852D01*
X130024170Y-108960864D01*
X131299210Y-110235904D01*
X131333236Y-110298216D01*
X131328171Y-110369031D01*
X131299210Y-110414094D01*
X131266990Y-110446313D01*
X131266983Y-110446321D01*
X131266983Y-110446322D01*
X131266981Y-110446324D01*
X131241872Y-110471433D01*
X131196325Y-110516979D01*
X131196321Y-110516984D01*
X131146362Y-110603516D01*
X131146363Y-110603516D01*
X131146362Y-110603520D01*
X131120499Y-110700036D01*
X131120499Y-110810112D01*
X131120500Y-110810125D01*
X131120500Y-112920896D01*
X131100498Y-112989017D01*
X131046842Y-113035510D01*
X130981347Y-113044926D01*
X130981231Y-113046107D01*
X130975067Y-113045500D01*
X130975066Y-113045500D01*
X130885500Y-113045500D01*
X130817379Y-113025498D01*
X130770886Y-112971842D01*
X130759500Y-112919500D01*
X130759500Y-112900001D01*
X130759499Y-112899994D01*
X130746388Y-112834081D01*
X130739747Y-112800694D01*
X130683494Y-112716506D01*
X130641400Y-112688379D01*
X130599307Y-112660253D01*
X130500005Y-112640500D01*
X130500000Y-112640500D01*
X129900000Y-112640500D01*
X129899994Y-112640500D01*
X129800692Y-112660253D01*
X129716506Y-112716506D01*
X129660253Y-112800692D01*
X129640500Y-112899994D01*
X129640500Y-112919500D01*
X129620498Y-112987621D01*
X129566842Y-113034114D01*
X129514501Y-113045500D01*
X129424937Y-113045500D01*
X129424926Y-113045501D01*
X129401080Y-113050245D01*
X129330366Y-113043916D01*
X129274299Y-113000361D01*
X129250681Y-112933408D01*
X129250500Y-112926666D01*
X129250500Y-78509917D01*
X129252051Y-78490207D01*
X129259589Y-78442611D01*
X129271770Y-78405120D01*
X129289092Y-78371123D01*
X129312260Y-78339237D01*
X129339237Y-78312260D01*
X129371123Y-78289092D01*
X129405120Y-78271770D01*
X129442609Y-78259589D01*
X129490207Y-78252050D01*
X129509917Y-78250500D01*
X129544170Y-78250500D01*
X150455830Y-78250500D01*
X150490083Y-78250500D01*
X150509793Y-78252051D01*
G37*
%TD.AperFunction*%
%TA.AperFunction,Conductor*%
G36*
X141470405Y-110424502D02*
G01*
X141516898Y-110478158D01*
X141527002Y-110548432D01*
X141502248Y-110607203D01*
X141497310Y-110613637D01*
X141497308Y-110613640D01*
X141445088Y-110739711D01*
X141427278Y-110874999D01*
X141427278Y-110875000D01*
X141445088Y-111010288D01*
X141497308Y-111136359D01*
X141497313Y-111136367D01*
X141580379Y-111244620D01*
X141688632Y-111327686D01*
X141688639Y-111327691D01*
X141814710Y-111379911D01*
X141950000Y-111397722D01*
X141957342Y-111396755D01*
X142027490Y-111407691D01*
X142080591Y-111454816D01*
X142099784Y-111523169D01*
X142078976Y-111591048D01*
X142062888Y-111610771D01*
X141635771Y-112037888D01*
X141573459Y-112071914D01*
X141502644Y-112066849D01*
X141445808Y-112024302D01*
X141420997Y-111957782D01*
X141421754Y-111932346D01*
X141422722Y-111925000D01*
X141404911Y-111789710D01*
X141352691Y-111663639D01*
X141352686Y-111663632D01*
X141269620Y-111555379D01*
X141161367Y-111472313D01*
X141161359Y-111472308D01*
X141035288Y-111420088D01*
X140900000Y-111402278D01*
X140764711Y-111420088D01*
X140638640Y-111472308D01*
X140638632Y-111472313D01*
X140530379Y-111555379D01*
X140447313Y-111663632D01*
X140447308Y-111663640D01*
X140395088Y-111789711D01*
X140377278Y-111924998D01*
X140377278Y-111925001D01*
X140382970Y-111968239D01*
X140372030Y-112038387D01*
X140347143Y-112073779D01*
X139555587Y-112865335D01*
X139493275Y-112899361D01*
X139422460Y-112894296D01*
X139365624Y-112851749D01*
X139341285Y-112790347D01*
X139340237Y-112781046D01*
X139284082Y-112620563D01*
X139193624Y-112476600D01*
X139193622Y-112476597D01*
X139073402Y-112356377D01*
X139073399Y-112356375D01*
X138929439Y-112265919D01*
X138929437Y-112265918D01*
X138885369Y-112250498D01*
X138768954Y-112209763D01*
X138600000Y-112190726D01*
X138431045Y-112209763D01*
X138393824Y-112222787D01*
X138374740Y-112229465D01*
X138303837Y-112233083D01*
X138242232Y-112197794D01*
X138216718Y-112158752D01*
X138202692Y-112124890D01*
X138155538Y-112063438D01*
X138129937Y-111997218D01*
X138129500Y-111986734D01*
X138129500Y-111977506D01*
X138129501Y-111977493D01*
X138129501Y-111867419D01*
X138129500Y-111867415D01*
X138107932Y-111786923D01*
X138103638Y-111770900D01*
X138103638Y-111770899D01*
X138056986Y-111690095D01*
X138040249Y-111621103D01*
X138063469Y-111554011D01*
X138119276Y-111510124D01*
X138133499Y-111505390D01*
X138135279Y-111504912D01*
X138135290Y-111504911D01*
X138261361Y-111452691D01*
X138369620Y-111369620D01*
X138452691Y-111261361D01*
X138504911Y-111135290D01*
X138520381Y-111017777D01*
X138549103Y-110952852D01*
X138556195Y-110945142D01*
X139059935Y-110441404D01*
X139122247Y-110407379D01*
X139149030Y-110404500D01*
X141402284Y-110404500D01*
X141470405Y-110424502D01*
G37*
%TD.AperFunction*%
%TA.AperFunction,Conductor*%
G36*
X136016356Y-110724502D02*
G01*
X136037330Y-110741405D01*
X136696228Y-111400303D01*
X136730254Y-111462615D01*
X136725189Y-111533430D01*
X136683837Y-111589360D01*
X136630379Y-111630379D01*
X136547313Y-111738632D01*
X136547308Y-111738640D01*
X136495088Y-111864711D01*
X136480033Y-111979069D01*
X136451310Y-112043996D01*
X136444207Y-112051717D01*
X136262327Y-112233596D01*
X136200018Y-112267620D01*
X136173234Y-112270500D01*
X135698994Y-112270500D01*
X135630873Y-112250498D01*
X135584380Y-112196842D01*
X135574276Y-112126568D01*
X135603770Y-112061988D01*
X135620434Y-112045990D01*
X135623401Y-112043623D01*
X135743622Y-111923402D01*
X135743624Y-111923400D01*
X135834082Y-111779437D01*
X135890237Y-111618954D01*
X135909274Y-111450000D01*
X135890237Y-111281046D01*
X135834082Y-111120563D01*
X135743624Y-110976600D01*
X135743622Y-110976597D01*
X135686620Y-110919595D01*
X135652594Y-110857283D01*
X135657659Y-110786468D01*
X135700206Y-110729632D01*
X135766726Y-110704821D01*
X135775715Y-110704500D01*
X135948235Y-110704500D01*
X136016356Y-110724502D01*
G37*
%TD.AperFunction*%
%TA.AperFunction,Conductor*%
G36*
X145290740Y-107056505D02*
G01*
X145311714Y-107073408D01*
X146074151Y-107835845D01*
X146108177Y-107898157D01*
X146109978Y-107908493D01*
X146120088Y-107985288D01*
X146172308Y-108111359D01*
X146172313Y-108111367D01*
X146255379Y-108219620D01*
X146363632Y-108302686D01*
X146363639Y-108302691D01*
X146489710Y-108354911D01*
X146625000Y-108372722D01*
X146760290Y-108354911D01*
X146792374Y-108341621D01*
X146862958Y-108334031D01*
X146926445Y-108365809D01*
X146962674Y-108426866D01*
X146965511Y-108474475D01*
X146952278Y-108574998D01*
X146952278Y-108575000D01*
X146965845Y-108678054D01*
X146954906Y-108748203D01*
X146907777Y-108801301D01*
X146840923Y-108820500D01*
X140031636Y-108820500D01*
X139963515Y-108800498D01*
X139917022Y-108746842D01*
X139908791Y-108722520D01*
X139906001Y-108710290D01*
X139889670Y-108638690D01*
X139889669Y-108638689D01*
X139889669Y-108638686D01*
X139831552Y-108517976D01*
X139831549Y-108517969D01*
X139814623Y-108496743D01*
X139748017Y-108413211D01*
X139643271Y-108329677D01*
X139643268Y-108329675D01*
X139643265Y-108329673D01*
X139522547Y-108271543D01*
X139522545Y-108271542D01*
X139522542Y-108271541D01*
X139391918Y-108241738D01*
X139324934Y-108241744D01*
X139324928Y-108241745D01*
X139270838Y-108241745D01*
X139270733Y-108241737D01*
X139257190Y-108241738D01*
X139256941Y-108241665D01*
X139204928Y-108241671D01*
X139138136Y-108241678D01*
X139137935Y-108241679D01*
X139007322Y-108271509D01*
X138886615Y-108329659D01*
X138781878Y-108413210D01*
X138781875Y-108413213D01*
X138698361Y-108517970D01*
X138698358Y-108517976D01*
X138640248Y-108638694D01*
X138621133Y-108722515D01*
X138586485Y-108784484D01*
X138523835Y-108817883D01*
X138498287Y-108820500D01*
X132992228Y-108820500D01*
X132924107Y-108800498D01*
X132903133Y-108783595D01*
X132110082Y-107990544D01*
X132076056Y-107928232D01*
X132080286Y-107869081D01*
X132077662Y-107868378D01*
X132079796Y-107860407D01*
X132079799Y-107860402D01*
X132097610Y-107725112D01*
X132079799Y-107589822D01*
X132027579Y-107463751D01*
X132027574Y-107463744D01*
X131944508Y-107355491D01*
X131836252Y-107272423D01*
X131834868Y-107271624D01*
X131833932Y-107270643D01*
X131829697Y-107267393D01*
X131830203Y-107266732D01*
X131785873Y-107220242D01*
X131772435Y-107150529D01*
X131798821Y-107084617D01*
X131856652Y-107043434D01*
X131897865Y-107036503D01*
X145222619Y-107036503D01*
X145290740Y-107056505D01*
G37*
%TD.AperFunction*%
%TD*%
%TA.AperFunction,Conductor*%
%TO.N,+3V3*%
G36*
X135262175Y-110324897D02*
G01*
X135270420Y-110328390D01*
X135273781Y-110336691D01*
X135273723Y-110337761D01*
X135251054Y-110564464D01*
X135246821Y-110572355D01*
X135239412Y-110575000D01*
X135060588Y-110575000D01*
X135052315Y-110571573D01*
X135048946Y-110564464D01*
X135026276Y-110337761D01*
X135028863Y-110329188D01*
X135036754Y-110324955D01*
X135037815Y-110324897D01*
X135150000Y-110324000D01*
X135262175Y-110324897D01*
G37*
%TD.AperFunction*%
%TD*%
%TA.AperFunction,Conductor*%
%TO.N,+3V3*%
G36*
X135262175Y-110324897D02*
G01*
X135270420Y-110328390D01*
X135273781Y-110336691D01*
X135273723Y-110337761D01*
X135251054Y-110564464D01*
X135246821Y-110572355D01*
X135239412Y-110575000D01*
X135060588Y-110575000D01*
X135052315Y-110571573D01*
X135048946Y-110564464D01*
X135026276Y-110337761D01*
X135028863Y-110329188D01*
X135036754Y-110324955D01*
X135037815Y-110324897D01*
X135150000Y-110324000D01*
X135262175Y-110324897D01*
G37*
%TD.AperFunction*%
%TD*%
M02*
