M48
; DRILL file {KiCad 8.0.7-8.0.7-0~ubuntu24.04.1} date 2024-12-23T11:49:02-0500
; FORMAT={-:-/ absolute / metric / decimal}
; #@! TF.CreationDate,2024-12-23T11:49:02-05:00
; #@! TF.GenerationSoftware,Kicad,Pcbnew,8.0.7-8.0.7-0~ubuntu24.04.1
; #@! TF.FileFunction,Plated,1,4,PTH
FMAT,2
METRIC
; #@! TA.AperFunction,Plated,PTH,ViaDrill
T1C0.215
; #@! TA.AperFunction,Plated,PTH,ComponentDrill
T2C3.500
%
G90
G05
T1
X129.55Y-115.25
X129.65Y-105.6
X130.2Y-111.15
X130.7Y-114.9
X130.75Y-116.7
X131.025Y-108.275
X131.1Y-90.55
X131.1Y-92.1
X131.1Y-93.6
X131.1Y-95.05
X131.1Y-96.55
X131.1Y-98.0
X131.1Y-98.95
X131.1Y-100.95
X131.1Y-102.4
X131.1Y-103.9
X131.25Y-85.95
X131.25Y-86.75
X131.25Y-87.55
X131.575Y-107.725
X131.925Y-110.325
X132.1Y-111.65
X132.1Y-115.8
X132.2Y-84.9
X132.25Y-116.85
X132.55Y-107.65
X132.9Y-113.45
X133.75Y-116.85
X133.8Y-115.2
X133.85Y-101.6
X133.9Y-91.1
X133.9Y-93.2
X133.9Y-95.3
X133.9Y-97.4
X133.9Y-99.5
X133.9Y-103.7
X133.9Y-105.8
X135.0Y-88.05
X135.75Y-116.9
X135.8Y-91.1
X135.8Y-93.2
X135.8Y-95.3
X135.8Y-97.4
X135.8Y-99.5
X135.8Y-101.6
X135.8Y-103.7
X135.8Y-105.8
X135.8Y-115.6
X136.075Y-114.0
X136.275Y-111.9
X136.65Y-113.25
X136.7Y-84.8
X137.0Y-112.0
X137.25Y-116.9
X137.4Y-83.55
X137.75Y-112.386
X137.9Y-85.85
X137.9Y-91.1
X137.9Y-93.2
X137.9Y-95.3
X137.9Y-97.4
X137.9Y-99.5
X137.9Y-101.6
X137.9Y-103.7
X137.9Y-105.8
X138.0Y-111.0
X138.25Y-113.875
X138.25Y-115.6
X138.25Y-116.85
X138.75Y-116.3
X139.4Y-87.6
X139.8Y-85.3
X139.9Y-86.8
X140.0Y-91.1
X140.0Y-93.2
X140.0Y-95.3
X140.0Y-97.4
X140.0Y-99.5
X140.0Y-101.6
X140.0Y-103.7
X140.0Y-105.8
X140.0Y-108.1
X140.0Y-111.1
X140.675Y-115.675
X140.75Y-116.85
X140.9Y-111.925
X141.1Y-90.8
X141.9Y-84.4
X141.9Y-85.3
X141.95Y-110.875
X142.1Y-93.2
X142.1Y-95.3
X142.1Y-97.4
X142.1Y-99.5
X142.1Y-101.6
X142.1Y-103.7
X142.1Y-105.8
X142.1Y-108.1
X142.2Y-90.85
X142.95Y-114.25
X143.3Y-110.875
X143.325Y-115.575
X144.2Y-91.1
X144.2Y-93.2
X144.2Y-95.3
X144.2Y-97.4
X144.2Y-99.5
X144.2Y-101.6
X144.2Y-103.7
X144.2Y-105.8
X144.2Y-108.05
X144.9Y-112.1
X144.9Y-113.4
X145.0Y-116.85
X145.5Y-111.1
X146.0Y-81.25
X146.15Y-91.1
X146.15Y-93.25
X146.15Y-95.3
X146.15Y-97.35
X146.25Y-104.425
X146.275Y-100.05
X146.275Y-101.15
X146.275Y-102.25
X146.275Y-103.35
X146.3Y-82.45
X146.5Y-88.0
X146.625Y-107.85
X147.2Y-85.6
X147.3Y-82.45
X147.4Y-78.85
X147.475Y-108.575
X147.475Y-110.225
X148.175Y-110.425
X148.2Y-88.1
X148.25Y-112.725
X148.3Y-108.575
X148.3Y-114.7
X148.775Y-111.0
X149.025Y-106.475
X149.15Y-86.12
X149.15Y-88.23
X149.15Y-90.34
X149.15Y-92.45
X149.15Y-94.56
X149.15Y-96.67
X149.15Y-98.78
X149.15Y-100.89
X149.15Y-102.8
X149.186Y-112.25
X149.6Y-78.85
X149.7Y-115.6
X149.964Y-112.25
X150.0Y-82.15
X150.35Y-115.0
X150.45Y-86.12
X150.45Y-88.23
X150.45Y-90.34
X150.45Y-92.45
X150.45Y-94.56
X150.45Y-96.67
X150.45Y-98.78
X150.45Y-100.89
X150.45Y-102.8
X150.45Y-109.95
X150.486Y-106.45
T2
X140.0Y-78.0
M30
