%TF.GenerationSoftware,KiCad,Pcbnew,8.0.7-8.0.7-0~ubuntu24.04.1*%
%TF.CreationDate,2024-12-23T11:48:45-05:00*%
%TF.ProjectId,gnssBoard,676e7373-426f-4617-9264-2e6b69636164,rev?*%
%TF.SameCoordinates,Original*%
%TF.FileFunction,Paste,Top*%
%TF.FilePolarity,Positive*%
%FSLAX46Y46*%
G04 Gerber Fmt 4.6, Leading zero omitted, Abs format (unit mm)*
G04 Created by KiCad (PCBNEW 8.0.7-8.0.7-0~ubuntu24.04.1) date 2024-12-23 11:48:45*
%MOMM*%
%LPD*%
G01*
G04 APERTURE LIST*
G04 Aperture macros list*
%AMRoundRect*
0 Rectangle with rounded corners*
0 $1 Rounding radius*
0 $2 $3 $4 $5 $6 $7 $8 $9 X,Y pos of 4 corners*
0 Add a 4 corners polygon primitive as box body*
4,1,4,$2,$3,$4,$5,$6,$7,$8,$9,$2,$3,0*
0 Add four circle primitives for the rounded corners*
1,1,$1+$1,$2,$3*
1,1,$1+$1,$4,$5*
1,1,$1+$1,$6,$7*
1,1,$1+$1,$8,$9*
0 Add four rect primitives between the rounded corners*
20,1,$1+$1,$2,$3,$4,$5,0*
20,1,$1+$1,$4,$5,$6,$7,0*
20,1,$1+$1,$6,$7,$8,$9,0*
20,1,$1+$1,$8,$9,$2,$3,0*%
G04 Aperture macros list end*
%ADD10RoundRect,0.217750X-0.217750X-0.267250X0.217750X-0.267250X0.217750X0.267250X-0.217750X0.267250X0*%
%ADD11RoundRect,0.137500X0.152500X-0.137500X0.152500X0.137500X-0.152500X0.137500X-0.152500X-0.137500X0*%
%ADD12RoundRect,0.145000X0.145000X-0.155000X0.145000X0.155000X-0.145000X0.155000X-0.145000X-0.155000X0*%
%ADD13RoundRect,0.137500X0.137500X0.152500X-0.137500X0.152500X-0.137500X-0.152500X0.137500X-0.152500X0*%
%ADD14RoundRect,0.145000X0.155000X0.145000X-0.155000X0.145000X-0.155000X-0.145000X0.155000X-0.145000X0*%
%ADD15RoundRect,0.137500X0.262500X0.137500X-0.262500X0.137500X-0.262500X-0.137500X0.262500X-0.137500X0*%
%ADD16RoundRect,0.200000X-0.200000X-0.200000X0.200000X-0.200000X0.200000X0.200000X-0.200000X0.200000X0*%
%ADD17RoundRect,0.217750X-0.267250X0.217750X-0.267250X-0.217750X0.267250X-0.217750X0.267250X0.217750X0*%
%ADD18RoundRect,0.050000X0.050000X-0.300000X0.050000X0.300000X-0.050000X0.300000X-0.050000X-0.300000X0*%
%ADD19RoundRect,0.050000X0.300000X0.050000X-0.300000X0.050000X-0.300000X-0.050000X0.300000X-0.050000X0*%
%ADD20RoundRect,0.050000X-0.050000X0.300000X-0.050000X-0.300000X0.050000X-0.300000X0.050000X0.300000X0*%
%ADD21RoundRect,0.050000X-0.300000X-0.050000X0.300000X-0.050000X0.300000X0.050000X-0.300000X0.050000X0*%
%ADD22RoundRect,0.217750X0.267250X-0.217750X0.267250X0.217750X-0.267250X0.217750X-0.267250X-0.217750X0*%
%ADD23RoundRect,0.200000X-0.200000X0.200000X-0.200000X-0.200000X0.200000X-0.200000X0.200000X0.200000X0*%
%ADD24R,1.498600X0.812800*%
%ADD25R,0.812800X1.498600*%
%ADD26R,1.092200X1.092200*%
%ADD27RoundRect,0.137500X-0.152500X0.137500X-0.152500X-0.137500X0.152500X-0.137500X0.152500X0.137500X0*%
%ADD28RoundRect,0.145000X-0.145000X0.155000X-0.145000X-0.155000X0.145000X-0.155000X0.145000X0.155000X0*%
%ADD29RoundRect,0.087500X-0.237500X-0.087500X0.237500X-0.087500X0.237500X0.087500X-0.237500X0.087500X0*%
%ADD30RoundRect,0.050000X-0.775000X-1.125000X0.775000X-1.125000X0.775000X1.125000X-0.775000X1.125000X0*%
%ADD31RoundRect,0.190000X0.205000X-0.190000X0.205000X0.190000X-0.205000X0.190000X-0.205000X-0.190000X0*%
%ADD32RoundRect,0.137500X-0.137500X-0.152500X0.137500X-0.152500X0.137500X0.152500X-0.137500X0.152500X0*%
%ADD33RoundRect,0.145000X-0.155000X-0.145000X0.155000X-0.145000X0.155000X0.145000X-0.155000X0.145000X0*%
%ADD34RoundRect,0.205000X-0.259500X0.205000X-0.259500X-0.205000X0.259500X-0.205000X0.259500X0.205000X0*%
%ADD35RoundRect,0.100000X-0.100000X-0.250000X0.100000X-0.250000X0.100000X0.250000X-0.100000X0.250000X0*%
%ADD36RoundRect,0.100000X0.100000X0.150000X-0.100000X0.150000X-0.100000X-0.150000X0.100000X-0.150000X0*%
%ADD37RoundRect,0.100000X0.155000X-0.100000X0.155000X0.100000X-0.155000X0.100000X-0.155000X-0.100000X0*%
%ADD38RoundRect,0.250000X0.250000X0.275000X-0.250000X0.275000X-0.250000X-0.275000X0.250000X-0.275000X0*%
%ADD39RoundRect,0.262500X0.262500X0.837500X-0.262500X0.837500X-0.262500X-0.837500X0.262500X-0.837500X0*%
%ADD40RoundRect,0.187500X-0.187500X0.875000X-0.187500X-0.875000X0.187500X-0.875000X0.187500X0.875000X0*%
G04 APERTURE END LIST*
D10*
%TO.C,C9*%
X135150000Y-85850000D03*
X136650000Y-85850000D03*
%TD*%
D11*
%TO.C,R3*%
X132900000Y-112640000D03*
D12*
X132900000Y-111685000D03*
%TD*%
D13*
%TO.C,R12*%
X141140000Y-87600000D03*
D14*
X140185000Y-87600000D03*
%TD*%
D15*
%TO.C,U4*%
X140700000Y-84350000D03*
X140700000Y-85300000D03*
X140700000Y-86250000D03*
X143100000Y-86250000D03*
X143100000Y-84350000D03*
%TD*%
D16*
%TO.C,D1*%
X131450000Y-114100000D03*
X129950000Y-114100000D03*
%TD*%
D13*
%TO.C,R2*%
X133790000Y-114300000D03*
D14*
X132835000Y-114300000D03*
%TD*%
D11*
%TO.C,R9*%
X149000000Y-113990000D03*
D12*
X149000000Y-113035000D03*
%TD*%
D17*
%TO.C,C1*%
X147625000Y-112050000D03*
X147625000Y-113550000D03*
%TD*%
D18*
%TO.C,U2*%
X134050000Y-112850000D03*
X134450000Y-112850000D03*
X134850000Y-112850000D03*
X135250000Y-112850000D03*
X135650000Y-112850000D03*
D19*
X135700000Y-112150000D03*
D20*
X135650000Y-111450000D03*
X135250000Y-111450000D03*
X134850000Y-111450000D03*
X134450000Y-111450000D03*
X134050000Y-111450000D03*
D21*
X134000000Y-112150000D03*
%TD*%
D13*
%TO.C,R4*%
X135940000Y-87250000D03*
D14*
X134985000Y-87250000D03*
%TD*%
D11*
%TO.C,R11*%
X138900000Y-112390000D03*
D12*
X138900000Y-111435000D03*
%TD*%
D22*
%TO.C,C6*%
X130250000Y-101700000D03*
X130250000Y-100200000D03*
%TD*%
%TO.C,C4*%
X130250000Y-95800000D03*
X130250000Y-94300000D03*
%TD*%
D23*
%TO.C,D4*%
X149850000Y-110700000D03*
X149850000Y-109200000D03*
%TD*%
D24*
%TO.C,U3*%
X147450000Y-106650000D03*
X147450000Y-105550001D03*
X147450000Y-104450000D03*
X147450000Y-103350000D03*
X147450000Y-102250000D03*
X147450000Y-101149999D03*
X147450000Y-100049999D03*
X147450000Y-98950001D03*
X147450000Y-97850001D03*
X147450000Y-96750000D03*
X147450000Y-95650000D03*
X147450000Y-94550000D03*
X147450000Y-93449999D03*
X147450000Y-92349999D03*
D25*
X146599999Y-89550000D03*
X145499999Y-89550000D03*
X144399999Y-89550000D03*
X143300001Y-89550000D03*
X142200001Y-89550000D03*
X141100000Y-89550000D03*
X140000000Y-89550000D03*
X138900000Y-89550000D03*
X137799999Y-89550000D03*
X136699999Y-89550000D03*
X135599999Y-89550000D03*
X134499998Y-89550000D03*
X133399998Y-89550000D03*
D24*
X132550000Y-92349999D03*
X132550000Y-93449999D03*
X132550000Y-94550000D03*
X132550000Y-95650000D03*
X132550000Y-96750000D03*
X132550000Y-97850001D03*
X132550000Y-98950001D03*
X132550000Y-100049999D03*
X132550000Y-101149999D03*
X132550000Y-102250000D03*
X132550000Y-103350000D03*
X132550000Y-104450000D03*
X132550000Y-105550001D03*
X132550000Y-106650001D03*
D25*
X133400001Y-109450000D03*
X134500001Y-109450000D03*
X135600001Y-109450000D03*
X136699999Y-109450000D03*
X137799999Y-109450000D03*
X138900000Y-109450000D03*
X140000000Y-109450000D03*
X141100000Y-109450000D03*
X142200001Y-109450000D03*
X143300001Y-109450000D03*
X144400001Y-109450000D03*
X145500002Y-109450000D03*
X146600002Y-109450000D03*
D26*
X145250000Y-106850000D03*
X143149999Y-106850000D03*
X141050000Y-106850000D03*
X138950000Y-106850000D03*
X136850001Y-106850000D03*
X134750000Y-106850000D03*
X145250000Y-104750000D03*
X143149999Y-104750000D03*
X141050000Y-104750000D03*
X138950000Y-104750000D03*
X136850001Y-104750000D03*
X134750000Y-104750000D03*
X145250000Y-102650000D03*
X143149999Y-102650000D03*
X141050000Y-102650000D03*
X138950000Y-102650000D03*
X136850001Y-102650000D03*
X134750000Y-102650000D03*
X145250000Y-100550000D03*
X143149999Y-100550000D03*
X141050000Y-100550000D03*
X138950000Y-100550000D03*
X136850001Y-100550000D03*
X134750000Y-100550000D03*
X145250000Y-98450000D03*
X143149999Y-98450000D03*
X141050000Y-98450000D03*
X138950000Y-98450000D03*
X136850001Y-98450000D03*
X134750000Y-98450000D03*
X145250000Y-96350000D03*
X143149999Y-96350000D03*
X141050000Y-96350000D03*
X138950000Y-96350000D03*
X136850001Y-96350000D03*
X134750000Y-96350000D03*
X145250000Y-94250000D03*
X143149999Y-94250000D03*
X141050000Y-94250000D03*
X138950000Y-94250000D03*
X136850001Y-94250000D03*
X134750000Y-94250000D03*
X145250000Y-92150000D03*
X143149999Y-92150000D03*
X141050000Y-92150000D03*
X138950000Y-92150000D03*
X136850001Y-92150000D03*
X134750000Y-92150000D03*
%TD*%
D27*
%TO.C,R8*%
X148200000Y-86310000D03*
D28*
X148200000Y-87265000D03*
%TD*%
D22*
%TO.C,C8*%
X130250000Y-92850000D03*
X130250000Y-91350000D03*
%TD*%
D17*
%TO.C,C7*%
X130250000Y-103150000D03*
X130250000Y-104650000D03*
%TD*%
D29*
%TO.C,U1*%
X143575000Y-111775000D03*
X143575000Y-112425000D03*
X143575000Y-113075000D03*
X143575000Y-113725000D03*
X146225000Y-113725000D03*
X146225000Y-113075000D03*
X146225000Y-112425000D03*
X146225000Y-111775000D03*
D30*
X144900000Y-112750000D03*
%TD*%
D31*
%TO.C,D2*%
X138550000Y-83570000D03*
X138550000Y-87180000D03*
%TD*%
D22*
%TO.C,C5*%
X130250000Y-98750000D03*
X130250000Y-97250000D03*
%TD*%
D27*
%TO.C,R6*%
X149850000Y-106710000D03*
D28*
X149850000Y-107665000D03*
%TD*%
D32*
%TO.C,R1*%
X145245000Y-115100000D03*
D33*
X146200000Y-115100000D03*
%TD*%
D34*
%TO.C,R5*%
X144700000Y-85045000D03*
X144700000Y-86555000D03*
%TD*%
D17*
%TO.C,C3*%
X149800000Y-103750000D03*
X149800000Y-105250000D03*
%TD*%
D35*
%TO.C,D3*%
X147800000Y-83575000D03*
X148500000Y-83575000D03*
%TD*%
D36*
%TO.C,L1*%
X148500000Y-85000000D03*
X147700000Y-85000000D03*
%TD*%
D37*
%TO.C,Q1*%
X147150000Y-87300000D03*
X147150000Y-86300000D03*
X145850000Y-86800000D03*
%TD*%
D13*
%TO.C,R10*%
X143390000Y-87600000D03*
D14*
X142435000Y-87600000D03*
%TD*%
D38*
%TO.C,AE1*%
X148500000Y-82025000D03*
D39*
X149975000Y-80500000D03*
D38*
X148500000Y-78975000D03*
D39*
X147025000Y-80500000D03*
%TD*%
D17*
%TO.C,C2*%
X141950000Y-111800000D03*
X141950000Y-113300000D03*
%TD*%
D11*
%TO.C,R7*%
X150150000Y-113990000D03*
D12*
X150150000Y-113035000D03*
%TD*%
D22*
%TO.C,C10*%
X146300000Y-85000000D03*
X146300000Y-83500000D03*
%TD*%
D40*
%TO.C,BT1*%
X133700000Y-86748750D03*
X132200000Y-86748750D03*
%TD*%
M02*
